<?xml version="1.0" encoding="iso-8859-1"?>
<!-- Generator: Adobe Illustrator 21.1.0, SVG Export Plug-In . SVG Version: 6.00 Build 0)  -->
<svg version="1.1" id="_x32_" xmlns="http://www.w3.org/2000/svg" xmlns:xlink="http://www.w3.org/1999/xlink" x="0px" y="0px"
	 viewBox="0 0 512 512" style="enable-background:new 0 0 512 512;" xml:space="preserve">
<g>
	<g>
		<g>
			<path style="fill:#FFFFFF;" d="M439.122,328.902C439.122,430.028,357.126,512,256,512c-8.155,0-16.191-0.522-24.061-1.565
				c-89.747-11.781-159.061-88.562-159.061-181.533c0-54.237,23.563-102.951,61.04-136.494
				c32.405-28.991,75.169-46.628,122.081-46.628c63.885,0,120.137,32.713,152.85,82.304c3.01,4.504,5.784,9.15,8.368,13.915
				C431.204,267.862,439.122,297.445,439.122,328.902z"/>
			<path style="fill:#DBDBDB;" d="M417.218,241.999c-1.205-2.231-2.47-4.424-3.763-6.598c-0.213-0.358-0.432-0.713-0.648-1.069
				c-32.06-53.065-90.275-88.552-156.807-88.552c-46.912,0-89.676,17.637-122.081,46.628
				c16.238,69.077,78.274,120.493,152.305,120.493c20,0,39.121-3.756,56.699-10.599c32.624-12.701,65.585,17.756,56.45,51.553
				c-21.33,78.915-99.605,136.677-167.434,156.58C239.809,511.478,247.845,512,256,512c101.126,0,183.122-81.972,183.122-183.098
				C439.122,297.445,431.204,267.862,417.218,241.999z"/>
			<path style="fill:#019991;" d="M148.474,164.579c-26.076,14.223-26.847,80.325,54.522,109.043
				c80.597,28.446,140.35,5.127,168.306-30.817c33.187-42.669,14.223-75.856-21.335-85.338S148.474,164.579,148.474,164.579z"/>
			<circle style="fill:#FFFFFF;" cx="255.997" cy="126.223" r="126.223"/>
			
				<ellipse transform="matrix(0.1207 -0.9927 0.9927 0.1207 -167.3351 448.4182)" style="fill:#3F210E;" cx="169.442" cy="318.662" rx="14.516" ry="9.848"/>
			
				<ellipse transform="matrix(0.1207 -0.9927 0.9927 0.1207 27.6057 274.9832)" style="fill:#3F210E;" cx="169.018" cy="121.91" rx="9.314" ry="6.319"/>
			
				<ellipse transform="matrix(0.1207 -0.9927 0.9927 0.1207 83.0543 377.143)" style="fill:#3F210E;" cx="254.405" cy="141.692" rx="9.314" ry="6.319"/>
			<ellipse style="fill:#3F210E;" cx="162.331" cy="373.183" rx="9.848" ry="14.516"/>
			
				<ellipse transform="matrix(0.9988 -0.0493 0.0493 0.9988 -20.9961 8.5401)" style="fill:#3F210E;" cx="162.697" cy="430.075" rx="9.848" ry="14.516"/>
		</g>
	</g>
	<path style="fill:#019991;" d="M255.147,261.769c0,0,28.446,61.633,28.446,144.601c16.594,16.594,54.522,0,61.633-9.482
		c7.112-9.482-2.371-94.82-45.04-135.119H255.147z"/>
	<path style="fill:#019991;" d="M328.632,264.14c0,0,20.941,29.666,37.369,74.025c6.395,17.267-2.672,36.949-20.331,42.166
		c-4.889,1.445-9.926,1.741-14.668-0.037c-18.964-7.112-37.928-109.043-37.928-109.043L328.632,264.14z"/>
	<g>
		<path style="fill:#DC5518;" d="M182.963,197.749c2.132,4.681,6.057,8.26,10.793,10.653c4.748,2.396,10.355,3.652,16.175,3.656
			c9.375,0,19.404-3.298,26.978-10.863c1.138-1.138,1.138-2.984,0-4.122c-1.138-1.138-2.984-1.138-4.122,0
			c-6.31,6.318-14.815,9.155-22.856,9.155c-4.973,0.003-9.731-1.096-13.545-3.029c-3.827-1.935-6.662-4.656-8.115-7.862
			c-0.666-1.466-2.394-2.114-3.86-1.447C182.945,194.556,182.297,196.284,182.963,197.749L182.963,197.749z"/>
	</g>
	<path style="fill:#DC5518;" d="M198.079,176.431c-26.503,0-21.335-33.187,2.37-26.076
		C223.268,157.201,209.931,176.431,198.079,176.431z"/>
</g>
</svg>
