<?xml version="1.0" encoding="iso-8859-1"?>
<!-- Generator: Adobe Illustrator 15.1.0, SVG Export Plug-In . SVG Version: 6.00 Build 0)  -->
<!DOCTYPE svg PUBLIC "-//W3C//DTD SVG 1.1//EN" "http://www.w3.org/Graphics/SVG/1.1/DTD/svg11.dtd">
<svg version="1.1" id="_x36_" xmlns="http://www.w3.org/2000/svg" xmlns:xlink="http://www.w3.org/1999/xlink" x="0px" y="0px"
	 width="512px" height="512px" viewBox="0 0 512 512" style="enable-background:new 0 0 512 512;" xml:space="preserve">
<g>
	<g>
		<g>
			<path style="fill:#F5F5F5;" d="M217.276,219.047c0.348-2.042,10.255-60.348,10.466-61.573c0.206-1.226,1.285-5.064-1.336-3.27
				c-3.033,2.074-10.58,6.483-10.58,6.483l-24.55,36.043c0,0,4.928-29.004,5.484-32.271c0.556-3.269,0.367-5.267-1.659-4.25
				c0,0-8.476,5.013-9.556,6.52c-2.759,3.854-29.168,60.044-51.85,75.169c-22.681,15.126-27.387,4.364-25.443-7.075
				c5.176-1.358,10.577-8.893,6.287-10.322c-3.851-1.282-9.223,5.156-9.895,13.374c-0.384,4.67-0.184,18.268,14.687,14.039
				c14.873-4.229,31.795-13.974,63.873-62.464c-2.33,11.507-3.055,17.975-3.611,21.243c-0.556,3.268-0.622,8.034,4.682,3.129
				c5.302-4.905,25.524-36.232,25.524-36.232s-6.804,40.034-7.498,44.12c-0.694,4.085-3.906,5.449-6.21,5.858l-0.627,3.676
				l23.811-4.233l0.556-3.27C219.83,223.742,216.374,224.364,217.276,219.047z M183.71,208.376c0,0-0.471,1.67-1.446,3.032
				c-0.976,1.362-1.083-0.204-0.841-1.634c0.245-1.43,3.957-23.285,3.957-23.285l2.737-4.053L183.71,208.376z M206.038,223.819
				l-2.305,0.41l8.057-47.389l0.137-0.817l2.964-4.289L206.038,223.819z"/>
			<path style="fill:#F5F5F5;" d="M245.707,215.378c-2.793,1.817-9.493,3.272-12.452,1.685c-3.492-1.874,0.715-5.672,0.715-5.672
				c3.514-1.682,14.041-8.461,16.539-14.034c3.599-8.036-4.857-12.343-12.323-7.844c-7.467,4.497-11.999,12.169-13.62,21.701
				s4.554,13.692,11.233,12.793c6.099-0.821,9.68-4.362,11.587-6.814C249.292,214.741,248.498,213.562,245.707,215.378z
				 M238.284,194.776c5.977-4.495,8.583,0.954,7.846,2.038c-2.649,3.906-11.328,9.675-11.328,9.675
				c-1.116,0.724-2.266-0.39-1.895-2.568C233.277,201.742,233.443,198.417,238.284,194.776z"/>
			<path style="fill:#F5F5F5;" d="M263.789,212.69c-0.322,1.907,1.332,2.405,1.332,2.405l-0.325,1.907l-10.496,1.866l0.325-1.907
				c0,0,2.232-1.453,2.511-3.087c0.277-1.633,3.007-17.702,3.563-20.969c0.556-3.269-3.733-3.769-3.169-4.719
				c1.395-2.361,4.598-4.351,6.863-3.863c3.352,0.727,2.355,5.128,1.799,8.397c3.765-7.537,9.648-14.391,14.653-13.17
				c5.007,1.221,1.357,6.624-0.831,7.807c-2.187,1.182-3.398-0.452-3.398-0.452s-9.107,5.384-10.393,12.94
				C265.39,204.746,263.789,212.69,263.789,212.69z"/>
			<path style="fill:#F5F5F5;" d="M235.645,302.915c-0.326,1.905,1.327,2.403,1.327,2.403l-0.323,1.905l-10.497,1.866l0.324-1.905
				c0,0,2.233-1.453,2.509-3.087c0.279-1.635,3.011-17.703,3.565-20.971c0.556-3.269-3.732-3.769-3.17-4.719
				c1.395-2.361,4.597-4.352,6.863-3.861c3.353,0.726,2.356,5.127,1.801,8.395c3.763-7.536,9.645-14.391,14.654-13.169
				c5.004,1.222,1.355,6.625-0.833,7.807c-2.188,1.181-3.399-0.452-3.399-0.452s-9.107,5.382-10.391,12.939
				C237.24,294.97,235.645,302.915,235.645,302.915z"/>
			<path style="fill:#F5F5F5;" d="M291.442,207.773c-0.324,1.906,1.33,2.405,1.33,2.405l-0.328,1.906l-10.494,1.866l0.323-1.906
				c0,0,2.234-1.454,2.512-3.087c0.276-1.633,3.009-17.701,3.563-20.971c0.556-3.266-3.732-3.766-3.17-4.718
				c1.396-2.36,4.6-4.351,6.863-3.861c3.353,0.724,2.354,5.128,1.803,8.396c3.763-7.537,9.646-14.393,14.65-13.17
				c5.009,1.221,1.355,6.625-0.831,7.805c-2.185,1.182-3.397-0.452-3.397-0.452s-9.108,5.384-10.392,12.941
				C293.039,199.83,291.442,207.773,291.442,207.773z"/>
			<path style="fill:#F5F5F5;" d="M324.092,187.097c-0.939,5.525,1.599,5.538,1.599,5.538c3.331-0.595,7.546-2.571,9.31-12.946
				c1.145-6.738,4.324-8.333,6.596-8.393c2.275-0.061,2.46,2.657,2.46,2.657s-3.15,3.31-3.812,7.21
				c-0.661,3.898-2.101,12.35-4.088,24.05c-1.988,11.7-1.628,9.571-2.951,17.372c-1.328,7.799-9.378,17.138-15.195,17.142
				c-5.818,0.003-6.467-9.51-1.594-17.251c4.871-7.744,17.222-19.566,24.341-21.52c1.606,0.059,1.699,1.417-0.876,3.249
				c-2.572,1.834-11.442,10.289-16.56,15.666c-5.114,5.381-5.928,12.056-1.141,10.519c4.787-1.539,4.415-10.757,5.438-16.782
				c1.025-6.027,2.593-15.245,2.893-17.018c-4.919,5.172-7.349,6.523-10.176,6.622c-3.672,0.131-5.113-2.872-3.607-11.735
				c0.241-1.419,1.026-6.027,1.507-8.863c0.964-5.672-3.24-3.27-2.751-4.097c1.208-2.046,3.99-3.774,5.956-3.349
				c2.911,0.629,4.564,0.67,3.659,6.011L324.092,187.097z"/>
			<path style="fill:#F5F5F5;" d="M214.613,297.936c0.973-5.721-1.654-5.732-1.654-5.732c-3.449,0.613-7.351,4.825-9.177,15.564
				c-1.185,6.974-6.572,6.436-8.924,6.499l0.562-3.304c0,0,1.338-0.211,2.025-4.248c0.685-4.034,2.621-15.421,4.678-27.533
				c2.061-12.109,2.086-12.268,3.458-20.344c1.373-8.074,6.383-14.549,12.404-14.553c6.023-0.002,6.782,8.054,1.739,16.067
				c-5.042,8.014-10.006,11.104-17.375,13.125c-1.661-0.062-2.945-0.825-0.282-2.723c2.665-1.897,5.576-0.327,10.872-5.895
				c5.296-5.569,6.779-15.779,4.208-15.011c-3.249,0.97-3.606,5.472-4.666,11.712c-1.06,6.238-4.202,24.713-4.513,26.548
				c5.093-5.355,7.608-6.752,10.534-6.856c3.801-0.135,5.292,2.976,3.734,12.15c-0.249,1.467-1.061,6.237-1.561,9.174
				c-0.998,5.871,3.354,3.384,2.848,4.239c-1.251,2.121-3.893,3.253-6.166,3.468c-3.063,0.29-4.725-0.693-3.786-6.22
				L214.613,297.936z"/>
			<path style="fill:#F5F5F5;" d="M194.747,261.227c2.224-13.072-10.074-19.602-25.917-9.651
				c-15.843,9.945-25.598,32.282-26.625,51.481c-0.853,15.895,13.617,24.586,33.042,11.555
				c13.661-9.163,24.275-28.879,22.592-36.503c-1.685-7.624-11.385,1.231-7.469,4.498c4.18,7.18-6.179,19.916-15.686,26.559
				c-9.019,6.3-20.76,3.811-16.572-20.824c4.722-27.777,25.311-39.362,30.141-28.337
				C189.446,266.131,193.777,266.945,194.747,261.227z"/>
			<g>
				<path style="fill:#F5F5F5;" d="M264.954,282.361c-0.831,4.903-2.687,15.816-2.687,15.816c-0.324,1.907,1.201,2.429,1.201,2.429
					l-0.323,1.905l-10.495,1.867l0.322-1.906c0,0,2.233-1.453,2.511-3.088c0.279-1.634,1.543-9.076,2.099-12.344
					c0.554-3.269-2.333,0.565-2.726-1.497c-0.21-1.105,1.455-2.653,3.451-4.971c1.867-2.168,4.668-3.694,5.827-3.612
					C266.527,277.132,265.511,279.094,264.954,282.361z"/>
				<path style="fill:#F5F5F5;" d="M267.76,268.79c-0.403,2.37-2.534,4.61-4.761,5.005c-2.228,0.397-3.706-1.2-3.304-3.571
					c0.402-2.367,2.533-4.609,4.762-5.008C266.684,264.822,268.163,266.422,267.76,268.79z"/>
			</g>
			<polygon style="fill:#F5F5F5;" points="165.244,262.345 155.893,317.358 157.758,317.554 167.755,258.729 			"/>
			<path style="fill:#F5F5F5;" d="M410.08,274.711c2.962-5.38,0.595-14.119-6.304-16.068c-9.031-2.552-4.563-9.477,0.104-10.306
				c3.163-0.563,5.858,1.068,7.268,2.177c0.67,0.53,1.418-1.215,1.418-1.215l1.053-6.195l-1.696,0.302l-0.346,2.031
				c0,0-8.339-4.209-15.2,2.264c-5.794,5.467-5.591,11.808,3.352,15.385c10.873,4.347,3.737,29.917-104.061,50.63
				c-132.615,25.483-165.379,14.563-165.379,19.764s-8.321,20.282-13.521,24.443c-8.747,7,177.493-31.659,218.945-44.725
				C383.558,298.114,401.409,290.469,410.08,274.711z"/>
			<g>
				<path style="fill:#F5F5F5;" d="M312.378,262.639c0,0-0.641,1.17-0.917,2.804c-0.279,1.635-2.866,16.855-3.421,20.123
					c-0.556,3.269,2.33-0.566,2.726,1.498c0.211,1.105-1.457,2.653-3.452,4.97c-1.867,2.169-4.667,3.695-5.827,3.612
					c-2.392-0.169-1.376-2.132-0.82-5.399c0.833-4.903,4.01-23.598,4.01-23.598c0.324-1.904-0.818-4.277-0.818-4.277
					c-2.779-1.883,1.084-3.291,3.018-3.507c3.036-0.343,5.657,1.765,5.657,1.765L312.378,262.639z"/>
				<path style="fill:#F5F5F5;" d="M298.729,270.387c0,0,14.794-2.63,16.457-2.925c1.664-0.296,2.403-0.427,2.403-0.427
					s-2.238,4.729-2.794,4.829c-0.555,0.099-14.422,2.563-16.271,2.893c-1.849,0.329-0.948-3.908-0.948-3.908L298.729,270.387z"/>
			</g>
			<g>
				<path style="fill:#F5F5F5;" d="M321.701,265.125c1.711-2.389,4.436-7.127,8.789-7.902c4.354-0.773,2.962,4.493,2.498,7.216
					c-0.462,2.722-3.609,21.243-3.887,22.877c-0.417,2.452-4.489,4.496-7.001,4.678c-2.517,0.184-1.138-1.233,0.135-3.721
					c0.743-1.454,0.927-2.541,1.438-5.539c0.508-2.995,2.268-13.343,2.684-15.795c0.417-2.45-1.584-2.36-2.84-0.815
					C322.261,267.667,320.398,266.94,321.701,265.125z"/>
				<path style="fill:#F5F5F5;" d="M331.061,268.479c1.713-2.39,8.138-9.899,12.49-10.674s2.96,4.492,2.498,7.216
					c-0.463,2.723-3.101,18.246-3.38,19.881c-0.415,2.45-4.487,4.495-7.002,4.679c-2.513,0.182-1.136-1.234,0.137-3.722
					c0.743-1.453,0.929-2.541,1.438-5.539c0.511-2.996,1.944-11.438,2.361-13.889c0.416-2.451-6.515,3.271-7.771,4.814
					C330.576,272.792,329.76,270.295,331.061,268.479z"/>
				<path style="fill:#F5F5F5;" d="M342.838,266.385c1.713-2.39,8.137-9.899,12.489-10.674c4.353-0.773,2.962,4.492,2.498,7.216
					s-2.499,14.707-2.777,16.342c-0.695,4.084,4.263,3.734,1.799,5.488c-1.979,1.409-4.724,2.954-7.543,0.55
					c-0.937-0.797-0.794-4.084-0.286-7.079c0.509-2.996,1.944-11.439,2.36-13.89s-6.514,3.271-7.769,4.814
					C342.354,270.697,341.536,268.2,342.838,266.385z"/>
			</g>
			<path style="fill:#F5F5F5;" d="M294.571,264.272l-1.052,6.195c0,0-0.746,1.746-1.417,1.218c-1.409-1.11-4.104-2.742-7.269-2.18
				c-4.668,0.83-9.136,7.756-0.104,10.308c6.896,1.95,8.992,5.942,6.474,11.543c-3.638,8.089-13.186,9.787-19.536,7.195
				c-0.346,2.031-0.346,2.031-0.346,2.031l-2.333,0.415l1.456-8.576l2.374-0.642c0,0,1.817,3.835,6.618,3.42
				c4.806-0.417,5.685-8.977,1.244-10.946c-8.802-3.907-9.146-9.916-3.353-15.383c6.861-6.473,15.201-2.265,15.201-2.265
				l0.344-2.032L294.571,264.272z"/>
			<path style="fill:#F5F5F5;" d="M383.405,276.754c0-1.452,2.893-17.02,3.473-20.425c0.578-3.404-2.998-6.465-8.419-5.237
				c-2.02,0.457-11.032,3.545-15.073,14.168c-3.925,10.324-0.862,16.059,3.254,17.38c3.18,1.02,8.194-0.003,11.333-3.863
				c0.222,0.884,1.854,2.971,5.947,0.79C384.713,279.296,383.407,278.208,383.405,276.754z M377.517,274.897
				c-0.372,2.179-4.531,3.643-7.272,3.338c-2.2-0.242-4.59-4.397-0.92-12.842c3.668-8.444,10.56-8.81,10.609-4.726
				C379.934,260.668,377.886,272.719,377.517,274.897z"/>
		</g>
		<g>
			<g>
				<path style="fill:#00A199;" d="M84.779,264.894c-2.443,1.022-4.638,2.367-6.469,3.878c-1.833,1.509-3.299,3.183-4.293,4.824
					c-1.996,3.285-2.097,6.432,0.335,7.739c1.636,0.878,0.464,1.875-1.401,2.261c-3.169,0.644-7.129,2.144-10.809,4.314
					c-3.68,2.167-7.073,5.021-9.108,8.24l-0.256,0.049c-1.565,0.325-2.924,1.109-3.979,2.216c-0.835-0.521-1.54-0.968-1.884-1.199
					l0.69-0.94c1.884-3.705,2.171-8.142,1.797-12c-0.384-3.852-1.447-7.146-2.507-8.382c-1.77-2.065-0.97-2.481,0.925-3.467
					c3.157-1.649,5.708-4.776,7.245-8.053c1.53-3.284,2.043-6.742,0.93-9.298c-0.95-2.176-1.871-3.289,1.642-3.363
					c4.587-0.102,12.358-1.604,16.802-5.023c1.959-1.501,3.039-1.656,3.526-1.123c0.488,0.536,0.394,1.774,0.029,3.146
					c-0.574,3.03,0.057,5.195,1.364,7.19c1.312,1.997,3.305,3.844,5.563,6.261C86.318,263.661,86.363,264.228,84.779,264.894z"/>
				<path style="fill:#00A199;" d="M46.913,297.216l-0.994,1.328c-1.427-0.55-2.988-0.726-4.545-0.404
					c-0.218,0.045-0.434,0.1-0.646,0.162c-3.125-2.192-7.167-3.769-11.206-4.764c-4.037-0.993-8.069-1.395-11.143-1.142
					c-1.899,0.159-3.361-0.734-2.081-2.368c1.898-2.42,0.896-6.175-1.802-9.954c-1.352-1.889-3.13-3.786-5.21-5.506
					c-2.082-1.716-4.462-3.257-7.031-4.396c-1.662-0.736-1.709-1.61-0.477-3.93c1.992-3.739,3.891-6.418,5.15-9.203
					c1.272-2.789,1.904-5.667,1.528-9.827c-0.273-1.895-0.245-3.603,0.3-4.276c0.547-0.678,1.591-0.309,3.402,1.859
					c2.065,2.469,5.054,4.205,8.092,5.34c3.037,1.137,6.122,1.684,8.412,1.809c3.516,0.196,2.55,1.372,1.618,3.815
					c-1.098,2.868-0.417,6.832,1.444,10.311c1.856,3.489,4.882,6.466,8.273,7.622c2.043,0.7,2.883,0.943,1.548,3.35
					c-0.8,1.438-1.262,5.172-0.604,9.218c0.65,4.042,2.436,8.363,5.776,10.824L46.913,297.216z"/>
				<path style="fill:#FF4564;" d="M48.594,306.336c-0.47-1.871-0.181-3.74,0.662-5.217c0.841-1.479,2.23-2.565,3.943-2.938
					c1.713-0.373,3.421,0.026,4.809,0.942c1.387,0.918,2.455,2.354,2.898,4.116c0.444,1.764,0.18,3.533-0.605,4.999
					c-0.79,1.464-2.105,2.624-3.791,3.105c-1.686,0.482-3.424,0.183-4.864-0.724C50.204,309.719,49.065,308.209,48.594,306.336z"/>
				<path style="fill:#FF4564;" d="M50.064,305.966c0.495,1.97,0.242,3.935-0.572,5.555c-0.813,1.617-2.196,2.891-3.981,3.405
					c-1.785,0.514-3.639,0.159-5.188-0.868c-1.547-1.022-2.781-2.718-3.307-4.809c-0.526-2.092-0.241-4.169,0.64-5.804
					c0.877-1.635,2.343-2.825,4.159-3.218c1.816-0.392,3.634,0.079,5.119,1.117C48.418,302.388,49.568,303.999,50.064,305.966z
					 M43.11,305.461c-0.256-1.059-1.219-1.742-2.164-1.525c-0.942,0.217-1.504,1.271-1.245,2.348
					c0.258,1.077,1.24,1.757,2.178,1.519C42.82,307.566,43.364,306.519,43.11,305.461z"/>
				<path style="fill:#00A199;" d="M138.429,122.68c-2.362-1.198-4.81-1.998-7.146-2.415c-2.337-0.417-4.563-0.449-6.459-0.143
					c-3.796,0.609-6.26,2.573-5.685,5.274c0.391,1.816-1.13,1.57-2.63,0.398c-2.545-1.999-6.251-4.044-10.29-5.441
					c-4.034-1.398-8.406-2.138-12.177-1.604l-0.204-0.164c-1.26-0.981-2.739-1.512-4.266-1.598
					c-0.145-0.976-0.259-1.801-0.306-2.214l1.164-0.083c4.045-0.963,7.611-3.616,10.308-6.401c2.686-2.789,4.507-5.733,4.763-7.342
					c0.425-2.685,1.262-2.345,3.239-1.54c3.302,1.335,7.336,1.252,10.828,0.3c3.492-0.962,6.459-2.81,7.683-5.312
					c1.042-2.132,1.292-3.556,3.624-0.924c1.523,1.714,3.83,3.811,6.439,5.624c2.611,1.813,5.516,3.348,8.261,3.937
					c2.408,0.522,3.226,1.246,3.136,1.962c-0.092,0.719-1.095,1.446-2.376,2.054c-2.674,1.521-3.912,3.397-4.582,5.683
					c-0.669,2.291-0.781,5.002-1.16,8.287C140.362,123.057,139.96,123.455,138.429,122.68z"/>
				<path style="fill:#00A199;" d="M89.268,114.774l-1.655,0.102c-0.504-1.443-1.38-2.745-2.633-3.726
					c-0.177-0.139-0.358-0.266-0.543-0.388c-0.353-3.801-1.769-7.899-3.627-11.621c-1.857-3.718-4.165-7.052-6.349-9.229
					c-1.351-1.345-1.616-3.035,0.456-3.117c3.071-0.119,5.283-3.314,6.412-7.815c0.562-2.252,0.855-4.837,0.815-7.535
					c-0.039-2.697-0.41-5.51-1.206-8.205c-0.516-1.743,0.12-2.344,2.686-2.91c4.143-0.904,7.414-1.197,10.357-2.043
					c2.95-0.84,5.558-2.228,8.491-5.212c1.271-1.437,2.595-2.52,3.461-2.542c0.87-0.021,1.263,1.013,0.78,3.798
					c-0.545,3.175,0.063,6.578,1.163,9.629c1.098,3.052,2.678,5.758,4.064,7.584c2.126,2.805,0.605,2.832-1.86,3.706
					c-2.899,1.022-5.48,4.107-6.924,7.783c-1.455,3.674-1.762,7.908-0.446,11.239c0.79,2.01,1.151,2.807-1.548,3.348
					c-1.613,0.324-4.757,2.391-7.412,5.513c-2.658,3.111-4.795,7.269-4.507,11.409L89.268,114.774z"/>
				<path style="fill:#FF4564;" d="M83.402,121.959c1.122-1.571,2.736-2.56,4.406-2.873c1.672-0.317,3.4,0.041,4.792,1.105
					s2.193,2.626,2.393,4.276c0.198,1.652-0.206,3.396-1.264,4.876c-1.058,1.48-2.578,2.425-4.207,2.773
					c-1.625,0.346-3.363,0.092-4.82-0.882c-1.456-0.973-2.352-2.493-2.594-4.177C81.865,125.375,82.279,123.529,83.402,121.959z"/>
				<path style="fill:#FF4564;" d="M84.635,122.841c-1.181,1.65-2.84,2.73-4.604,3.157c-1.76,0.424-3.625,0.194-5.171-0.835
					c-1.547-1.028-2.476-2.674-2.695-4.517c-0.219-1.841,0.274-3.879,1.528-5.631c1.253-1.753,3.022-2.878,4.835-3.265
					c1.814-0.389,3.67-0.042,5.144,1.088c1.475,1.131,2.294,2.821,2.461,4.625C86.299,119.269,85.816,121.189,84.635,122.841z
					 M80.522,117.21c0.642-0.88,0.54-2.056-0.236-2.634c-0.777-0.579-1.942-0.328-2.596,0.567c-0.652,0.896-0.538,2.083,0.25,2.646
					C78.728,118.351,79.88,118.089,80.522,117.21z"/>
				<path style="fill:#00A199;" d="M173.079,407.406c-0.552,2.59-0.701,5.158-0.506,7.525c0.193,2.365,0.731,4.521,1.511,6.275
					c1.56,3.511,4.088,5.385,6.546,4.135c1.654-0.846,1.807,0.688,1.06,2.439c-1.277,2.972-2.304,7.079-2.616,11.34
					c-0.319,4.258,0.09,8.674,1.576,12.182l-0.106,0.238c-0.625,1.471-0.753,3.034-0.446,4.532c-0.903,0.39-1.673,0.714-2.059,0.864
					l-0.381-1.103c-1.971-3.661-5.451-6.426-8.836-8.316c-3.381-1.881-6.693-2.884-8.314-2.72c-2.706,0.276-2.589-0.619-2.321-2.736
					c0.446-3.533-0.668-7.412-2.48-10.543c-1.824-3.127-4.367-5.523-7.099-6.064c-2.327-0.461-3.766-0.34-1.819-3.268
					c1.269-1.909,2.704-4.678,3.79-7.664c1.086-2.987,1.826-6.188,1.695-8.991c-0.111-2.462,0.38-3.437,1.094-3.533
					c0.72-0.095,1.678,0.688,2.592,1.771c2.153,2.197,4.283,2.912,6.663,2.973c2.386,0.061,5.034-0.524,8.303-1.002
					C172.951,405.441,173.438,405.728,173.079,407.406z"/>
				<path style="fill:#00A199;" d="M178.039,456.938l0.523,1.574c-1.265,0.857-2.297,2.039-2.923,3.503
					c-0.088,0.206-0.165,0.415-0.236,0.622c-3.581,1.319-7.18,3.742-10.299,6.492c-3.117,2.753-5.748,5.837-7.293,8.507
					c-0.951,1.65-2.518,2.341-3.131,0.359c-0.905-2.941-4.565-4.258-9.208-4.198c-2.323,0.033-4.898,0.414-7.498,1.141
					c-2.598,0.729-5.224,1.805-7.625,3.265c-1.555,0.946-2.301,0.483-3.506-1.853c-1.937-3.774-3.06-6.861-4.632-9.493
					c-1.568-2.636-3.576-4.806-7.213-6.878c-1.716-0.861-3.102-1.864-3.343-2.695c-0.245-0.836,0.654-1.481,3.472-1.727
					c3.211-0.283,6.343-1.742,9.013-3.586c2.67-1.842,4.881-4.062,6.292-5.869c2.167-2.773,2.583-1.31,4.058,0.853
					c1.73,2.541,5.376,4.245,9.299,4.701c3.925,0.466,8.097-0.319,10.98-2.448c1.739-1.277,2.419-1.831,3.636,0.641
					c0.723,1.475,3.528,3.984,7.228,5.749c3.693,1.771,8.259,2.768,12.186,1.425L178.039,456.938z"/>
				<path style="fill:#FF4564;" d="M186.491,460.756c-1.807-0.68-3.176-1.984-3.91-3.519c-0.736-1.533-0.837-3.294-0.167-4.915
					c0.671-1.619,1.973-2.796,3.518-3.413c1.545-0.616,3.333-0.675,5.034-0.034c1.701,0.64,3.006,1.863,3.761,3.346
					c0.753,1.482,0.956,3.227,0.391,4.885c-0.564,1.66-1.801,2.918-3.367,3.586C190.187,461.36,188.298,461.436,186.491,460.756z"/>
				<path style="fill:#FF4564;" d="M187.025,459.336c1.899,0.717,3.369,2.043,4.237,3.637c0.864,1.59,1.124,3.45,0.527,5.211
					c-0.593,1.76-1.942,3.08-3.668,3.768c-1.723,0.688-3.819,0.735-5.837-0.024c-2.018-0.759-3.563-2.179-4.404-3.832
					c-0.843-1.653-0.986-3.538-0.272-5.253c0.712-1.715,2.135-2.941,3.835-3.568C183.145,458.648,185.126,458.621,187.025,459.336z
					 M182.645,464.762c-1.015-0.393-2.126,0.01-2.485,0.908s0.185,1.961,1.218,2.361c1.034,0.4,2.152-0.018,2.491-0.924
					C184.209,466.201,183.66,465.156,182.645,464.762z"/>
				<path style="fill:#FF4564;" d="M103.626,402.056c-1.588-1.706-4.842-3.016-9.526-3.505c-4.684-0.486-10.813-0.171-18.198,1.473
					c-2.613,1.129-4.224,2.374-5.33,3.396c-1.11,1.024-1.717,1.817-2.354,1.996c-1.274,0.359-2.185-1.49,0.397-3.149
					c1.288-0.833,1.599-1.848,1.001-2.552c-0.598-0.706-2.108-1.104-4.496-0.739c-4.781,0.725-6.548,0.701-7.618-0.1
					c-1.075-0.81-1.255-2.856,1.309-3.098c2.563-0.245,7.479-0.347,12.627-0.256c5.141,0.067,0.602-2.237-0.824-3.886
					c-0.716-0.82-0.835-1.696-0.374-2.059c0.461-0.363,1.496-0.214,3.108,0.969c1.61,1.18,2.36,2.097,3.304,2.76
					c0.942,0.658,2.082,1.063,4.463,1.142c2.38,0.074,4.033-0.057,5.857-0.104c1.822-0.049,3.817-0.01,6.861,0.302
					c0.979,0.057,1.234-0.271,0.893-1.039c-0.341-0.766-1.279-1.974-2.669-3.712c-1.387-1.736-3.17-1.969-4.79-1.65
					c-1.617,0.319-3.059,1.198-3.708,1.693c-1.297,0.993-2.83-1.041-1.49-2.319c1.335-1.281,3.194-3.216,2.171-3.579
					c-0.515-0.181-2.984-1.232-5.787-2.137c-2.803-0.893-5.945-1.653-7.82-0.975c-1.872,0.681-3.304,1.838-4.33,2.919
					c-1.026,1.078-1.645,2.076-1.917,2.404c-0.268,0.329-1.269,0.121-1.809-0.511c-0.541-0.628-0.615-1.678,0.961-2.991
					c1.575-1.316,1.31-2.562,0.052-3.501c-1.259-0.937-3.518-1.583-5.956-1.672c-2.438-0.085-4.264-1.163-5.071-2.194
					c-0.807-1.033-0.597-2.005,0.98-1.918c1.577,0.082,4.521,0.487,7.775,1c3.256,0.516,6.821,1.132,9.661,1.781
					c1.421,0.326,3.167,0.838,4.965,1.357c1.798,0.521,3.646,1.051,5.268,1.447c3.249,0.789,5.586,1.057,4.835-0.164
					c-0.753-1.225-3.38-4.972-5.924-8.91c-1.276-1.966-2.535-3.977-3.585-5.701c-1.051-1.727-1.894-3.166-2.358-3.981
					c-0.934-1.629-3.601-4.543-6.997-7.038c-1.699-1.245-3.588-2.385-5.563-3.176c-1.973-0.79-4.036-1.231-6.085-1.047
					c-2,0.292-3.145-0.744-3.261-1.817c-0.118-1.079,0.791-2.173,2.838-2.062c4.564,0.232,5.778,1.38,5.781,1.386
					c0,0-0.682-0.617-1.429-1.337c-0.747-0.72-1.562-1.542-1.837-1.918c-0.558-0.754-0.529-2.743,1.404-1.361
					c0.969,0.687,2.03,1.815,3.032,2.898c1,1.082,1.944,2.122,2.648,2.65c0.705,0.528,1.837,1.463,2.726,2.103
					c0.888,0.642,1.524,0.999,1.228,0.407c-0.297-0.59-1.705-3.403-3.176-6.611c-1.482-3.206-3.011-6.813-3.837-8.858
					c-0.833-2.047-0.274-3.447,0.724-3.688c1.001-0.24,2.432,0.654,3.461,3.153c0.494,1.2,1.338,3.195,2.174,5.074
					c0.834,1.881,1.655,3.648,2.026,4.432c0.372,0.783,0.571-0.454,0.815-2.048c0.243-1.595,0.545-3.539,1.027-4.216
					c0.482-0.677,1.151-0.797,1.61-0.454c0.46,0.343,0.707,1.149,0.362,2.353c-0.346,1.201-0.833,3.301-0.976,5.576
					c-0.145,2.273,0.059,4.722,1.012,6.549c0.951,1.824,2.23,4.086,3.299,5.876c1.064,1.791,1.906,3.116,1.903,3.117
					c0.985,1.681,1.198,2.813,1.865,1.154c0.337-0.827,0.762-2.206,1.38-4.187c0.623-1.981,1.436-4.564,2.593-7.771
					c1.159-3.206,2.185-5.55,3.043-7.226c0.861-1.672,1.556-2.678,2.105-3.172c0.552-0.495,1.39-0.639,1.925-0.255
					c0.537,0.385,0.766,1.293,0.135,2.945c-1.264,3.302-3.241,6.471-2.072,6.057c1.168-0.414,3.13-1.493,4.13-1.376
					c0.996,0.123,2.746,1.145,0.074,2.215c-0.948,0.381-2.516,0.923-3.954,1.747c-1.436,0.825-2.745,1.935-3.151,3.478
					c-0.409,1.54-1.553,4.553-2.307,7.593c-0.757,3.034-1.121,6.094-0.175,7.544c0.943,1.451,2.266,3.429,3.515,5.228
					c1.247,1.8,2.417,3.421,2.99,4.206c0.579,0.786,0.954-0.776,1.343-2.96c0.384-2.185,0.804-4.983,1.337-6.733
					c0.236-0.92-0.07-2.276-0.564-3.624c-0.493-1.347-1.175-2.685-1.728-3.559c-1.105-1.75,0.38-3.621,1.457-1.891
					c1.08,1.731,2.483,4.229,2.487,4.229c0,0,0.719-2.323,1.747-4.969c1.023-2.651,2.372-5.611,3.414-7.035
					c1.04-1.426,2.005-1.784,2.442-1.302c0.441,0.484,0.361,1.81-0.636,3.821c-1.403,2.83-2.648,5.993-3.616,9.254
					c-0.97,3.261-1.661,6.621-2.003,9.818c-0.694,6.392,0.057,12.124,2.33,14.874c1.786,2.166,3.388,4.029,4.953,5.799
					c1.568,1.768,3.097,3.444,4.766,5.209c3.332,3.542,6.896,6.832,4.992,8.818c-0.955,0.988-2.201,0.853-3.881-0.223
					C108.339,406.868,106.233,404.854,103.626,402.056z"/>
				<path style="fill:#FF4564;" d="M64.595,363.631c0.653,1.166,0.839,2.453,0.61,3.605c-0.23,1.149-0.873,2.165-1.891,2.764
					c-1.019,0.6-2.221,0.664-3.348,0.268c-1.122-0.395-2.163-1.248-2.841-2.459c-0.678-1.212-0.86-2.548-0.61-3.711
					c0.254-1.166,0.938-2.157,1.983-2.712c1.042-0.554,2.245-0.571,3.344-0.163C62.944,361.631,63.941,362.463,64.595,363.631z"/>
				<path style="fill:#FF4564;" d="M82.621,345.291c0.854,1.666,0.249,3.716-1.387,4.598c-1.633,0.88-3.708,0.207-4.595-1.524
					c-0.891-1.729-0.231-3.806,1.437-4.62C79.746,342.927,81.766,343.627,82.621,345.291z"/>
				<path style="fill:#FF4564;" d="M72.164,361.698c0.733,1.28,0.397,2.869-0.767,3.555c-1.161,0.687-2.728,0.186-3.479-1.13
					c-0.752-1.314-0.387-2.917,0.796-3.571C69.896,359.898,71.431,360.416,72.164,361.698z"/>
				<path style="fill:#FF4564;" d="M108.77,366.491c1.002,1.362,0.691,3.324-0.718,4.401c-1.408,1.076-3.412,0.818-4.454-0.599
					c-1.041-1.416-0.691-3.407,0.756-4.43C105.802,364.84,107.768,365.13,108.77,366.491z"/>
				<path style="fill:#FF4564;" d="M113.592,390.168c1.208,1.321,1.162,3.363-0.124,4.583c-1.285,1.22-3.361,1.117-4.613-0.252
					c-1.252-1.37-1.169-3.448,0.161-4.618C110.347,388.707,112.384,388.847,113.592,390.168z"/>
				<path style="fill:#FF4564;" d="M78.088,369.96c1.016,1.604,0.683,3.667-0.776,4.628c-1.455,0.96-3.512,0.41-4.56-1.248
					c-1.053-1.658-0.669-3.75,0.821-4.657C75.064,367.777,77.07,368.356,78.088,369.96z"/>
				<path style="fill:#FF4564;" d="M109.304,378.176c0.808,0.993,1.144,2.218,1.039,3.41c-0.107,1.192-0.653,2.354-1.64,3.193
					c-0.985,0.84-2.226,1.193-3.436,1.07c-1.21-0.122-2.393-0.723-3.239-1.765c-0.847-1.039-1.191-2.319-1.064-3.53
					c0.128-1.21,0.73-2.352,1.751-3.144c1.025-0.793,2.272-1.092,3.462-0.951C107.366,376.6,108.495,377.18,109.304,378.176z"/>
				<path style="fill:#FF4564;" d="M37.298,199.632l-0.002-0.002L37.298,199.632z"/>
				<path style="fill:#FF4564;" d="M90.185,160.136c-6.706,12.779-11.993,26.292-15.73,40.222c-0.645,2.392-1.597,4.632-2.814,6.69
					c-1.217,2.059-2.692,3.936-4.378,5.604c-3.369,3.327-7.582,5.856-12.276,7.15c-3.116,0.855-6.444,1.148-9.797,0.683l0,0
					l-0.007-0.001l0,0l-0.029-0.004l-0.202-0.028l-0.008-0.003c-2.443-0.367-4.768-1.123-6.894-2.241l0,0
					c-2.186-1.148-4.162-2.674-5.861-4.521l-0.002-0.001c-3.397-3.686-5.696-8.684-6.389-14.343
					c-0.463-3.754-0.208-7.791,0.856-11.774l0.011-0.033v-0.002v-0.005l0.003-0.009l0.002-0.007l0,0v-0.003l0.005-0.017
					c1.073-3.984,2.875-7.608,5.159-10.628h-0.002c2.29-3.031,5.054-5.458,8.056-7.175l1.825-1.032l0.097,0.263
					c0.346-0.085,0.691-0.142,1.034-0.17c0.981-0.081,1.936,0.06,2.813,0.39c0.88,0.332,1.683,0.859,2.364,1.553
					c0.684,0.696,1.244,1.559,1.637,2.554c0.396,1.01,0.59,2.081,0.597,3.142c0.007,1.063-0.17,2.117-0.502,3.114
					c-0.334,0.998-0.833,1.938-1.479,2.771c-0.646,0.833-1.438,1.559-2.35,2.118c-1.176,0.718-2.237,1.691-3.102,2.861v-0.002
					c-0.866,1.176-1.536,2.531-1.955,4.09c-0.313,1.168-0.447,2.309-0.427,3.421c0.021,1.11,0.195,2.187,0.51,3.2l0.001,0.001
					c0.629,2.025,1.826,3.78,3.393,4.984c1.052,0.81,2.254,1.382,3.632,1.681c1.033,0.222,2.039,0.263,3.022,0.154v0.001
					c0.982-0.109,1.939-0.366,2.849-0.756h0.002c1.817-0.775,3.437-2.077,4.621-3.716c0.795-1.101,1.399-2.342,1.784-3.765v0.001
					c4.018-14.976,9.705-29.504,16.909-43.239c0.367-0.701,0.832-1.327,1.365-1.861c0.53-0.534,1.131-0.978,1.771-1.32
					c1.282-0.687,2.729-0.973,4.162-0.817c0.954,0.102,1.902,0.404,2.778,0.905c0.656,0.376,1.237,0.843,1.733,1.373
					c0.493,0.528,0.905,1.121,1.223,1.75c0.634,1.257,0.915,2.667,0.79,4.067C90.905,158.335,90.641,159.267,90.185,160.136z
					 M67.544,206.356c0.273-0.402,0.536-0.813,0.783-1.235c1.045-1.764,1.87-3.692,2.423-5.758l0.299-1.104l-1.956,0.617
					c-0.685,0.247-1.374,0.471-2.063,0.651c-1.351,0.355-2.7,0.559-4.021,0.612c-0.418,0.895-0.913,1.736-1.475,2.515
					c-0.65,0.904-1.396,1.728-2.211,2.465c1.224,0.497,2.537,0.856,3.917,1.063C64.62,206.393,66.063,206.449,67.544,206.356z
					 M72.391,193.598c0.727-2.411,1.497-4.81,2.315-7.192c-2.704,0.657-5.407,1.37-8.113,2.138
					c-0.789,2.485-1.532,4.985-2.228,7.498c1.337-0.434,2.674-0.856,4.011-1.263C69.716,194.372,71.053,193.978,72.391,193.598z
					 M76.334,181.837c0.874-2.362,1.793-4.708,2.756-7.035c-2.739,0.488-5.483,1.031-8.228,1.63
					c-0.943,2.432-1.841,4.88-2.689,7.346C70.895,183.075,73.615,182.428,76.334,181.837z M42.069,206.506
					c-0.383-0.287-0.749-0.597-1.099-0.926c-0.332,1.449-0.512,2.976-0.515,4.542c-0.004,1.563,0.17,3.166,0.521,4.759
					c1.506,0.687,3.115,1.174,4.8,1.443l0.002,0.001h0.005c1.384,0.222,2.766,0.288,4.125,0.218
					c-0.94-1.209-1.718-2.506-2.322-3.852c-0.605-1.346-1.041-2.742-1.307-4.147C44.729,208.129,43.312,207.435,42.069,206.506z
					 M33.075,193.458c1.249-0.87,2.539-1.541,3.833-2.021c0.073-0.364,0.157-0.728,0.254-1.091v-0.002
					c0.535-1.991,1.388-3.792,2.471-5.342c-1.302-0.219-2.673-0.265-4.088-0.113c-1.417,0.15-2.874,0.5-4.342,1.056
					c-0.314,0.827-0.591,1.675-0.824,2.548l-0.004,0.011l-0.009,0.032c-0.732,2.731-1.01,5.486-0.877,8.119
					C30.619,195.396,31.825,194.328,33.075,193.458z M30.362,188.552 M34.921,210.416L34.921,210.416
					c0.352,0.39,0.718,0.764,1.097,1.123c0.09-1.695,0.352-3.335,0.768-4.878c0.418-1.546,0.986-2.995,1.68-4.316
					c-0.472-0.848-0.865-1.755-1.167-2.712c-0.374-1.178-0.61-2.426-0.693-3.716c-1.136,0.88-2.215,1.942-3.2,3.177
					c-0.986,1.233-1.877,2.638-2.641,4.187C31.703,205.995,33.124,208.417,34.921,210.416z M45.182,220.483L45.182,220.483
					L45.182,220.483z M63.646,210.773c-1.453-0.287-2.831-0.717-4.105-1.287c-1.275-0.568-2.449-1.274-3.495-2.097
					c-0.268,0.138-0.54,0.269-0.814,0.39l0,0c-1.245,0.548-2.564,0.926-3.923,1.098h-0.002c-0.381,0.049-0.764,0.078-1.151,0.094
					c0.613,1.238,1.387,2.417,2.321,3.501c0.93,1.084,2.014,2.072,3.23,2.94C58.648,214.407,61.344,212.808,63.646,210.773z"/>
				<path style="fill:#00A199;" d="M509.709,270.814c-2.588,1.047-5.003,2.506-7.117,4.151c-2.115,1.648-3.934,3.486-5.324,5.331
					c-2.775,3.688-3.858,7.412-2.018,9.894c1.245,1.676-0.234,2.52-2.127,2.295c-3.215-0.37-7.475,0.001-11.715,1.004
					c-4.242,1.011-8.464,2.639-11.642,4.905l-0.255-0.058c-1.563-0.325-3.128-0.13-4.541,0.453l-1.241-1.861
					c0.615-0.354,1.007-0.59,1.007-0.59c1.592-1.339,2.859-3.069,3.823-4.961c0.96-1.893,1.619-3.942,2.011-5.913
					c0.791-3.945,0.514-7.545-0.254-9.004c-1.285-2.439-0.438-2.661,1.613-3.308c3.415-1.063,6.501-3.955,8.431-7.393
					c1.934-3.426,2.7-7.372,1.663-10.274c-0.881-2.473-1.82-3.681,1.7-3.773c2.29-0.058,5.387-0.512,8.446-1.556
					c3.061-1.042,6.085-2.681,8.207-5.083c1.857-2.111,2.911-2.444,3.441-1.747c0.529,0.693,0.521,2.405,0.205,4.292
					c-0.465,4.152,0.104,7.056,1.31,9.888c1.202,2.832,3.034,5.58,4.944,9.393C511.454,269.268,511.388,270.137,509.709,270.814z"/>
				<path style="fill:#00A199;" d="M463.729,296.929c-0.399,0.229-0.897,0.507-1.442,0.803c-1.081-1.07-2.45-1.826-4.01-2.146
					c-0.218-0.046-0.438-0.08-0.656-0.108c-2.034-3.092-5.287-5.804-8.785-7.878c-3.496-2.079-7.232-3.532-10.231-4.218
					c-1.856-0.429-3.003-1.454-1.345-2.29c2.465-1.243,2.448-4.385,0.538-7.71c-0.953-1.664-2.375-3.369-4.167-4.918
					c-1.791-1.549-3.952-2.941-6.369-4.015c-1.564-0.696-1.505-1.263-0.063-2.729c2.322-2.37,4.361-4.175,5.726-6.146
					c1.359-1.97,2.046-4.123,1.553-7.172c-0.327-1.384-0.392-2.625,0.111-3.153c0.503-0.523,1.58-0.344,3.495,1.208
					c2.18,1.77,5.196,3.068,8.247,3.965c3.048,0.896,6.132,1.381,8.419,1.496c3.512,0.173,2.562,1.26,1.554,3.411
					c-1.181,2.528-0.759,6.002,0.685,9.33c1.449,3.32,3.918,6.519,7.027,8.262c1.867,1.042,2.656,1.483,0.832,3.491
					c-1.09,1.203-2.382,4.566-2.939,8.448c-0.551,3.887-0.387,8.312,1.697,11.873L463.729,296.929z"/>
				<path style="fill:#FF4564;" d="M461.285,305.797c0.466-1.853,1.552-3.366,2.952-4.344c1.4-0.976,3.118-1.41,4.831-1.038
					c1.713,0.374,3.094,1.495,3.922,3.033c0.828,1.534,1.102,3.483,0.607,5.444c-0.493,1.962-1.654,3.551-3.109,4.511
					c-1.457,0.964-3.205,1.298-4.892,0.816c-1.685-0.481-2.991-1.679-3.765-3.199C461.06,309.498,460.819,307.647,461.285,305.797z"
					/>
				<path style="fill:#FF4564;" d="M462.756,306.166c-0.498,1.979-1.705,3.572-3.231,4.522c-1.527,0.951-3.368,1.263-5.154,0.749
					c-1.785-0.516-3.18-1.744-4.015-3.287c-0.833-1.547-1.114-3.411-0.646-5.265c0.466-1.855,1.592-3.365,3.061-4.332
					c1.466-0.966,3.275-1.389,5.09-0.997c1.817,0.392,3.293,1.537,4.188,3.097C462.942,302.214,463.253,304.188,462.756,306.166z
					 M456.819,302.542c0.242-1.003-0.335-1.995-1.279-2.211c-0.942-0.218-1.892,0.405-2.129,1.388
					c-0.236,0.984,0.321,1.972,1.262,2.209C455.611,304.164,456.576,303.545,456.819,302.542z"/>
				<path style="fill:#00A199;" d="M431.538,63.705c-0.881,2.653-1.333,5.435-1.449,8.113c-0.116,2.678,0.104,5.253,0.609,7.506
					c1.011,4.505,3.144,7.738,6.228,7.942c2.08,0.135,1.764,1.808,0.369,3.104c-2.364,2.209-4.844,5.696-6.824,9.577
					c-1.977,3.885-3.471,8.155-3.801,12.044l-0.209,0.157c-1.26,0.982-2.124,2.299-2.597,3.754l-2.219-0.258
					c0.128-0.699,0.199-1.149,0.199-1.149c0.033-4.165-2.009-8.34-4.507-11.487c-2.493-3.156-5.414-5.277-7.021-5.639
					c-2.691-0.601-2.312-1.389-1.474-3.372c1.4-3.29,1.198-7.514-0.171-11.209c-1.357-3.696-3.868-6.835-6.753-7.927
					c-2.456-0.932-3.984-0.999-1.776-3.74c1.438-1.783,3.096-4.437,4.281-7.446c1.185-3.008,1.893-6.378,1.431-9.551
					c-0.408-2.783,0.019-3.803,0.895-3.756c0.871,0.045,2.172,1.161,3.41,2.626c2.868,3.048,5.455,4.498,8.399,5.416
					c2.937,0.923,6.222,1.306,10.363,2.324C431.488,61.374,432.108,61.99,431.538,63.705z"/>
				<path style="fill:#00A199;" d="M421.646,115.645c-0.086,0.452-0.195,1.011-0.322,1.617c-1.515,0.133-2.979,0.687-4.231,1.667
					c-0.177,0.137-0.346,0.282-0.509,0.43c-3.672-0.452-7.849,0.272-11.692,1.592c-3.851,1.319-7.376,3.222-9.843,5.064
					c-1.529,1.135-3.052,1.345-2.616-0.461c0.648-2.685-1.759-4.708-5.53-5.409c-1.887-0.353-4.105-0.375-6.447-0.013
					c-2.341,0.361-4.801,1.104-7.183,2.25c-1.546,0.741-1.938,0.329-2.119-1.716c-0.3-3.304-0.35-6.025-0.965-8.338
					c-0.618-2.311-1.808-4.222-4.447-5.815c-1.264-0.643-2.25-1.397-2.326-2.12c-0.073-0.721,0.76-1.426,3.181-1.885
					c2.758-0.518,5.698-1.979,8.354-3.723c2.656-1.746,5.021-3.781,6.589-5.451c2.405-2.564,2.618-1.137,3.604,1.022
					c1.159,2.536,4.08,4.462,7.548,5.52c3.467,1.047,7.503,1.238,10.845,0.001c2.007-0.748,2.853-1.063,3.201,1.627
					c0.209,1.61,1.936,4.773,4.53,7.712c2.606,2.938,6.086,5.679,10.148,6.397L421.646,115.645z"/>
				<path style="fill:#FF4564;" d="M426.822,123.248c-1.108-1.554-1.563-3.362-1.399-5.063c0.162-1.698,0.942-3.287,2.335-4.353
					c1.393-1.064,3.143-1.392,4.85-1.028c1.706,0.361,3.368,1.415,4.542,3.06c1.177,1.643,1.637,3.556,1.427,5.287
					c-0.207,1.733-1.083,3.284-2.541,4.257c-1.457,0.973-3.215,1.198-4.875,0.803C429.498,125.813,427.934,124.8,426.822,123.248z"
					/>
				<path style="fill:#FF4564;" d="M428.057,122.366c1.187,1.659,1.619,3.611,1.355,5.389c-0.26,1.781-1.214,3.388-2.76,4.416
					c-1.547,1.029-3.387,1.297-5.104,0.936c-1.721-0.364-3.322-1.357-4.436-2.915c-1.114-1.557-1.535-3.395-1.324-5.14
					c0.212-1.743,1.063-3.396,2.536-4.526c1.474-1.131,3.3-1.514,5.072-1.186C425.163,119.666,426.87,120.707,428.057,122.366z
					 M421.451,124.547c-0.608-0.835-1.737-1.036-2.514-0.458c-0.776,0.58-0.915,1.706-0.318,2.525
					c0.597,0.818,1.713,1.029,2.501,0.466C421.907,126.519,422.06,125.381,421.451,124.547z"/>
				<path style="fill:#00A199;" d="M381.116,478.518c-2.338-1.529-4.915-2.68-7.476-3.477s-5.108-1.242-7.418-1.333
					c-4.613-0.175-8.292,1.058-9.282,3.987c-0.667,1.975-2.204,1.242-3.098-0.439c-1.528-2.854-4.263-6.143-7.505-9.055
					c-3.248-2.91-6.991-5.449-10.665-6.77l-0.099-0.242c-0.624-1.47-1.676-2.645-2.96-3.475l0.822-2.078
					c0.641,0.303,1.058,0.489,1.058,0.489c4.016,1.101,8.578,0.204,12.262-1.403c3.692-1.602,6.49-3.881,7.252-5.342
					c1.27-2.448,1.936-1.879,3.637-0.561c2.822,2.197,6.958,3.084,10.883,2.706c3.92-0.366,7.598-1.993,9.393-4.501
					c1.53-2.135,1.985-3.599,4.071-0.762c1.354,1.848,3.496,4.129,6.104,6.043c2.605,1.916,5.681,3.461,8.868,3.826
					c2.794,0.316,3.672,0.99,3.401,1.824c-0.269,0.831-1.679,1.805-3.411,2.627c-3.681,1.994-5.745,4.125-7.389,6.735
					c-1.645,2.604-2.856,5.683-4.906,9.429C383.384,479.066,382.628,479.508,381.116,478.518z"/>
				<path style="fill:#00A199;" d="M333.437,455.637c-0.415-0.199-0.928-0.449-1.481-0.728c0.262-1.498,0.104-3.056-0.521-4.519
					c-0.088-0.207-0.185-0.406-0.285-0.603c1.38-3.432,1.754-7.651,1.464-11.708c-0.284-4.058-1.22-7.954-2.367-10.811
					c-0.705-1.77-0.518-3.293,1.115-2.409c2.426,1.315,4.997-0.487,6.639-3.952c0.822-1.729,1.41-3.869,1.659-6.224
					c0.249-2.355,0.158-4.923-0.34-7.519c-0.319-1.682,0.177-1.957,2.199-1.605c3.266,0.557,5.909,1.205,8.302,1.204
					c2.389-0.006,4.541-0.667,6.755-2.809c0.944-1.059,1.926-1.819,2.645-1.707c0.714,0.113,1.184,1.1,1.009,3.556
					c-0.205,2.797,0.456,6.015,1.464,9.029c1.008,3.013,2.371,5.821,3.585,7.765c1.863,2.981,0.43,2.821-1.912,3.222
					c-2.745,0.471-5.354,2.801-7.264,5.881c-1.898,3.083-3.117,6.935-2.778,10.482c0.209,2.13,0.297,3.029-2.392,2.676
					c-1.61-0.211-5.108,0.647-8.616,2.399c-3.509,1.763-7.05,4.423-8.788,8.163L333.437,455.637z"/>
				<path style="fill:#FF4564;" d="M324.755,458.684c1.789-0.674,3.652-0.646,5.254-0.053c1.599,0.596,2.935,1.76,3.604,3.38
					c0.671,1.619,0.535,3.394-0.254,4.95c-0.79,1.556-2.236,2.891-4.13,3.602c-1.892,0.713-3.859,0.666-5.479,0.016
					c-1.622-0.648-2.894-1.895-3.458-3.553c-0.564-1.659-0.326-3.415,0.483-4.917C321.588,460.607,322.97,459.354,324.755,458.684z"
					/>
				<path style="fill:#FF4564;" d="M325.29,460.101c-1.908,0.718-3.904,0.636-5.556-0.077c-1.653-0.713-2.959-2.05-3.553-3.808
					c-0.595-1.761-0.381-3.607,0.412-5.172c0.795-1.567,2.166-2.86,3.956-3.534c1.791-0.674,3.673-0.608,5.304,0.047
					c1.629,0.654,3.007,1.9,3.722,3.615c0.713,1.715,0.614,3.579-0.16,5.204C328.645,458,327.199,459.381,325.29,460.101z
					 M324.885,453.156c0.963-0.372,1.447-1.41,1.089-2.311c-0.358-0.898-1.411-1.324-2.355-0.957
					c-0.942,0.365-1.437,1.388-1.096,2.295C322.863,453.089,323.923,453.529,324.885,453.156z"/>
				<path style="fill:#FF4564;" d="M410.621,404.121c1.606-1.724,2.665-5.169,2.38-9.803c-0.282-4.633-1.925-10.437-5.593-16.826
					c-1.786-2.18-3.398-3.428-4.643-4.276c-1.246-0.844-2.129-1.288-2.489-1.818c-0.724-1.06,0.547-2.038,2.854-0.026
					c1.152,1.01,2.144,1.14,2.559,0.51c0.412-0.629,0.241-2.016-0.955-3.999c-2.399-3.96-3.132-5.393-2.906-6.41
					c0.217-1.01,1.817-1.529,3.106,0.543c1.284,2.075,3.37,6.19,5.055,10.757c1.664,4.581,2.226,0.104,3.131-1.518
					c0.458-0.811,1.176-1.122,1.669-0.804c0.493,0.317,0.764,1.266,0.278,2.978c-0.485,1.711-1.073,2.582-1.369,3.57
					c-0.298,0.991-0.307,2.096,0.295,4.311c0.601,2.217,1.143,3.748,1.623,5.47c0.478,1.725,0.897,3.642,1.153,6.677
					c0.119,0.968,0.483,1.169,1.18,0.692c0.696-0.476,1.719-1.628,3.118-3.376c1.398-1.753,1.177-3.557,0.443-5.025
					c-0.734-1.469-1.976-2.618-2.623-3.111c-1.29-0.988,0.131-2.876,1.732-1.961c1.599,0.921,3.994,2.144,4.026,1.064
					c0.017-0.537,0.243-3.182,0.057-6.032c-0.179-2.854-0.779-5.901-2.159-7.323c-1.378-1.425-2.995-2.302-4.362-2.871
					c-1.365-0.568-2.48-0.824-2.876-0.967c-0.395-0.145-0.648-1.047-0.356-1.672c0.295-0.625,1.134-0.98,2.953-0.041
					c1.818,0.942,2.773,0.318,2.979-1.054c0.207-1.37-0.347-3.477-1.512-5.486c-1.16-2.011-1.275-3.812-0.904-4.807
					c0.373-0.99,1.244-1.185,2.043,0.085c0.797,1.271,2.061,3.761,3.27,6.641c1.21,2.877,2.354,6.148,3.023,8.877
					c0.335,1.364,0.619,3.098,0.865,4.904c0.246,1.806,0.452,3.686,0.66,5.331c0.411,3.287,0.846,5.639,1.786,4.501
					c0.938-1.132,3.632-4.971,6.191-9.03c1.286-2.026,2.541-4.104,3.589-5.888c1.047-1.782,1.887-3.268,2.362-4.104
					c0.954-1.662,2.079-5.58,2.116-9.791c0.022-2.104-0.221-4.275-0.85-6.266c-0.629-1.993-1.638-3.801-3.124-5.199
					c-1.526-1.302-1.55-2.709-0.866-3.418c0.684-0.71,2.087-0.737,3.404,0.796c2.931,3.438,2.818,5.121,2.821,5.113l0.065-1.906
					c0.036-1.007,0.09-2.121,0.172-2.563c0.165-0.876,1.611-2.167,1.943,0.137c0.162,1.154,0.041,2.676-0.121,4.129
					c-0.164,1.451-0.365,2.835-0.335,3.715c0.03,0.881-0.006,2.357,0.012,3.465c0.019,1.107,0.102,1.847,0.404,1.241
					c0.305-0.605,1.745-3.483,3.251-6.767c1.516-3.279,3.08-6.97,3.926-9.063c0.85-2.09,2.202-2.775,3.102-2.273
					c0.896,0.5,1.334,2.212,0.238,4.873c-0.523,1.276-1.421,3.394-2.308,5.39c-0.886,1.995-1.76,3.871-2.152,4.704
					c-0.393,0.829,0.72,0.154,2.138-0.785c1.418-0.937,3.131-2.149,3.973-2.29c0.841-0.141,1.377,0.287,1.405,0.913
					c0.03,0.624-0.45,1.449-1.633,2.073c-1.181,0.624-3.171,1.765-5.114,3.206c-1.945,1.445-3.844,3.186-4.855,5.119
					c-1.007,1.937-2.274,4.388-3.317,6.34c-1.039,1.956-1.844,3.419-1.842,3.419c-1.045,1.786-1.995,2.562-0.178,2.306
					c0.907-0.133,2.36-0.479,4.462-1.057c2.099-0.581,4.848-1.391,8.351-2.499c3.501-1.11,6.167-1.941,8.145-2.449
					c1.979-0.513,3.271-0.706,4.021-0.612c0.75,0.096,1.341,0.74,1.274,1.554c-0.067,0.81-0.793,1.794-2.663,2.517
					c-3.746,1.445-7.664,1.796-6.712,2.6c0.952,0.806,2.919,1.888,3.266,2.938c0.354,1.053,0.121,3.526-2.11,1.679
					c-0.793-0.657-2.028-1.781-3.479-2.585c-1.449-0.806-3.106-1.29-4.735-0.702c-1.632,0.591-4.97,1.337-8.136,2.25
					c-3.169,0.92-6.164,2.007-7.168,3.547c-1.005,1.545-2.41,3.65-3.741,5.565c-1.327,1.916-2.573,3.642-3.185,4.478
					c-0.611,0.834,1.026,0.692,3.304,0.248c2.276-0.44,5.188-1.212,7.104-1.491c0.992-0.184,2.254-1.135,3.422-2.301
					c1.169-1.167,2.24-2.548,2.884-3.563c1.277-2.024,3.691-1.678,2.41,0.38c-1.284,2.058-3.321,4.778-3.324,4.773
					c0,0,2.573-0.465,5.616-0.968c3.043-0.494,6.557-1.052,8.412-0.961c1.852,0.091,2.59,0.824,2.244,1.624
					c-0.344,0.798-1.771,1.656-4.209,1.922c-3.434,0.376-7.107,0.96-10.756,1.67c-3.649,0.714-7.271,1.551-10.609,2.488
					c-6.678,1.887-12.216,4.134-14.636,7.063c-1.904,2.311-3.612,4.297-5.283,6.186c-1.672,1.886-3.302,3.675-5.084,5.559
					c-1.779,1.883-3.58,3.753-5.184,4.895c-1.603,1.145-2.993,1.563-3.948,0.573c-0.956-0.99-0.751-2.245,0.362-3.939
					C405.957,409.103,407.977,406.957,410.621,404.121z"/>
				<path style="fill:#FF4564;" d="M434.428,356.358c-0.611,1.091-1.592,1.838-2.67,2.155c-1.079,0.317-2.255,0.206-3.274-0.394
					c-1.018-0.598-1.689-1.566-1.962-2.639c-0.274-1.074-0.15-2.253,0.436-3.301s1.525-1.771,2.584-2.101
					c1.057-0.328,2.232-0.262,3.276,0.291c1.044,0.556,1.755,1.498,2.049,2.584C435.16,354.04,435.037,355.266,434.428,356.358z"/>
				<path style="fill:#FF4564;" d="M459.837,360.927c-1.003,1.954-3.173,2.807-4.808,1.927c-1.636-0.881-2.143-3.111-1.174-5
					c0.97-1.889,3.08-2.774,4.749-1.957C460.271,356.71,460.841,358.973,459.837,360.927z"/>
				<path style="fill:#FF4564;" d="M440.02,361.788c-0.736,1.286-2.288,1.767-3.453,1.079c-1.162-0.686-1.512-2.252-0.794-3.506
					c0.717-1.253,2.242-1.75,3.423-1.096C440.379,358.918,440.755,360.5,440.02,361.788z"/>
				<path style="fill:#FF4564;" d="M448.714,399.918c-1.298,1.766-3.519,2.306-4.927,1.229c-1.407-1.076-1.503-3.319-0.244-5.033
					c1.26-1.712,3.43-2.291,4.877-1.267C449.867,395.871,450.013,398.151,448.714,399.918z"/>
				<path style="fill:#FF4564;" d="M423.386,412.975c-1.412,1.545-3.62,1.788-4.907,0.566c-1.286-1.219-1.198-3.4,0.17-4.898
					c1.368-1.495,3.533-1.779,4.864-0.607C424.844,409.205,424.801,411.43,423.386,412.975z"/>
				<path style="fill:#FF4564;" d="M435.469,370.928c-1.029,1.625-3.067,2.149-4.523,1.189c-1.457-0.961-1.809-2.999-0.813-4.569
					c0.998-1.57,2.987-2.124,4.479-1.217C436.1,367.237,436.5,369.304,435.469,370.928z"/>
				<path style="fill:#FF4564;" d="M436.074,405.273c-0.979,1.208-2.283,1.955-3.585,2.186c-1.301,0.23-2.599-0.06-3.581-0.896
					c-0.987-0.842-1.478-2.067-1.494-3.368c-0.017-1.3,0.445-2.672,1.385-3.831c0.944-1.161,2.193-1.893,3.469-2.144
					c1.276-0.25,2.577-0.021,3.601,0.774c1.024,0.791,1.571,2.001,1.612,3.321C437.521,402.636,437.057,404.067,436.074,405.273z"/>
				<path style="fill:#FF4564;" d="M452.307,204.735L452.307,204.735L452.307,204.735z"/>
				<path style="fill:#FF4564;" d="M465.676,137.145c8.391,15.993,15.018,32.924,19.7,50.378c0.805,2.998,1.154,6.027,1.079,8.942
					c-0.072,2.917-0.567,5.715-1.42,8.29c-1.707,5.152-4.851,9.395-8.929,12.177c-2.71,1.855-5.833,3.065-9.184,3.541l0,0
					l-0.007,0.001h-0.002l-0.027,0.004l-0.199,0.029l-0.012-0.002c-2.451,0.322-4.89,0.241-7.239-0.169h0.001
					c-2.417-0.423-4.736-1.19-6.903-2.226h-0.001c-4.331-2.077-8.063-5.204-10.832-9.066c-1.841-2.572-3.249-5.479-4.105-8.655
					l-0.008-0.027v-0.002l-0.002-0.003l-0.001-0.006l-0.002-0.008h0.001l-0.001-0.001l-0.004-0.014
					c-0.851-3.182-1.089-6.404-0.784-9.553l0,0c0.308-3.156,1.153-6.236,2.481-9.119l0.798-1.755l0.234,0.109
					c0.217-0.264,0.449-0.513,0.695-0.742c0.707-0.653,1.525-1.156,2.404-1.487c0.879-0.329,1.822-0.484,2.783-0.439
					c0.957,0.046,1.931,0.293,2.854,0.757c0.938,0.47,1.75,1.13,2.402,1.909c0.652,0.78,1.146,1.677,1.466,2.631
					s0.459,1.966,0.403,2.974c-0.056,1.007-0.311,2.01-0.768,2.936c-0.59,1.193-0.967,2.499-1.104,3.844v-0.002
					c-0.136,1.351-0.037,2.729,0.342,4.152c0.287,1.068,0.701,2.03,1.225,2.914c0.521,0.88,1.156,1.675,1.88,2.372l0,0
					c1.444,1.393,3.255,2.385,5.178,2.794c1.286,0.275,2.619,0.298,3.997,0.003c1.035-0.223,1.966-0.602,2.814-1.118l0,0
					c0.848-0.515,1.604-1.168,2.253-1.939l0.001-0.001c1.3-1.536,2.154-3.544,2.396-5.709c0.161-1.452,0.063-2.96-0.355-4.521v0.001
					c-4.401-16.406-10.631-32.322-18.521-47.36c-0.401-0.768-0.695-1.565-0.882-2.366c-0.187-0.801-0.268-1.605-0.246-2.386
					c0.043-1.564,0.49-3.051,1.316-4.271c0.551-0.814,1.273-1.506,2.15-2.008c0.657-0.375,1.364-0.624,2.093-0.743
					c0.728-0.12,1.477-0.111,2.223,0.015c1.488,0.252,2.96,0.985,4.22,2.129C464.364,135.108,465.105,136.056,465.676,137.145z
					 M482.478,197.678c0.053-0.567,0.087-1.14,0.1-1.717c0.058-2.425-0.233-4.943-0.905-7.443l-0.363-1.336l-1.316,1.736
					c-0.447,0.633-0.918,1.239-1.413,1.791c-0.974,1.088-2.039,1.994-3.16,2.718c0.091,1.108,0.071,2.201-0.051,3.259
					c-0.14,1.223-0.418,2.401-0.819,3.512c1.324-0.055,2.668-0.278,4-0.694C479.882,199.091,481.204,198.483,482.478,197.678z
					 M479.687,181.545c-0.878-2.918-1.812-5.819-2.799-8.701c-1.629,2.475-3.296,4.905-4.997,7.293
					c0.896,2.819,1.739,5.654,2.525,8.505c0.896-1.16,1.783-2.332,2.66-3.515C477.955,183.944,478.826,182.75,479.687,181.545z
					 M474.918,167.318c-1.058-2.857-2.17-5.694-3.333-8.509c-1.475,2.571-2.985,5.101-4.535,7.59
					c1.069,2.755,2.085,5.535,3.05,8.332C471.741,172.302,473.349,169.831,474.918,167.318z M459.391,208.636
					c-0.463-0.106-0.918-0.237-1.365-0.388c0.244,1.379,0.635,2.769,1.173,4.149c0.537,1.379,1.225,2.747,2.057,4.081
					c1.64,0.153,3.321,0.114,5.005-0.156h0.005l0.004-0.001c1.384-0.221,2.716-0.59,3.982-1.097c-1.28-0.89-2.443-1.881-3.478-2.949
					c-1.037-1.068-1.945-2.209-2.72-3.401C462.461,209.079,460.889,208.979,459.391,208.636z M445.892,201.731
					c0.732-1.196,1.565-2.284,2.478-3.25c-0.103-0.31-0.199-0.625-0.285-0.945l-0.002-0.001c-0.47-1.755-0.622-3.505-0.5-5.207
					c-1.218,0.508-2.406,1.173-3.541,1.986c-1.137,0.812-2.219,1.772-3.225,2.854c0.121,0.722,0.275,1.445,0.468,2.167l0.003,0.009
					l0.007,0.027c0.607,2.256,1.536,4.35,2.724,6.249C444.53,204.23,445.159,202.926,445.892,201.731z M441.298,199.386
					 M454.102,214.515L454.102,214.515c0.459,0.212,0.926,0.411,1.398,0.594c-0.462-1.476-0.777-2.947-0.947-4.391
					c-0.171-1.444-0.195-2.863-0.086-4.234c-0.768-0.516-1.492-1.1-2.16-1.748c-0.822-0.797-1.558-1.689-2.194-2.66
					c-0.633,1.18-1.159,2.459-1.558,3.817c-0.399,1.355-0.674,2.79-0.814,4.279C449.604,211.947,451.752,213.422,454.102,214.515z
					 M466.916,220.472L466.916,220.472L466.916,220.472z M480.934,204.2c-1.45,0.302-2.893,0.416-4.294,0.356
					c-1.404-0.058-2.77-0.288-4.069-0.663c-0.186,0.249-0.378,0.491-0.579,0.724h0.001c-0.912,1.056-1.977,1.949-3.164,2.645l0,0
					c-0.333,0.196-0.676,0.375-1.028,0.538c1.046,0.942,2.205,1.795,3.47,2.527c1.262,0.733,2.629,1.344,4.075,1.814
					C477.76,210.079,479.68,207.363,480.934,204.2z"/>
			</g>
			<path style="fill:#FF4564;" d="M274.771,52.447l44.165,13.803c0,0,4.155-66.25,0-66.25c-4.153,0-60.039,17.995-60.039,17.995
				h-5.796c0,0-55.884-17.995-60.039-17.995c-4.154,0,0,66.25,0,66.25l44.166-13.803c0,0-16.563,20.703-45.546,35.885
				c8.308,11.423,22.998,22.083,22.998,22.083s20.272-8.389,41.319-40.084c21.044,31.695,41.321,40.084,41.321,40.084
				s14.689-10.66,22.996-22.083C291.333,73.15,274.771,52.447,274.771,52.447z"/>
			<g>
				<path style="fill:#FF4564;" d="M288.729,486.219c-2.137-3.048-3.973-5.845-5.452-9.145c-1.481-3.299-2.625-7.134-3.297-12.33
					c-0.493-3.819-1.382-7.205-2.67-10.162c-0.966-2.215-2.16-4.184-3.577-5.89c-2.124-2.558-4.752-4.498-7.756-5.761
					c-1.067-0.453-2.171-0.816-3.32-1.102c0,0-0.004-0.001-0.005-0.001c0.514-1.012,0.808-2.161,0.808-3.366
					c0-1.022-0.21-2.011-0.588-2.904c-0.569-1.342-1.512-2.477-2.7-3.279c-1.187-0.803-2.635-1.277-4.171-1.275
					c-1.021,0-2.01,0.209-2.904,0.588c-1.341,0.568-2.476,1.512-3.279,2.699c-0.804,1.187-1.277,2.635-1.276,4.172
					c0,1.022,0.208,2.009,0.588,2.902c0.066,0.16,0.139,0.314,0.217,0.467c0,0,0,0.002-0.002,0.002
					c-0.788,0.193-1.558,0.426-2.305,0.697c-2.054,0.748-3.954,1.789-5.653,3.121c-2.549,2.002-4.631,4.645-6.191,7.844
					c-1.563,3.198-2.619,6.954-3.172,11.248c-0.674,5.196-1.818,9.031-3.298,12.33c-1.481,3.3-3.316,6.097-5.45,9.145
					c-1.485,2.119-2.159,4.488-2.159,6.721c0,1.146,0.178,2.26,0.514,3.305c0.508,1.557,1.375,2.973,2.618,4.038
					c0.621,0.532,1.334,0.972,2.126,1.274c0.788,0.305,1.653,0.469,2.539,0.469h16.042c0.112,1.117,0.391,2.195,0.815,3.195
					c0.845,1.993,2.25,3.685,4.019,4.883c1.77,1.193,3.92,1.898,6.214,1.896c1.523,0,2.988-0.309,4.32-0.873
					c1.995-0.848,3.687-2.248,4.887-4.021c0.998-1.475,1.648-3.216,1.835-5.08h16.043c1.186,0,2.319-0.295,3.303-0.816
					c0.74-0.389,1.393-0.898,1.953-1.486c0.836-0.887,1.469-1.941,1.892-3.092c0.428-1.152,0.65-2.403,0.65-3.691
					C290.886,490.707,290.21,488.338,288.729,486.219z M253.607,437.452c0.193-0.462,0.526-0.864,0.942-1.144
					c0.417-0.279,0.903-0.44,1.45-0.442c0.366,0.002,0.701,0.073,1.01,0.202c0.462,0.197,0.864,0.529,1.144,0.943
					c0.282,0.419,0.442,0.904,0.442,1.451c0,0.363-0.073,0.699-0.204,1.01c-0.193,0.461-0.526,0.863-0.942,1.143
					c-0.416,0.283-0.903,0.442-1.45,0.442c-0.364,0-0.701-0.073-1.01-0.202c-0.463-0.195-0.864-0.527-1.144-0.943
					c-0.279-0.418-0.441-0.902-0.442-1.449C253.404,438.098,253.477,437.762,253.607,437.452z M233.159,479.064
					c1.681-3.74,2.966-8.105,3.685-13.698c0.444-3.444,1.232-6.386,2.303-8.838c0.802-1.841,1.765-3.408,2.858-4.724
					c1.65-1.98,3.598-3.418,5.912-4.397c2.31-0.976,5-1.486,8.085-1.486c2.738,0,5.172,0.403,7.297,1.177
					c1.599,0.585,3.03,1.371,4.313,2.383c1.928,1.511,3.543,3.525,4.827,6.147c1.282,2.622,2.216,5.858,2.717,9.738
					c0.719,5.593,2.005,9.958,3.685,13.696c1.118,2.496,2.404,4.701,3.779,6.813h-53.235
					C230.759,483.764,232.041,481.559,233.159,479.064z M261.754,503.324c-0.474,1.118-1.27,2.078-2.267,2.75
					c-1,0.676-2.186,1.063-3.484,1.063c-0.87,0-1.686-0.175-2.432-0.49c-1.116-0.472-2.075-1.267-2.748-2.265
					c-0.473-0.7-0.811-1.496-0.966-2.357h12.283C262.06,502.478,261.927,502.911,261.754,503.324z M285.745,494.745
					c-0.264,0.816-0.696,1.452-1.153,1.841c-0.231,0.199-0.466,0.338-0.708,0.431c-0.247,0.095-0.5,0.146-0.796,0.146h-16.629h-5.46
					h-10.001h-5.462h-16.624c-0.396-0.003-0.717-0.088-1.035-0.253c-0.236-0.124-0.474-0.302-0.696-0.54
					c-0.334-0.35-0.643-0.834-0.856-1.426c-0.219-0.587-0.349-1.273-0.349-2.004c0.004-1.156,0.313-2.398,1.056-3.592h57.937
					c0.74,1.189,1.052,2.436,1.054,3.592C286.023,493.586,285.923,494.203,285.745,494.745z"/>
			</g>
		</g>
	</g>
</g>
</svg>
