<?xml version="1.0" encoding="iso-8859-1"?>
<!-- Generator: Adobe Illustrator 22.1.0, SVG Export Plug-In . SVG Version: 6.00 Build 0)  -->
<svg version="1.1" id="_x35_" xmlns="http://www.w3.org/2000/svg" xmlns:xlink="http://www.w3.org/1999/xlink" x="0px" y="0px"
	 viewBox="0 0 512 512" style="enable-background:new 0 0 512 512;" xml:space="preserve">
<g>
	<path style="fill:#DB504F;" d="M134.954,175.15c-12.114-4.038-36.341-44.417-20.19-42.398
		c16.152,2.019,18.171,12.114,34.322,15.142c16.152,3.028,64.607,2.019,73.692,1.009c9.085-1.009,22.208-3.029,32.303-9.085
		c10.095-6.057,13.123,5.047,11.104,13.123c-2.019,8.076-19.18,22.208-18.171,27.256c1.01,5.047,7.066,40.379,38.36,44.417
		c31.294,4.038,62.588-19.18,81.768-19.18c19.18,0,54.512,47.445,50.474,82.777s-9.085,39.37-9.085,39.37
		s-7.066,96.91-21.199,107.005c-14.133,10.095-19.18-3.028-19.18-3.028s0-79.749-1.009-86.815
		c-1.009-7.066-12.114,7.066-12.114,7.066s3.028-8.076,0-5.047c-3.028,3.028-15.142,10.095-12.114,12.114
		c3.028,2.019,1.009,55.521-1.009,63.597c-2.019,8.076-11.104,12.114-16.152-9.085s-1.009-47.445-1.009-47.445l-21.199,15.142
		c0,0-5.047,91.863-5.047,97.919c0,6.057-2.019,16.152-20.19,21.199s-17.161-9.085-17.161-9.085s1.009-69.654-6.057-81.768
		c-7.066-12.114-3.029-26.246-23.218-24.227c-20.189,2.019-22.208,7.066-22.208,10.095c0,3.028,4.038,85.806,4.038,95.901
		c0,10.095-16.152,16.152-22.209,14.133s-4.038-19.18-4.038-19.18s-18.171-218.048-21.199-221.076
		c-3.028-3.028-14.133-2.019-38.36-9.085c-24.227-7.066-18.171-53.502-9.085-65.616C128.897,178.178,134.954,175.15,134.954,175.15z
		"/>
	<g>
		<path style="fill:#FFFFFF;" d="M368.144,205.434c-19.18,0-50.474,23.218-81.768,19.18c-31.294-4.038-37.351-39.37-38.361-44.417
			c-1.01-5.048,16.152-19.18,18.171-27.256c2.018-8.076-1.01-19.18-11.105-13.124c-10.094,6.057-23.217,8.076-32.303,9.086
			c-9.085,1.01-57.541,2.019-73.692-1.01c-16.152-3.028-18.171-13.123-34.322-15.142c-16.152-2.019,8.075,38.361,20.189,42.398
			c0,0-6.057,3.029-15.142,15.142c-6.173,8.23-10.936,32.295-5.765,49.101c1.627-20.496,7.254-48.071,24.945-62.224
			c13.789-11.031-9.085-22.209-10.094-26.247c-1.01-4.038,25.237,9.086,55.521,7.066c30.284-2.019,56.53-1.009,64.606-5.047
			c8.076-4.038-7.066,20.19-7.066,20.19s-3.028,59.559,40.379,64.606c31.712,3.688,60.193-23.33,95.673-29.107
			C374.473,206.577,371.114,205.434,368.144,205.434z"/>
		<path style="fill:#FFFFFF;" d="M177.353,261.965c-1.849-0.74-6.823,0.15-12.871,1.62c1.258,0.375,2.18,0.813,2.775,1.408
			c3.029,3.028,21.199,221.076,21.199,221.076s-2.019,17.161,4.038,19.18c0.434,0.145,0.932,0.237,1.461,0.3
			C190.322,432.513,181.33,263.556,177.353,261.965z"/>
	</g>
	<path style="fill:#76181C;" d="M203.033,192.785c-0.019-4.191-2.904-6.01-5.658-5.936c-3.143,0.085-6.116,2.631-4.476,6.932
		c1.154,3.027,2.869,4.061,4.563,4.016C200.282,197.721,203.039,194.642,203.033,192.785z"/>
	<path style="fill:#76181C;" d="M154.489,192.785c-0.019-4.191-2.904-6.01-5.658-5.936c-3.143,0.085-6.117,2.631-4.476,6.932
		c1.154,3.027,2.869,4.061,4.561,4.016C151.738,197.721,154.496,194.642,154.489,192.785z"/>
	<path style="fill:#76181C;" d="M162.096,219.724c-0.032-7.268-5.034-10.423-9.813-10.295c-5.449,0.148-10.606,4.564-7.764,12.022
		c2.002,5.249,4.976,7.043,7.913,6.963C157.326,228.283,162.11,222.945,162.096,219.724z"/>
	<path style="fill:#76181C;" d="M234.195,235.776c-4.427,4.121-8.728,7.338-12.754,10.061c-4.03,2.721-7.802,4.941-11.38,6.828
		c-7.143,3.808-13.449,6.424-19.898,8.624c-6.467,2.144-13.083,3.982-21.204,5.071c-4.049,0.587-8.492,0.892-13.452,0.832
		c-4.953-0.09-10.467-0.6-16.493-2.23c-5.891-1.599-11.002-4.017-15.227-6.937c-1.091-0.682-2.056-1.49-3.011-2.269
		c-0.477-0.389-0.948-0.776-1.416-1.157c-0.448-0.438-0.895-0.872-1.335-1.302c-0.916-0.832-1.613-1.806-2.396-2.682
		c-0.688-0.938-1.382-1.852-1.977-2.795c-2.387-3.773-3.91-7.583-4.978-11.294c-1.057-3.718-1.655-7.361-1.951-11.004
		c-0.556-7.282,0.016-14.615,2.207-22.788c1.14-4.072,2.688-8.376,5.176-12.77c2.463-4.369,5.826-8.963,10.933-12.701
		c0.536-0.355,1.24-0.791,2.058-1.106c0.83-0.299,1.704-0.575,2.522-0.704c1.685-0.188,2.98,0.025,3.025,0.871
		c0.526,0.628-0.185,1.759-1.154,2.79c-0.471,0.552-0.994,1.136-1.523,1.613c-0.519,0.494-0.988,0.992-1.414,1.289
		c-4.082,3.117-6.9,7.081-8.96,10.954c-2.09,3.88-3.391,7.766-4.327,11.44c-1.801,7.384-2.169,14.045-1.555,20.502
		c0.675,6.411,2.232,12.884,6.07,18.95c1.901,3.059,4.566,5.59,8.172,8.086c3.548,2.433,7.868,4.483,13,5.878
		c5.25,1.421,10.189,1.898,14.687,1.991c4.505,0.065,8.596-0.183,12.361-0.704c7.546-0.95,13.811-2.593,19.962-4.506
		c6.14-1.966,12.198-4.311,19.074-7.773c3.446-1.713,7.081-3.739,10.958-6.228c3.871-2.489,8.003-5.442,12.203-9.189
		c0.872-0.716,2.598-1.972,4.251-2.888c1.594-0.957,3.145-1.578,3.571-0.871c0.779,0.318,0.315,1.912-0.589,3.701
		C236.487,233.088,235.095,234.976,234.195,235.776z"/>
	<path style="fill:#76181C;" d="M121.668,135.403c-0.934-0.855-1.81-1.374-2.505-1.653c-0.693-0.209-1.152-0.195-1.47-0.114
		c-0.589,0.248-1.228,0.818-1.747,1.872c-0.507,1.029-0.89,2.327-1.062,3.987c-0.169,1.659-0.153,3.708,0.408,6.283
		c1.194,5.046,2.999,7.848,4.837,10.479c0.459,0.67,0.964,1.31,1.525,1.952c0.524,0.674,1.157,1.302,1.824,1.996
		c0.647,0.714,1.47,1.356,2.302,2.139c0.922,0.684,1.856,1.527,3.05,2.269c0.454,0.325,0.839,2.119-0.037,3.437
		c-0.64,1.46-2.475,1.907-3.067,1.595c-1.425-0.742-2.603-1.613-3.736-2.324c-1.061-0.823-2.086-1.504-2.939-2.281
		c-0.869-0.756-1.69-1.451-2.399-2.213c-0.744-0.726-1.423-1.463-2.051-2.25c-2.489-3.108-4.948-6.559-6.54-13.245
		c-0.744-3.428-0.758-6.274-0.433-8.731c0.341-2.459,1.011-4.564,2.209-6.583c0.329-0.501,0.675-0.999,1.054-1.484
		c0.456-0.473,0.841-0.967,1.409-1.402c1.05-0.906,2.517-1.652,4.228-1.959c1.745-0.251,3.565,0.104,5.173,0.849
		c1.558,0.786,2.93,1.889,4.162,3.215c0.524,0.565,0.711,2.89-0.644,3.717C124.024,136.01,122.03,135.684,121.668,135.403z"/>
	<path style="fill:#76181C;" d="M154.478,152.228c-3.24,0.255-5.187,0.391-7.157,0.366c-1.972-0.069-4.014-0.09-7.628-1.208
		c-3.53-1.171-5.498-2.58-7.196-4.068c-1.692-1.523-3.127-3.331-4.812-6.427c-0.162-0.338,0.593-1.639,2.014-2.346
		c1.344-0.832,2.827-0.98,3.008-0.772c1.711,2.216,2.946,3.24,4.221,4.104c1.294,0.842,2.55,1.645,5.023,2.468
		c2.556,0.798,4.242,0.962,5.906,1.238c1.687,0.25,3.411,0.489,6.624,0.735c0.322,0.042,1.221,1.374,1.149,2.955
		C155.702,150.855,154.8,152.186,154.478,152.228z"/>
	<path style="fill:#76181C;" d="M147.434,131.711c-2.121-6.541-4.505-11.401-6.754-15.475c-2.257-4.072-4.434-7.354-6.717-10.58
		c-4.531-6.499-9.648-12.551-18.551-23.851c-8.673-11.136-13.158-18.808-16.637-26.832c-1.757-4.016-3.131-8.214-4.353-13.162
		c-1.189-4.955-2.142-10.722-2.376-17.911c-0.007-1.483,1.224-4.589,2.818-4.258c1.571-0.311,3.001,2.603,3.087,3.965
		c0.457,6.74,1.55,12.033,2.816,16.557c1.3,4.515,2.691,8.311,4.422,11.962c3.446,7.315,7.609,14.286,16.067,25.145
		c8.728,11.072,13.989,17.483,18.518,24.42c2.288,3.455,4.464,7.021,6.708,11.466c2.232,4.441,4.591,9.765,6.619,16.859
		c0.405,1.439,0.104,5.734-1.511,5.75C150.107,136.412,147.879,132.988,147.434,131.711z"/>
	<path style="fill:#76181C;" d="M298.062,1.962c2.234,1.493,4.169,3.249,5.898,5.043c1.643,1.886,3.133,3.803,4.142,5.901
		c2.199,4.114,2.821,8.42,2.823,12.18c-0.026,3.798-0.714,7.164-1.601,10.235c-0.908,3.068-2.002,5.892-3.286,8.578
		c-2.554,5.387-5.614,10.423-9.604,16.071c-3.996,5.648-8.96,11.888-15.607,19.476c-13.083,14.771-21.438,23.122-29.442,31.759
		c-4.01,4.3-8.001,8.61-12.365,13.785c-2.172,2.591-4.441,5.402-6.696,8.594c-2.22,3.178-4.571,6.796-5.97,10.884
		c-0.313,0.828-0.939,2.009-1.571,3.022c-0.631,0.99-1.302,1.926-2.109,1.769c-0.763,0.296-1.579-0.668-1.982-2.165
		c-0.408-1.478-0.322-3.347,0.023-4.401c1.667-5.234,4.16-9.137,6.445-12.641c2.324-3.483,4.61-6.469,6.784-9.21
		c4.366-5.467,8.302-9.943,12.263-14.374c7.892-8.877,16.185-17.352,29.053-31.892c6.529-7.458,11.359-13.493,15.225-18.855
		c3.861-5.359,6.795-10.038,9.215-14.875c1.224-2.413,2.241-4.89,3.094-7.507c0.834-2.615,1.462-5.398,1.564-8.371
		c0.069-2.953-0.289-6.14-1.856-9.257c-0.698-1.595-1.824-3.094-3.073-4.631c-1.358-1.467-2.892-2.964-4.791-4.297
		c-0.705-0.584-2.037-1.784-3.085-3.018c-1.076-1.187-1.866-2.443-1.319-3.045c0.151-0.816,1.622-0.853,3.344-0.533
		C295.269,0.553,297.193,1.313,298.062,1.962z"/>
	<path style="fill:#76181C;" d="M265.808,88.185c0.09-3.574-0.296-5.542-0.614-7.465c-0.431-1.884-0.797-3.815-2.13-6.719
		c-1.368-2.791-2.637-4.051-3.961-5.199c-1.372-1.085-2.853-2.176-5.989-2.878c-0.297-0.084-0.892-1.513-0.716-3.08
		c0.003-1.592,1.027-2.8,1.493-2.781c4.351,0.369,7.037,1.595,9.371,3.087c2.294,1.557,4.482,3.609,6.448,7.606
		c1.898,4.118,2.181,6.624,2.457,9.046c0.132,2.429,0.165,4.872-0.48,8.984c-0.088,0.42-1.53,1.388-3.087,1.068
		C267.028,89.705,265.813,88.53,265.808,88.185z"/>
	<path style="fill:#76181C;" d="M150.932,50.054c-4.607,2.107-7.115,3.546-9.593,4.962c-2.461,1.442-4.986,2.809-9.048,5.597
		c-3.929,2.769-6.001,4.696-7.897,6.668c-0.992,0.971-1.789,2.033-2.693,3.275c-0.785,1.279-1.701,2.768-2.088,4.76
		c-0.095,0.362-1.573,1.173-3.14,1.027c-1.6,0.086-2.756-1.282-2.7-1.947c0.322-3.076,1.365-5.289,2.266-7.145
		c1.003-1.777,1.947-3.275,3.048-4.563c2.155-2.645,4.57-5.032,8.969-8.14c4.526-3.11,7.292-4.455,10.056-5.781
		c2.779-1.291,5.599-2.466,10.664-4.218c0.522-0.155,2.382,0.558,2.811,2.088C152.235,48.082,151.381,49.836,150.932,50.054z"/>
	<path style="fill:#76181C;" d="M248.725,172.018c2.22-3.778,4.075-6.55,5.544-8.951c1.467-2.397,2.659-4.395,3.651-6.402
		c1.034-2,1.891-4.012,2.529-6.373c0.619-2.357,0.995-5.064,0.081-8.318c-0.114-0.383-0.225-0.756-0.332-1.12
		c-0.049-0.193-0.012-0.055-0.023-0.098l0.002-0.012l-0.005-0.007l-0.005-0.002l-0.039,0.007l-0.273,0.058
		c-0.725,0.146-1.416,0.336-2.084,0.496c-2.677,0.684-4.955,1.409-7.203,2.207c-2.248,0.802-4.468,1.692-6.949,2.902
		c-2.468,1.212-5.256,2.726-8.198,5.104c-0.603,0.436-2.686,0.66-3.729-0.55c-1.298-0.923-0.867-3.263-0.162-3.9
		c3.349-3.046,6.357-4.914,9.02-6.446c2.675-1.521,5.053-2.649,7.481-3.653c2.429-0.999,4.902-1.889,7.861-2.716
		c0.744-0.197,1.506-0.419,2.322-0.598l0.853-0.195c0.389-0.093,0.783-0.172,1.182-0.246c0.8-0.153,1.618-0.311,2.455-0.471
		c2.112-1.177,2.35,1.463,3.254,2.951c0.366,0.813,0.888,1.787,1.154,2.526c0.178,0.58,0.359,1.175,0.547,1.785
		c1.389,4.953,0.732,9.141-0.16,12.242c-0.929,3.15-2.102,5.553-3.388,7.767c-2.51,4.478-5.718,8.342-10.36,15.127
		c-0.457,0.656-2.751,1.958-4.053,1.043C248.21,175.594,248.291,172.799,248.725,172.018z"/>
	<path style="fill:#76181C;" d="M210.019,152.037c-9.475,0.114-10.775,0.452-20.375,0.229c-4.712-0.114-7.586-0.297-10.465-0.6
		c-2.893-0.364-5.762-0.644-10.65-1.877c-0.514-0.16-1.244-1.694-0.718-3.196c0.315-1.55,1.557-2.633,1.975-2.582
		c4.288,0.619,7.111,0.556,9.844,0.653c2.795,0.056,5.576,0.114,10.186,0.208c9.523,0.211,10.847,0.366,20.484,1.259
		c0.485,0.067,1.762,1.462,1.562,3.036C211.878,150.751,210.488,152.016,210.019,152.037z"/>
	<path style="fill:#76181C;" d="M182.445,481.994c-1.047-5.732-1.671-10.87-2.41-15.531c-0.602-4.67-1.143-8.875-1.646-12.768
		c-0.888-7.792-1.655-14.344-2.258-20.901c-1.294-13.109-2.334-26.236-3.88-49.311c-1.437-22.561-2.306-36.191-3.175-49.824
		c-0.426-6.809-0.897-13.609-1.484-21.517c-0.331-3.947-0.686-8.172-1.075-12.812c-0.5-4.617-0.908-9.686-1.666-15.236
		c-0.276-2.264,0.362-7.271,1.996-7.011c1.488-0.772,3.493,3.899,3.861,6.205c0.894,5.639,1.418,10.724,2.032,15.39
		c0.499,4.666,0.957,8.916,1.382,12.884c0.776,7.938,1.402,14.761,1.952,21.582c1.126,13.64,2.065,27.289,3.557,49.845
		c1.548,23.045,2.464,36.124,3.505,49.186c0.478,6.536,1.085,13.051,1.782,20.809c0.406,3.87,0.844,8.047,1.331,12.687
		c0.621,4.614,1.126,9.73,2.033,15.389c0.331,2.257,0.065,8.814-1.574,8.594C185.24,490.466,182.867,484.291,182.445,481.994z"/>
	<path style="fill:#76181C;" d="M412.904,308.297c0.923-7.415,1.029-14.147,0.727-20.236c-0.296-6.091-0.962-11.554-1.826-16.557
		c-0.855-5.007-1.956-9.551-3.219-13.818c-1.258-4.265-2.668-8.272-4.373-12.128c-3.374-7.686-7.602-15.12-14.492-21.99
		c-3.462-3.386-7.667-6.541-12.886-8.865c-5.219-2.311-11.501-3.544-18.651-3.252c-7.018,0.289-13.366,2.019-19.11,3.849
		c-5.757,1.871-10.951,3.961-15.86,5.933c-9.831,3.884-18.454,7.572-28.144,9.032c-4.809,0.693-9.977,0.763-15.155-0.726
		c-5.178-1.451-10.056-4.589-14.004-8.798c-7.808-8.601-12.664-20.414-16.827-35.097c-0.744-3.046-1.098-9.739,0.621-9.412
		c1.37-1.015,4.276,4.898,5.069,7.806c4.214,14.142,9.194,25.126,15.883,32.181c3.375,3.442,7.131,5.711,11.099,6.765
		c3.968,1.073,8.112,1.001,12.267,0.343c8.362-1.346,16.666-4.893,26.456-8.858c4.906-2.003,10.232-4.179,16.317-6.176
		c6.084-1.949,12.981-3.878,21.049-4.228c8.223-0.357,15.77,1.119,21.956,3.884c6.204,2.774,11.111,6.513,15.051,10.413
		c7.832,7.917,12.309,16.127,15.834,24.443c1.773,4.176,3.206,8.466,4.464,13.009c1.261,4.543,2.332,9.35,3.136,14.623
		c0.813,5.27,1.407,10.998,1.604,17.385c0.202,6.385-0.021,13.434-1.127,21.286c-0.244,1.565-1.059,4.492-2.13,6.828
		c-1.08,2.341-2.32,4.068-2.98,3.514c-0.86,0.112-1.034-1.968-1.036-4.397C412.612,312.612,412.714,309.775,412.904,308.297z"/>
	<path style="fill:#76181C;" d="M297.243,470.934c-0.155-14.659-0.111-22.975-0.055-31.294c0.07-8.316,0.234-16.63,0.647-31.24
		c0.405-14.296,0.7-22.927,1.024-31.553c0.309-8.626,0.719-17.253,1.046-31.514c0.049-1.453,1.393-4.535,2.973-4.207
		c1.583-0.331,2.902,2.768,2.939,4.234c0.164,14.345,0.12,22.998,0.056,31.651c-0.076,8.65-0.246,17.299-0.646,31.597
		c-0.408,14.609-0.691,22.904-1.008,31.198c-0.304,8.293-0.721,16.588-1.066,31.161c-0.049,1.453-1.397,5.521-2.976,5.194
		C298.594,476.492,297.28,472.399,297.243,470.934z"/>
	<path style="fill:#76181C;" d="M258.38,472.323c-1.463-6.517-1.989-11.653-2.424-16.057c-0.391-4.406-0.598-8.096-0.765-11.776
		c-0.162-3.674-0.267-7.343-0.38-11.676c-0.128-4.332-0.206-9.349-0.619-15.626c-0.42-6.133-1.075-10.947-2.047-14.938
		c-0.978-3.977-2.251-7.164-4.075-9.681c-1.836-2.491-4.199-4.318-7.776-5.126c-3.595-0.749-8.302-0.403-14.05,1.242
		c-1.157,0.338-4.091-0.1-4.39-1.666c-0.848-1.384,1.381-3.523,2.663-3.987c6.251-2.037,11.857-2.86,17-2.03
		c5.162,0.851,9.424,3.764,12.129,7.305c2.758,3.564,4.369,7.584,5.574,12.152c1.186,4.591,1.908,9.813,2.352,16.228
		c0.434,6.552,0.478,11.623,0.549,15.983c0.039,4.338,0.07,7.982,0.102,11.628c0.042,3.627,0.093,7.241,0.287,11.51
		c0.234,4.257,0.535,9.203,1.653,15.287c0.172,1.203-0.208,4.869-1.81,5.066C260.932,476.912,258.661,473.648,258.38,472.323z"/>
	<path style="fill:#76181C;" d="M361.34,345.292c-1.059,1.488-2.151,2.571-3.078,3.681c-0.994,0.995-1.887,1.891-2.716,2.719
		c-1.717,1.546-3.148,2.89-4.661,4.07c-2.985,2.456-6.095,4.695-11.728,8.295c-11.064,6.875-13.714,7.838-25.043,13.742
		c-0.558,0.281-2.408-0.167-3.12-1.585c-0.967-1.265-0.429-3.134,0.143-3.523c10.91-6.747,13.186-8.156,24.063-14.882
		c5.446-3.488,8.478-5.528,11.414-7.635c1.509-1.022,2.9-2.135,4.61-3.425c0.804-0.681,1.673-1.416,2.638-2.232
		c0.846-0.876,1.933-1.789,2.862-2.918c0.366-0.415,2.477-0.978,3.731-0.019C361.886,342.304,361.771,344.662,361.34,345.292z"/>
	<path style="fill:#76181C;" d="M364.798,407.628c-0.037-20.706,0.375-23.511,0.923-43.909c0.188-9.954,0.077-15.927-0.209-21.874
		c-0.357-5.924-0.573-11.918-2.633-21.443c-0.199-0.96,0.566-3.37,2.139-3.597c1.46-0.677,3.291,1.126,3.595,2.153
		c2.682,10.028,3.273,16.252,3.901,22.41c0.549,6.17,0.788,12.358,0.602,22.507c-0.549,20.679-1.451,23.453-2.406,43.83
		c-0.053,1.01-1.414,3.849-2.994,3.623C366.132,411.567,364.83,408.669,364.798,407.628z"/>
	<path style="fill:#76181C;" d="M377.57,434.845c6.049-1.616,9.607-5.641,12.126-9.282c2.526-3.72,4.13-7.312,5.579-10.956
		c2.709-7.412,4.916-15.158,7.306-29.256c2.216-13.836,3.034-22.347,4.035-30.83c0.985-8.497,1.815-17.012,3.592-31.182
		c0.214-1.449,1.901-4.353,3.432-3.826c1.608-0.123,2.57,3.064,2.443,4.491c-1.272,14.048-1.74,22.639-2.482,31.203
		c-0.763,8.569-1.455,17.162-3.724,31.358c-2.454,14.497-4.881,22.695-8.077,30.663c-1.713,3.952-3.625,7.89-6.777,12.177
		c-1.543,2.153-3.565,4.309-6.1,6.411c-2.594,2.042-5.943,3.87-9.983,4.781c-0.814,0.148-2.415,0.204-3.715-0.324
		c-1.307-0.447-2.258-1.117-2.088-1.917c-0.155-0.779,0.749-1.574,1.741-2.179C375.901,435.647,376.966,434.982,377.57,434.845z"/>
	<path style="fill:#76181C;" d="M211.401,469.849c0.651-3.958,0.813-7.12,0.864-9.855c0.049-2.735-0.053-5.053-0.135-7.37
		c-0.26-4.652-0.633-9.313-1.439-17.649c-0.805-8.17-1.233-13.181-1.476-18.194c-0.25-5.013-0.41-10.054-0.271-18.389
		c0.032-0.855,1.34-2.652,2.925-2.459c1.579-0.185,2.934,1.574,2.987,2.399c0.348,8.126,0.867,13.018,1.356,17.92
		c0.505,4.932,1.008,9.855,1.84,18.008c0.818,8.408,1.092,13.292,1.108,18.198c-0.037,2.466-0.09,4.928-0.336,7.876
		c-0.25,2.941-0.653,6.371-1.625,10.668c-0.229,0.869-2.037,2.95-3.527,2.355C212.103,473.132,211.278,470.621,211.401,469.849z"/>
	<path style="fill:#76181C;" d="M187.086,501.102c-0.225,0.916-0.051,1.49,0.067,1.873c0.118,0.38,0.422,0.552,0.684,0.805
		c0.668,0.44,1.664,0.742,2.739,0.885c2.188,0.213,4.819,0.204,9.09-1.214c4.149-1.521,6.27-3.184,8.175-4.869
		c1.761-1.801,3.576-3.75,4.531-7.927c0.086-0.398,1.529-1.245,3.098-1.071c1.595-0.06,2.788,1.286,2.753,1.922
		c-0.311,2.964-1.161,5.291-2.093,7.194c-0.932,1.924-2.067,3.363-3.233,4.749c-2.466,2.601-5.322,4.972-10.777,6.979
		c-2.804,0.98-5.131,1.372-7.182,1.518c-2.056,0.121-3.829,0.044-5.66-0.369c-1.805-0.445-3.76-1.053-5.811-2.895
		c-0.959-0.983-1.977-2.308-2.346-4.024c-0.376-1.652-0.294-3.495,0.253-5.081c0.201-0.739,2.125-1.808,3.476-0.989
		C186.326,499.201,187.077,500.812,187.086,501.102z"/>
	<path style="fill:#76181C;" d="M264.81,493.599c-0.095,0.872,0.15,1.379,0.371,1.798c0.195,0.424,0.632,0.716,1.006,1.027
		c0.864,0.586,1.98,0.941,3.134,1.177c2.327,0.445,5.016,0.691,9.672-0.021c4.556-0.814,7.145-1.944,9.551-3.127
		c2.26-1.301,4.805-2.698,6.562-6.237c0.13-0.324,1.689-0.839,3.212-0.431c1.592,0.181,2.506,1.801,2.332,2.487
		c-1.05,3.055-2.66,5.087-4.121,6.647c-1.5,1.544-2.957,2.608-4.447,3.593c-3.031,1.819-6.244,3.347-11.866,4.362
		c-5.775,0.878-9.241,0.499-12.71-0.477c-1.72-0.542-3.516-1.221-5.456-2.871c-0.923-0.883-1.956-1.947-2.572-3.532
		c-0.631-1.516-0.894-3.423-0.531-5.164c0.084-0.821,1.935-2.144,3.349-1.446C263.832,491.863,264.735,493.353,264.81,493.599z"/>
	<path style="fill:#76181C;" d="M323.855,425.751c-1.456-4.592-1.856-7.28-2.255-9.936c-0.361-2.659-0.563-5.338-0.536-9.955
		c0.13-8.984,0.682-10.789,1.307-19.466c0.047-0.436,1.388-1.372,2.969-1.275c1.583-0.106,2.906,0.865,2.943,1.328
		c0.346,8.96,0.29,10.814,0.178,19.466c-0.021,4.396,0.055,6.842,0.146,9.282c0.125,2.429,0.137,4.891,0.959,9.023
		c0.069,0.401-0.893,1.928-2.425,2.315C325.659,427.116,324.027,426.216,323.855,425.751z"/>
	<path style="fill:#76181C;" d="M337.643,426.567c1.729-1.803,2.54-3.818,3.161-5.546c0.593-1.764,0.943-3.345,1.201-4.971
		c0.519-3.247,0.851-6.612,0.893-12.705c-0.021-5.98-0.25-9.669-0.362-13.366c-0.107-3.72-0.315-7.4-0.31-13.763
		c0.019-0.66,1.344-2.06,2.925-1.901c1.583-0.125,2.92,1.143,2.985,1.741c0.47,5.971,1.043,9.716,1.4,13.438
		c0.361,3.745,0.73,7.502,0.758,13.865c-0.04,6.517-0.522,10.325-1.4,14.105c-0.44,1.887-1.024,3.785-1.991,5.991
		c-1.013,2.162-2.315,4.812-5.178,7.387c-0.283,0.255-1.047,0.498-1.849,0.406c-0.793-0.067-1.541-0.415-1.924-1.115
		c-0.496-0.614-0.6-1.453-0.598-2.13C337.379,427.34,337.483,426.761,337.643,426.567z"/>
	<path style="fill:#76181C;" d="M373.904,439.785c-2.522-0.767-3.931-1.497-5.271-2.313c-1.309-0.864-2.617-1.864-4.308-4.191
		c-1.565-2.348-2.095-4.047-2.408-5.702c-0.267-1.664-0.378-3.384,0.049-6.01c0.063-0.281,1.432-0.688,2.997-0.431
		c1.572,0.155,2.867,0.712,2.897,0.888c0.12,1.845,0.507,2.839,0.85,3.797c0.378,0.946,0.774,1.859,1.69,3.24
		c1.011,1.37,1.736,2.074,2.473,2.798c0.767,0.695,1.527,1.465,3.24,2.44c0.151,0.105,0.215,1.564-0.347,3.043
		C375.303,438.858,374.177,439.847,373.904,439.785z"/>
</g>
</svg>
