<?xml version="1.0" encoding="iso-8859-1"?>
<!-- Generator: Adobe Illustrator 22.1.0, SVG Export Plug-In . SVG Version: 6.00 Build 0)  -->
<svg version="1.1" id="_x31_2" xmlns="http://www.w3.org/2000/svg" xmlns:xlink="http://www.w3.org/1999/xlink" x="0px" y="0px"
	 viewBox="0 0 512 512" style="enable-background:new 0 0 512 512;" xml:space="preserve">
<g>
	<polygon style="fill:#266DA0;" points="383.865,334.674 383.415,333.058 125.923,404.708 125.923,354.366 382.187,283.057 
		382.188,334.674 383.865,334.674 383.415,333.058 383.865,334.674 385.542,334.674 385.542,278.643 122.569,351.817 
		122.569,409.121 385.542,335.946 385.542,334.674 	"/>
	<polygon style="fill:#266DA0;" points="383.865,417.077 383.415,415.461 125.923,487.111 125.923,436.768 382.187,365.459 
		382.188,417.077 383.865,417.077 383.415,415.461 383.865,417.077 385.542,417.077 385.542,361.046 122.569,434.22 
		122.569,491.523 385.542,418.349 385.542,417.077 	"/>
	<polygon style="fill:#266DA0;" points="384.319,296.557 405.063,290.78 394.714,320.195 405.291,341.057 365.794,352.044 
		365.794,340.168 362.441,340.168 362.441,356.458 410.132,343.19 398.353,319.958 410.36,285.824 383.42,293.327 384.319,296.558 	
		"/>
	<polygon style="fill:#266DA0;" points="146.206,483.311 146.206,496.121 106.938,507.046 117.287,477.625 106.71,456.768 
		124.692,451.762 123.793,448.532 101.87,454.635 113.649,477.863 101.64,512 149.56,498.669 149.56,483.311 146.206,483.311 	"/>
	<polygon style="fill:#266DA0;" points="385.546,417.072 385.546,361.592 285.109,360.478 285.072,363.832 382.192,364.908 
		382.193,417.072 385.547,417.072 	"/>
	<polygon style="fill:#266DA0;" points="122.566,353.09 122.566,408.566 223.003,409.682 223.04,406.331 125.919,405.252 
		125.919,353.09 122.566,353.09 	"/>
	<polygon style="fill:#266DA0;" points="197.73,333.699 260.569,173.34 311.733,301.116 314.846,299.871 260.535,164.237 
		194.608,332.476 197.731,333.7 	"/>
	<polyline style="fill:#266DA0;" points="344.755,111.218 312.34,111.218 312.34,114.573 344.755,114.573 	"/>
	<polyline style="fill:#266DA0;" points="373.448,111.218 362.639,111.218 362.639,114.573 373.448,114.573 	"/>
	<polyline style="fill:#266DA0;" points="158.465,111.218 147.656,111.218 147.656,114.573 158.465,114.573 	"/>
	<polyline style="fill:#266DA0;" points="208.766,111.218 176.35,111.218 176.35,114.573 208.766,114.573 	"/>
	<polygon style="fill:#266DA0;" points="278.251,112.9 276.898,113.89 287.609,128.519 268.363,126.426 260.552,144.139 
		252.743,126.426 233.497,128.519 244.931,112.899 233.496,97.278 252.743,99.371 260.552,81.658 268.362,99.37 287.609,97.278 
		276.172,112.899 276.898,113.89 278.251,112.9 279.603,113.89 294.805,93.122 270.441,95.772 260.552,73.348 250.664,95.772 
		226.302,93.122 240.775,112.899 226.299,132.673 250.665,130.025 260.551,152.453 270.441,130.025 294.808,132.675 
		279.603,111.909 278.251,112.9 279.603,113.89 	"/>
	<polygon style="fill:#266DA0;" points="262.229,61.109 262.229,28.694 262.229,10.809 262.229,0 258.876,0 258.875,10.809 
		258.875,28.694 258.875,61.109 262.229,61.109 	"/>
	<polygon style="fill:#266DA0;" points="357.486,54.995 348.141,60.394 332.65,69.337 304.572,85.545 306.248,88.45 334.326,72.241 
		349.818,63.298 359.164,57.9 357.487,54.996 	"/>
	<polygon style="fill:#266DA0;" points="214.858,137.343 186.78,153.55 171.287,162.492 161.942,167.891 163.62,170.796 
		172.965,165.397 188.456,156.454 216.534,140.247 214.858,137.344 	"/>
	<polyline style="fill:#266DA0;" points="304.122,185.003 287.903,156.914 285,158.59 301.218,186.68 	"/>
	<polyline style="fill:#266DA0;" points="318.454,209.83 313.066,200.486 310.161,202.161 315.548,211.505 	"/>
	<polyline style="fill:#266DA0;" points="210.956,23.629 205.557,14.284 202.653,15.962 208.052,25.307 	"/>
	<polyline style="fill:#266DA0;" points="236.106,67.2 219.897,39.122 216.993,40.799 233.202,68.877 	"/>
	<polyline style="fill:#266DA0;" points="301.207,39.122 284.999,67.2 287.904,68.877 304.111,40.799 	"/>
	<polyline style="fill:#266DA0;" points="315.549,14.284 310.15,23.629 313.054,25.307 318.453,15.962 	"/>
	<polyline style="fill:#266DA0;" points="208.04,200.486 202.652,209.83 205.558,211.505 210.945,202.161 	"/>
	<polyline style="fill:#266DA0;" points="233.202,156.914 216.982,185.003 219.886,186.68 236.106,158.59 	"/>
	<polygon style="fill:#266DA0;" points="304.572,140.247 332.65,156.454 348.142,165.397 357.486,170.796 359.164,167.892 
		349.819,162.492 334.326,153.55 306.248,137.343 304.572,140.248 	"/>
	<polygon style="fill:#266DA0;" points="216.534,85.545 188.456,69.337 172.964,60.394 163.62,54.995 161.942,57.9 171.287,63.298 
		186.78,72.241 214.858,88.449 216.535,85.546 	"/>
	<polyline style="fill:#266DA0;" points="123.704,490.904 147.341,498.981 148.425,495.809 124.788,487.732 	"/>
	<polyline style="fill:#266DA0;" points="365.298,355.443 385.045,335.865 382.684,333.482 362.937,353.061 	"/>
	<polyline style="fill:#266DA0;" points="303.06,274.443 207.668,300.979 208.566,304.21 303.958,277.673 	"/>
	<polyline style="fill:#266DA0;" points="293.268,249.997 219.617,270.497 220.516,273.728 294.167,253.227 	"/>
	<polyline style="fill:#266DA0;" points="283.487,225.573 231.555,240.026 232.454,243.256 284.387,228.804 	"/>
	<polyline style="fill:#266DA0;" points="273.708,201.138 243.505,209.533 244.403,212.763 274.605,204.369 	"/>
	<path style="fill:#266DA0;" d="M218.425,368.39l-3.45,1.004l-0.231-19.935c-0.018-1.575,0.056-3.53,0.222-5.865l-0.082,0.024
		c-0.315,1.436-0.601,2.482-0.856,3.14l-9.854,25.784l-1.695,0.493l-10.362-19.729c-0.297-0.578-0.604-1.508-0.924-2.787
		l-0.084,0.024c0.124,1.157,0.202,3.081,0.233,5.775l0.231,19.893l-3.345,0.974l-0.345-29.715l4.586-1.336l9.329,18.075
		c0.72,1.384,1.189,2.439,1.404,3.167l0.124-0.036c0.574-1.802,1.033-3.156,1.382-4.062l9.036-23.341l4.338-1.264L218.425,368.39z"
		/>
	<polygon style="fill:#266DA0;" points="241.911,361.548 226.211,366.121 225.867,336.406 240.903,332.026 240.94,335.176 
		229.373,338.544 229.487,348.429 240.187,345.313 240.224,348.442 229.524,351.559 229.645,361.961 241.874,358.398 	"/>
	<path style="fill:#266DA0;" d="M268.843,353.703l-4.131,1.204l-5.053-6.887c-0.464-0.641-0.911-1.172-1.345-1.594
		c-0.434-0.421-0.876-0.74-1.327-0.954s-0.937-0.327-1.456-0.335c-0.517-0.008-1.101,0.082-1.746,0.27l-2.852,0.831l0.146,12.64
		l-3.469,1.011l-0.346-29.715l8.84-2.575c1.295-0.378,2.492-0.563,3.591-0.558c1.097,0.007,2.053,0.223,2.866,0.652
		c0.813,0.428,1.452,1.071,1.92,1.926c0.466,0.856,0.705,1.947,0.72,3.273c0.013,1.036-0.13,2.031-0.431,2.984
		c-0.301,0.954-0.731,1.853-1.295,2.696c-0.564,0.844-1.247,1.62-2.045,2.331c-0.8,0.712-1.702,1.346-2.704,1.9l0.002,0.083
		c0.498,0.077,0.932,0.204,1.3,0.381c0.368,0.177,0.72,0.411,1.054,0.701c0.336,0.291,0.667,0.635,0.996,1.031
		c0.329,0.396,0.699,0.86,1.105,1.394L268.843,353.703z M250.772,332.312l0.124,10.775l4.711-1.371
		c0.868-0.253,1.668-0.617,2.402-1.094c0.733-0.477,1.364-1.039,1.896-1.686c0.532-0.647,0.945-1.371,1.241-2.17
		c0.294-0.8,0.437-1.642,0.426-2.526c-0.018-1.589-0.546-2.679-1.583-3.272c-1.036-0.591-2.524-0.605-4.465-0.039L250.772,332.312z"
		/>
	<path style="fill:#266DA0;" d="M294.146,346.333l-4.131,1.203l-5.053-6.887c-0.464-0.64-0.913-1.172-1.346-1.593
		c-0.434-0.422-0.874-0.74-1.327-0.955c-0.452-0.215-0.935-0.326-1.454-0.335c-0.517-0.008-1.102,0.082-1.748,0.27l-2.85,0.831
		l0.146,12.64l-3.471,1.011l-0.344-29.715l8.84-2.575c1.294-0.377,2.491-0.563,3.59-0.558c1.097,0.006,2.055,0.223,2.868,0.652
		c0.813,0.429,1.453,1.071,1.918,1.926c0.466,0.856,0.705,1.947,0.721,3.273c0.011,1.036-0.13,2.031-0.431,2.985
		c-0.302,0.954-0.733,1.853-1.295,2.695c-0.564,0.844-1.247,1.621-2.047,2.332c-0.8,0.711-1.701,1.345-2.703,1.899v0.083
		c0.5,0.077,0.934,0.204,1.3,0.38c0.368,0.178,0.72,0.411,1.056,0.702c0.334,0.291,0.667,0.634,0.996,1.03
		c0.329,0.397,0.697,0.86,1.104,1.394L294.146,346.333z M276.074,324.943l0.125,10.775l4.711-1.372
		c0.866-0.252,1.666-0.617,2.4-1.094c0.734-0.477,1.366-1.039,1.898-1.686c0.532-0.646,0.945-1.37,1.239-2.169
		c0.296-0.8,0.439-1.642,0.427-2.527c-0.018-1.588-0.546-2.678-1.583-3.271c-1.036-0.592-2.526-0.606-4.467-0.04L276.074,324.943z"
		/>
	<path style="fill:#266DA0;" d="M317.122,309.825l-9.554,21.579l0.129,10.982l-3.471,1.012l-0.127-10.9l-9.74-16.042l3.946-1.149
		l6.785,11.496c0.085,0.142,0.333,0.68,0.744,1.613l0.063-0.018c0.132-0.51,0.386-1.195,0.763-2.053l6.784-15.449L317.122,309.825z"
		/>
	<path style="fill:#266DA0;" d="M180.778,458.28c-1.822,1.472-4.094,2.587-6.813,3.344c-3.509,0.978-6.319,0.632-8.431-1.039
		c-2.11-1.671-3.164-4.342-3.164-8.012c0-3.946,1.186-7.465,3.561-10.559c2.375-3.093,5.384-5.148,9.032-6.164
		c2.341-0.653,4.279-0.854,5.815-0.606v3.079c-1.766-0.494-3.715-0.444-5.849,0.151c-2.834,0.79-5.13,2.376-6.89,4.758
		c-1.761,2.384-2.642,5.159-2.642,8.324c0,3.005,0.823,5.17,2.468,6.495c1.647,1.325,3.805,1.615,6.478,0.869
		c2.478-0.691,4.621-1.839,6.433-3.445V458.28z"/>
	<polygon style="fill:#266DA0;" points="204.349,452.743 201.457,453.549 201.457,442.297 188.692,445.855 188.692,457.107 
		185.803,457.912 185.803,433.241 188.692,432.436 188.692,443.258 201.457,439.699 201.457,428.878 204.349,428.072 	"/>
	<path style="fill:#266DA0;" d="M228.504,446.01l-3.44,0.959l-4.131-5.765c-0.378-0.537-0.744-0.982-1.101-1.336
		c-0.357-0.354-0.72-0.623-1.093-0.806c-0.373-0.182-0.774-0.28-1.205-0.292c-0.429-0.012-0.914,0.057-1.452,0.207l-2.375,0.662
		v10.495l-2.891,0.806v-24.672l7.364-2.052c1.078-0.3,2.073-0.443,2.985-0.428c0.911,0.016,1.703,0.205,2.375,0.569
		c0.67,0.364,1.194,0.903,1.573,1.617c0.379,0.714,0.567,1.622,0.567,2.724c0,0.86-0.127,1.685-0.386,2.474
		c-0.259,0.789-0.625,1.53-1.101,2.225c-0.477,0.695-1.051,1.334-1.721,1.917c-0.672,0.583-1.427,1.1-2.262,1.551v0.068
		c0.413,0.069,0.771,0.178,1.075,0.329c0.304,0.151,0.593,0.348,0.869,0.593c0.275,0.244,0.546,0.533,0.816,0.864
		c0.27,0.333,0.57,0.722,0.903,1.167L228.504,446.01z M213.707,428.079v8.946l3.924-1.093c0.723-0.202,1.39-0.496,2.004-0.886
		c0.614-0.389,1.144-0.849,1.592-1.381c0.447-0.532,0.795-1.128,1.049-1.789c0.251-0.661,0.378-1.359,0.378-2.093
		c0-1.319-0.427-2.229-1.282-2.731c-0.853-0.501-2.089-0.527-3.707-0.076L213.707,428.079z"/>
	<polygon style="fill:#266DA0;" points="237.192,418.918 237.192,421.396 234.783,422.067 234.783,441.783 237.192,441.112 
		237.192,443.589 229.484,445.737 229.484,443.26 231.893,442.589 231.893,422.873 229.484,423.544 229.484,421.066 	"/>
	<path style="fill:#266DA0;" d="M240.116,441.776v-3.407c0.39,0.235,0.858,0.415,1.403,0.538c0.545,0.124,1.118,0.196,1.721,0.217
		c0.603,0.022,1.207-0.001,1.814-0.067c0.607-0.067,1.17-0.172,1.687-0.316c1.777-0.495,3.104-1.195,3.982-2.098
		c0.877-0.905,1.317-1.975,1.317-3.214c0-0.665-0.148-1.204-0.44-1.616c-0.291-0.412-0.696-0.749-1.211-1.013
		c-0.517-0.263-1.126-0.483-1.833-0.659c-0.705-0.176-1.465-0.357-2.28-0.543c-0.86-0.196-1.663-0.414-2.407-0.653
		c-0.747-0.24-1.395-0.553-1.946-0.938c-0.549-0.386-0.983-0.876-1.298-1.47c-0.315-0.594-0.472-1.351-0.472-2.269
		c0-1.124,0.246-2.17,0.739-3.14c0.493-0.968,1.141-1.835,1.944-2.598c0.802-0.762,1.718-1.419,2.744-1.968
		c1.025-0.549,2.073-0.974,3.14-1.271c2.431-0.678,4.203-0.879,5.317-0.605v3.252c-1.457-0.602-3.328-0.586-5.609,0.05
		c-0.631,0.176-1.263,0.418-1.893,0.725c-0.631,0.309-1.192,0.68-1.685,1.115c-0.493,0.436-0.895,0.932-1.205,1.489
		c-0.31,0.556-0.464,1.173-0.464,1.849c0,0.632,0.117,1.144,0.354,1.536c0.235,0.394,0.582,0.716,1.04,0.966
		c0.46,0.25,1.019,0.462,1.678,0.633c0.66,0.172,1.42,0.35,2.28,0.535c0.884,0.19,1.721,0.414,2.513,0.676
		c0.791,0.261,1.485,0.601,2.081,1.02c0.596,0.419,1.068,0.935,1.42,1.548c0.349,0.615,0.524,1.379,0.524,2.297
		c0,1.216-0.238,2.311-0.713,3.287c-0.477,0.975-1.118,1.841-1.926,2.593c-0.81,0.753-1.742,1.394-2.796,1.922
		c-1.056,0.529-2.169,0.958-3.339,1.284c-0.39,0.108-0.872,0.211-1.444,0.308c-0.575,0.096-1.16,0.168-1.756,0.214
		s-1.16,0.055-1.693,0.025C240.865,441.983,240.437,441.905,240.116,441.776z"/>
	<polygon style="fill:#266DA0;" points="274.576,411.112 267.453,413.098 267.453,435.153 264.564,435.959 264.564,413.904 
		257.458,415.884 257.458,413.269 274.576,408.497 	"/>
	<path style="fill:#266DA0;" d="M303.601,425.079l-2.873,0.8v-16.55c0-1.308,0.079-2.931,0.241-4.868l-0.069,0.019
		c-0.275,1.189-0.522,2.055-0.741,2.598l-8.431,21.309l-1.409,0.393l-8.413-16.477c-0.241-0.484-0.488-1.258-0.741-2.323
		L281.096,410c0.092,0.962,0.138,2.56,0.138,4.796v16.517l-2.788,0.776v-24.67l3.821-1.065l7.569,15.095
		c0.583,1.156,0.962,2.036,1.134,2.643l0.104-0.029c0.492-1.491,0.887-2.611,1.187-3.359l7.724-19.288l3.614-1.008V425.079z"/>
	<path style="fill:#266DA0;" d="M329.184,417.948l-3.201,0.892l-2.616-6.188l-10.46,2.916l-2.46,7.602l-3.217,0.897l9.462-27.309
		l2.993-0.834L329.184,417.948z M322.421,410.319l-3.869-9.433c-0.127-0.308-0.252-0.824-0.379-1.546l-0.069,0.019
		c-0.114,0.732-0.246,1.318-0.395,1.762l-3.837,11.582L322.421,410.319z"/>
	<path style="fill:#266DA0;" d="M331.661,416.259v-3.406c0.389,0.235,0.858,0.415,1.403,0.538c0.545,0.124,1.118,0.196,1.719,0.217
		c0.603,0.022,1.207-0.001,1.816-0.068c0.607-0.066,1.17-0.17,1.685-0.315c1.777-0.495,3.106-1.195,3.983-2.099
		c0.877-0.904,1.316-1.975,1.316-3.214c0-0.665-0.146-1.203-0.439-1.615c-0.292-0.411-0.697-0.75-1.213-1.013
		c-0.517-0.263-1.126-0.483-1.832-0.659c-0.705-0.176-1.467-0.357-2.28-0.543c-0.86-0.196-1.663-0.414-2.409-0.653
		c-0.745-0.24-1.395-0.553-1.944-0.938c-0.551-0.386-0.983-0.876-1.3-1.47c-0.313-0.594-0.472-1.351-0.472-2.269
		c0-1.124,0.247-2.17,0.741-3.14c0.492-0.969,1.141-1.834,1.943-2.597c0.803-0.762,1.718-1.42,2.744-1.969
		c1.027-0.55,2.074-0.974,3.141-1.271c2.431-0.678,4.202-0.88,5.315-0.605v3.252c-1.457-0.603-3.326-0.586-5.609,0.05
		c-0.63,0.175-1.261,0.418-1.891,0.725c-0.632,0.308-1.194,0.68-1.685,1.115c-0.495,0.435-0.897,0.932-1.205,1.489
		c-0.31,0.557-0.464,1.173-0.464,1.849c0,0.632,0.117,1.143,0.352,1.536c0.235,0.395,0.582,0.715,1.041,0.967
		c0.46,0.251,1.017,0.462,1.677,0.633c0.659,0.172,1.419,0.35,2.28,0.534c0.884,0.19,1.719,0.415,2.511,0.676
		c0.791,0.261,1.485,0.601,2.082,1.02c0.595,0.419,1.069,0.934,1.419,1.548c0.35,0.614,0.524,1.379,0.524,2.297
		c0,1.216-0.236,2.311-0.712,3.287c-0.477,0.976-1.118,1.841-1.928,2.594c-0.808,0.752-1.742,1.394-2.796,1.922
		c-1.056,0.53-2.168,0.957-3.337,1.284c-0.391,0.108-0.872,0.211-1.444,0.308c-0.575,0.097-1.16,0.168-1.756,0.214
		s-1.162,0.055-1.694,0.025C332.408,416.467,331.981,416.389,331.661,416.259z"/>
</g>
</svg>
