<?xml version="1.0" encoding="iso-8859-1"?>
<!-- Generator: Adobe Illustrator 22.1.0, SVG Export Plug-In . SVG Version: 6.00 Build 0)  -->
<svg version="1.1" id="_x36_" xmlns="http://www.w3.org/2000/svg" xmlns:xlink="http://www.w3.org/1999/xlink" x="0px" y="0px"
	 viewBox="0 0 512 512" style="enable-background:new 0 0 512 512;" xml:space="preserve">
<g>
	<path style="fill:#040000;" d="M192.898,193.782c1.154,3.025,2.869,4.061,4.563,4.016c2.821-0.077,5.579-3.156,5.572-5.013
		c-0.019-4.19-2.904-6.008-5.658-5.934C194.231,186.935,191.258,189.482,192.898,193.782z"/>
	<path style="fill:#040000;" d="M148.915,197.798c2.823-0.077,5.581-3.156,5.574-5.013c-0.019-4.19-2.904-6.008-5.658-5.934
		c-3.143,0.084-6.117,2.631-4.476,6.932C145.508,196.807,147.223,197.844,148.915,197.798z"/>
	<path style="fill:#040000;" d="M144.519,221.451c2.002,5.25,4.976,7.044,7.913,6.965c4.893-0.134,9.678-5.47,9.663-8.691
		c-0.032-7.268-5.034-10.423-9.813-10.295C146.834,209.577,141.677,213.994,144.519,221.451z"/>
	<path style="fill:#040000;" d="M237.433,231.359c0.904-1.787,1.368-3.382,0.589-3.699c-0.426-0.707-1.977-0.086-3.571,0.871
		c-1.653,0.915-3.379,2.171-4.251,2.888c-4.2,3.746-8.332,6.698-12.203,9.187c-3.877,2.489-7.512,4.515-10.958,6.228
		c-6.876,3.463-12.933,5.806-19.074,7.774c-6.151,1.912-12.416,3.556-19.962,4.505c-3.766,0.521-7.857,0.77-12.362,0.704
		c-4.497-0.091-9.437-0.57-14.687-1.991c-5.132-1.393-9.452-3.446-13-5.878c-3.606-2.496-6.271-5.025-8.172-8.084
		c-3.838-6.068-5.395-12.539-6.07-18.95c-0.614-6.457-0.246-13.12,1.555-20.503c0.936-3.674,2.237-7.558,4.327-11.44
		c2.06-3.873,4.877-7.836,8.96-10.953c0.426-0.299,0.895-0.795,1.414-1.291c0.529-0.477,1.052-1.059,1.523-1.613
		c0.969-1.029,1.68-2.162,1.154-2.788c-0.046-0.846-1.34-1.059-3.025-0.871c-0.818,0.127-1.692,0.404-2.522,0.702
		c-0.818,0.317-1.521,0.753-2.058,1.108c-5.108,3.738-8.471,8.332-10.933,12.701c-2.489,4.394-4.037,8.698-5.176,12.768
		c-2.192,8.174-2.763,15.507-2.207,22.79c0.295,3.643,0.894,7.285,1.951,11.004c1.068,3.71,2.591,7.519,4.978,11.292
		c0.594,0.943,1.289,1.857,1.977,2.797c0.783,0.876,1.479,1.849,2.396,2.682c0.44,0.429,0.886,0.864,1.335,1.302
		c0.468,0.382,0.939,0.767,1.416,1.157c0.955,0.779,1.921,1.587,3.011,2.267c4.225,2.922,9.336,5.34,15.227,6.937
		c6.026,1.632,11.54,2.141,16.493,2.23c4.96,0.06,9.403-0.243,13.452-0.832c8.121-1.089,14.736-2.927,21.204-5.071
		c6.45-2.2,12.756-4.814,19.898-8.624c3.578-1.885,7.35-4.105,11.38-6.826c4.026-2.725,8.327-5.94,12.754-10.061
		C235.095,234.977,236.487,233.09,237.433,231.359z"/>
	<path style="fill:#040000;" d="M115.946,135.506c0.519-1.052,1.157-1.622,1.746-1.87c0.318-0.081,0.778-0.097,1.471,0.113
		c0.695,0.281,1.571,0.799,2.505,1.655c0.362,0.281,2.357,0.607,3.551-0.449c1.354-0.827,1.168-3.154,0.644-3.718
		c-1.231-1.324-2.603-2.427-4.161-3.214c-1.608-0.748-3.428-1.103-5.173-0.851c-1.712,0.31-3.178,1.055-4.228,1.959
		c-0.568,0.435-0.953,0.929-1.409,1.402c-0.378,0.487-0.725,0.983-1.054,1.484c-1.198,2.019-1.868,4.126-2.209,6.585
		c-0.325,2.457-0.311,5.301,0.433,8.731c1.592,6.684,4.051,10.135,6.54,13.244c0.628,0.786,1.307,1.521,2.051,2.248
		c0.709,0.763,1.53,1.456,2.399,2.214c0.853,0.776,1.878,1.456,2.939,2.281c1.133,0.711,2.311,1.581,3.736,2.322
		c0.593,0.311,2.427-0.134,3.067-1.595c0.876-1.316,0.491-3.11,0.037-3.435c-1.194-0.744-2.128-1.587-3.05-2.269
		c-0.832-0.785-1.655-1.425-2.302-2.139c-0.667-0.695-1.3-1.323-1.824-1.996c-0.561-0.644-1.066-1.284-1.525-1.952
		c-1.838-2.633-3.643-5.435-4.837-10.48c-0.561-2.577-0.577-4.626-0.408-6.285C115.056,137.835,115.439,136.535,115.946,135.506z"/>
	<path style="fill:#040000;" d="M141.951,144.343c-2.473-0.821-3.729-1.623-5.023-2.466c-1.275-0.864-2.51-1.889-4.221-4.105
		c-0.181-0.208-1.664-0.06-3.008,0.772c-1.421,0.709-2.176,2.01-2.014,2.348c1.685,3.096,3.12,4.904,4.812,6.425
		c1.697,1.488,3.665,2.899,7.196,4.07c3.615,1.119,5.657,1.14,7.628,1.207c1.97,0.025,3.917-0.111,7.157-0.366
		c0.322-0.042,1.224-1.374,1.152-2.955c0.072-1.583-0.827-2.913-1.149-2.957c-3.214-0.245-4.937-0.484-6.624-0.735
		C146.194,145.305,144.507,145.143,141.951,144.343z"/>
	<path style="fill:#040000;" d="M133.962,105.658c2.283,3.224,4.461,6.506,6.717,10.58c2.25,4.074,4.633,8.932,6.754,15.475
		c0.445,1.275,2.674,4.702,4.155,4.054c1.615-0.016,1.915-4.311,1.511-5.748c-2.028-7.094-4.387-12.418-6.619-16.859
		c-2.244-4.447-4.42-8.014-6.708-11.466c-4.529-6.939-9.79-13.35-18.518-24.422c-0.569-0.73-1.071-1.401-1.603-2.098
		c0.403-1.915,1.285-3.371,2.05-4.616c0.904-1.243,1.701-2.306,2.693-3.277c1.896-1.972,3.968-3.898,7.897-6.668
		c4.061-2.786,6.587-4.153,9.048-5.595c2.478-1.418,4.986-2.856,9.593-4.962c0.449-0.218,1.303-1.973,0.654-3.419
		c-0.429-1.528-2.288-2.241-2.811-2.086c-5.066,1.752-7.885,2.925-10.664,4.218c-2.763,1.324-5.53,2.67-10.056,5.781
		c-4.399,3.106-6.814,5.495-8.969,8.138c-1.101,1.287-2.046,2.788-3.048,4.564c-0.279,0.575-0.566,1.203-0.848,1.862
		c-4.611-6.547-7.508-11.687-10.005-16.988c-1.731-3.652-3.122-7.447-4.422-11.962c-1.266-4.522-2.359-9.816-2.816-16.557
		c-0.086-1.36-1.516-4.276-3.087-3.965c-1.593-0.331-2.825,2.775-2.818,4.258c0.234,7.19,1.187,12.958,2.376,17.913
		c1.222,4.948,2.596,9.145,4.353,13.16c3.479,8.026,7.964,15.698,16.637,26.832C124.315,93.105,129.431,99.157,133.962,105.658z"/>
	<path style="fill:#040000;" d="M222.676,149.259c0.807,0.158,1.478-0.777,2.109-1.768c0.632-1.013,1.258-2.193,1.571-3.023
		c1.398-4.088,3.75-7.704,5.97-10.884c2.255-3.191,4.524-6.001,6.696-8.594c4.364-5.175,8.355-9.482,12.365-13.785
		c8.005-8.636,16.359-16.986,29.442-31.757c6.647-7.59,11.611-13.83,15.607-19.478c3.989-5.648,7.05-10.682,9.604-16.069
		c1.284-2.688,2.378-5.511,3.286-8.578c0.887-3.071,1.574-6.439,1.601-10.237c-0.002-3.759-0.624-8.066-2.823-12.18
		c-1.01-2.098-2.499-4.014-4.142-5.901c-1.729-1.792-3.664-3.548-5.898-5.041c-0.869-0.651-2.793-1.411-4.483-1.776
		c-1.722-0.32-3.192-0.283-3.344,0.533c-0.547,0.603,0.243,1.857,1.319,3.045c1.048,1.235,2.38,2.434,3.085,3.018
		c1.9,1.333,3.433,2.832,4.791,4.297c1.249,1.539,2.375,3.036,3.073,4.633c1.567,3.117,1.924,6.304,1.856,9.257
		c-0.102,2.971-0.73,5.755-1.564,8.371c-0.853,2.617-1.87,5.092-3.094,7.507c-2.42,4.835-5.354,9.514-9.215,14.875
		c-3.866,5.361-8.696,11.396-15.225,18.854c-1.134,1.281-2.219,2.499-3.284,3.69c-0.276-1.999-0.763-4.246-2.267-7.508
		c-1.967-3.998-4.155-6.051-6.448-7.607c-2.334-1.492-5.02-2.717-9.371-3.085c-0.466-0.021-1.49,1.187-1.493,2.779
		c-0.176,1.569,0.419,2.997,0.716,3.08c3.136,0.703,4.617,1.792,5.989,2.878c1.324,1.15,2.593,2.408,3.961,5.201
		c1.333,2.902,1.699,4.835,2.13,6.717c0.215,1.294,0.456,2.621,0.565,4.432c-7.809,8.564-13.791,14.838-19.55,21.316
		c-3.961,4.433-7.897,8.909-12.263,14.374c-2.174,2.742-4.461,5.729-6.784,9.21c-2.285,3.505-4.777,7.407-6.445,12.641
		c-0.345,1.054-0.431,2.923-0.023,4.403C221.096,148.593,221.912,149.557,222.676,149.259z"/>
	<path style="fill:#040000;" d="M168.528,149.789c4.888,1.235,7.757,1.514,10.65,1.877c2.879,0.302,5.753,0.487,10.465,0.602
		c9.6,0.223,10.9-0.116,20.375-0.23c0.47-0.019,1.859-1.286,1.843-2.87c0.201-1.572-1.077-2.967-1.562-3.034
		c-9.637-0.893-10.962-1.048-20.484-1.259c-4.61-0.095-7.391-0.151-10.186-0.209c-2.733-0.095-5.556-0.033-9.845-0.651
		c-0.419-0.053-1.66,1.033-1.975,2.58C167.285,148.095,168.015,149.629,168.528,149.789z"/>
	<path style="fill:#040000;" d="M186.708,489.657c1.639,0.218,1.905-6.337,1.574-8.596c-0.908-5.657-1.412-10.775-2.033-15.387
		c-0.487-4.642-0.925-8.819-1.331-12.689c-0.697-7.757-1.303-14.272-1.782-20.809c-1.041-13.06-1.958-26.139-3.505-49.184
		c-1.492-22.558-2.431-36.207-3.557-49.847c-0.551-6.821-1.177-13.642-1.952-21.58c-0.426-3.97-0.883-8.217-1.382-12.886
		c-0.614-4.665-1.138-9.751-2.032-15.39c-0.368-2.306-2.373-6.978-3.861-6.205c-1.634-0.258-2.273,4.749-1.996,7.013
		c0.758,5.549,1.166,10.617,1.666,15.234c0.389,4.642,0.744,8.867,1.075,12.814c0.587,7.906,1.059,14.706,1.484,21.517
		c0.869,13.633,1.738,27.263,3.175,49.824c1.546,23.075,2.586,36.2,3.88,49.311c0.603,6.556,1.37,13.107,2.258,20.899
		c0.503,3.894,1.045,8.098,1.646,12.768c0.739,4.661,1.363,9.799,2.41,15.533C182.867,484.291,185.24,490.466,186.708,489.657z"/>
	<path style="fill:#040000;" d="M419.889,287.823c-0.197-6.387-0.792-12.117-1.604-17.387c-0.804-5.271-1.875-10.079-3.136-14.622
		c-1.258-4.543-2.691-8.835-4.464-13.011c-3.525-8.314-8.001-16.527-15.834-24.443c-3.94-3.898-8.847-7.639-15.051-10.411
		c-6.186-2.767-13.733-4.241-21.956-3.885c-8.068,0.35-14.965,2.281-21.049,4.228c-6.086,1.998-11.412,4.172-16.317,6.175
		c-9.79,3.965-18.094,7.512-26.456,8.858c-4.155,0.66-8.298,0.73-12.267-0.341c-3.968-1.054-7.723-3.324-11.099-6.765
		c-6.689-7.055-11.668-18.039-15.883-32.183c-0.617-2.259-2.508-6.325-3.965-7.549c1.217-0.007,2.597-0.863,2.941-1.356
		c4.642-6.786,7.85-10.65,10.36-15.126c1.286-2.216,2.459-4.619,3.388-7.769c0.892-3.099,1.55-7.287,0.16-12.242
		c-0.188-0.609-0.369-1.203-0.547-1.784c-0.266-0.74-0.788-1.715-1.154-2.528c-0.904-1.488-1.142-4.126-3.254-2.95
		c-0.837,0.16-1.655,0.317-2.455,0.471c-0.399,0.074-0.793,0.151-1.182,0.246l-0.853,0.195c-0.816,0.178-1.578,0.401-2.322,0.596
		c-2.958,0.827-5.431,1.717-7.861,2.717c-2.427,1.004-4.805,2.132-7.481,3.652c-2.663,1.532-5.671,3.4-9.02,6.446
		c-0.705,0.637-1.136,2.978,0.162,3.899c1.043,1.21,3.126,0.988,3.729,0.551c2.943-2.378,5.73-3.891,8.198-5.104
		c2.482-1.208,4.701-2.1,6.949-2.9c2.248-0.799,4.526-1.523,7.203-2.207c0.668-0.162,1.36-0.352,2.084-0.496l0.273-0.06l0.039-0.007
		l0.005,0.004l0.005,0.005l-0.002,0.012c0.011,0.044-0.026-0.093,0.023,0.098c0.107,0.364,0.218,0.737,0.332,1.12
		c0.915,3.256,0.538,5.961-0.081,8.32c-0.639,2.361-1.495,4.373-2.529,6.371c-0.992,2.009-2.185,4.005-3.651,6.404
		c-1.469,2.401-3.324,5.171-5.544,8.949c-0.434,0.783-0.515,3.578,0.973,4.156c0.022,0.015,0.049,0.019,0.072,0.033
		c-0.021,0.012-0.045,0.011-0.065,0.026c-1.719-0.329-1.365,6.365-0.621,9.41c4.163,14.683,9.02,26.496,16.827,35.097
		c3.949,4.209,8.826,7.347,14.004,8.8c5.178,1.488,10.346,1.419,15.155,0.725c9.69-1.458,18.314-5.147,28.144-9.032
		c4.909-1.972,10.103-4.06,15.86-5.931c5.745-1.831,12.092-3.56,19.11-3.849c7.15-0.292,13.433,0.941,18.651,3.251
		c5.219,2.325,9.424,5.479,12.886,8.865c6.89,6.87,11.118,14.305,14.492,21.991c1.704,3.854,3.115,7.861,4.373,12.128
		c1.263,4.265,2.364,8.809,3.219,13.816c0.864,5.004,1.53,10.465,1.826,16.558c0.303,6.087,0.197,12.821-0.726,20.234
		c-0.19,1.478-0.292,4.315-0.289,6.756c0.002,2.431,0.176,4.512,1.036,4.399c0.66,0.552,1.9-1.175,2.98-3.516
		c1.071-2.336,1.885-5.263,2.13-6.828C419.868,301.258,420.091,294.207,419.889,287.823z"/>
	<path style="fill:#040000;" d="M302.878,341.127c-1.579-0.327-2.923,2.754-2.973,4.207c-0.327,14.259-0.737,22.887-1.046,31.512
		c-0.324,8.627-0.619,17.257-1.024,31.553c-0.413,14.611-0.577,22.924-0.647,31.242c-0.056,8.318-0.1,16.636,0.055,31.293
		c0.037,1.467,1.351,5.558,2.936,5.226c1.579,0.327,2.927-3.741,2.976-5.194c0.345-14.573,0.762-22.867,1.066-31.159
		c0.317-8.293,0.6-16.59,1.008-31.199c0.399-14.298,0.57-22.945,0.646-31.597c0.063-8.654,0.107-17.304-0.056-31.65
		C305.78,343.894,304.461,340.794,302.878,341.127z"/>
	<path style="fill:#040000;" d="M262.351,476.163c1.602-0.197,1.982-3.862,1.81-5.067c-1.119-6.084-1.419-11.03-1.653-15.285
		c-0.194-4.271-0.245-7.885-0.287-11.51c-0.032-3.648-0.063-7.292-0.102-11.63c-0.07-4.36-0.114-9.43-0.549-15.983
		c-0.443-6.413-1.166-11.637-2.352-16.226c-1.205-4.57-2.816-8.589-5.574-12.152c-2.705-3.541-6.967-6.453-12.129-7.305
		c-5.143-0.832-10.749-0.009-17,2.028c-1.282,0.466-3.511,2.605-2.663,3.989c0.299,1.565,3.233,2.003,4.39,1.666
		c5.748-1.645,10.455-1.991,14.05-1.244c3.578,0.809,5.94,2.635,7.776,5.127c1.824,2.515,3.097,5.704,4.075,9.681
		c0.973,3.991,1.627,8.805,2.047,14.938c0.413,6.276,0.491,11.294,0.619,15.624c0.112,4.332,0.218,8.001,0.38,11.677
		c0.167,3.678,0.375,7.368,0.765,11.774c0.435,4.406,0.96,9.542,2.424,16.059C258.661,473.649,260.932,476.914,262.351,476.163z"/>
	<path style="fill:#040000;" d="M360.454,341.582c-1.254-0.959-3.365-0.397-3.731,0.018c-0.929,1.131-2.016,2.044-2.862,2.918
		c-0.966,0.816-1.835,1.551-2.638,2.234c-1.71,1.288-3.101,2.401-4.61,3.423c-2.936,2.109-5.968,4.149-11.413,7.635
		c-10.877,6.728-13.153,8.135-24.063,14.884c-0.572,0.389-1.11,2.258-0.143,3.523c0.712,1.416,2.563,1.864,3.12,1.583
		c11.329-5.905,13.98-6.865,25.043-13.741c5.634-3.6,8.743-5.841,11.728-8.297c1.513-1.18,2.944-2.524,4.661-4.068
		c0.828-0.83,1.722-1.725,2.716-2.719c0.927-1.112,2.019-2.195,3.078-3.683C361.771,344.662,361.886,342.304,360.454,341.582z"/>
	<path style="fill:#040000;" d="M364.798,407.627c0.032,1.043,1.333,3.94,2.918,3.701c1.579,0.225,2.941-2.614,2.994-3.622
		c0.955-20.379,1.857-23.151,2.406-43.832c0.187-10.149-0.053-16.335-0.602-22.507c-0.628-6.156-1.219-12.383-3.901-22.41
		c-0.304-1.027-2.135-2.828-3.595-2.153c-1.572,0.227-2.338,2.637-2.139,3.599c2.06,9.523,2.276,15.517,2.633,21.443
		c0.287,5.945,0.398,11.918,0.209,21.872C365.173,384.116,364.762,386.922,364.798,407.627z"/>
	<path style="fill:#040000;" d="M413.639,319.513c-1.53-0.526-3.217,2.378-3.432,3.827c-1.776,14.17-2.607,22.683-3.592,31.182
		c-1.001,8.481-1.819,16.994-4.035,30.828c-2.39,14.098-4.598,21.845-7.307,29.256c-1.449,3.646-3.053,7.236-5.579,10.956
		c-2.519,3.643-6.077,7.665-12.126,9.283c-0.34,0.077-0.834,0.328-1.378,0.622c0.056-0.644,0.004-1.109-0.078-1.167
		c-1.713-0.974-2.473-1.745-3.24-2.44c-0.737-0.723-1.462-1.426-2.473-2.797c-0.916-1.383-1.312-2.294-1.69-3.242
		c-0.343-0.959-0.73-1.951-0.85-3.797c-0.03-0.174-1.324-0.732-2.897-0.887c-1.565-0.258-2.934,0.15-2.997,0.429
		c-0.427,2.626-0.317,4.348-0.049,6.012c0.313,1.655,0.842,3.354,2.408,5.702c1.69,2.325,2.999,3.328,4.308,4.191
		c1.34,0.814,2.749,1.546,5.271,2.311c0.025,0.006,0.09-0.041,0.129-0.054c0.335,0.204,0.74,0.387,1.192,0.541
		c1.3,0.528,2.9,0.471,3.715,0.325c4.04-0.913,7.389-2.739,9.984-4.781c2.535-2.104,4.557-4.258,6.1-6.413
		c3.152-4.286,5.064-8.225,6.777-12.177c3.196-7.968,5.623-16.166,8.077-30.663c2.269-14.194,2.96-22.787,3.724-31.358
		c0.742-8.562,1.21-17.153,2.482-31.203C416.209,322.578,415.247,319.39,413.639,319.513z"/>
	<path style="fill:#040000;" d="M216.212,416.253c-0.489-4.904-1.008-9.795-1.356-17.921c-0.053-0.825-1.407-2.582-2.987-2.397
		c-1.585-0.195-2.893,1.604-2.925,2.457c-0.139,8.335,0.021,13.376,0.271,18.389c0.243,5.015,0.67,10.024,1.476,18.196
		c0.805,8.334,1.178,12.996,1.439,17.649c0.083,2.315,0.185,4.633,0.135,7.37c-0.051,2.735-0.213,5.898-0.864,9.853
		c-0.123,0.772,0.702,3.286,2.271,3.509c1.49,0.593,3.298-1.486,3.527-2.357c0.973-4.297,1.375-7.727,1.625-10.668
		c0.246-2.946,0.299-5.41,0.336-7.875c-0.016-4.907-0.29-9.792-1.108-18.198C217.22,426.108,216.717,421.185,216.212,416.253z"/>
	<path style="fill:#040000;" d="M215.47,489.587c-1.569-0.176-3.011,0.674-3.097,1.071c-0.955,4.177-2.77,6.126-4.531,7.927
		c-1.905,1.685-4.026,3.345-8.175,4.869c-4.271,1.418-6.902,1.425-9.09,1.212c-1.075-0.141-2.07-0.443-2.739-0.885
		c-0.262-0.252-0.566-0.426-0.684-0.806c-0.118-0.384-0.292-0.955-0.067-1.873c-0.009-0.29-0.76-1.901-2.237-2.513
		c-1.351-0.82-3.275,0.25-3.476,0.988c-0.547,1.588-0.63,3.432-0.253,5.083c0.369,1.715,1.388,3.041,2.346,4.024
		c2.051,1.841,4.007,2.448,5.811,2.893c1.831,0.415,3.604,0.491,5.66,0.369c2.051-0.146,4.378-0.536,7.182-1.516
		c5.454-2.007,8.311-4.38,10.777-6.981c1.166-1.384,2.301-2.823,3.233-4.749c0.932-1.901,1.782-4.23,2.093-7.194
		C218.257,490.871,217.065,489.527,215.47,489.587z"/>
	<path style="fill:#040000;" d="M298.319,487.784c-1.523-0.408-3.082,0.109-3.212,0.431c-1.757,3.539-4.302,4.937-6.562,6.239
		c-2.406,1.184-4.995,2.311-9.551,3.127c-4.656,0.711-7.345,0.464-9.672,0.021c-1.154-0.236-2.271-0.591-3.134-1.177
		c-0.375-0.311-0.811-0.605-1.006-1.027c-0.222-0.419-0.466-0.927-0.371-1.799c-0.076-0.246-0.978-1.734-2.512-2.215
		c-1.414-0.698-3.264,0.626-3.349,1.448c-0.362,1.74-0.1,3.648,0.531,5.164c0.616,1.585,1.648,2.649,2.572,3.53
		c1.94,1.652,3.736,2.331,5.456,2.871c3.469,0.976,6.935,1.356,12.71,0.478c5.621-1.015,8.835-2.543,11.866-4.362
		c1.49-0.985,2.946-2.049,4.447-3.595c1.462-1.558,3.071-3.59,4.121-6.647C300.826,489.585,299.911,487.965,298.319,487.784z"/>
	<path style="fill:#040000;" d="M328.46,405.914c0.112-8.654,0.169-10.506-0.178-19.466c-0.037-0.463-1.36-1.434-2.943-1.328
		c-1.581-0.097-2.922,0.837-2.969,1.275c-0.624,8.675-1.177,10.481-1.307,19.466c-0.026,4.617,0.176,7.294,0.536,9.955
		c0.399,2.654,0.799,5.342,2.255,9.934c0.172,0.466,1.805,1.365,3.284,0.781c1.532-0.387,2.494-1.912,2.426-2.313
		c-0.821-4.133-0.834-6.596-0.959-9.025C328.514,412.754,328.438,410.308,328.46,405.914z"/>
	<path style="fill:#040000;" d="M348.136,376.057c-0.065-0.598-1.402-1.866-2.985-1.74c-1.581-0.16-2.906,1.24-2.925,1.9
		c-0.005,6.365,0.202,10.045,0.31,13.765c0.113,3.695,0.341,7.384,0.362,13.366c-0.042,6.093-0.375,9.458-0.894,12.703
		c-0.259,1.625-0.608,3.208-1.201,4.971c-0.621,1.729-1.432,3.743-3.161,5.547c-0.16,0.194-0.264,0.77-0.289,1.435
		c-0.002,0.679,0.102,1.518,0.598,2.132c0.383,0.7,1.131,1.047,1.924,1.115c0.802,0.09,1.565-0.153,1.849-0.408
		c2.863-2.573,4.165-5.226,5.178-7.387c0.967-2.204,1.551-4.102,1.991-5.991c0.878-3.78,1.36-7.588,1.4-14.105
		c-0.028-6.364-0.397-10.121-0.758-13.864C349.179,385.775,348.606,382.028,348.136,376.057z"/>
</g>
</svg>
