<?xml version="1.0" encoding="iso-8859-1"?>
<!-- Generator: Adobe Illustrator 22.1.0, SVG Export Plug-In . SVG Version: 6.00 Build 0)  -->
<svg version="1.1" id="_x39_" xmlns="http://www.w3.org/2000/svg" xmlns:xlink="http://www.w3.org/1999/xlink" x="0px" y="0px"
	 viewBox="0 0 512 512" style="enable-background:new 0 0 512 512;" xml:space="preserve">
<g>
	<g>
		<polygon style="fill:#FFFFFF;" points="231.607,282.424 231.607,288.862 204.284,304.637 208.858,312.559 231.607,299.425 
			231.607,325.105 240.755,325.105 240.755,294.143 245.821,291.218 241.247,283.296 240.755,283.581 240.755,282.424 		"/>
		<polygon style="fill:#FFFFFF;" points="281.41,325.105 281.41,298.836 303.65,311.677 308.224,303.755 281.41,288.274 
			281.41,282.424 272.262,282.424 272.262,282.992 271.261,282.414 266.688,290.336 272.262,293.555 272.262,325.105 		"/>
		<path style="fill:#FFFFFF;" d="M255.999,480.72c-4.304-0.003-8.243,1.757-11.059,4.581c-2.823,2.816-4.583,6.755-4.58,11.059
			c-0.003,4.304,1.757,8.243,4.58,11.059c2.816,2.823,6.755,4.583,11.059,4.581c4.305,0.003,8.243-1.758,11.059-4.581
			c2.823-2.816,4.583-6.754,4.581-11.059c0.003-4.304-1.758-8.243-4.581-11.059C264.243,482.478,260.304,480.718,255.999,480.72z
			 M260.59,500.951c-1.19,1.182-2.784,1.899-4.591,1.902c-1.807-0.003-3.401-0.72-4.591-1.902c-1.182-1.19-1.899-2.784-1.901-4.591
			c0.002-1.807,0.72-3.402,1.901-4.591c1.189-1.182,2.783-1.899,4.591-1.902c1.807,0.003,3.401,0.72,4.591,1.902
			c1.182,1.19,1.899,2.784,1.902,4.591C262.49,498.167,261.772,499.762,260.59,500.951z"/>
		<circle style="fill:#FFFFFF;" cx="255.999" cy="353.567" r="6.098"/>
		<polygon style="fill:#FFFFFF;" points="280.391,229.575 280.391,223.138 307.715,207.363 303.141,199.441 280.391,212.575 
			280.391,186.894 271.244,186.894 271.244,217.857 266.178,220.781 270.752,228.703 271.244,228.419 271.244,229.575 		"/>
		<polygon style="fill:#FFFFFF;" points="230.589,186.894 230.589,213.163 208.349,200.323 203.775,208.245 230.589,223.726 
			230.589,229.575 239.736,229.575 239.736,229.007 240.738,229.585 245.311,221.663 239.736,218.444 239.736,186.894 		"/>
		<path style="fill:#FFFFFF;" d="M255.999,31.279c4.304,0.003,8.243-1.757,11.059-4.581c2.823-2.815,4.583-6.754,4.581-11.059
			c0.003-4.304-1.758-8.243-4.581-11.059c-2.816-2.823-6.755-4.583-11.059-4.58c-4.304-0.002-8.243,1.757-11.059,4.58
			c-2.823,2.816-4.583,6.755-4.58,11.059c-0.003,4.304,1.757,8.243,4.58,11.059C247.756,29.522,251.695,31.281,255.999,31.279z
			 M251.408,11.049c1.189-1.182,2.783-1.899,4.591-1.902c1.807,0.002,3.401,0.72,4.591,1.902c1.182,1.189,1.899,2.783,1.902,4.591
			c-0.003,1.807-0.72,3.401-1.902,4.591c-1.189,1.182-2.784,1.899-4.591,1.902c-1.808-0.002-3.401-0.72-4.591-1.902
			c-1.182-1.189-1.899-2.783-1.901-4.591C249.509,13.832,250.227,12.238,251.408,11.049z"/>
		<path style="fill:#FFFFFF;" d="M262.098,158.432c0-3.368-2.731-6.098-6.098-6.098c-3.368,0-6.098,2.73-6.098,6.098
			c0,3.368,2.73,6.098,6.098,6.098C259.367,164.53,262.098,161.799,262.098,158.432z"/>
		<path style="fill:#FFFFFF;" d="M272.263,382.958v63.604h9.147l0-31.053l2.637,4.511l100.646-58.834l-2.399-4.104l26.54,15.323
			l4.574-7.922l-55.111-31.818L272.263,382.958z M377.914,354.553l-96.504,56.413v-22.759l76.916-44.962L377.914,354.553z"/>
		<polygon style="fill:#FFFFFF;" points="413.408,364.482 413.408,364.483 413.408,364.483 		"/>
		<polygon style="fill:#FFFFFF;" points="456.338,389.725 456.335,389.723 456.335,389.723 		"/>
		<polygon style="fill:#FFFFFF;" points="477.702,384 477.701,384.001 477.7,384.003 		"/>
		<path style="fill:#FFFFFF;" d="M477.772,368.479c-1.326-2.352-3.298-4.404-5.795-5.844c-2.448-1.415-5.157-2.099-7.809-2.097
			c-2.703,0-5.359,0.699-7.712,2.027c-2.352,1.326-4.404,3.298-5.843,5.794l-0.001,0.002c-1.414,2.449-2.098,5.156-2.096,7.808
			c0.001,2.704,0.699,5.359,2.027,7.712c1.326,2.35,3.297,4.401,5.792,5.841c2.452,1.42,5.163,2.102,7.813,2.1
			c2.704,0,5.36-0.699,7.712-2.028c2.351-1.326,4.402-3.298,5.841-5.794c1.418-2.45,2.1-5.159,2.098-7.81
			C479.799,373.487,479.1,370.832,477.772,368.479z M469.782,379.423l-0.002,0.003c-0.61,1.055-1.443,1.85-2.42,2.405
			c-0.975,0.552-2.092,0.846-3.212,0.845c-1.104-0.002-2.198-0.274-3.233-0.871l-0.003-0.002c-1.054-0.61-1.849-1.443-2.403-2.419
			c-0.552-0.976-0.845-2.092-0.845-3.213c0.002-1.102,0.275-2.197,0.872-3.236c0.61-1.054,1.443-1.85,2.42-2.404
			c0.976-0.552,2.092-0.846,3.214-0.845c1.103,0.002,2.2,0.276,3.235,0.871c1.055,0.611,1.85,1.444,2.404,2.421
			c0.552,0.976,0.846,2.092,0.845,3.213C470.651,377.295,470.377,378.391,469.782,379.423z"/>
		<path style="fill:#FFFFFF;" d="M337.447,310.064c2.916,1.684,6.645,0.684,8.33-2.232c1.684-2.917,0.685-6.646-2.232-8.331
			c-2.916-1.683-6.646-0.684-8.33,2.232C333.53,304.651,334.53,308.38,337.447,310.064z"/>
		<path style="fill:#FFFFFF;" d="M75.685,151.896l-24.736,6.627l2.367,8.836l27.512-7.371l-0.068,0.118l69.052,39.867
			c-0.793,2.368-1.179,4.811-1.178,7.228c0,3.952,1.023,7.839,2.965,11.279c1.94,3.438,4.816,6.432,8.471,8.54
			c3.588,2.074,7.539,3.069,11.417,3.067c3.953-0.001,7.84-1.023,11.28-2.966c2.165-1.221,4.153-2.816,5.856-4.741l19.76,11.409
			l-0.199,0.741l2.164,0.58l20.89,20.89l-20.889,20.89l-2.164,0.58l0.199,0.741l-19.761,11.409c-1.702-1.924-3.69-3.518-5.855-4.74
			c-3.44-1.942-7.327-2.965-11.28-2.965c-3.878-0.002-7.829,0.992-11.416,3.065l2.286,3.961l-2.287-3.96
			c-3.655,2.109-6.531,5.103-8.471,8.541c-1.942,3.44-2.965,7.327-2.965,11.279c-0.001,2.416,0.385,4.86,1.177,7.227L80.76,351.893
			l0.069,0.121l-27.513-7.373l-2.368,8.835l0,0l24.737,6.629l-6.628,24.737l8.836,2.367l7.372-27.511l0.068,0.118l69.052-39.867
			c1.703,1.925,3.691,3.52,5.856,4.741c3.44,1.942,7.327,2.965,11.28,2.965c3.879,0.002,7.829-0.994,11.417-3.068
			c3.655-2.108,6.531-5.102,8.471-8.54c1.942-3.44,2.965-7.327,2.965-11.28c0.001-2.416-0.386-4.86-1.178-7.227l19.76-11.408
			l0.543,0.543l1.585-1.585l28.535-7.646l7.646,28.535l-0.58,2.165l0.741,0.198v22.817c-4.479,0.911-8.496,3.133-11.596,6.239
			c-4.131,4.124-6.7,9.87-6.697,16.17c-0.003,6.3,2.566,12.046,6.698,16.17c3.1,3.106,7.116,5.328,11.596,6.239v79.732h0.139
			l-20.142,20.141l6.468,6.467l0,0.001L256,464.209l18.109,18.108l6.468-6.469l-20.141-20.141h0.138v-79.732
			c4.479-0.911,8.496-3.133,11.596-6.239c4.131-4.124,6.7-9.87,6.698-16.17c0.003-6.3-2.566-12.046-6.697-16.17
			c-3.1-3.106-7.117-5.328-11.596-6.239v-22.817l0.741-0.198l-0.58-2.165l7.646-28.535l28.536,7.646l1.584,1.584l0.543-0.543
			l19.76,11.408c-0.792,2.367-1.179,4.811-1.178,7.227c0,3.952,1.023,7.84,2.965,11.279c1.94,3.438,4.816,6.432,8.471,8.541h0
			c3.588,2.074,7.54,3.068,11.416,3.067c3.953,0,7.84-1.023,11.28-2.965c2.165-1.222,4.153-2.816,5.856-4.741l69.051,39.867
			l0.068-0.119l7.373,27.513l8.835-2.368l0,0.001l-6.629-24.737l24.737-6.629l-2.368-8.836l-27.514,7.373l0.069-0.12l-69.05-39.866
			c0.792-2.367,1.179-4.81,1.177-7.226c0-3.952-1.023-7.84-2.966-11.28c-1.94-3.438-4.816-6.432-8.471-8.541
			c-3.587-2.072-7.537-3.068-11.416-3.066c-3.952,0-7.84,1.023-11.28,2.965c-2.165,1.221-4.153,2.815-5.856,4.74l-19.761-11.409
			l0.199-0.74l-2.163-0.58L280.762,256l20.891-20.89l2.162-0.58l-0.198-0.74l19.761-11.409c1.703,1.925,3.691,3.519,5.856,4.741
			c3.44,1.942,7.327,2.965,11.279,2.965c3.878,0.002,7.829-0.994,11.416-3.067l0,0c3.656-2.109,6.532-5.102,8.472-8.541
			c1.942-3.44,2.965-7.327,2.965-11.28c0.001-2.416-0.386-4.86-1.178-7.227l69.051-39.867l-0.068-0.118l27.512,7.371l2.367-8.836
			l-24.737-6.627l6.628-24.738l-8.836-2.368l-7.372,27.514l-0.069-0.12l-69.052,39.867c-1.702-1.924-3.69-3.518-5.855-4.739
			c-3.44-1.942-7.327-2.965-11.28-2.965c-3.878-0.002-7.829,0.993-11.416,3.066c-3.656,2.11-6.532,5.103-8.471,8.542
			c-1.942,3.44-2.965,7.327-2.966,11.279c-0.001,2.416,0.385,4.86,1.177,7.226l-19.76,11.409l-0.542-0.542l-1.584,1.584
			l-28.536,7.647l-7.646-28.535l0.58-2.165l-0.741-0.199V180.84c4.479-0.911,8.496-3.133,11.596-6.238
			c4.131-4.124,6.7-9.87,6.698-16.17c0.003-6.3-2.566-12.046-6.698-16.169c-3.1-3.106-7.117-5.327-11.596-6.239V56.291h-0.137
			l20.141-20.141l-6.469-6.469l0,0L256,47.791l-18.109-18.109l-6.469,6.468l20.141,20.141h-0.137v79.733
			c-4.479,0.911-8.496,3.133-11.596,6.239c-4.131,4.124-6.7,9.87-6.698,16.169c-0.003,6.301,2.566,12.047,6.698,16.17
			c3.1,3.105,7.116,5.327,11.596,6.238v22.817l-0.741,0.199l0.58,2.165l-7.646,28.535l-28.536-7.646l-1.584-1.584l-0.542,0.542
			l-19.759-11.408c0.792-2.366,1.179-4.81,1.177-7.225c0-3.953-1.023-7.84-2.965-11.28c-1.94-3.439-4.816-6.433-8.471-8.542
			l-2.287,3.961l2.286-3.961c-3.586-2.071-7.536-3.067-11.415-3.065c-3.952,0-7.84,1.023-11.28,2.965
			c-2.165,1.221-4.153,2.815-5.856,4.74l-69.052-39.867l-0.069,0.119l-7.371-27.512l-8.837,2.367l0.001,0.001L75.685,151.896z
			 M263.497,251.671l1.16,4.329l-1.16,4.329l-3.169,3.169l-4.328,1.16l-4.328-1.16l-3.169-3.169l-1.16-4.329l1.16-4.329l3.169-3.169
			l4.329-1.16l4.329,1.16L263.497,251.671z M255.999,237.705L255.999,237.705L255.999,237.705L255.999,237.705z M183.444,311.548
			c-1.168,2.064-2.867,3.838-5.08,5.118c-2.175,1.254-4.515,1.84-6.843,1.842c-2.37,0.001-4.718-0.617-6.781-1.783
			c-2.064-1.168-3.839-2.867-5.118-5.081c-1.254-2.175-1.84-4.514-1.842-6.844c-0.001-2.369,0.617-4.718,1.783-6.78
			c1.168-2.064,2.867-3.839,5.08-5.119c2.174-1.253,4.514-1.839,6.843-1.841c2.37-0.001,4.719,0.617,6.781,1.783
			c2.064,1.168,3.839,2.867,5.117,5.079c1.254,2.175,1.84,4.515,1.842,6.844C185.227,307.137,184.61,309.486,183.444,311.548z
			 M269.72,353.567c-0.003,3.803-1.529,7.204-4.019,9.702c-2.497,2.49-5.898,4.016-9.702,4.019
			c-3.803-0.003-7.204-1.529-9.701-4.019c-2.49-2.497-4.016-5.898-4.019-9.702c0.003-3.803,1.529-7.204,4.019-9.702
			c2.497-2.49,5.898-4.016,9.701-4.019c3.803,0.003,7.204,1.529,9.702,4.019C268.191,346.363,269.717,349.764,269.72,353.567z
			 M333.732,292.844c2.063-1.165,4.411-1.783,6.782-1.783c2.328,0.002,4.669,0.588,6.843,1.841c2.212,1.279,3.912,3.054,5.08,5.118
			c1.166,2.063,1.784,4.411,1.783,6.781c-0.002,2.329-0.587,4.669-1.841,6.841l-0.001,0.002c-1.279,2.213-3.054,3.913-5.118,5.08
			c-2.063,1.166-4.411,1.784-6.781,1.783c-2.33-0.002-4.668-0.587-6.842-1.841l-2.288,3.96l2.287-3.961
			c-2.213-1.279-3.912-3.054-5.08-5.118c-1.165-2.062-1.783-4.41-1.783-6.781c0.002-2.329,0.588-4.669,1.842-6.846
			C329.893,295.711,331.668,294.011,333.732,292.844z M328.555,200.453c1.168-2.064,2.867-3.839,5.08-5.119
			c2.173-1.253,4.513-1.838,6.843-1.84c2.37,0,4.719,0.617,6.781,1.783c2.064,1.168,3.839,2.867,5.117,5.079
			c1.254,2.175,1.84,4.515,1.842,6.844c0,2.37-0.617,4.719-1.783,6.781c-1.168,2.063-2.867,3.838-5.08,5.117l2.286,3.961
			l-2.287-3.96c-2.174,1.254-4.514,1.84-6.842,1.842c-2.37,0.001-4.718-0.617-6.781-1.783c-2.064-1.168-3.839-2.867-5.118-5.081
			c-1.254-2.175-1.84-4.515-1.842-6.843C326.772,204.864,327.39,202.515,328.555,200.453z M242.279,158.432
			c0.003-3.803,1.529-7.204,4.019-9.701c2.497-2.49,5.898-4.016,9.701-4.019c3.803,0.003,7.204,1.529,9.702,4.019
			c2.49,2.497,4.016,5.898,4.019,9.701c-0.003,3.803-1.529,7.204-4.019,9.702c-2.497,2.49-5.898,4.016-9.702,4.019
			c-3.803-0.003-7.204-1.529-9.701-4.019C243.808,165.636,242.282,162.235,242.279,158.432z M164.74,195.276
			c2.063-1.165,4.411-1.783,6.782-1.783c2.329,0.002,4.669,0.588,6.843,1.841c2.213,1.279,3.912,3.055,5.08,5.118
			c1.166,2.063,1.784,4.411,1.783,6.781c-0.002,2.329-0.587,4.669-1.841,6.84l-0.001,0.002c-1.279,2.214-3.054,3.913-5.118,5.081
			c-2.062,1.166-4.411,1.784-6.781,1.783c-2.329-0.002-4.668-0.587-6.842-1.842c-2.214-1.28-3.913-3.055-5.081-5.118
			c-1.165-2.062-1.783-4.411-1.783-6.78c0.002-2.329,0.588-4.669,1.842-6.846C160.901,198.143,162.675,196.444,164.74,195.276z"/>
		<path style="fill:#FFFFFF;" d="M153.702,179.336l86.034-50.293V65.438h-9.147v31.054l-2.638-4.512l-100.645,58.834l2.399,4.104
			l-26.54-15.323l-4.575,7.922l0.001,0.001L153.702,179.336z M230.589,101.034l0,22.76l-76.915,44.962l-19.588-11.31
			L230.589,101.034z"/>
		<polygon style="fill:#FFFFFF;" points="61.386,143.64 61.385,143.642 61.385,143.642 		"/>
		<path style="fill:#FFFFFF;" d="M34.228,143.521c1.326,2.352,3.298,4.404,5.795,5.843l-0.002-0.001
			c2.451,1.418,5.161,2.101,7.811,2.099c2.704,0,5.359-0.699,7.712-2.028c2.351-1.326,4.403-3.298,5.842-5.793
			c1.418-2.451,2.1-5.16,2.098-7.811c0-2.704-0.699-5.359-2.027-7.712c-1.326-2.352-3.297-4.404-5.794-5.844l0,0
			c-2.449-1.415-5.156-2.098-7.809-2.096c-2.703,0.001-5.359,0.699-7.712,2.027c-2.352,1.326-4.404,3.298-5.844,5.794l-0.001,0.002
			c-1.414,2.449-2.098,5.156-2.096,7.808C32.201,138.514,32.899,141.169,34.228,143.521z M42.219,132.574
			c0.61-1.054,1.443-1.849,2.419-2.403c0.976-0.552,2.093-0.846,3.214-0.845c1.103,0.002,2.201,0.276,3.235,0.872l2.287-3.961
			l-2.286,3.961c1.054,0.61,1.849,1.443,2.403,2.42c0.552,0.976,0.846,2.093,0.845,3.214c-0.002,1.104-0.275,2.201-0.87,3.233
			l-0.002,0.003c-0.61,1.054-1.443,1.85-2.42,2.404c-0.976,0.552-2.092,0.846-3.213,0.845c-1.103-0.002-2.198-0.274-3.234-0.872
			l-0.002-0.001c-1.054-0.61-1.849-1.443-2.403-2.419c-0.552-0.976-0.846-2.092-0.845-3.213
			C41.349,134.708,41.622,133.612,42.219,132.574z"/>
		<path style="fill:#FFFFFF;" d="M168.455,212.497c2.916,1.684,6.645,0.684,8.33-2.232c1.684-2.917,0.685-6.646-2.232-8.331
			c-2.916-1.683-6.646-0.684-8.33,2.232C164.538,207.083,165.538,210.813,168.455,212.497z"/>
		<polygon style="fill:#FFFFFF;" points="461.051,158.523 461.051,158.523 461.051,158.523 		"/>
		<path style="fill:#FFFFFF;" d="M374.08,305.394l55.082,31.802l4.574-7.923l-26.892-15.526l5.225-0.028l-0.629-116.579
			l-4.753,0.025l26.54-15.323l-4.574-7.923l0,0.001l-55.111,31.818L374.08,305.394z M402.306,199.696l0.603,111.781l-19.711-11.38
			l-0.481-89.091L402.306,199.696z"/>
		<path style="fill:#FFFFFF;" d="M280.391,65.438h-9.147l0,63.638l86.572,49.36l55.082-31.802l-4.574-7.923l0,0.001l-26.893,15.527
			l2.589-4.54L282.746,91.955l-2.355,4.13V65.438z M377.499,156.511l-19.711,11.38l-77.396-44.13l0-22.619L377.499,156.511z"/>
		<polygon style="fill:#FFFFFF;" points="291.079,263.912 296.654,260.693 323.978,276.469 328.552,268.547 305.802,255.412 
			328.042,242.571 323.469,234.649 296.655,250.13 291.589,247.206 287.015,255.128 287.507,255.412 286.506,255.99 		"/>
		<path style="fill:#FFFFFF;" d="M456.457,149.435c2.353,1.329,5.008,2.027,7.712,2.027c2.652,0.002,5.359-0.681,7.808-2.097l0,0
			c0,0,0.001-0.001,0.001-0.001c0,0,0.001-0.001,0.001-0.001l0,0c2.496-1.439,4.468-3.491,5.794-5.842
			c1.328-2.353,2.027-5.009,2.027-7.713c0.002-2.652-0.682-5.361-2.098-7.81c-1.439-2.496-3.491-4.467-5.842-5.793
			c-2.353-1.328-5.008-2.027-7.712-2.027c-2.651-0.002-5.359,0.68-7.809,2.096l-0.002,0.001c-2.495,1.44-4.467,3.492-5.793,5.843
			c-1.328,2.353-2.027,5.008-2.027,7.712c-0.002,2.652,0.681,5.36,2.097,7.809C452.053,146.136,454.105,148.109,456.457,149.435z
			 M458.508,132.618c0.554-0.977,1.35-1.811,2.404-2.422c1.035-0.595,2.132-0.868,3.235-0.87c1.121-0.001,2.237,0.293,3.213,0.845
			c0.977,0.554,1.81,1.35,2.42,2.403c0.597,1.036,0.87,2.133,0.872,3.235c0.001,1.122-0.293,2.238-0.845,3.214
			c-0.554,0.977-1.349,1.809-2.403,2.419l2.286,3.961l-2.288-3.96c-1.036,0.596-2.132,0.87-3.234,0.872
			c-1.121,0.001-2.237-0.293-3.213-0.845c-0.977-0.554-1.81-1.349-2.421-2.404c-0.596-1.035-0.869-2.133-0.871-3.235
			C457.663,134.71,457.956,133.593,458.508,132.618z"/>
		<path style="fill:#FFFFFF;" d="M343.544,212.497c2.917-1.684,3.917-5.413,2.232-8.33c-1.684-2.917-5.413-3.916-8.33-2.232
			c-2.917,1.684-3.917,5.413-2.232,8.331C336.898,213.181,340.628,214.181,343.544,212.497z"/>
		<path style="fill:#FFFFFF;" d="M83.346,338.078L83.346,338.078l55.111-31.818l-0.537-99.655l-55.083-31.802l-4.575,7.922
			l26.893,15.527l-5.225,0.028l0.629,116.58l4.753-0.026l-26.54,15.323L83.346,338.078z M109.089,200.523l19.712,11.381l0.48,89.092
			l-19.589,11.31L109.089,200.523z"/>
		<path style="fill:#FFFFFF;" d="M231.607,446.562h9.147l0-63.636l-86.573-49.362L99.1,365.365l4.574,7.922l0,0l26.892-15.526
			l-2.588,4.539l101.275,57.745l2.355-4.13L231.607,446.562z M134.501,355.489l19.71-11.38l77.397,44.13v22.617L134.501,355.489z"/>
		<polygon style="fill:#FFFFFF;" points="220.92,248.088 215.345,251.306 188.021,235.531 183.448,243.453 206.197,256.588 
			183.957,269.428 188.53,277.35 215.345,261.869 220.41,264.794 224.984,256.872 224.492,256.588 225.493,256.01 		"/>
		<path style="fill:#FFFFFF;" d="M55.544,362.567c-2.352-1.328-5.008-2.027-7.712-2.027c-2.651-0.002-5.359,0.68-7.809,2.096
			l-0.003,0.001c-2.494,1.44-4.465,3.492-5.791,5.843c-1.328,2.352-2.027,5.007-2.027,7.711c-0.002,2.651,0.68,5.359,2.096,7.808
			c1.44,2.497,3.492,4.469,5.844,5.795c2.353,1.328,5.008,2.027,7.712,2.027c2.653,0.002,5.361-0.681,7.81-2.098l-0.002,0.001
			c2.497-1.439,4.47-3.491,5.796-5.843c1.328-2.353,2.027-5.009,2.027-7.713c0.002-2.653-0.682-5.361-2.097-7.809
			C59.947,365.865,57.895,363.893,55.544,362.567z M53.492,379.384c-0.554,0.977-1.349,1.809-2.403,2.418l-0.002,0.001
			c-1.036,0.596-2.133,0.87-3.235,0.872c-1.121,0-2.237-0.293-3.213-0.845c-0.977-0.554-1.81-1.349-2.421-2.404
			c-0.596-1.035-0.868-2.131-0.871-3.235c0-1.12,0.293-2.237,0.845-3.213c0.554-0.978,1.35-1.811,2.405-2.422
			c1.035-0.595,2.131-0.868,3.234-0.87c1.121,0,2.238,0.293,3.214,0.845c0.977,0.554,1.81,1.349,2.419,2.402
			c0.597,1.037,0.871,2.135,0.873,3.236C54.337,377.291,54.043,378.408,53.492,379.384z"/>
		<path style="fill:#FFFFFF;" d="M168.455,299.502c-2.917,1.684-3.917,5.413-2.232,8.331c1.683,2.916,5.413,3.916,8.33,2.232
			c2.917-1.684,3.917-5.413,2.232-8.33C175.1,298.818,171.371,297.819,168.455,299.502z"/>
	</g>
	<g>
		
			<rect x="381.736" y="252.654" transform="matrix(-1.836970e-16 1 -1 -1.836970e-16 702.5712 -190.5712)" style="fill:#FFFFFF;" width="129.671" height="6.692"/>
		
			<rect x="0.593" y="252.654" transform="matrix(-1.836970e-16 1 -1 -1.836970e-16 321.4287 190.5712)" style="fill:#FFFFFF;" width="129.671" height="6.692"/>
	</g>
	<g>
		
			<rect x="347.94" y="26.125" transform="matrix(0.5 -0.866 0.866 0.5 96.8687 349.7025)" style="fill:#FFFFFF;" width="6.692" height="129.671"/>
		
			<rect x="157.368" y="356.204" transform="matrix(0.5 -0.866 0.866 0.5 -284.2738 349.7024)" style="fill:#FFFFFF;" width="6.692" height="129.671"/>
	</g>
	<g>
		
			<rect x="95.879" y="87.615" transform="matrix(0.866 -0.5 0.5 0.866 -23.9486 92.5436)" style="fill:#FFFFFF;" width="129.671" height="6.692"/>
		
			<rect x="286.45" y="417.694" transform="matrix(0.866 -0.5 0.5 0.866 -163.4565 232.0515)" style="fill:#FFFFFF;" width="129.671" height="6.692"/>
	</g>
</g>
</svg>
