<?xml version="1.0" encoding="iso-8859-1"?>
<!-- Generator: Adobe Illustrator 22.1.0, SVG Export Plug-In . SVG Version: 6.00 Build 0)  -->
<svg version="1.1" id="_x31_1" xmlns="http://www.w3.org/2000/svg" xmlns:xlink="http://www.w3.org/1999/xlink" x="0px" y="0px"
	 viewBox="0 0 512 512" style="enable-background:new 0 0 512 512;" xml:space="preserve">
<g>
	<path style="fill:#72BD6A;" d="M18.341,84.552c17.486,32.29-1.349,104.939-8.075,117.049c-6.725,12.105-5.38,13.45,13.455,21.525
		c18.835,8.07,43.05,51.12,37.67,75.34c-5.38,24.215,1.345,16.141,28.25,12.105c26.91-4.035,73.995,2.69,100.904,12.11
		c26.905,9.415,45.74,13.455,45.74,13.455s-30.945-92.83,8.07-135.884c-40.36-6.725-94.175-32.285-84.755-84.755
		c-1.345-9.42-2.69-10.765-20.18-8.07c-17.49,2.69-76.685-4.04-96.865-16.145C22.376,79.172,18.341,84.552,18.341,84.552z"/>
	<path style="fill:#72BD6A;" d="M279.336,178.727c37.67-4.035,53.815-12.105,64.579-28.25c10.76-16.145,14.796-33.635,14.796-41.705
		c0-8.075,4.039-8.075,16.145-5.384c12.11,2.69,83.414-1.345,106.285-9.415c22.87-8.075,12.11,16.145,12.11,16.145
		s-4.04,68.61,8.07,86.1c12.11,17.49,5.38,29.6-13.455,37.67c-18.835,8.075-52.465,40.36-51.12,64.58
		c1.345,24.215,4.035,28.25-18.835,18.835c-22.874-9.42-91.485-16.145-131.845-1.345c-40.36,14.796-21.525-4.039-21.525-4.039
		s20.18-79.375,9.415-111.665C263.191,167.967,279.336,178.727,279.336,178.727z"/>
	<path style="fill:#EE8989;" d="M267.231,423.582c-21.981-3.575-25.564-13.451-25.564-13.451s-9.415,24.215-43.05,16.141
		c-33.635-8.07-40.36-60.54-20.18-80.72c20.18-20.18,51.125-12.11,64.575,0c29.6-18.835,67.27-17.49,79.379,6.725
		C334.496,376.497,325.081,433.002,267.231,423.582z"/>
	<path style="fill:#FFFFFF;" d="M159.601,115.497c-1.345-9.42-2.69-10.765-20.18-8.07c-17.49,2.69-76.685-4.04-96.865-16.145
		c-20.18-12.11-24.215-6.729-24.215-6.729c3.756,6.94,5.831,15.75,6.712,25.418c43.433,12.608,96.006,23.278,116.985,19.78
		c-7.482,26.183,41.142,64.833,66.079,69.822c-4.989,38.65-8.728,114.703,18.702,123.431c0.834-4.993,1.646-9.927,2.441-14.796
		c-6.055-30.88-10.288-79.942,15.096-107.956C203.996,193.527,150.182,167.967,159.601,115.497z"/>
	<path style="fill:#FFFFFF;" d="M481.141,93.972c-22.87,8.07-94.175,12.105-106.285,9.415c-12.105-2.69-16.141-2.69-16.141,5.384
		c0,8.07-4.039,25.56-14.8,41.705c-10.765,16.145-26.91,24.215-64.579,28.25c0,0-13.27-8.844-7.722,13.575
		c13.017,4.946,31.869,7.696,51.206,2.282c31.172-8.728,56.105-61.09,57.356-69.818c28.616,6.734,69.173,15.711,112.456,5.505
		c0.125-11.71,0.619-20.154,0.619-20.154S504.011,85.897,481.141,93.972z"/>
	<path style="fill:#FFFFFF;" d="M279.186,363.523c0,5.853-4.744,10.597-10.597,10.597s-10.601-4.744-10.601-10.597
		c0-5.853,4.749-10.597,10.601-10.597S279.186,357.67,279.186,363.523z"/>
	
		<ellipse transform="matrix(0.9228 -0.3852 0.3852 0.9228 -124.73 104.3657)" style="fill:#FFFFFF;" cx="198.144" cy="363.523" rx="10.597" ry="10.597"/>
	<path style="fill:#2D6332;" d="M0.073,191.443c4.714-12.342,7.404-19.376,10.081-26.385c2.437-6.863,5.367-13.635,7.963-25.178
		c1.99-11.259,1.242-17.993,0.262-24.907c-1.07-6.893-2.991-13.936-7.847-25.333c-0.451-1.164,1.259-5.084,4.8-6.631
		c3.283-2.084,7.443-0.971,8.152,0.241c6.424,11.886,9.665,19.802,11.68,28.242c1.899,8.354,3.249,17.589,0.683,31.882
		c-3.206,14.306-6.743,21.319-9.871,28.384c-3.279,6.962-6.867,13.622-12.643,25.401c-0.61,1.152-5.054,3.244-8.5,1.474
		C1.152,197.408-0.365,192.715,0.073,191.443z"/>
	<path style="fill:#2D6332;" d="M52.04,302.008c2.63-10.79,2.269-17,1.882-22.93c-0.198-1.478-0.292-2.965-0.524-4.491
		c-0.305-1.508-0.619-3.081-0.967-4.787c-0.49-1.655-1.023-3.434-1.611-5.415c-0.885-1.848-1.53-4.044-2.806-6.218
		c-4.787-8.629-9.445-12.724-14.108-16.691c-1.246-0.937-2.488-1.869-3.786-2.845c-1.367-0.898-2.871-1.728-4.443-2.703
		c-1.534-1.048-3.425-1.775-5.415-2.746c-1.964-1.031-4.271-1.848-6.858-2.729c-1.006-0.404-2.501-4.233-1.367-7.924
		c0.61-3.842,4.018-6.24,5.333-5.965c3.107,0.722,5.917,1.41,8.431,2.372c2.527,0.898,4.886,1.564,6.957,2.626
		c2.093,0.984,4.078,1.839,5.926,2.806c1.796,1.096,3.524,2.149,5.247,3.201c6.553,4.641,13.343,10.047,20.068,22.165
		c1.745,3.064,2.712,6.081,3.829,8.693c0.778,2.729,1.513,5.187,2.033,7.482c0.352,2.321,0.675,4.452,0.98,6.497
		c0.185,2.041,0.18,3.996,0.249,5.943c-0.15,7.722-0.868,15.578-5.256,27.949c-0.511,1.255-4.684,3.605-8.212,1.96
		C53.931,307.13,51.817,303.052,52.04,302.008z"/>
	<path style="fill:#2D6332;" d="M170.018,326.691c-10.541-2.437-16.6-3.253-22.604-4.16c-5.999-0.855-11.981-1.822-22.432-2.699
		c-10.21-0.679-16.317-0.593-22.359-0.275c-6.003,0.421-12.131,0.692-21.559,3.524c-0.937,0.245-4.216-1.99-5.552-5.612
		c-1.805-3.442-0.709-7.348,0.421-7.89c10.937-4.654,18.019-5.935,24.959-7.078c6.979-1.018,14.031-1.44,25.44-0.688
		c11.628,0.958,18.061,2.325,24.413,3.859c6.33,1.59,12.608,3.395,23.334,7.155c1.066,0.426,3.146,4.435,1.753,8.053
		C174.921,324.641,171.071,326.893,170.018,326.691z"/>
	<path style="fill:#2D6332;" d="M153.452,113.503c-14.117,1.027-22.234,1.259-30.356,1.238c-8.122-0.082-16.278-0.292-30.627-2.346
		c-14.035-2.161-22.492-4.658-30.73-7.804c-4.134-1.487-8.178-3.468-12.784-5.887c-4.538-2.617-9.764-5.685-15.406-10.928
		c-1.169-1.143-1.384-5.629,1.616-8.13c2.518-2.914,6.781-3.563,7.722-2.892c9.656,7.142,17.292,9.291,24.477,11.646
		c7.331,2.192,14.856,4.147,27.79,6.124c13.253,1.891,20.975,2.389,28.667,3.051c7.709,0.606,15.453,1.289,29.2,1.491
		c1.367,0.06,5.329,3.184,5.182,7.056C158.682,109.971,154.87,113.353,153.452,113.503z"/>
	<path style="fill:#2D6332;" d="M235.663,199.273c-7.619,0.056-13.519-0.928-18.564-1.908c-4.98-1.195-9.218-2.243-13.214-3.928
		c-4.108-1.435-7.963-3.485-12.518-5.973c-2.17-1.444-4.508-3.004-7.112-4.736c-2.385-2.05-5.2-4.065-7.937-6.846
		c-10.786-10.846-14.95-19.72-18.044-28.482c-1.143-4.555-2.415-9.072-2.673-14.503c-0.094-1.349-0.318-2.737-0.301-4.186
		c0.056-1.444,0.12-2.948,0.185-4.525c0.086-1.569,0.107-3.214,0.271-4.916c0.297-1.676,0.606-3.434,0.933-5.286
		c0.322-1.551,3.966-4.082,7.696-2.926c3.816,0.533,6.656,3.812,6.601,5.002c-0.984,12.127,1.147,19.084,3.464,25.655
		c2.875,6.381,6.094,12.767,14.46,21.207c8.792,8.431,15.414,11.555,21.675,14.692c6.399,2.862,13.12,6.016,25.625,7.224
		c1.182,0.129,4.779,3.477,4.667,7.331C241.387,196.037,237.245,199.208,235.663,199.273z"/>
	<path style="fill:#2D6332;" d="M233.506,340.189c-6.536-6.983-9.106-13.365-11.306-18.646c-2.041-5.35-3.343-9.905-4.34-14.469
		c-1.908-9.127-3.21-18.345-2.888-34.421c0.55-15.728,2.359-25.152,4.693-34.468c1.263-4.65,2.634-9.278,4.822-14.576
		c2.26-5.268,4.856-11.353,10.524-18.285c0.554-0.701,2.179-1.276,3.915-1.186c1.723,0.069,3.472,0.803,4.688,2.329
		c1.448,1.272,2.213,3.068,2.634,4.542c0.4,1.465,0.438,2.673,0.125,3.236c-3.489,4.998-5.376,10.305-6.837,14.839
		c-1.457,4.598-2.321,8.771-3.159,12.926c-1.508,8.358-2.858,16.901-3.339,31.147c-0.284,14.555,0.619,22.767,1.71,30.756
		c0.58,4.001,1.358,7.924,2.617,12.393c1.311,4.358,3.137,9.566,6.777,14.112c0.374,0.404,0.434,1.874,0.378,3.404
		c-0.112,1.59-0.421,3.635-1.641,5.127c-0.954,1.702-2.793,2.518-4.8,2.578C236.02,341.646,234.241,340.838,233.506,340.189z"/>
	<path style="fill:#2D6332;" d="M197.787,305.626c-5.625-10.189-11.744-17.739-16.768-24.224
		c-5.118-6.476-9.596-11.839-14.056-17.236c-8.831-10.898-18.173-21.336-32.676-41.911c-13.498-19.561-23.063-30.352-32.556-41.219
		C92.1,170.287,82.242,159.673,64.937,143c-1.753-1.706-4.211-6.717-2.196-8.1c1.203-2.144,6.407-0.065,8.272,1.573
		c17.988,16.295,28.426,26.699,38.542,37.425c9.961,10.833,19.991,21.852,33.94,42.053c13.945,19.772,23.197,30.446,31.735,41.559
		c4.332,5.535,8.663,11.091,13.67,17.881c4.929,6.871,10.889,14.615,16.863,26.231c0.49,1.259,1.225,3.666,1.139,5.999
		c-0.069,2.329-0.627,4.147-1.878,4.164c-1.07,0.546-2.634-0.64-3.949-2.028C199.781,308.355,198.234,306.64,197.787,305.626z"/>
	<path style="fill:#2D6332;" d="M496.117,210.673c-4.31-12.389-7.073-19.437-9.488-26.742c-2.252-7.391-4.92-14.778-6.377-29.363
		c-0.825-14.503,1.629-23.506,4.521-31.568c3.017-8.135,7.189-15.608,14.997-26.63c0.847-1.117,5.114-1.719,8.118,0.743
		c3.335,1.964,4.559,6.059,3.971,7.159c-6.192,10.726-8.947,17.49-10.842,24.207c-1.805,6.742-3.361,13.334-2.742,24.752
		c1.186,11.774,3.279,18.848,4.873,25.956c1.814,7.279,3.631,14.585,6.828,27.408c0.275,1.315-1.796,5.793-5.595,6.562
		C500.745,214.502,496.585,211.889,496.117,210.673z"/>
	<path style="fill:#2D6332;" d="M430.854,312.691c-2.866-12.81-2.634-20.696-1.852-28.375c0.301-1.925,0.533-3.868,0.963-5.874
		c0.55-1.994,1.126-4.074,1.753-6.33c0.795-2.217,1.822-4.568,2.922-7.181c1.422-2.462,2.746-5.342,4.852-8.169
		c8.13-11.22,15.526-15.767,22.586-19.591c1.839-0.834,3.683-1.667,5.599-2.54c1.951-0.739,4.022-1.349,6.218-2.071
		c2.187-0.808,4.607-1.182,7.224-1.77c2.613-0.653,5.483-1.001,8.659-1.341c1.336-0.112,4.431,2.677,4.572,6.566
		c0.683,3.799-1.268,7.421-2.312,7.701c-2.673,0.563-5.062,1.096-7.138,1.882c-2.089,0.726-4.057,1.22-5.703,2.076
		c-1.68,0.778-3.275,1.422-4.74,2.149c-1.405,0.808-2.75,1.586-4.1,2.364c-5.109,3.378-10.223,6.88-16.02,14.873
		c-1.525,2.003-2.428,4.104-3.532,5.831c-0.825,1.895-1.564,3.601-2.252,5.182c-0.55,1.655-1.053,3.176-1.539,4.633
		c-0.412,1.487-0.683,2.957-1.057,4.396c-1.1,5.84-2.209,11.959-0.898,22.99c0.099,1.061-2.497,4.856-6.296,5.535
		C435.065,316.837,431.207,314.001,430.854,312.691z"/>
	<path style="fill:#2D6332;" d="M311.076,308.234c12.252-3.124,19.385-4.517,26.562-5.677c7.189-1.091,14.456-2.015,27.451-1.977
		c12.737,0.262,20.528,1.435,28.16,3.292c7.572,1.998,15.315,4.164,26.828,10.683c1.182,0.735,2.058,4.869-0.181,8.057
		c-1.74,3.442-5.5,5.152-6.51,4.744c-10.099-4.465-16.897-5.509-23.532-6.678c-6.691-1.057-13.498-1.801-24.967-2.033
		c-11.753-0.017-18.526,0.541-25.302,0.984c-6.781,0.503-13.614,0.932-25.612,2.75c-1.195,0.142-5.2-2.346-5.767-6.175
		C307.097,312.489,309.851,308.595,311.076,308.234z"/>
	<path style="fill:#2D6332;" d="M369.27,96.46c13.674,1.452,21.443,1.71,29.166,2.037c7.718,0.271,15.44,0.705,28.831,0.43
		c13.072-0.408,20.782-1.44,28.323-2.733c7.417-1.474,15.255-2.686,25.702-8.612c1.014-0.554,5.165,0.606,7.318,3.799
		c2.677,2.849,1.921,7.275,0.623,8.264c-6.231,4.529-11.787,6.944-16.609,8.998c-4.865,1.843-9.119,3.326-13.399,4.302
		c-8.56,2.131-17.254,3.588-31.452,4.044c-14.49,0.314-22.612-0.464-30.687-1.362c-8.062-0.958-16.093-2.161-29.982-4.886
		c-1.388-0.322-4.766-4.134-3.829-7.898C363.598,98.978,367.908,96.353,369.27,96.46z"/>
	<path style="fill:#2D6332;" d="M276.354,171.585c12.561,0.305,19.613-2.016,26.308-4.083c6.596-2.359,13.545-4.667,23.287-11.977
		c9.325-7.37,13.291-13.322,16.91-19.308c3.094-6.244,6.046-12.896,6.532-25.053c0.086-1.19,3.3-4.1,7.155-4.168
		c3.842-0.701,7.155,2.252,7.284,3.833c0.103,1.874,0.202,3.657,0.292,5.359c-0.043,1.71-0.219,3.348-0.322,4.912
		c-0.125,1.573-0.245,3.073-0.361,4.517c-0.159,1.44-0.55,2.789-0.804,4.117c-0.911,5.359-2.716,9.69-4.405,14.078
		c-4.125,8.324-9.329,16.631-21.34,26.102c-3.051,2.428-6.094,4.091-8.706,5.836c-2.793,1.405-5.303,2.673-7.632,3.842
		c-4.822,1.921-8.895,3.494-13.145,4.426c-4.168,1.19-8.504,1.719-13.592,2.303c-5.127,0.365-11.1,0.632-18.659-0.344
		c-1.564-0.254-5.29-3.898-4.314-7.679C271.193,174.456,275.164,171.568,276.354,171.585z"/>
	<path style="fill:#2D6332;" d="M250.936,315.144c4.164-4.074,6.605-9.024,8.431-13.193c1.783-4.284,3.03-8.087,4.087-11.985
		c2.05-7.799,3.932-15.844,5.406-30.326c1.238-14.202,0.928-22.844,0.438-31.323c-0.331-4.224-0.683-8.47-1.577-13.21
		c-0.902-4.68-2.136-10.176-4.998-15.556c-0.245-0.597-0.06-1.788,0.511-3.197c0.597-1.414,1.573-3.103,3.163-4.19
		c1.392-1.371,3.219-1.886,4.938-1.749c1.732,0.12,3.275,0.885,3.739,1.65c4.792,7.559,6.639,13.915,8.247,19.415
		c1.534,5.526,2.338,10.288,3.03,15.053c1.195,9.531,1.852,19.106,0.503,34.782c-1.616,16.003-4.018,24.993-7.013,33.824
		c-1.538,4.409-3.378,8.775-6.051,13.842c-2.823,4.976-6.141,11.001-13.472,17.146c-0.803,0.554-2.669,1.143-4.701,0.778
		c-1.985-0.305-3.713-1.336-4.452-3.141c-1.031-1.624-1.091-3.696-1.01-5.286C250.278,316.953,250.519,315.505,250.936,315.144z"/>
	<path style="fill:#2D6332;" d="M292.508,291.187c7.327-10.816,14.177-17.782,19.901-24.009
		c5.788-6.141,10.756-11.134,15.724-16.102c9.811-10.004,20.283-19.484,36.51-37.434c16.282-18.375,27.567-28.104,38.762-37.657
		c11.336-9.428,22.947-18.5,42.771-32.513c2.05-1.397,7.469-2.832,8.401-0.563c1.835,1.62-1.208,6.296-3.154,7.782
		c-19.187,14.465-30.253,23.811-41.112,33.321c-10.73,9.647-21.529,19.205-37.283,37c-16.875,18.672-27.408,27.911-37.49,37.666
		c-5.079,4.822-10.167,9.609-16.033,15.419c-5.763,5.827-12.75,12.587-19.561,22.023c-0.567,0.954-2.308,2.467-3.764,3.704
		c-1.47,1.22-3.167,2.205-4.164,1.538c-1.238-0.168-1.573-2.041-1.358-4.362C290.849,294.676,291.867,292.377,292.508,291.187z"/>
	<path style="fill:#2D6332;" d="M187.744,345.823c-11.315,8.47-13.481,16.244-14.847,23.334c-0.636,3.635-0.606,7.434-0.004,11.895
		c0.658,4.448,2.033,9.677,5.238,15.707c3.283,5.823,6.906,9.841,10.365,12.84c3.494,2.969,6.82,5.079,10.365,6.57
		c3.554,1.444,7.284,2.449,11.792,2.681c4.491,0.198,9.828-0.43,16.205-3.133c1.233-0.533,5.565,0.907,7.271,4.366
		c2.355,3.124,0.572,7.722-1.087,8.685c-8.023,4.164-15.608,5.844-22.277,6.098c-6.699,0.232-12.527-0.825-17.997-2.673
		c-5.47-1.908-10.55-4.77-15.694-8.904c-5.097-4.181-10.245-9.763-14.791-17.847c-4.469-8.35-6.339-15.719-7.108-22.144
		c-0.7-6.45-0.425-12.049,0.864-17.468c1.276-5.397,3.292-10.709,6.906-16.244c3.683-5.445,9.029-11.087,16.961-15.896
		c1.706-0.907,7.632-0.516,8.947,3.171C190.812,340.193,188.831,345.075,187.744,345.823z"/>
	<path style="fill:#2D6332;" d="M235.362,347.735c-2.935-1.53-4.748-2.015-6.454-2.634c-1.727-0.627-3.382-1.229-6.304-2.29
		c-2.901-0.92-4.645-1.474-6.463-2.054c-1.796-0.554-3.605-1.246-6.785-1.788c-0.305-0.095-1.156-3.33-1.285-7.189
		c-0.301-3.859,0.473-7.133,0.937-7.25c4.34-0.675,7.065-0.795,9.759-0.713c2.694,0.112,5.402,0.503,9.652,1.886
		c4.306,1.508,6.588,2.819,8.702,4.306c2.097,1.521,4.113,3.193,7.22,6.411c0.301,0.374-0.834,3.635-3.416,6.515
		C238.469,345.922,235.663,347.842,235.362,347.735z"/>
	<path style="fill:#2D6332;" d="M254.399,348.319c-9.566,8.577-12.87,18.809-13.416,27.081c-0.542,8.41,1.495,15.535,4.804,21.62
		c1.633,3.081,3.726,5.905,6.278,8.496c2.484,2.656,5.548,5.002,9.149,7c7.112,3.941,17.052,6.7,28.942,3.541
		c11.568-3.184,18.874-10.46,23.145-17.563c2.187-3.588,3.635-7.275,4.465-10.941c0.902-3.648,1.268-7.288,1.048-10.915
		c-0.335-7.241-2.484-14.611-7.503-21.568c-5.002-6.846-13.347-13.588-25.711-15.741c-1.246-0.159-3.12-1.276-4.783-2.544
		c-1.642-1.302-3.116-3.077-2.884-5.006c-0.447-1.929,0.92-3.717,3.034-5.036c2.088-1.349,4.873-1.848,6.601-1.723
		c16.961,2.209,28.929,10.937,36.415,20.257c7.529,9.506,11.083,19.858,11.938,30.244c0.473,5.221,0.129,10.537-1.044,15.887
		c-1.091,5.367-3.094,10.79-6.184,16.085c-6.042,10.455-16.811,21.315-33.824,26.011c-8.612,2.333-16.794,2.428-23.936,1.22
		c-7.163-1.216-13.313-3.678-18.53-6.674c-5.221-3.004-9.587-6.536-13.133-10.477c-3.605-3.876-6.51-8.087-8.728-12.621
		c-4.461-9.011-6.833-19.2-5.539-31.061c1.332-11.654,6.631-25.543,20.116-36.647c0.692-0.52,1.801-1.147,3.111-1.672
		c1.349-0.464,2.879-0.846,4.319-1.023c3.004-0.206,5.552,0.425,6.106,2.32c1.152,1.569,0.331,4.069-0.821,6.218
		C256.724,345.358,255.315,347.434,254.399,348.319z"/>
</g>
</svg>
