<?xml version="1.0" encoding="iso-8859-1"?>
<!-- Generator: Adobe Illustrator 21.1.0, SVG Export Plug-In . SVG Version: 6.00 Build 0)  -->
<svg version="1.1" id="_x31_" xmlns="http://www.w3.org/2000/svg" xmlns:xlink="http://www.w3.org/1999/xlink" x="0px" y="0px"
	 viewBox="0 0 512 512" style="enable-background:new 0 0 512 512;" xml:space="preserve">
<g>
	<g>
		<g>
			<g>
				<g>
					<path style="fill:#FFFFFF;" d="M418.734,349.287C418.734,439.154,345.867,512,256,512c-7.247,0-14.388-0.464-21.382-1.39
						c-79.755-10.47-141.352-78.702-141.352-161.323c0-48.199,20.939-91.489,54.245-121.297
						c28.797-25.764,66.8-41.437,108.489-41.437c56.773,0,106.762,29.071,135.833,73.141c2.675,4.003,5.14,8.131,7.436,12.366
						C411.698,295.042,418.734,321.332,418.734,349.287z"/>
					<path style="fill:#DBDBDB;" d="M399.269,272.059c-1.07-1.983-2.195-3.931-3.344-5.864c-0.19-0.318-0.384-0.633-0.576-0.95
						c-28.49-47.157-80.224-78.693-139.349-78.693c-41.689,0-79.692,15.673-108.489,41.437
						c14.43,61.386,69.56,107.078,135.348,107.078c17.773,0,34.766-3.337,50.386-9.419c28.992-11.287,58.283,15.78,50.165,45.814
						c-18.955,70.129-88.515,121.46-148.793,139.147c6.994,0.927,14.135,1.39,21.382,1.39c89.867,0,162.734-72.846,162.734-162.713
						C418.734,321.332,411.698,295.042,399.269,272.059z"/>
					<path style="fill:#019991;" d="M160.445,203.258c-23.173,12.64-23.858,71.382,48.452,96.903
						c71.624,25.279,124.724,4.557,149.568-27.386c29.492-37.919,12.639-67.411-18.959-75.837
						C307.906,188.512,160.445,203.258,160.445,203.258z"/>
					<path style="fill:#FFFFFF;" d="M368.176,169.173c0,61.955-50.221,112.176-112.176,112.176
						c-61.955,0-112.176-50.221-112.176-112.176c0-61.912,50.137-112.092,112.029-112.176H256
						c51.612,0,95.071,34.843,108.153,82.305C366.785,148.824,368.176,158.831,368.176,169.173z"/>
					<path style="fill:#DBDBDB;" d="M364.152,139.302c-130.166,15.546-160.985-54.476-160.985-54.476
						c3.223-9.67,23.531-19.361,52.686-27.829H256C307.611,56.997,351.07,91.84,364.152,139.302z"/>
					
						<ellipse transform="matrix(0.1207 -0.9927 0.9927 0.1207 -180.2286 476.9129)" style="fill:#3F210E;" cx="179.079" cy="340.186" rx="12.9" ry="8.752"/>
					
						<ellipse transform="matrix(0.1207 -0.9927 0.9927 0.1207 -6.9909 322.7869)" style="fill:#3F210E;" cx="178.702" cy="165.339" rx="8.277" ry="5.615"/>
					
						<ellipse transform="matrix(0.1207 -0.9927 0.9927 0.1207 42.2829 413.5716)" style="fill:#3F210E;" cx="254.583" cy="182.919" rx="8.277" ry="5.615"/>
					<ellipse style="fill:#3F210E;" cx="172.759" cy="388.638" rx="8.752" ry="12.9"/>
					
						<ellipse transform="matrix(0.9988 -0.0493 0.0493 0.9988 -21.4319 9.0626)" style="fill:#3F210E;" cx="173.085" cy="439.196" rx="8.752" ry="12.9"/>
				</g>
			</g>
			<path style="fill:#019991;" d="M255.242,289.628c0,0,25.279,54.771,25.279,128.502c14.746,14.746,48.452,0,54.771-8.426
				c6.32-8.426-2.107-84.264-40.025-120.076H255.242z"/>
			<path style="fill:#019991;" d="M320.546,291.735c0,0,18.609,26.363,33.208,65.784c5.683,15.345-2.375,32.835-18.067,37.472
				c-4.345,1.284-8.821,1.547-13.035-0.033c-16.853-6.32-33.705-96.903-33.705-96.903L320.546,291.735z"/>
			<g>
				<path style="fill:#DC5518;" d="M191.095,232.736c1.895,4.16,5.383,7.34,9.591,9.467c4.219,2.129,9.202,3.246,14.374,3.249
					c8.331,0,17.244-2.93,23.974-9.653c1.012-1.012,1.012-2.652,0-3.664c-1.012-1.012-2.652-1.012-3.663,0
					c-5.608,5.615-13.165,8.136-20.311,8.136c-4.419,0.003-8.647-0.974-12.037-2.691c-3.401-1.72-5.92-4.137-7.212-6.987
					c-0.592-1.302-2.128-1.878-3.43-1.286C191.078,229.898,190.503,231.434,191.095,232.736L191.095,232.736z"/>
			</g>
		</g>
		<g>
			
				<ellipse transform="matrix(0.1078 -0.9942 0.9942 0.1078 165.7204 335.1931)" style="fill:#221613;" cx="269.604" cy="75.27" rx="47.396" ry="86.893"/>
			<g>
				<path style="fill:#221613;" d="M215.652,59.888c-1.795,16.56,21.362,32.653,51.723,35.944
					c30.361,3.291,56.428-7.466,58.223-24.027l3.823-35.269c1.795-16.56-21.362-32.653-51.723-35.944
					c-30.361-3.291-56.428,7.467-58.223,24.027L215.652,59.888z"/>
				
					<ellipse transform="matrix(0.1078 -0.9942 0.9942 0.1078 214.4749 300.1324)" style="fill:#4B3935;" cx="274.448" cy="30.578" rx="30.161" ry="55.295"/>
			</g>
		</g>
	</g>
	<path style="fill:#DC5518;" d="M206.634,213.791c-23.552,0-18.959-29.492,2.107-23.173
		C229.019,196.702,217.167,213.791,206.634,213.791z"/>
</g>
</svg>
