<?xml version="1.0" encoding="iso-8859-1"?>
<!-- Generator: Adobe Illustrator 15.1.0, SVG Export Plug-In . SVG Version: 6.00 Build 0)  -->
<!DOCTYPE svg PUBLIC "-//W3C//DTD SVG 1.1//EN" "http://www.w3.org/Graphics/SVG/1.1/DTD/svg11.dtd">
<svg version="1.1" id="_x38_" xmlns="http://www.w3.org/2000/svg" xmlns:xlink="http://www.w3.org/1999/xlink" x="0px" y="0px"
	 width="512px" height="512px" viewBox="0 0 512 512" style="enable-background:new 0 0 512 512;" xml:space="preserve">
<g>
	<g>
		<rect y="85.333" width="512" height="341.333"/>
	</g>
	<g>
		<g>
			<path style="fill:#F5F5F5;" d="M234.18,235.447c0.196-1.151,5.78-34.005,5.898-34.696c0.116-0.69,0.725-2.854-0.753-1.842
				c-1.708,1.169-5.961,3.653-5.961,3.653l-13.834,20.31c0,0,2.776-16.343,3.09-18.185c0.314-1.842,0.208-2.968-0.935-2.395
				c0,0-4.776,2.825-5.384,3.674c-1.554,2.171-16.436,33.834-29.217,42.357c-12.78,8.523-15.432,2.459-14.336-3.987
				c2.917-0.766,5.96-5.011,3.543-5.816c-2.17-0.723-5.197,2.905-5.576,7.536c-0.216,2.631-0.104,10.294,8.275,7.911
				c8.38-2.383,17.917-7.874,35.992-35.197c-1.312,6.484-1.721,10.129-2.035,11.97c-0.314,1.841-0.35,4.527,2.638,1.763
				c2.988-2.764,14.382-20.417,14.382-20.417s-3.835,22.559-4.226,24.861c-0.391,2.302-2.201,3.071-3.5,3.301l-0.352,2.071
				l13.417-2.385l0.313-1.842C235.619,238.092,233.671,238.443,234.18,235.447z M215.266,229.434c0,0-0.265,0.94-0.814,1.708
				c-0.551,0.767-0.611-0.115-0.475-0.921c0.138-0.806,2.231-13.121,2.231-13.121l1.542-2.284L215.266,229.434z M227.848,238.136
				l-1.299,0.231l4.539-26.703l0.077-0.461l1.671-2.417L227.848,238.136z"/>
			<path style="fill:#F5F5F5;" d="M250.2,233.379c-1.573,1.023-5.349,1.844-7.017,0.949c-1.968-1.056,0.403-3.196,0.403-3.196
				c1.98-0.947,7.912-4.768,9.318-7.908c2.029-4.528-2.735-6.955-6.943-4.42c-4.207,2.534-6.761,6.857-7.674,12.228
				c-0.914,5.371,2.566,7.715,6.33,7.208c3.436-0.462,5.454-2.458,6.529-3.839C252.22,233.02,251.773,232.355,250.2,233.379z
				 M246.017,221.771c3.369-2.533,4.837,0.538,4.421,1.148c-1.493,2.201-6.382,5.452-6.382,5.452
				c-0.629,0.408-1.277-0.219-1.068-1.447C243.195,225.696,243.29,223.822,246.017,221.771z"/>
			<path style="fill:#F5F5F5;" d="M260.39,231.865c-0.183,1.074,0.75,1.355,0.75,1.355l-0.184,1.074l-5.914,1.052l0.183-1.075
				c0,0,1.258-0.818,1.415-1.739c0.157-0.92,1.696-9.975,2.008-11.816c0.313-1.842-2.104-2.124-1.787-2.659
				c0.787-1.331,2.591-2.452,3.868-2.177c1.89,0.409,1.328,2.89,1.015,4.731c2.121-4.247,5.437-8.109,8.256-7.421
				c2.821,0.688,0.766,3.733-0.468,4.399c-1.231,0.666-1.914-0.254-1.914-0.254s-5.133,3.034-5.856,7.292
				C261.291,227.388,260.39,231.865,260.39,231.865z"/>
			<path style="fill:#F5F5F5;" d="M244.529,282.705c-0.183,1.073,0.749,1.354,0.749,1.354l-0.182,1.074l-5.916,1.052l0.184-1.074
				c0,0,1.257-0.818,1.414-1.739c0.157-0.921,1.697-9.975,2.009-11.816c0.313-1.842-2.103-2.123-1.787-2.658
				c0.786-1.331,2.59-2.452,3.868-2.177c1.889,0.408,1.328,2.89,1.014,4.73c2.121-4.247,5.435-8.109,8.257-7.421
				c2.821,0.689,0.764,3.733-0.469,4.399c-1.232,0.665-1.915-0.255-1.915-0.255s-5.132,3.032-5.855,7.291
				C245.429,278.229,244.529,282.705,244.529,282.705z"/>
			<path style="fill:#F5F5F5;" d="M275.971,229.094c-0.184,1.074,0.749,1.355,0.749,1.355l-0.184,1.074l-5.915,1.052l0.185-1.074
				c0,0,1.258-0.819,1.414-1.739c0.155-0.92,1.695-9.975,2.009-11.817c0.313-1.84-2.104-2.122-1.788-2.659
				c0.786-1.33,2.591-2.452,3.868-2.175c1.89,0.408,1.327,2.89,1.015,4.731c2.12-4.247,5.437-8.11,8.255-7.421
				c2.822,0.688,0.766,3.733-0.467,4.398c-1.232,0.666-1.915-0.254-1.915-0.254s-5.132,3.034-5.856,7.292
				C276.871,224.618,275.971,229.094,275.971,229.094z"/>
			<path style="fill:#F5F5F5;" d="M294.369,217.443c-0.529,3.113,0.899,3.121,0.899,3.121c1.878-0.335,4.253-1.449,5.246-7.294
				c0.646-3.797,2.438-4.695,3.718-4.729c1.281-0.035,1.386,1.497,1.386,1.497s-1.774,1.865-2.149,4.063
				c-0.371,2.197-1.183,6.959-2.302,13.552s-0.917,5.393-1.664,9.789c-0.747,4.395-5.284,9.657-8.563,9.659
				c-3.278,0.002-3.643-5.358-0.896-9.72c2.744-4.363,9.704-11.026,13.716-12.126c0.905,0.033,0.957,0.798-0.494,1.831
				c-1.449,1.034-6.447,5.798-9.331,8.828c-2.883,3.032-3.341,6.793-0.644,5.927c2.698-0.867,2.488-6.061,3.065-9.456
				c0.577-3.396,1.459-8.59,1.629-9.589c-2.771,2.915-4.14,3.676-5.733,3.731c-2.069,0.074-2.881-1.618-2.033-6.613
				c0.137-0.799,0.579-3.396,0.85-4.994c0.543-3.196-1.826-1.842-1.551-2.309c0.681-1.153,2.248-2.126,3.356-1.887
				c1.641,0.354,2.573,0.377,2.062,3.387L294.369,217.443z"/>
			<path style="fill:#F5F5F5;" d="M232.679,279.898c0.549-3.223-0.933-3.229-0.933-3.229c-1.943,0.346-4.142,2.72-5.17,8.771
				c-0.668,3.93-3.704,3.626-5.029,3.662l0.316-1.862c0,0,0.754-0.118,1.141-2.393c0.386-2.273,1.477-8.69,2.637-15.515
				s1.174-6.913,1.948-11.464c0.773-4.549,3.597-8.198,6.989-8.2c3.394-0.001,3.822,4.538,0.98,9.053
				c-2.841,4.516-5.639,6.258-9.791,7.396c-0.938-0.035-1.661-0.465-0.16-1.534c1.502-1.068,3.142-0.185,6.127-3.322
				c2.983-3.138,3.819-8.891,2.371-8.458c-1.831,0.547-2.033,3.083-2.63,6.6c-0.598,3.516-2.368,13.925-2.543,14.959
				c2.871-3.018,4.287-3.805,5.937-3.863c2.142-0.075,2.982,1.677,2.104,6.846c-0.141,0.827-0.597,3.516-0.879,5.17
				c-0.563,3.309,1.891,1.907,1.605,2.389c-0.706,1.195-2.194,1.834-3.474,1.954c-1.727,0.164-2.663-0.391-2.134-3.505
				L232.679,279.898z"/>
			<path style="fill:#F5F5F5;" d="M221.485,259.215c1.252-7.367-5.677-11.046-14.605-5.439
				c-8.926,5.604-14.422,18.191-15.002,29.009c-0.479,8.955,7.673,13.854,18.618,6.51c7.698-5.163,13.679-16.272,12.73-20.568
				c-0.949-4.296-6.415,0.694-4.209,2.535c2.355,4.045-3.481,11.223-8.839,14.966c-5.081,3.55-11.696,2.146-9.337-11.734
				c2.66-15.653,14.262-22.181,16.983-15.968C218.499,261.978,220.938,262.438,221.485,259.215z"/>
			<g>
				<path style="fill:#F5F5F5;" d="M261.045,271.123c-0.468,2.763-1.513,8.912-1.513,8.912c-0.184,1.075,0.678,1.369,0.678,1.369
					l-0.185,1.074l-5.914,1.052l0.183-1.074c0,0,1.258-0.819,1.414-1.741c0.157-0.92,0.87-5.113,1.183-6.954
					c0.313-1.842-1.314,0.318-1.536-0.844c-0.119-0.623,0.82-1.495,1.946-2.802c1.052-1.222,2.629-2.08,3.283-2.034
					C261.932,268.177,261.359,269.282,261.045,271.123z"/>
				<path style="fill:#F5F5F5;" d="M262.627,263.477c-0.228,1.335-1.429,2.598-2.684,2.82c-1.254,0.224-2.088-0.677-1.861-2.013
					c0.227-1.335,1.428-2.598,2.684-2.821C262.02,261.24,262.854,262.142,262.627,263.477z"/>
			</g>
			<polygon style="fill:#F5F5F5;" points="204.86,259.844 199.591,290.844 200.642,290.953 206.276,257.807 			"/>
			<path style="fill:#F5F5F5;" d="M342.822,266.813c1.667-3.031,0.334-7.956-3.553-9.055c-5.089-1.438-2.571-5.339,0.059-5.807
				c1.782-0.318,3.302,0.602,4.096,1.227c0.378,0.299,0.799-0.685,0.799-0.685l0.594-3.491l-0.956,0.17l-0.195,1.145
				c0,0-4.7-2.372-8.566,1.276c-3.264,3.081-3.147,6.654,1.89,8.668c6.127,2.449,2.106,16.858-58.636,28.529
				c-74.728,14.36-93.189,8.206-93.189,11.137s-4.689,11.43-7.619,13.774c-4.928,3.943,100.015-17.841,123.372-25.203
				C327.877,279.999,337.936,275.691,342.822,266.813z"/>
			<g>
				<path style="fill:#F5F5F5;" d="M287.768,260.01c0,0-0.36,0.659-0.516,1.58c-0.158,0.921-1.615,9.498-1.929,11.34
					c-0.313,1.841,1.313-0.319,1.536,0.843c0.119,0.624-0.821,1.496-1.944,2.801c-1.052,1.222-2.63,2.082-3.284,2.036
					c-1.349-0.096-0.775-1.202-0.462-3.044c0.468-2.763,2.259-13.296,2.259-13.296c0.183-1.073-0.462-2.41-0.462-2.41
					c-1.563-1.062,0.612-1.854,1.702-1.977c1.71-0.193,3.187,0.994,3.187,0.994L287.768,260.01z"/>
				<path style="fill:#F5F5F5;" d="M280.076,264.376c0,0,8.336-1.482,9.273-1.647c0.938-0.168,1.355-0.241,1.355-0.241
					s-1.262,2.665-1.575,2.721s-8.127,1.444-9.169,1.63s-0.534-2.202-0.534-2.202L280.076,264.376z"/>
			</g>
			<g>
				<path style="fill:#F5F5F5;" d="M293.021,261.411c0.964-1.347,2.501-4.017,4.952-4.453c2.453-0.436,1.67,2.531,1.408,4.065
					c-0.261,1.535-2.034,11.971-2.191,12.892c-0.234,1.382-2.529,2.533-3.944,2.636c-1.418,0.104-0.641-0.694,0.077-2.097
					c0.419-0.819,0.522-1.432,0.809-3.121c0.287-1.688,1.278-7.519,1.513-8.9c0.234-1.381-0.893-1.329-1.601-0.46
					C293.336,262.844,292.287,262.434,293.021,261.411z"/>
				<path style="fill:#F5F5F5;" d="M298.296,263.302c0.965-1.347,4.585-5.579,7.038-6.016c2.452-0.436,1.668,2.532,1.406,4.066
					c-0.259,1.534-1.747,10.281-1.902,11.202c-0.235,1.381-2.529,2.533-3.947,2.637c-1.416,0.103-0.639-0.695,0.078-2.098
					c0.418-0.818,0.523-1.432,0.809-3.12c0.288-1.688,1.097-6.445,1.331-7.826c0.233-1.382-3.671,1.842-4.378,2.713
					C298.022,265.731,297.563,264.324,298.296,263.302z"/>
				<path style="fill:#F5F5F5;" d="M304.932,262.121c0.965-1.347,4.586-5.578,7.038-6.015c2.452-0.436,1.667,2.532,1.407,4.065
					c-0.261,1.534-1.408,8.288-1.564,9.209c-0.392,2.301,2.402,2.104,1.014,3.092c-1.115,0.795-2.661,1.665-4.251,0.31
					c-0.527-0.448-0.448-2.301-0.16-3.988c0.286-1.688,1.095-6.446,1.329-7.826c0.234-1.382-3.671,1.843-4.379,2.713
					C304.658,264.551,304.198,263.144,304.932,262.121z"/>
			</g>
			<path style="fill:#F5F5F5;" d="M277.735,260.931l-0.593,3.491c0,0-0.422,0.983-0.799,0.686c-0.795-0.626-2.313-1.545-4.096-1.228
				c-2.63,0.468-5.148,4.369-0.059,5.808c3.886,1.099,5.066,3.349,3.647,6.504c-2.05,4.559-7.43,5.515-11.008,4.055
				c-0.194,1.145-0.194,1.145-0.194,1.145l-1.316,0.234l0.821-4.832l1.338-0.362c0,0,1.024,2.161,3.729,1.927
				c2.709-0.234,3.202-5.058,0.702-6.168c-4.96-2.201-5.152-5.587-1.89-8.667c3.867-3.648,8.565-1.276,8.565-1.276l0.194-1.146
				L277.735,260.931z"/>
			<path style="fill:#F5F5F5;" d="M327.791,267.964c0-0.818,1.631-9.591,1.955-11.509c0.327-1.918-1.688-3.643-4.744-2.951
				c-1.137,0.257-6.214,1.998-8.491,7.984c-2.212,5.817-0.487,9.048,1.833,9.793c1.792,0.574,4.617-0.002,6.386-2.178
				c0.126,0.498,1.045,1.674,3.352,0.445C328.527,269.396,327.792,268.783,327.791,267.964z M324.473,266.918
				c-0.208,1.227-2.554,2.052-4.099,1.881c-1.238-0.137-2.585-2.479-0.518-7.236c2.067-4.758,5.95-4.965,5.979-2.664
				C325.835,258.898,324.682,265.689,324.473,266.918z"/>
		</g>
		<g>
			<g>
				<path style="fill:#00A199;" d="M159.52,261.28c-1.377,0.576-2.614,1.334-3.646,2.186c-1.032,0.85-1.858,1.793-2.418,2.718
					c-1.125,1.852-1.181,3.625,0.188,4.361c0.922,0.495,0.261,1.058-0.789,1.273c-1.786,0.363-4.019,1.208-6.092,2.432
					c-2.072,1.221-3.985,2.829-5.132,4.644l-0.145,0.027c-0.883,0.183-1.648,0.625-2.242,1.248c-0.47-0.293-0.869-0.545-1.063-0.675
					l0.389-0.53c1.062-2.088,1.224-4.588,1.012-6.762c-0.216-2.171-0.815-4.026-1.411-4.724c-0.998-1.163-0.547-1.397,0.521-1.953
					c1.778-0.93,3.215-2.691,4.081-4.537c0.862-1.852,1.151-3.8,0.524-5.24c-0.535-1.226-1.055-1.853,0.925-1.895
					c2.585-0.057,6.964-0.904,9.469-2.83c1.103-0.846,1.711-0.933,1.987-0.633c0.274,0.302,0.221,1,0.016,1.773
					c-0.323,1.708,0.031,2.927,0.769,4.052c0.738,1.125,1.862,2.166,3.134,3.528C160.388,260.586,160.412,260.904,159.52,261.28z"/>
				<path style="fill:#00A199;" d="M138.183,279.494l-0.56,0.748c-0.804-0.311-1.683-0.409-2.562-0.228
					c-0.122,0.025-0.245,0.056-0.363,0.091c-1.761-1.235-4.038-2.123-6.315-2.684c-2.274-0.561-4.547-0.786-6.279-0.645
					c-1.07,0.09-1.893-0.413-1.172-1.334c1.07-1.363,0.506-3.479-1.015-5.608c-0.761-1.064-1.764-2.134-2.936-3.104
					c-1.173-0.967-2.514-1.834-3.963-2.476c-0.936-0.416-0.962-0.908-0.268-2.215c1.124-2.106,2.194-3.617,2.904-5.186
					c0.716-1.571,1.072-3.193,0.86-5.537c-0.154-1.068-0.138-2.03,0.168-2.41c0.308-0.382,0.897-0.174,1.917,1.048
					c1.164,1.392,2.849,2.369,4.56,3.009c1.711,0.641,3.45,0.949,4.739,1.02c1.982,0.111,1.437,0.773,0.913,2.15
					c-0.619,1.616-0.235,3.849,0.814,5.81c1.046,1.966,2.75,3.644,4.662,4.295c1.151,0.394,1.625,0.531,0.871,1.888
					c-0.45,0.81-0.71,2.914-0.339,5.193c0.365,2.277,1.372,4.713,3.255,6.099L138.183,279.494z"/>
				<path style="fill:#FF4564;" d="M139.13,284.633c-0.267-1.055-0.102-2.107,0.372-2.939c0.475-0.834,1.257-1.445,2.222-1.656
					c0.966-0.21,1.929,0.016,2.71,0.532c0.782,0.517,1.384,1.325,1.634,2.319c0.25,0.993,0.102,1.99-0.342,2.816
					c-0.444,0.824-1.187,1.479-2.136,1.75c-0.95,0.271-1.929,0.103-2.74-0.407C140.037,286.539,139.395,285.688,139.13,284.633z"/>
				<path style="fill:#FF4564;" d="M139.958,284.424c0.279,1.11,0.137,2.217-0.321,3.131c-0.46,0.91-1.238,1.629-2.244,1.918
					c-1.006,0.289-2.051,0.09-2.923-0.489c-0.872-0.576-1.568-1.531-1.865-2.71c-0.296-1.178-0.135-2.349,0.361-3.27
					c0.495-0.922,1.321-1.592,2.343-1.813c1.023-0.221,2.048,0.045,2.885,0.63C139.031,282.407,139.679,283.315,139.958,284.424z
					 M136.039,284.14c-0.143-0.597-0.686-0.982-1.218-0.86c-0.532,0.123-0.849,0.717-0.702,1.324
					c0.146,0.606,0.699,0.99,1.228,0.855C135.876,285.326,136.183,284.735,136.039,284.14z"/>
				<path style="fill:#00A199;" d="M189.75,181.146c-1.331-0.675-2.71-1.126-4.027-1.361s-2.57-0.252-3.639-0.08
					c-2.14,0.343-3.528,1.45-3.202,2.972c0.22,1.023-0.638,0.885-1.483,0.225c-1.434-1.126-3.523-2.279-5.797-3.066
					c-2.273-0.788-4.738-1.205-6.862-0.904l-0.116-0.092c-0.71-0.553-1.543-0.852-2.403-0.9c-0.082-0.55-0.146-1.015-0.173-1.248
					l0.656-0.047c2.278-0.543,4.289-2.038,5.809-3.606c1.514-1.572,2.54-3.231,2.684-4.137c0.24-1.513,0.71-1.321,1.825-0.868
					c1.861,0.752,4.134,0.706,6.102,0.169c1.968-0.542,3.639-1.584,4.329-2.993c0.587-1.202,0.729-2.004,2.042-0.521
					c0.857,0.966,2.159,2.147,3.629,3.169c1.471,1.022,3.108,1.886,4.654,2.218c1.357,0.294,1.817,0.702,1.767,1.106
					c-0.052,0.405-0.616,0.814-1.338,1.157c-1.507,0.857-2.204,1.915-2.582,3.203c-0.377,1.291-0.441,2.819-0.654,4.67
					C190.84,181.357,190.614,181.582,189.75,181.146z"/>
				<path style="fill:#00A199;" d="M162.048,176.691l-0.933,0.057c-0.284-0.813-0.777-1.546-1.484-2.099
					c-0.099-0.078-0.202-0.15-0.305-0.218c-0.2-2.142-0.997-4.451-2.043-6.548c-1.048-2.095-2.348-3.974-3.577-5.2
					c-0.762-0.758-0.912-1.71,0.256-1.757c1.73-0.067,2.977-1.867,3.614-4.404c0.317-1.269,0.481-2.726,0.459-4.246
					c-0.022-1.52-0.231-3.105-0.68-4.624c-0.291-0.982,0.068-1.321,1.513-1.64c2.334-0.51,4.178-0.675,5.836-1.151
					c1.662-0.474,3.132-1.255,4.786-2.937c0.715-0.81,1.46-1.419,1.949-1.432c0.49-0.012,0.712,0.571,0.439,2.14
					c-0.308,1.79,0.036,3.707,0.655,5.426c0.619,1.72,1.51,3.245,2.291,4.274c1.197,1.581,0.341,1.596-1.05,2.088
					c-1.632,0.576-3.087,2.314-3.899,4.386c-0.82,2.07-0.994,4.456-0.252,6.333c0.444,1.133,0.648,1.582-0.873,1.887
					c-0.909,0.183-2.681,1.347-4.177,3.106c-1.497,1.753-2.702,4.096-2.54,6.429L162.048,176.691z"/>
				<path style="fill:#FF4564;" d="M158.744,180.739c0.633-0.885,1.542-1.442,2.482-1.619c0.943-0.179,1.917,0.023,2.701,0.623
					c0.786,0.6,1.237,1.479,1.348,2.41c0.112,0.931-0.116,1.914-0.711,2.748c-0.597,0.834-1.453,1.367-2.37,1.563
					c-0.917,0.195-1.895,0.052-2.716-0.497c-0.821-0.548-1.325-1.405-1.462-2.354C157.878,182.664,158.111,181.624,158.744,180.739z
					"/>
				<path style="fill:#FF4564;" d="M159.438,181.236c-0.666,0.93-1.601,1.538-2.594,1.779c-0.991,0.239-2.042,0.109-2.914-0.471
					c-0.872-0.579-1.395-1.507-1.518-2.545c-0.124-1.038,0.154-2.186,0.86-3.173c0.707-0.988,1.703-1.622,2.725-1.839
					c1.023-0.219,2.068-0.023,2.899,0.613c0.831,0.637,1.294,1.589,1.388,2.606C160.377,179.223,160.105,180.306,159.438,181.236z
					 M157.121,178.063c0.362-0.496,0.304-1.159-0.134-1.484c-0.437-0.326-1.094-0.185-1.462,0.32
					c-0.367,0.505-0.304,1.173,0.142,1.49C156.11,178.706,156.76,178.559,157.121,178.063z"/>
				<path style="fill:#00A199;" d="M209.276,341.585c-0.312,1.459-0.396,2.906-0.285,4.239c0.107,1.333,0.412,2.548,0.852,3.536
					c0.878,1.979,2.302,3.035,3.688,2.33c0.932-0.476,1.017,0.388,0.596,1.375c-0.719,1.674-1.297,3.989-1.474,6.39
					c-0.179,2.398,0.052,4.887,0.889,6.863l-0.06,0.135c-0.352,0.829-0.425,1.71-0.251,2.554c-0.509,0.22-0.943,0.402-1.161,0.487
					l-0.214-0.621c-1.11-2.063-3.072-3.621-4.979-4.686c-1.905-1.061-3.771-1.626-4.685-1.533c-1.524,0.156-1.459-0.349-1.308-1.541
					c0.25-1.992-0.376-4.178-1.397-5.941c-1.028-1.762-2.461-3.113-4.001-3.418c-1.311-0.26-2.122-0.19-1.024-1.841
					c0.714-1.075,1.524-2.636,2.135-4.318c0.612-1.684,1.03-3.486,0.956-5.066c-0.063-1.388,0.213-1.937,0.616-1.991
					c0.406-0.053,0.945,0.389,1.461,0.998c1.213,1.237,2.414,1.641,3.755,1.675c1.344,0.034,2.836-0.295,4.678-0.564
					C209.203,340.478,209.478,340.639,209.276,341.585z"/>
				<path style="fill:#00A199;" d="M212.07,369.494l0.295,0.887c-0.713,0.483-1.294,1.15-1.647,1.975
					c-0.05,0.115-0.093,0.233-0.133,0.351c-2.018,0.743-4.046,2.108-5.804,3.658c-1.757,1.551-3.239,3.288-4.109,4.793
					c-0.536,0.931-1.418,1.32-1.764,0.203c-0.511-1.658-2.573-2.4-5.189-2.366c-1.31,0.02-2.76,0.233-4.225,0.643
					c-1.464,0.411-2.944,1.018-4.297,1.84c-0.876,0.533-1.296,0.272-1.976-1.044c-1.091-2.127-1.725-3.866-2.609-5.349
					c-0.884-1.486-2.016-2.708-4.064-3.877c-0.967-0.484-1.748-1.05-1.884-1.518c-0.138-0.471,0.369-0.835,1.956-0.974
					c1.81-0.159,3.575-0.981,5.079-2.021c1.504-1.038,2.75-2.288,3.545-3.307c1.222-1.563,1.456-0.738,2.286,0.48
					c0.977,1.432,3.031,2.392,5.24,2.649c2.212,0.262,4.563-0.181,6.188-1.38c0.98-0.72,1.364-1.032,2.048,0.36
					c0.409,0.831,1.99,2.245,4.074,3.24c2.08,0.997,4.654,1.559,6.867,0.802L212.07,369.494z"/>
				<path style="fill:#FF4564;" d="M216.832,371.646c-1.018-0.384-1.79-1.119-2.203-1.982c-0.415-0.865-0.471-1.857-0.094-2.771
					c0.377-0.912,1.111-1.575,1.981-1.923c0.871-0.348,1.878-0.381,2.836-0.02c0.958,0.36,1.694,1.051,2.119,1.885
					c0.424,0.836,0.539,1.818,0.221,2.753c-0.318,0.936-1.015,1.644-1.897,2.021C218.916,371.986,217.851,372.028,216.832,371.646z"
					/>
				<path style="fill:#FF4564;" d="M217.134,370.846c1.069,0.403,1.898,1.152,2.387,2.049c0.487,0.896,0.634,1.945,0.297,2.937
					c-0.335,0.992-1.096,1.735-2.068,2.124c-0.97,0.386-2.151,0.414-3.289-0.015c-1.138-0.427-2.007-1.228-2.481-2.159
					c-0.475-0.932-0.556-1.994-0.155-2.96c0.402-0.966,1.204-1.657,2.162-2.011C214.947,370.459,216.063,370.443,217.134,370.846z
					 M214.665,373.903c-0.572-0.222-1.197,0.005-1.4,0.512c-0.202,0.507,0.105,1.104,0.688,1.33s1.212-0.01,1.404-0.521
					C215.547,374.715,215.238,374.126,214.665,373.903z"/>
				<path style="fill:#FF4564;" d="M170.14,338.569c-0.896-0.961-2.729-1.699-5.367-1.976c-2.64-0.273-6.094-0.096-10.255,0.83
					c-1.472,0.637-2.38,1.338-3.004,1.914c-0.625,0.577-0.967,1.023-1.326,1.125c-0.718,0.202-1.231-0.84,0.224-1.774
					c0.726-0.47,0.901-1.041,0.564-1.438c-0.337-0.397-1.188-0.623-2.534-0.416c-2.693,0.408-3.689,0.395-4.292-0.057
					c-0.606-0.455-0.708-1.609,0.736-1.745c1.445-0.139,4.215-0.196,7.116-0.145c2.896,0.038,0.338-1.261-0.465-2.189
					c-0.403-0.462-0.471-0.955-0.211-1.159c0.261-0.205,0.844-0.121,1.751,0.545c0.908,0.664,1.331,1.182,1.862,1.556
					c0.531,0.371,1.173,0.599,2.515,0.643c1.341,0.042,2.271-0.032,3.299-0.058c1.028-0.027,2.151-0.006,3.866,0.169
					c0.552,0.033,0.695-0.151,0.504-0.585c-0.192-0.432-0.721-1.111-1.504-2.092c-0.781-0.978-1.786-1.109-2.699-0.93
					c-0.912,0.18-1.724,0.676-2.09,0.954c-0.731,0.561-1.595-0.587-0.84-1.307c0.752-0.722,1.8-1.812,1.223-2.017
					c-0.289-0.103-1.681-0.695-3.261-1.203c-1.58-0.504-3.349-0.933-4.406-0.55c-1.055,0.383-1.861,1.035-2.439,1.644
					c-0.578,0.608-0.927,1.17-1.08,1.355c-0.152,0.185-0.715,0.067-1.019-0.287c-0.305-0.354-0.348-0.946,0.54-1.686
					c0.889-0.743,0.738-1.444,0.03-1.973c-0.71-0.528-1.982-0.893-3.355-0.943c-1.374-0.048-2.404-0.654-2.858-1.235
					c-0.456-0.583-0.336-1.13,0.551-1.081c0.889,0.046,2.548,0.274,4.382,0.563c1.834,0.291,3.843,0.638,5.444,1.003
					c0.8,0.185,1.785,0.473,2.797,0.766c1.014,0.294,2.055,0.592,2.969,0.815c1.831,0.444,3.147,0.596,2.725-0.093
					c-0.424-0.69-1.905-2.801-3.339-5.021c-0.719-1.107-1.428-2.241-2.021-3.212c-0.592-0.974-1.066-1.785-1.329-2.244
					c-0.525-0.918-2.029-2.56-3.943-3.966c-0.957-0.702-2.021-1.343-3.135-1.79c-1.111-0.445-2.274-0.693-3.429-0.59
					c-1.128,0.165-1.771-0.419-1.838-1.023c-0.066-0.607,0.446-1.225,1.6-1.162c2.573,0.131,3.256,0.777,3.258,0.781
					c0,0-0.384-0.348-0.806-0.753c-0.421-0.406-0.88-0.869-1.036-1.082c-0.314-0.425-0.297-1.545,0.792-0.767
					c0.546,0.388,1.144,1.023,1.709,1.633c0.564,0.61,1.096,1.196,1.492,1.494c0.397,0.298,1.035,0.824,1.536,1.186
					c0.5,0.361,0.859,0.563,0.692,0.229c-0.168-0.334-0.962-1.919-1.79-3.726c-0.836-1.807-1.697-3.84-2.164-4.992
					c-0.468-1.153-0.154-1.942,0.409-2.078c0.563-0.136,1.37,0.368,1.95,1.776c0.278,0.677,0.754,1.801,1.226,2.859
					c0.469,1.06,0.933,2.056,1.141,2.497c0.21,0.441,0.322-0.256,0.46-1.153c0.137-0.898,0.308-1.995,0.579-2.376
					c0.271-0.382,0.649-0.449,0.907-0.256c0.26,0.193,0.399,0.647,0.205,1.326c-0.196,0.677-0.469,1.859-0.55,3.143
					c-0.082,1.279,0.033,2.659,0.57,3.689c0.535,1.027,1.256,2.302,1.858,3.311c0.6,1.009,1.074,1.756,1.073,1.757
					c0.554,0.947,0.675,1.585,1.051,0.65c0.19-0.466,0.429-1.243,0.778-2.359s0.809-2.572,1.461-4.379s1.229-3.127,1.713-4.071
					c0.486-0.942,0.877-1.51,1.188-1.788c0.31-0.279,0.783-0.359,1.084-0.143c0.302,0.216,0.432,0.729,0.077,1.659
					c-0.713,1.861-1.827,3.646-1.168,3.412c0.658-0.233,1.764-0.841,2.327-0.774c0.562,0.069,1.548,0.645,0.042,1.248
					c-0.535,0.214-1.417,0.521-2.228,0.984c-0.81,0.465-1.547,1.091-1.776,1.959c-0.23,0.868-0.875,2.565-1.299,4.278
					c-0.428,1.711-0.633,3.434-0.1,4.252c0.532,0.817,1.276,1.932,1.98,2.945c0.702,1.014,1.362,1.928,1.686,2.37
					c0.326,0.442,0.537-0.438,0.757-1.668c0.215-1.231,0.452-2.809,0.753-3.795c0.133-0.518-0.041-1.282-0.318-2.042
					c-0.277-0.759-0.662-1.513-0.973-2.005c-0.623-0.986,0.213-2.041,0.821-1.065c0.608,0.977,1.397,2.384,1.4,2.383
					c0,0,0.406-1.309,0.985-2.8c0.575-1.493,1.336-3.162,1.923-3.964c0.586-0.804,1.13-1.006,1.376-0.734
					c0.248,0.273,0.203,1.021-0.358,2.154c-0.792,1.595-1.493,3.377-2.039,5.214c-0.546,1.838-0.937,3.73-1.129,5.533
					c-0.391,3.601,0.033,6.831,1.313,8.38c1.006,1.221,1.908,2.271,2.791,3.268c0.883,0.997,1.744,1.941,2.685,2.937
					c1.878,1.996,3.886,3.85,2.813,4.968c-0.538,0.557-1.24,0.481-2.188-0.125C172.795,341.281,171.608,340.146,170.14,338.569z"/>
				<path style="fill:#FF4564;" d="M148.147,316.918c0.368,0.656,0.472,1.382,0.343,2.03c-0.129,0.648-0.491,1.221-1.065,1.558
					c-0.574,0.339-1.252,0.375-1.886,0.151c-0.633-0.222-1.221-0.703-1.602-1.386c-0.382-0.684-0.484-1.436-0.343-2.091
					c0.143-0.657,0.529-1.216,1.116-1.528c0.588-0.313,1.266-0.321,1.885-0.092C147.216,315.791,147.778,316.26,148.147,316.918z"/>
				<path style="fill:#FF4564;" d="M158.303,306.584c0.481,0.938,0.141,2.093-0.781,2.59c-0.92,0.496-2.089,0.116-2.589-0.858
					c-0.501-0.975-0.13-2.146,0.81-2.604C156.684,305.251,157.822,305.646,158.303,306.584z"/>
				<path style="fill:#FF4564;" d="M152.411,315.828c0.413,0.723,0.224,1.617-0.432,2.003c-0.654,0.388-1.537,0.104-1.96-0.637
					c-0.425-0.74-0.219-1.644,0.448-2.012C151.133,314.814,151.999,315.106,152.411,315.828z"/>
				<path style="fill:#FF4564;" d="M173.038,318.529c0.564,0.768,0.391,1.873-0.404,2.48c-0.793,0.606-1.923,0.46-2.509-0.337
					c-0.586-0.799-0.389-1.921,0.426-2.497C171.365,317.599,172.474,317.762,173.038,318.529z"/>
				<path style="fill:#FF4564;" d="M175.756,331.871c0.68,0.743,0.654,1.895-0.07,2.582c-0.725,0.688-1.894,0.629-2.601-0.143
					c-0.706-0.771-0.658-1.942,0.091-2.602C173.927,331.048,175.075,331.127,175.756,331.871z"/>
				<path style="fill:#FF4564;" d="M155.75,320.483c0.572,0.903,0.384,2.067-0.438,2.607c-0.82,0.542-1.979,0.231-2.569-0.702
					c-0.593-0.935-0.377-2.113,0.462-2.624C154.045,319.254,155.175,319.58,155.75,320.483z"/>
				<path style="fill:#FF4564;" d="M173.339,325.113c0.455,0.56,0.645,1.25,0.586,1.922c-0.061,0.672-0.369,1.326-0.926,1.8
					c-0.554,0.473-1.252,0.672-1.936,0.603c-0.682-0.068-1.349-0.408-1.824-0.994c-0.478-0.586-0.671-1.308-0.6-1.989
					s0.411-1.326,0.986-1.771c0.577-0.447,1.28-0.615,1.951-0.536C172.248,324.225,172.884,324.552,173.339,325.113z"/>
				<path style="fill:#FF4564;" d="M132.765,224.506L132.765,224.506L132.765,224.506z"/>
				<path style="fill:#FF4564;" d="M162.566,202.251c-3.778,7.201-6.758,14.815-8.863,22.665c-0.363,1.348-0.901,2.609-1.585,3.77
					c-0.686,1.16-1.518,2.218-2.467,3.157c-1.898,1.875-4.272,3.3-6.917,4.029c-1.757,0.482-3.632,0.647-5.521,0.385l0,0l-0.005,0
					l0,0l-0.017-0.002l-0.113-0.016l-0.005-0.002c-1.377-0.207-2.687-0.633-3.884-1.263l0,0c-1.232-0.647-2.346-1.507-3.304-2.547v0
					c-1.915-2.077-3.209-4.894-3.601-8.082c-0.261-2.116-0.117-4.39,0.483-6.634l0.005-0.019v-0.001l0.001-0.003l0.001-0.005
					l0.001-0.004l0,0v-0.002l0.003-0.009c0.605-2.245,1.62-4.287,2.906-5.989l0,0c1.291-1.708,2.847-3.076,4.539-4.043l1.029-0.582
					l0.053,0.148c0.196-0.048,0.391-0.08,0.584-0.096c0.553-0.045,1.09,0.034,1.585,0.22c0.495,0.187,0.948,0.484,1.332,0.875
					c0.385,0.392,0.702,0.878,0.922,1.439c0.224,0.569,0.333,1.172,0.336,1.771c0.004,0.599-0.095,1.193-0.284,1.755
					c-0.188,0.562-0.469,1.092-0.833,1.561c-0.363,0.47-0.811,0.879-1.324,1.194c-0.661,0.404-1.26,0.953-1.747,1.612v-0.001
					c-0.488,0.663-0.866,1.426-1.102,2.305c-0.176,0.659-0.251,1.301-0.24,1.928c0.011,0.625,0.11,1.232,0.287,1.803l0.001,0
					c0.354,1.141,1.028,2.13,1.911,2.809c0.593,0.457,1.271,0.779,2.046,0.947c0.583,0.125,1.148,0.148,1.704,0.087v0
					c0.554-0.062,1.093-0.206,1.605-0.426h0.001c1.023-0.437,1.937-1.17,2.604-2.094c0.448-0.621,0.789-1.32,1.006-2.122v0.001
					c2.264-8.439,5.467-16.625,9.527-24.365c0.208-0.395,0.469-0.748,0.769-1.048c0.3-0.301,0.639-0.551,0.999-0.744
					c0.723-0.387,1.538-0.548,2.346-0.461c0.537,0.058,1.07,0.228,1.565,0.51c0.37,0.212,0.697,0.475,0.976,0.773
					c0.279,0.298,0.511,0.631,0.69,0.986c0.357,0.708,0.516,1.502,0.445,2.292C162.972,201.237,162.823,201.761,162.566,202.251z
					 M149.809,228.296c0.154-0.227,0.301-0.458,0.441-0.696c0.589-0.994,1.052-2.081,1.365-3.245l0.168-0.623l-1.102,0.348
					c-0.386,0.139-0.774,0.266-1.162,0.367c-0.762,0.2-1.522,0.315-2.266,0.345c-0.236,0.504-0.515,0.979-0.831,1.417
					c-0.367,0.509-0.786,0.973-1.246,1.389c0.69,0.28,1.43,0.482,2.207,0.599C148.16,228.316,148.973,228.348,149.809,228.296z
					 M152.54,221.106c0.409-1.359,0.844-2.71,1.303-4.052c-1.523,0.37-3.046,0.771-4.57,1.204c-0.445,1.4-0.863,2.81-1.255,4.225
					c0.753-0.245,1.506-0.482,2.26-0.712C151.031,221.542,151.785,221.32,152.54,221.106z M154.761,214.479
					c0.492-1.331,1.011-2.653,1.553-3.964c-1.543,0.275-3.089,0.581-4.636,0.918c-0.532,1.37-1.038,2.75-1.516,4.14
					C151.696,215.177,153.229,214.813,154.761,214.479z M135.453,228.38c-0.216-0.162-0.421-0.336-0.619-0.522
					c-0.187,0.816-0.289,1.677-0.29,2.559c-0.004,0.881,0.096,1.784,0.294,2.682c0.848,0.387,1.755,0.662,2.704,0.813l0.001,0h0.003
					c0.781,0.125,1.559,0.162,2.324,0.123c-0.529-0.681-0.968-1.412-1.308-2.17c-0.341-0.758-0.588-1.545-0.736-2.337
					C136.952,229.295,136.154,228.904,135.453,228.38z M130.385,221.028c0.704-0.49,1.431-0.868,2.159-1.139
					c0.041-0.205,0.088-0.41,0.144-0.615v-0.001c0.302-1.122,0.782-2.136,1.394-3.01c-0.734-0.124-1.507-0.149-2.305-0.063
					c-0.797,0.084-1.62,0.282-2.446,0.595c-0.177,0.466-0.333,0.944-0.465,1.436l-0.001,0.006l-0.005,0.018
					c-0.414,1.539-0.57,3.092-0.495,4.575C129,222.12,129.681,221.518,130.385,221.028z M128.856,218.263 M131.425,230.583
					L131.425,230.583c0.198,0.219,0.404,0.43,0.618,0.632c0.051-0.956,0.198-1.879,0.433-2.749c0.235-0.871,0.556-1.688,0.947-2.432
					c-0.266-0.478-0.488-0.989-0.658-1.529c-0.211-0.664-0.343-1.367-0.392-2.094c-0.64,0.496-1.247,1.094-1.803,1.791
					c-0.556,0.694-1.057,1.486-1.488,2.358C129.613,228.092,130.414,229.457,131.425,230.583z M137.208,236.256L137.208,236.256
					L137.208,236.256z M147.611,230.785c-0.818-0.162-1.594-0.404-2.312-0.725c-0.72-0.32-1.381-0.718-1.971-1.181
					c-0.151,0.078-0.303,0.151-0.458,0.219l0,0c-0.701,0.309-1.445,0.522-2.212,0.619h0c-0.214,0.028-0.431,0.044-0.649,0.053
					c0.345,0.698,0.782,1.362,1.308,1.973c0.524,0.61,1.135,1.167,1.82,1.657C144.796,232.832,146.313,231.931,147.611,230.785z"/>
				<path style="fill:#00A199;" d="M398.961,264.617c-1.458,0.59-2.818,1.411-4.011,2.339c-1.19,0.93-2.216,1.964-3.001,3.004
					c-1.563,2.079-2.172,4.177-1.135,5.575c0.7,0.943-0.133,1.42-1.199,1.293c-1.813-0.209-4.212,0-6.602,0.565
					c-2.391,0.569-4.77,1.487-6.559,2.764l-0.145-0.032c-0.881-0.184-1.763-0.073-2.561,0.256l-0.698-1.049
					c0.347-0.2,0.567-0.333,0.567-0.333c0.898-0.753,1.612-1.729,2.154-2.795s0.913-2.222,1.134-3.333
					c0.446-2.223,0.288-4.25-0.144-5.072c-0.724-1.375-0.245-1.5,0.91-1.863c1.924-0.6,3.663-2.229,4.749-4.166
					c1.091-1.931,1.521-4.155,0.938-5.79c-0.496-1.394-1.025-2.074,0.958-2.126c1.291-0.033,3.035-0.289,4.759-0.877
					c1.725-0.587,3.43-1.51,4.625-2.864c1.046-1.189,1.642-1.377,1.938-0.984c0.299,0.391,0.295,1.355,0.116,2.418
					c-0.263,2.34,0.059,3.976,0.738,5.572c0.678,1.596,1.711,3.144,2.786,5.292C399.943,263.745,399.906,264.235,398.961,264.617z"
					/>
				<path style="fill:#00A199;" d="M373.052,279.332c-0.224,0.129-0.504,0.285-0.812,0.452c-0.609-0.603-1.381-1.028-2.26-1.21
					c-0.123-0.025-0.247-0.045-0.37-0.061c-1.146-1.742-2.979-3.271-4.95-4.439c-1.971-1.171-4.075-1.989-5.767-2.376
					c-1.045-0.242-1.69-0.819-0.757-1.291c1.389-0.7,1.379-2.47,0.304-4.345c-0.537-0.938-1.338-1.897-2.349-2.771
					c-1.01-0.873-2.227-1.657-3.588-2.263c-0.883-0.393-0.85-0.711-0.036-1.537c1.309-1.336,2.458-2.353,3.227-3.463
					c0.766-1.11,1.153-2.323,0.875-4.041c-0.185-0.78-0.221-1.479,0.063-1.777c0.282-0.294,0.889-0.194,1.969,0.681
					c1.228,0.997,2.928,1.729,4.646,2.234c1.718,0.505,3.454,0.778,4.745,0.843c1.977,0.097,1.442,0.71,0.875,1.922
					c-0.666,1.423-0.428,3.381,0.386,5.256c0.815,1.871,2.207,3.673,3.959,4.655c1.052,0.587,1.497,0.837,0.471,1.969
					c-0.616,0.677-1.344,2.572-1.658,4.76c-0.311,2.189-0.217,4.684,0.956,6.689L373.052,279.332z"/>
				<path style="fill:#FF4564;" d="M371.676,284.329c0.262-1.044,0.873-1.897,1.662-2.448c0.79-0.55,1.757-0.794,2.723-0.584
					c0.965,0.21,1.744,0.842,2.211,1.709c0.467,0.864,0.618,1.963,0.342,3.067c-0.278,1.105-0.932,2.001-1.753,2.542
					c-0.82,0.542-1.806,0.73-2.756,0.459s-1.686-0.945-2.122-1.802C371.548,286.415,371.411,285.372,371.676,284.329z"/>
				<path style="fill:#FF4564;" d="M372.504,284.537c-0.281,1.115-0.961,2.013-1.821,2.548c-0.86,0.536-1.898,0.712-2.904,0.422
					s-1.792-0.982-2.263-1.853c-0.469-0.871-0.627-1.921-0.363-2.966c0.263-1.045,0.897-1.896,1.723-2.44
					c0.827-0.545,1.847-0.783,2.871-0.563c1.022,0.221,1.854,0.866,2.357,1.745C372.609,282.311,372.783,283.422,372.504,284.537z
					 M369.157,282.495c0.137-0.565-0.188-1.125-0.719-1.247c-0.532-0.122-1.067,0.229-1.199,0.783
					c-0.134,0.554,0.18,1.111,0.709,1.244C368.479,283.408,369.022,283.061,369.157,282.495z"/>
				<path style="fill:#00A199;" d="M354.913,147.914c-0.495,1.495-0.752,3.063-0.817,4.572c-0.064,1.509,0.061,2.96,0.344,4.23
					c0.568,2.538,1.772,4.36,3.509,4.475c1.173,0.076,0.995,1.019,0.208,1.749c-1.332,1.245-2.729,3.209-3.844,5.397
					c-1.115,2.188-1.957,4.595-2.144,6.787l-0.117,0.088c-0.71,0.553-1.195,1.295-1.462,2.116l-1.252-0.146
					c0.072-0.394,0.113-0.647,0.113-0.647c0.019-2.347-1.132-4.7-2.539-6.473c-1.405-1.778-3.052-2.974-3.958-3.177
					c-1.517-0.339-1.302-0.783-0.83-1.9c0.79-1.854,0.676-4.234-0.096-6.316c-0.765-2.083-2.181-3.852-3.806-4.467
					c-1.383-0.525-2.244-0.563-1.001-2.107c0.81-1.005,1.745-2.5,2.413-4.196c0.667-1.695,1.066-3.594,0.806-5.382
					c-0.23-1.568,0.012-2.143,0.504-2.116c0.491,0.025,1.225,0.654,1.923,1.479c1.615,1.717,3.072,2.534,4.731,3.052
					c1.655,0.52,3.507,0.736,5.841,1.31C354.886,146.6,355.235,146.947,354.913,147.914z"/>
				<path style="fill:#00A199;" d="M349.338,177.181c-0.047,0.254-0.109,0.57-0.181,0.911c-0.854,0.075-1.679,0.387-2.385,0.94
					c-0.1,0.077-0.195,0.159-0.286,0.242c-2.07-0.254-4.422,0.154-6.589,0.897c-2.169,0.743-4.157,1.815-5.546,2.854
					c-0.862,0.64-1.72,0.757-1.475-0.26c0.365-1.513-0.991-2.652-3.116-3.048c-1.063-0.199-2.313-0.211-3.633-0.007
					c-1.319,0.203-2.705,0.622-4.047,1.268c-0.871,0.417-1.092,0.186-1.194-0.967c-0.17-1.862-0.197-3.395-0.543-4.698
					c-0.35-1.302-1.021-2.378-2.506-3.276c-0.713-0.362-1.27-0.788-1.313-1.195c-0.04-0.406,0.43-0.804,1.793-1.063
					c1.553-0.292,3.211-1.115,4.707-2.098c1.497-0.984,2.83-2.13,3.714-3.072c1.354-1.444,1.476-0.64,2.03,0.576
					c0.653,1.429,2.299,2.515,4.253,3.111c1.954,0.59,4.228,0.698,6.111,0c1.13-0.421,1.606-0.599,1.804,0.917
					c0.117,0.908,1.09,2.689,2.552,4.346c1.468,1.656,3.43,3.2,5.72,3.604L349.338,177.181z"/>
				<path style="fill:#FF4564;" d="M352.256,181.465c-0.625-0.875-0.881-1.895-0.79-2.853c0.093-0.957,0.532-1.852,1.316-2.452
					s1.772-0.785,2.732-0.58c0.963,0.203,1.897,0.797,2.562,1.724c0.662,0.926,0.921,2.004,0.802,2.979
					c-0.117,0.977-0.609,1.85-1.431,2.399c-0.821,0.548-1.812,0.675-2.747,0.452C353.765,182.911,352.882,182.34,352.256,181.465z"
					/>
				<path style="fill:#FF4564;" d="M352.951,180.968c0.67,0.935,0.912,2.035,0.765,3.037c-0.147,1.004-0.685,1.909-1.556,2.488
					c-0.872,0.58-1.908,0.731-2.877,0.527c-0.969-0.205-1.871-0.765-2.498-1.643c-0.628-0.877-0.865-1.913-0.746-2.896
					c0.119-0.982,0.598-1.914,1.429-2.551c0.83-0.637,1.859-0.853,2.856-0.668C351.321,179.447,352.282,180.033,352.951,180.968z
					 M349.229,182.198c-0.343-0.471-0.979-0.584-1.415-0.258c-0.438,0.326-0.516,0.961-0.181,1.423
					c0.336,0.46,0.966,0.58,1.41,0.262C349.486,183.308,349.572,182.667,349.229,182.198z"/>
				<path style="fill:#00A199;" d="M326.502,381.654c-1.318-0.861-2.771-1.51-4.213-1.959c-1.443-0.449-2.879-0.7-4.18-0.751
					c-2.602-0.099-4.674,0.596-5.231,2.246c-0.376,1.113-1.241,0.7-1.745-0.247c-0.861-1.608-2.401-3.461-4.229-5.103
					c-1.829-1.64-3.938-3.07-6.01-3.813l-0.056-0.138c-0.351-0.827-0.943-1.489-1.668-1.957l0.465-1.172
					c0.36,0.171,0.596,0.276,0.596,0.276c2.264,0.62,4.834,0.115,6.909-0.791c2.08-0.902,3.657-2.187,4.087-3.011
					c0.715-1.379,1.09-1.058,2.049-0.315c1.589,1.238,3.92,1.738,6.132,1.525c2.21-0.206,4.282-1.123,5.292-2.537
					c0.863-1.202,1.119-2.027,2.295-0.428c0.763,1.04,1.971,2.326,3.439,3.404c1.467,1.08,3.202,1.95,4.996,2.155
					c1.576,0.18,2.069,0.559,1.918,1.029c-0.151,0.468-0.945,1.016-1.923,1.479c-2.073,1.124-3.237,2.324-4.163,3.795
					c-0.927,1.469-1.609,3.203-2.764,5.313C327.777,381.963,327.354,382.213,326.502,381.654z"/>
				<path style="fill:#00A199;" d="M299.635,368.761c-0.234-0.111-0.522-0.253-0.836-0.409c0.149-0.845,0.058-1.722-0.293-2.547
					c-0.05-0.115-0.105-0.228-0.161-0.339c0.778-1.934,0.989-4.313,0.825-6.598c-0.16-2.286-0.688-4.481-1.334-6.091
					c-0.397-0.998-0.291-1.855,0.629-1.358c1.366,0.741,2.814-0.274,3.74-2.227c0.464-0.975,0.795-2.181,0.935-3.507
					c0.142-1.327,0.091-2.774-0.19-4.236c-0.181-0.948,0.099-1.104,1.239-0.905c1.84,0.313,3.329,0.68,4.677,0.679
					c1.346-0.004,2.559-0.376,3.807-1.583c0.533-0.596,1.085-1.024,1.49-0.961c0.402,0.063,0.668,0.619,0.569,2.003
					c-0.116,1.576,0.257,3.389,0.824,5.088c0.567,1.697,1.335,3.28,2.021,4.375c1.049,1.68,0.24,1.59-1.078,1.815
					c-1.547,0.266-3.017,1.578-4.093,3.314c-1.07,1.736-1.757,3.907-1.565,5.906c0.117,1.2,0.167,1.707-1.348,1.508
					c-0.907-0.119-2.879,0.364-4.855,1.352c-1.977,0.994-3.972,2.492-4.951,4.6L299.635,368.761z"/>
				<path style="fill:#FF4564;" d="M294.743,370.479c1.007-0.38,2.058-0.364,2.959-0.03c0.901,0.336,1.654,0.991,2.032,1.905
					c0.376,0.911,0.302,1.911-0.145,2.789c-0.443,0.876-1.259,1.629-2.325,2.029c-1.066,0.401-2.176,0.375-3.088,0.009
					c-0.914-0.365-1.63-1.067-1.948-2.002s-0.185-1.925,0.271-2.771C292.958,371.563,293.736,370.856,294.743,370.479z"/>
				<path style="fill:#FF4564;" d="M295.044,371.277c-1.075,0.404-2.2,0.357-3.131-0.045c-0.932-0.401-1.667-1.154-2.002-2.145
					c-0.335-0.992-0.215-2.033,0.232-2.915c0.447-0.883,1.221-1.61,2.229-1.991c1.008-0.38,2.069-0.342,2.988,0.026
					c0.918,0.369,1.695,1.07,2.096,2.038c0.403,0.966,0.348,2.016-0.088,2.932S296.119,370.871,295.044,371.277z M294.815,367.364
					c0.542-0.211,0.816-0.796,0.615-1.302c-0.204-0.508-0.798-0.747-1.329-0.54c-0.532,0.206-0.809,0.782-0.616,1.293
					C293.677,367.326,294.273,367.573,294.815,367.364z"/>
				<path style="fill:#FF4564;" d="M343.125,339.732c0.906-0.971,1.504-2.912,1.342-5.522c-0.158-2.611-1.084-5.882-3.15-9.482
					c-1.006-1.229-1.916-1.931-2.617-2.409c-0.701-0.476-1.199-0.726-1.401-1.024c-0.408-0.597,0.309-1.149,1.608-0.016
					c0.649,0.569,1.208,0.643,1.441,0.288c0.232-0.355,0.136-1.136-0.537-2.253c-1.354-2.232-1.767-3.039-1.639-3.612
					c0.122-0.569,1.025-0.862,1.751,0.306c0.724,1.17,1.899,3.488,2.849,6.062c0.936,2.58,1.252,0.059,1.764-0.855
					c0.259-0.457,0.662-0.632,0.94-0.453c0.276,0.18,0.43,0.714,0.156,1.679c-0.274,0.964-0.604,1.454-0.771,2.011
					c-0.168,0.559-0.173,1.182,0.167,2.429c0.337,1.25,0.643,2.112,0.913,3.083c0.27,0.972,0.507,2.052,0.65,3.762
					c0.067,0.546,0.273,0.659,0.665,0.391s0.968-0.917,1.757-1.903c0.789-0.987,0.664-2.004,0.249-2.831
					c-0.412-0.827-1.113-1.476-1.477-1.753c-0.727-0.558,0.072-1.62,0.976-1.104c0.9,0.519,2.251,1.207,2.269,0.6
					c0.01-0.303,0.137-1.794,0.031-3.399c-0.1-1.608-0.438-3.325-1.216-4.127c-0.776-0.802-1.688-1.297-2.458-1.617
					s-1.398-0.465-1.621-0.545c-0.222-0.081-0.363-0.59-0.2-0.942c0.166-0.352,0.639-0.552,1.663-0.023
					c1.025,0.531,1.563,0.181,1.679-0.594c0.116-0.771-0.194-1.958-0.851-3.091c-0.654-1.133-0.719-2.147-0.51-2.709
					c0.209-0.558,0.701-0.667,1.151,0.048c0.448,0.717,1.161,2.119,1.842,3.743c0.682,1.621,1.327,3.463,1.703,5.001
					c0.188,0.77,0.349,1.745,0.487,2.764c0.139,1.018,0.255,2.077,0.373,3.004c0.231,1.853,0.478,3.178,1.006,2.536
					c0.527-0.638,2.047-2.801,3.489-5.088c0.725-1.142,1.433-2.313,2.022-3.317c0.589-1.005,1.063-1.842,1.33-2.313
					c0.538-0.937,1.172-3.145,1.193-5.518c0.012-1.186-0.125-2.409-0.479-3.531s-0.923-2.141-1.76-2.93
					c-0.86-0.733-0.874-1.525-0.489-1.925c0.386-0.4,1.178-0.416,1.919,0.448c1.651,1.937,1.588,2.885,1.59,2.881l0.036-1.074
					c0.021-0.567,0.051-1.195,0.098-1.443c0.094-0.495,0.908-1.222,1.095,0.076c0.093,0.65,0.024,1.508-0.068,2.326
					c-0.091,0.818-0.206,1.598-0.188,2.095c0.016,0.495-0.003,1.327,0.007,1.951c0.009,0.624,0.057,1.04,0.229,0.699
					c0.171-0.341,0.982-1.963,1.831-3.813c0.854-1.849,1.735-3.927,2.213-5.106c0.478-1.178,1.239-1.564,1.747-1.281
					c0.505,0.281,0.752,1.246,0.134,2.746c-0.296,0.72-0.8,1.912-1.301,3.037c-0.499,1.125-0.991,2.182-1.212,2.65
					c-0.222,0.468,0.405,0.087,1.204-0.442c0.8-0.527,1.765-1.211,2.238-1.291c0.475-0.079,0.777,0.162,0.793,0.516
					c0.016,0.352-0.254,0.816-0.92,1.168s-1.787,0.995-2.882,1.807c-1.096,0.813-2.167,1.794-2.735,2.884
					c-0.569,1.092-1.282,2.473-1.869,3.573c-0.588,1.102-1.039,1.926-1.038,1.927c-0.591,1.006-1.125,1.442-0.101,1.299
					c0.512-0.074,1.33-0.27,2.514-0.596c1.183-0.327,2.732-0.783,4.704-1.407c1.975-0.626,3.476-1.095,4.592-1.381
					c1.114-0.289,1.842-0.398,2.265-0.345s0.756,0.417,0.719,0.875c-0.039,0.456-0.447,1.011-1.502,1.418
					c-2.11,0.814-4.318,1.012-3.781,1.465c0.536,0.454,1.645,1.063,1.84,1.655c0.199,0.594,0.068,1.987-1.189,0.946
					c-0.446-0.37-1.144-1.004-1.959-1.457c-0.816-0.453-1.752-0.727-2.67-0.395c-0.919,0.332-2.8,0.752-4.584,1.268
					c-1.785,0.518-3.473,1.13-4.039,1.998c-0.565,0.87-1.359,2.057-2.107,3.136c-0.749,1.08-1.45,2.052-1.796,2.523
					c-0.345,0.47,0.579,0.39,1.863,0.14c1.283-0.248,2.923-0.683,4.003-0.84c0.56-0.104,1.27-0.64,1.928-1.297
					c0.658-0.658,1.264-1.436,1.624-2.008c0.721-1.14,2.082-0.945,1.359,0.215c-0.724,1.159-1.872,2.691-1.873,2.689
					c0,0,1.45-0.262,3.165-0.545c1.714-0.279,3.693-0.594,4.739-0.543c1.044,0.053,1.458,0.465,1.266,0.916
					c-0.194,0.449-0.999,0.933-2.374,1.083c-1.934,0.212-4.004,0.541-6.061,0.941c-2.055,0.401-4.098,0.874-5.977,1.401
					c-3.763,1.063-6.884,2.33-8.248,3.98c-1.073,1.302-2.035,2.422-2.977,3.485c-0.942,1.063-1.861,2.07-2.864,3.132
					s-2.019,2.115-2.921,2.759c-0.903,0.645-1.687,0.88-2.225,0.322c-0.539-0.558-0.424-1.265,0.203-2.22
					C340.498,342.54,341.636,341.331,343.125,339.732z"/>
				<path style="fill:#FF4564;" d="M356.54,312.819c-0.343,0.615-0.896,1.036-1.503,1.214c-0.607,0.18-1.271,0.117-1.846-0.221
					c-0.573-0.337-0.952-0.883-1.106-1.486c-0.153-0.606-0.083-1.271,0.246-1.861c0.33-0.59,0.859-0.997,1.456-1.184
					c0.596-0.185,1.26-0.146,1.847,0.165c0.588,0.313,0.989,0.844,1.155,1.455S356.886,312.204,356.54,312.819z"/>
				<path style="fill:#FF4564;" d="M370.859,315.394c-0.565,1.102-1.789,1.582-2.709,1.086c-0.922-0.497-1.209-1.753-0.662-2.818
					c0.547-1.063,1.735-1.563,2.677-1.103C371.104,313.018,371.426,314.293,370.859,315.394z"/>
				<path style="fill:#FF4564;" d="M359.692,315.879c-0.415,0.725-1.29,0.995-1.946,0.608c-0.654-0.386-0.852-1.269-0.447-1.976
					c0.403-0.706,1.263-0.986,1.93-0.617C359.894,314.262,360.106,315.153,359.692,315.879z"/>
				<path style="fill:#FF4564;" d="M364.591,337.364c-0.73,0.996-1.981,1.3-2.775,0.693c-0.793-0.606-0.847-1.87-0.138-2.837
					c0.709-0.964,1.933-1.29,2.748-0.713C365.242,335.085,365.323,336.369,364.591,337.364z"/>
				<path style="fill:#FF4564;" d="M350.319,344.722c-0.796,0.87-2.041,1.008-2.765,0.319c-0.725-0.687-0.677-1.917,0.096-2.76
					c0.771-0.843,1.989-1.004,2.74-0.343C351.14,342.598,351.115,343.852,350.319,344.722z"/>
				<path style="fill:#FF4564;" d="M357.128,321.028c-0.58,0.917-1.729,1.212-2.548,0.671c-0.822-0.542-1.02-1.689-0.459-2.575
					c0.561-0.885,1.683-1.196,2.523-0.686C357.483,318.949,357.709,320.114,357.128,321.028z"/>
				<path style="fill:#FF4564;" d="M357.469,340.382c-0.552,0.682-1.287,1.103-2.021,1.232c-0.732,0.13-1.463-0.033-2.018-0.505
					c-0.557-0.475-0.833-1.165-0.843-1.898c-0.007-0.732,0.252-1.506,0.781-2.159c0.532-0.654,1.237-1.066,1.955-1.207
					c0.72-0.142,1.453-0.012,2.029,0.436c0.576,0.446,0.886,1.128,0.908,1.872C358.285,338.896,358.022,339.702,357.469,340.382z"/>
				<path style="fill:#FF4564;" d="M366.615,227.382L366.615,227.382L366.615,227.382z"/>
				<path style="fill:#FF4564;" d="M374.148,189.296c4.729,9.012,8.462,18.552,11.102,28.387c0.453,1.689,0.65,3.396,0.609,5.039
					c-0.043,1.644-0.321,3.22-0.803,4.671c-0.961,2.903-2.732,5.294-5.029,6.862c-1.528,1.045-3.288,1.727-5.175,1.995l0,0
					l-0.005,0.001l0,0l-0.016,0.002l-0.113,0.017l-0.006-0.001c-1.382,0.182-2.756,0.136-4.08-0.095h0.001
					c-1.361-0.238-2.669-0.671-3.89-1.254l0,0c-2.441-1.17-4.543-2.933-6.104-5.108c-1.036-1.45-1.83-3.087-2.313-4.877
					l-0.004-0.015v-0.001l-0.002-0.002v-0.004l-0.001-0.004l0,0l-0.001,0l-0.001-0.008c-0.479-1.792-0.613-3.608-0.441-5.382l0,0
					c0.172-1.778,0.647-3.514,1.396-5.139l0.45-0.989l0.133,0.062c0.123-0.149,0.253-0.289,0.393-0.418
					c0.396-0.368,0.858-0.651,1.354-0.838c0.493-0.186,1.025-0.272,1.566-0.247c0.541,0.026,1.088,0.165,1.608,0.426
					c0.529,0.265,0.986,0.637,1.354,1.076c0.368,0.439,0.646,0.945,0.826,1.482c0.18,0.538,0.259,1.108,0.227,1.676
					c-0.03,0.568-0.174,1.132-0.432,1.654c-0.332,0.672-0.545,1.408-0.621,2.166v-0.001c-0.076,0.761-0.021,1.538,0.192,2.34
					c0.162,0.602,0.394,1.144,0.688,1.642c0.295,0.496,0.653,0.944,1.061,1.336h0.001c0.813,0.785,1.833,1.344,2.916,1.575
					c0.726,0.155,1.477,0.168,2.253,0.002c0.582-0.126,1.108-0.339,1.586-0.63h-0.001c0.479-0.29,0.904-0.658,1.271-1.092v0
					c0.733-0.866,1.215-1.998,1.351-3.217c0.091-0.818,0.034-1.668-0.2-2.547v0.001c-2.48-9.245-5.991-18.213-10.436-26.687
					c-0.228-0.433-0.394-0.882-0.498-1.333c-0.104-0.452-0.15-0.904-0.139-1.345c0.023-0.881,0.275-1.719,0.742-2.406
					c0.31-0.459,0.718-0.849,1.21-1.131c0.37-0.212,0.77-0.352,1.181-0.418c0.41-0.068,0.832-0.063,1.252,0.008
					c0.84,0.142,1.669,0.555,2.378,1.2C373.41,188.148,373.827,188.683,374.148,189.296z M383.617,223.405
					c0.029-0.319,0.048-0.642,0.056-0.967c0.033-1.367-0.133-2.786-0.511-4.194l-0.203-0.753l-0.743,0.979
					c-0.252,0.356-0.518,0.698-0.797,1.009c-0.548,0.613-1.147,1.124-1.779,1.532c0.051,0.625,0.04,1.24-0.029,1.836
					c-0.078,0.689-0.236,1.353-0.462,1.979c0.745-0.031,1.502-0.157,2.255-0.391C382.152,224.202,382.898,223.859,383.617,223.405z
					 M382.044,214.315c-0.495-1.644-1.021-3.279-1.578-4.903c-0.918,1.395-1.856,2.764-2.815,4.109
					c0.506,1.588,0.98,3.186,1.424,4.792c0.504-0.653,1.004-1.314,1.499-1.981C381.068,215.667,381.559,214.994,382.044,214.315z
					 M379.356,206.298c-0.596-1.61-1.222-3.208-1.878-4.795c-0.83,1.449-1.684,2.875-2.556,4.276
					c0.603,1.553,1.175,3.119,1.72,4.695C377.567,209.107,378.473,207.714,379.356,206.298z M370.607,229.58
					c-0.262-0.06-0.518-0.133-0.77-0.219c0.139,0.777,0.357,1.56,0.66,2.338c0.304,0.777,0.691,1.548,1.159,2.299
					c0.925,0.086,1.872,0.064,2.821-0.087h0.002l0.002-0.001c0.779-0.125,1.531-0.333,2.245-0.618
					c-0.722-0.501-1.378-1.06-1.96-1.662c-0.584-0.602-1.096-1.245-1.532-1.917C372.338,229.83,371.452,229.774,370.607,229.58z
					 M363.001,225.69c0.413-0.674,0.882-1.288,1.396-1.832c-0.06-0.175-0.112-0.352-0.162-0.533v0
					c-0.266-0.989-0.351-1.976-0.283-2.934c-0.685,0.286-1.354,0.661-1.995,1.119c-0.639,0.457-1.248,0.999-1.816,1.608
					c0.069,0.407,0.155,0.814,0.264,1.221l0.002,0.005l0.004,0.015c0.342,1.272,0.865,2.452,1.534,3.521
					C362.234,227.098,362.588,226.363,363.001,225.69z M360.412,224.368 M367.627,232.893L367.627,232.893
					c0.259,0.12,0.521,0.231,0.788,0.334c-0.262-0.832-0.438-1.661-0.534-2.474c-0.096-0.814-0.109-1.613-0.047-2.386
					c-0.434-0.291-0.842-0.62-1.219-0.985c-0.463-0.449-0.877-0.952-1.235-1.499c-0.357,0.665-0.653,1.386-0.878,2.151
					c-0.227,0.764-0.38,1.572-0.459,2.411C365.094,231.446,366.303,232.277,367.627,232.893z M374.848,236.25L374.848,236.25
					L374.848,236.25z M382.746,227.081c-0.816,0.17-1.629,0.234-2.419,0.201c-0.792-0.033-1.56-0.162-2.293-0.374
					c-0.104,0.14-0.213,0.277-0.327,0.408h0.002c-0.516,0.595-1.115,1.098-1.783,1.49l0,0c-0.188,0.111-0.382,0.211-0.58,0.303
					c0.59,0.531,1.242,1.011,1.955,1.424c0.711,0.413,1.481,0.758,2.297,1.022C380.959,230.394,382.04,228.863,382.746,227.081z"/>
			</g>
			<path style="fill:#FF4564;" d="M266.577,141.57l24.888,7.778c0,0,2.34-37.331,0-37.331c-2.342,0-33.832,10.14-33.832,10.14
				h-3.266c0,0-31.49-10.14-33.832-10.14c-2.34,0,0,37.331,0,37.331l24.888-7.778c0,0-9.332,11.666-25.664,20.22
				c4.681,6.437,12.959,12.443,12.959,12.443s11.424-4.727,23.282-22.586c11.859,17.859,23.283,22.586,23.283,22.586
				s8.278-6.006,12.96-12.443C275.91,153.236,266.577,141.57,266.577,141.57z"/>
			<g>
				<path style="fill:#FF4564;" d="M274.441,385.994c-1.203-1.718-2.238-3.293-3.071-5.153c-0.835-1.858-1.48-4.02-1.857-6.947
					c-0.277-2.152-0.779-4.06-1.506-5.726c-0.544-1.249-1.217-2.357-2.016-3.319c-1.196-1.441-2.677-2.535-4.37-3.246
					c-0.6-0.256-1.224-0.461-1.871-0.621h-0.002c0.289-0.571,0.454-1.218,0.454-1.897c0-0.576-0.117-1.133-0.331-1.637
					c-0.319-0.756-0.851-1.396-1.522-1.848c-0.667-0.452-1.483-0.72-2.349-0.719c-0.575,0-1.132,0.118-1.636,0.332
					c-0.756,0.319-1.396,0.852-1.848,1.521c-0.454,0.669-0.719,1.485-0.718,2.351c0,0.576,0.117,1.132,0.331,1.636
					c0.038,0.091,0.079,0.178,0.122,0.263c0,0-0.001,0.001-0.001,0.001c-0.444,0.109-0.878,0.24-1.299,0.394
					c-1.157,0.421-2.228,1.008-3.185,1.759c-1.436,1.128-2.61,2.616-3.488,4.419c-0.881,1.803-1.477,3.919-1.788,6.339
					c-0.379,2.928-1.024,5.089-1.858,6.947c-0.834,1.86-1.868,3.436-3.072,5.153c-0.836,1.194-1.216,2.528-1.216,3.787
					c0,0.646,0.1,1.273,0.29,1.862c0.286,0.877,0.775,1.675,1.476,2.275c0.35,0.3,0.751,0.547,1.197,0.718
					c0.445,0.171,0.932,0.264,1.432,0.264h9.038c0.064,0.63,0.221,1.236,0.46,1.802c0.476,1.122,1.268,2.075,2.265,2.75
					c0.998,0.673,2.209,1.07,3.501,1.069c0.858,0,1.684-0.174,2.434-0.493c1.125-0.477,2.079-1.267,2.754-2.265
					c0.563-0.832,0.93-1.813,1.034-2.863h9.041c0.667,0,1.306-0.166,1.859-0.46c0.417-0.22,0.784-0.507,1.101-0.837
					c0.471-0.5,0.828-1.094,1.065-1.742c0.242-0.65,0.367-1.354,0.367-2.08C275.657,388.522,275.277,387.188,274.441,385.994z
					 M254.652,358.515c0.109-0.261,0.297-0.487,0.531-0.645c0.235-0.157,0.51-0.248,0.816-0.249c0.206,0.001,0.395,0.041,0.57,0.114
					c0.26,0.11,0.486,0.298,0.645,0.531c0.159,0.235,0.249,0.509,0.249,0.817c0,0.205-0.041,0.395-0.115,0.569
					c-0.108,0.26-0.296,0.486-0.531,0.645s-0.51,0.249-0.817,0.249c-0.205,0-0.394-0.042-0.569-0.115
					c-0.26-0.109-0.487-0.296-0.645-0.531s-0.249-0.508-0.249-0.816C254.537,358.878,254.578,358.688,254.652,358.515z
					 M243.13,381.963c0.946-2.107,1.671-4.568,2.076-7.719c0.251-1.941,0.695-3.599,1.297-4.98c0.452-1.037,0.995-1.92,1.611-2.661
					c0.93-1.116,2.028-1.926,3.33-2.479c1.303-0.55,2.819-0.838,4.557-0.838c1.542,0,2.914,0.229,4.112,0.663
					c0.898,0.33,1.706,0.773,2.43,1.344c1.085,0.851,1.997,1.985,2.721,3.463c0.722,1.479,1.247,3.302,1.53,5.488
					c0.405,3.15,1.129,5.611,2.075,7.717c0.631,1.407,1.354,2.649,2.13,3.839h-29.998C241.777,384.61,242.5,383.368,243.13,381.963z
					 M259.243,395.632c-0.269,0.631-0.716,1.171-1.278,1.55c-0.563,0.381-1.232,0.6-1.963,0.6c-0.49,0-0.95-0.099-1.37-0.275
					c-0.629-0.267-1.17-0.715-1.549-1.276c-0.266-0.395-0.456-0.844-0.544-1.329h6.921
					C259.414,395.155,259.34,395.4,259.243,395.632z M272.761,390.798c-0.148,0.46-0.392,0.819-0.65,1.038
					c-0.13,0.112-0.263,0.189-0.398,0.242c-0.139,0.053-0.281,0.082-0.447,0.082h-9.371h-3.078h-5.635h-3.077h-9.367
					c-0.224-0.002-0.404-0.05-0.583-0.143c-0.134-0.069-0.267-0.17-0.392-0.304c-0.188-0.197-0.362-0.471-0.483-0.804
					c-0.123-0.331-0.196-0.718-0.196-1.129c0.001-0.652,0.177-1.352,0.595-2.024h32.647c0.416,0.67,0.591,1.372,0.593,2.024
					C272.917,390.145,272.861,390.492,272.761,390.798z"/>
			</g>
		</g>
	</g>
</g>
</svg>
