<?xml version="1.0" encoding="iso-8859-1"?>
<!-- Generator: Adobe Illustrator 22.1.0, SVG Export Plug-In . SVG Version: 6.00 Build 0)  -->
<svg version="1.1" id="_x31_0" xmlns="http://www.w3.org/2000/svg" xmlns:xlink="http://www.w3.org/1999/xlink" x="0px" y="0px"
	 viewBox="0 0 512 512" style="enable-background:new 0 0 512 512;" xml:space="preserve">
<g>
	<path style="fill:#DB504F;" d="M17.432,84.252c17.552,32.406-1.349,105.314-8.101,117.466c-6.752,12.152-5.4,13.501,13.501,21.602
		c18.904,8.101,43.205,51.306,37.805,75.61c-5.4,24.304,1.349,16.203,28.355,12.152c27.002-4.051,74.258,2.698,101.264,12.152
		c27.002,9.45,45.907,13.501,45.907,13.501s-31.057-93.162,8.101-136.367c-40.507-6.752-94.515-32.406-85.064-85.065
		c-1.349-9.45-2.698-10.799-20.25-8.098c-17.552,2.698-76.963-4.051-97.213-16.203C21.483,78.853,17.432,84.252,17.432,84.252z"/>
	<path style="fill:#DB504F;" d="M279.367,178.763c37.805-4.047,54.008-12.148,64.807-28.351
		c10.803-16.203,14.854-33.755,14.854-41.856c0-8.101,4.051-8.101,16.199-5.4c12.152,2.698,83.712-1.353,106.667-9.454
		c22.952-8.101,12.152,16.203,12.152,16.203s-4.051,68.858,8.098,86.413c12.152,17.552,5.403,29.704-13.501,37.805
		c-18.901,8.098-52.655,40.503-51.306,64.807c1.349,24.304,4.051,28.355-18.901,18.901c-22.955-9.45-91.813-16.203-132.32-1.349
		c-40.503,14.854-21.602-4.051-21.602-4.051s20.253-79.661,9.454-112.063C263.164,167.964,279.367,178.763,279.367,178.763z"/>
	<path style="fill:#DB504F;" d="M267.215,424.499c-22.061-3.592-25.653-13.505-25.653-13.505s-9.45,24.304-43.205,16.203
		s-40.507-60.757-20.254-81.01c20.254-20.254,51.306-12.152,64.807,0c29.704-18.901,67.509-17.552,79.661,6.752
		C334.724,377.24,325.274,433.95,267.215,424.499z"/>
	<path style="fill:#FFFFFF;" d="M159.199,115.305c-1.349-9.45-2.698-10.799-20.25-8.098c-17.555,2.698-76.963-4.051-97.213-16.203
		c-20.253-12.152-24.304-6.752-24.304-6.752c3.772,6.965,5.851,15.807,6.738,25.51c43.59,12.654,96.351,23.358,117.404,19.85
		c-7.508,26.276,41.291,65.068,66.318,70.071c-5.008,38.788-8.761,115.117,18.769,123.874c0.836-5.011,1.65-9.964,2.449-14.85
		c-6.074-30.987-10.323-80.229,15.151-108.339C203.757,193.617,149.749,167.964,159.199,115.305z"/>
	<path style="fill:#FFFFFF;" d="M481.894,93.703c-22.955,8.101-94.515,12.152-106.667,9.454c-12.148-2.702-16.199-2.702-16.199,5.4
		c0,8.101-4.051,25.653-14.854,41.856c-10.799,16.203-27.002,24.3-64.807,28.351c0,0-13.321-8.878-7.753,13.626
		c13.065,4.964,31.984,7.724,51.391,2.291c31.284-8.761,56.306-61.314,57.56-70.071c28.721,6.756,69.426,15.767,112.862,5.524
		c0.121-11.749,0.616-20.228,0.616-20.228S504.846,85.601,481.894,93.703z"/>
	<path style="fill:#FFFFFF;" d="M279.213,364.223c0,5.876-4.762,10.638-10.634,10.638c-5.876,0-10.638-4.762-10.638-10.638
		c0-5.873,4.762-10.634,10.638-10.634C274.451,353.588,279.213,358.35,279.213,364.223z"/>
	<path style="fill:#FFFFFF;" d="M208.519,364.223c0,5.876-4.762,10.638-10.638,10.638c-5.872,0-10.634-4.762-10.634-10.638
		c0-5.873,4.762-10.634,10.634-10.634C203.757,353.588,208.519,358.35,208.519,364.223z"/>
	<path style="fill:#76181C;" d="M0.097,191.953c4.824-12.35,7.574-19.388,10.312-26.405c2.496-6.903,5.484-13.714,8.138-25.51
		c2.038-11.525,1.243-18.472,0.187-25.518c-1.144-7.035-3.171-14.172-8.16-25.642c-0.473-1.173,0.803-4.894,3.842-6.173
		c2.782-1.818,6.514-0.491,7.207,0.718c6.327,11.892,9.483,19.773,11.434,28.128c1.837,8.274,3.145,17.354,0.612,31.471
		c-1.547,7.068-3.222,12.412-4.93,16.767c-1.624,4.443-3.252,7.936-4.832,11.478c-3.237,6.98-6.778,13.692-12.493,25.565
		c-0.601,1.166-4.612,3.46-7.533,1.906C0.724,197.738-0.35,193.221,0.097,191.953z"/>
	<path style="fill:#76181C;" d="M52.294,302.81c2.771-10.95,2.489-17.306,2.141-23.391c-0.187-1.518-0.275-3.046-0.502-4.619
		c-0.308-1.551-0.627-3.171-0.971-4.93c-0.506-1.705-1.048-3.545-1.653-5.59c-0.905-1.91-1.573-4.175-2.889-6.422
		c-4.952-8.926-9.788-13.131-14.612-17.167c-1.283-0.946-2.57-1.892-3.908-2.878c-1.408-0.909-2.955-1.741-4.571-2.72
		c-1.576-1.056-3.512-1.778-5.55-2.749c-2.012-1.03-4.366-1.84-7.002-2.713c-1.03-0.396-2.676-3.772-1.672-6.906
		c0.484-3.288,3.761-5.227,5.055-4.941c3.083,0.737,5.862,1.433,8.343,2.408c2.496,0.909,4.828,1.58,6.866,2.647
		c2.06,0.982,4.018,1.84,5.836,2.808c1.767,1.089,3.46,2.137,5.158,3.182c1.745,0.979,3.208,2.412,4.875,3.677
		c0.814,0.671,1.639,1.353,2.493,2.053c0.773,0.796,1.569,1.613,2.394,2.46c0.817,0.858,1.661,1.749,2.544,2.672
		c0.828,0.971,1.595,2.075,2.441,3.186c0.81,1.14,1.756,2.266,2.548,3.581c0.759,1.334,1.554,2.735,2.394,4.208
		c1.719,3.006,2.661,5.971,3.768,8.538c0.759,2.683,1.488,5.095,2.009,7.35c0.348,2.28,0.671,4.381,0.982,6.393
		c0.187,2.013,0.191,3.937,0.268,5.858c-0.11,7.61-0.751,15.371-5.022,27.669c-0.491,1.243-4.205,3.732-7.2,2.287
		C53.698,307.836,52.045,303.873,52.294,302.81z"/>
	<path style="fill:#76181C;" d="M169.962,326.212c-10.594-2.54-16.694-3.435-22.739-4.399c-6.049-0.909-12.086-1.906-22.662-2.793
		c-10.341-0.685-16.54-0.579-22.669-0.205c-6.096,0.477-12.321,0.825-21.896,3.805c-0.953,0.268-4.08-1.514-5.187-4.615
		c-1.576-2.925-0.308-6.382,0.81-6.903c10.862-4.535,17.896-5.744,24.792-6.837c6.932-0.968,13.937-1.364,25.301-0.62
		c11.58,0.961,18.003,2.298,24.348,3.787c6.331,1.547,12.614,3.284,23.362,6.958c1.07,0.407,3.292,3.959,2.068,7.038
		C174.749,324.647,171.018,326.436,169.962,326.212z"/>
	<path style="fill:#76181C;" d="M152.997,112.218c-14.139,0.938-22.259,1.103-30.375,1.037c-8.12-0.125-16.272-0.359-30.591-2.408
		c-14.003-2.156-22.42-4.619-30.62-7.702c-4.117-1.459-8.138-3.402-12.72-5.77c-4.509-2.57-9.7-5.576-15.29-10.722
		c-1.158-1.107-1.679-5.224,0.917-7.328c2.115-2.515,6.085-2.782,7.049-2.071c4.788,3.812,9.403,6.005,13.398,7.881
		c4.117,1.708,7.683,3.134,11.445,4.194c7.427,2.273,15.052,4.274,28.109,6.276c13.388,1.906,21.166,2.386,28.919,3.006
		c7.768,0.564,15.565,1.18,29.392,1.29c1.375,0.044,5.341,2.691,5.169,5.994C158.253,109.179,154.415,112.083,152.997,112.218z"/>
	<path style="fill:#76181C;" d="M235.576,198.295c-3.79,0.198-7.09-0.429-10.147-0.597c-3.032-0.348-5.704-0.975-8.222-1.397
		c-4.923-1.221-9.113-2.276-13.061-3.963c-4.054-1.441-7.86-3.486-12.361-5.953c-2.141-1.43-4.454-2.973-7.024-4.689
		c-2.35-2.027-5.136-4.018-7.837-6.76c-10.642-10.708-14.751-19.425-17.838-28.039c-1.14-4.48-2.423-8.923-2.705-14.275
		c-0.099-1.327-0.33-2.694-0.323-4.12c0.051-1.43,0.106-2.914,0.161-4.469c0.077-1.547,0.088-3.175,0.238-4.857
		c0.286-1.661,0.583-3.398,0.898-5.231c0.301-1.529,3.471-4.124,6.646-3.094c3.263,0.411,5.623,3.64,5.546,4.865
		c-0.15,1.54-0.293,3.002-0.433,4.399c-0.007,1.397,0.106,2.72,0.143,3.981c0.048,1.257,0.095,2.46,0.139,3.618
		c0.081,1.147,0.385,2.221,0.546,3.27c0.532,4.23,1.892,7.621,2.94,11.063c2.9,6.584,6.202,13.178,14.78,21.83
		c2.166,2.225,4.483,3.845,6.356,5.546c2.097,1.455,3.985,2.764,5.733,3.981c3.702,2.122,6.774,4.021,10.11,5.436
		c6.551,2.87,13.42,6.008,26.177,7.145c1.217,0.114,4.868,2.98,4.725,6.268C241.25,195.556,237.134,198.247,235.576,198.295z"/>
	<path style="fill:#76181C;" d="M234.172,340.069c-3.178-3.373-5.44-6.705-7.06-9.795c-1.716-3.079-2.922-5.928-3.948-8.574
		c-1.987-5.304-3.255-9.828-4.223-14.366c-1.855-9.077-3.131-18.248-2.812-34.271c0.55-15.671,2.328-25.063,4.608-34.341
		c1.235-4.626,2.573-9.238,4.714-14.505c2.207-5.227,4.762-11.28,10.286-18.087c0.535-0.696,2.042-1.32,3.622-1.345
		c1.569-0.048,3.134,0.499,4.153,1.822c1.254,1.063,1.833,2.676,2.093,4.04c0.242,1.353,0.154,2.515-0.18,3.094
		c-3.662,5.161-5.612,10.543-7.137,15.151c-1.518,4.667-2.423,8.89-3.296,13.094c-1.573,8.461-2.962,17.101-3.453,31.511
		c-0.286,14.722,0.649,23.036,1.807,31.141c0.612,4.054,1.433,8.043,2.753,12.592c1.382,4.447,3.273,9.758,7.145,14.506
		c0.4,0.425,0.59,1.851,0.693,3.262c0.048,1.47-0.099,3.31-1.162,4.56c-0.792,1.47-2.474,2.075-4.329,2.013
		C236.536,341.565,234.879,340.699,234.172,340.069z"/>
	<path style="fill:#76181C;" d="M198.126,305.816c-5.675-10.334-11.804-17.926-16.837-24.462
		c-5.128-6.521-9.612-11.917-14.077-17.346c-4.461-5.462-8.919-10.92-14.223-17.416c-5.238-6.591-11.324-14.245-18.501-24.616
		c-13.578-19.682-23.215-30.529-32.776-41.431c-9.703-10.788-19.641-21.423-37.061-38.128c-1.767-1.708-4.439-6.514-2.658-7.64
		c0.964-1.884,5.983,0.422,7.845,2.068c18.003,16.386,28.432,26.844,38.546,37.607c9.964,10.876,19.997,21.914,33.96,42.146
		c14.036,19.901,23.329,30.595,31.922,41.731c4.355,5.543,8.71,11.104,13.747,17.896c4.952,6.866,10.946,14.623,16.914,26.174
		c0.491,1.246,1.287,3.607,1.305,5.88c0.033,2.266-0.367,4.043-1.444,4.018c-0.898,0.506-2.309-0.733-3.523-2.196
		C200.069,308.624,198.573,306.853,198.126,305.816z"/>
	<path style="fill:#76181C;" d="M497.965,210.516c-4.241-12.478-6.95-19.564-9.322-26.889c-1.14-3.702-2.335-7.365-3.413-11.972
		c-1.169-4.531-2.189-10.037-2.874-17.24c-0.81-14.319,1.584-23.175,4.403-31.166c2.944-8.057,7.024-15.503,14.74-26.544
		c0.832-1.122,4.696-1.987,7.24,0.154c2.863,1.635,3.68,5.484,3.072,6.591c-6.338,10.785-9.208,17.625-11.195,24.473
		c-1.892,6.87-3.519,13.666-2.885,25.353c1.21,12.031,3.354,19.154,5.004,26.309c1.873,7.295,3.754,14.608,7.053,27.453
		c0.293,1.312-1.316,5.664-4.571,6.279C502.129,214.505,498.423,211.745,497.965,210.516z"/>
	<path style="fill:#76181C;" d="M432.494,313.012c-2.76-12.724-2.456-20.503-1.65-28.072c0.304-1.895,0.543-3.809,0.971-5.785
		c0.55-1.958,1.122-4.003,1.745-6.224c0.784-2.178,1.8-4.483,2.881-7.057c1.404-2.416,2.702-5.242,4.769-8.021
		c1.008-1.36,1.969-2.654,2.881-3.889c0.946-1.21,2.02-2.214,2.962-3.248c0.975-1.001,1.866-2.001,2.808-2.867
		c0.986-0.814,1.932-1.591,2.848-2.346c0.92-0.74,1.807-1.459,2.672-2.156c0.931-0.594,1.833-1.169,2.72-1.734
		c1.807-1.056,3.435-2.302,5.282-3.065c1.811-0.836,3.622-1.668,5.506-2.537c1.921-0.74,3.966-1.356,6.133-2.086
		c2.148-0.814,4.546-1.199,7.13-1.8c2.584-0.667,5.429-1.026,8.578-1.386c1.316-0.125,4.337,2.192,4.417,5.517
		c0.623,3.233-1.419,6.386-2.489,6.653c-2.724,0.55-5.154,1.067-7.277,1.848c-2.141,0.719-4.15,1.206-5.84,2.06
		c-1.727,0.777-3.362,1.419-4.868,2.152c-1.448,0.814-2.837,1.598-4.227,2.383c-5.275,3.428-10.579,7.02-16.569,15.283
		c-1.58,2.075-2.515,4.241-3.647,6.03c-0.843,1.954-1.606,3.717-2.313,5.348c-0.553,1.705-1.067,3.277-1.558,4.78
		c-0.414,1.532-0.686,3.039-1.052,4.524c-1.081,5.997-2.126,12.273-0.696,23.476c0.117,1.085-1.998,4.82-5.249,5.359
		C436.219,317.227,432.832,314.306,432.494,313.012z"/>
	<path style="fill:#76181C;" d="M311.435,309.797c12.277-3.032,19.414-4.359,26.588-5.473c7.181-1.045,14.44-1.947,27.387-1.91
		c12.687,0.26,20.429,1.404,28.018,3.211c7.529,1.943,15.231,4.029,26.68,10.414c1.173,0.715,2.269,4.428,0.322,7.123
		c-1.448,2.958-5.007,4.234-6.03,3.798c-10.242-4.633-17.138-5.763-23.868-7.002c-6.782-1.118-13.688-1.895-25.294-2.134
		c-11.888-0.018-18.721,0.568-25.554,1.063c-6.837,0.553-13.717,1.056-25.774,2.98c-1.202,0.161-5.128-1.855-5.572-5.132
		C307.348,313.576,310.211,310.145,311.435,309.797z"/>
	<path style="fill:#76181C;" d="M369.457,97.277c13.739,1.554,21.555,1.884,29.334,2.258c7.772,0.319,15.554,0.781,29.07,0.502
		c13.208-0.414,21.016-1.481,28.663-2.845c3.864-0.597,7.573-1.584,11.87-2.782c4.19-1.382,9.036-3.002,14.249-6.21
		c1.041-0.59,4.949,0.154,6.749,2.903c2.32,2.405,1.309,6.426,0.026,7.387c-6.169,4.436-11.686,6.796-16.47,8.802
		c-4.835,1.8-9.062,3.244-13.321,4.194c-8.512,2.075-17.167,3.508-31.328,3.959c-14.462,0.308-22.581-0.44-30.657-1.298
		c-8.068-0.913-16.104-2.053-30.03-4.689c-1.389-0.304-4.853-3.651-4.003-6.855C363.831,99.304,368.09,97.156,369.457,97.277z"/>
	<path style="fill:#76181C;" d="M276.284,172.678c12.797,0.411,19.997-1.873,26.848-3.937c3.479-1.001,6.76-2.515,10.689-4.179
		c1.881-0.993,3.915-2.067,6.169-3.259c2.064-1.466,4.56-2.793,6.98-4.74c9.56-7.555,13.629-13.706,17.302-19.891
		c1.459-3.288,3.215-6.492,4.252-10.631c0.286-1.019,0.719-2.049,0.935-3.178c0.183-1.144,0.378-2.331,0.576-3.574
		c0.191-1.25,0.462-2.548,0.623-3.933c0.029-1.404,0.062-2.874,0.099-4.421c0.07-1.224,2.804-4.146,6.092-4.161
		c3.277-0.642,6.111,2.317,6.224,3.871c0.092,1.859,0.18,3.622,0.26,5.304c-0.051,1.686-0.238,3.303-0.348,4.85
		c-0.132,1.551-0.257,3.032-0.378,4.454c-0.165,1.419-0.561,2.746-0.817,4.051c-0.924,5.282-2.735,9.535-4.406,13.846
		c-4.102,8.178-9.23,16.338-21.086,25.682c-3.01,2.397-6.016,4.04-8.596,5.77c-2.757,1.393-5.238,2.647-7.537,3.809
		c-4.766,1.906-8.787,3.475-12.988,4.417c-4.124,1.199-8.406,1.745-13.442,2.361c-2.551,0.117-5.279,0.418-8.329,0.396
		c-3.057-0.202-6.408,0.026-10.147-0.627c-1.543-0.238-5.304-3.406-4.425-6.624C271.09,175.054,275.06,172.645,276.284,172.678z"/>
	<path style="fill:#76181C;" d="M251.57,316.498c4.417-4.245,6.932-9.293,8.838-13.538c1.859-4.359,3.153-8.219,4.252-12.167
		c2.126-7.911,4.054-16.052,5.546-30.701c1.25-14.363,0.913-23.105,0.367-31.694c-0.356-4.282-0.748-8.582-1.694-13.395
		c-0.957-4.762-2.243-10.338-5.257-15.902c-0.264-0.616-0.209-1.778,0.194-3.094c0.422-1.323,1.191-2.852,2.566-3.757
		c1.169-1.188,2.79-1.543,4.34-1.309c1.565,0.216,2.988,1.015,3.435,1.771c4.663,7.427,6.47,13.739,8.032,19.198
		c1.492,5.484,2.262,10.224,2.929,14.967c1.147,9.483,1.781,19.025,0.436,34.645c-1.609,15.946-3.981,24.898-6.917,33.685
		c-1.51,4.384-3.31,8.725-5.928,13.75c-1.334,2.504-2.878,5.187-4.949,8.039c-1.98,2.87-4.63,5.906-8.189,8.871
		c-0.777,0.543-2.526,1.199-4.421,0.971c-1.851-0.161-3.449-0.964-4.058-2.518c-0.906-1.371-0.829-3.215-0.605-4.67
		C250.759,318.265,251.119,316.872,251.57,316.498z"/>
	<path style="fill:#76181C;" d="M293.143,291.996c7.317-10.748,14.201-17.724,19.946-23.945c5.818-6.137,10.81-11.129,15.803-16.107
		c9.868-10.022,20.382-19.517,36.716-37.585c16.298-18.399,27.589-28.146,38.791-37.743c11.338-9.469,22.951-18.589,42.798-32.688
		c2.046-1.411,7.306-3.094,8.035-1.107c1.631,1.331-1.602,5.777-3.56,7.262c-19.308,14.483-30.452,23.842-41.387,33.384
		c-10.803,9.67-21.676,19.275-37.527,37.178c-8.376,9.428-15.341,16.294-21.335,22.207c-6.048,5.81-11.129,10.693-16.217,15.58
		c-5.088,4.846-10.187,9.667-16.063,15.521c-5.785,5.88-12.783,12.68-19.66,22.255c-0.572,0.975-2.269,2.551-3.633,3.875
		c-1.382,1.309-2.933,2.364-3.765,1.756c-1.07-0.106-1.257-1.917-0.949-4.164C291.431,295.423,292.505,293.172,293.143,291.996z"/>
	<path style="fill:#76181C;" d="M186.854,345.546c-11.705,8.607-14.117,16.709-15.58,24.081c-0.686,3.783-0.682,7.731-0.07,12.357
		c0.671,4.612,2.086,10.022,5.4,16.25c3.391,6.008,7.141,10.158,10.737,13.259c3.629,3.068,7.101,5.242,10.803,6.771
		c3.71,1.477,7.61,2.493,12.299,2.687c4.67,0.169,10.198-0.543,16.72-3.365c1.268-0.565,5.429,0.422,6.833,3.402
		c2.057,2.639,0.077,6.8-1.554,7.731c-7.929,4.069-15.371,5.678-21.903,5.895c-6.558,0.202-12.247-0.854-17.596-2.68
		c-5.341-1.884-10.308-4.7-15.349-8.761c-4.989-4.106-10.044-9.593-14.509-17.534c-4.392-8.208-6.228-15.437-6.994-21.742
		c-0.693-6.32-0.44-11.807,0.803-17.108c1.235-5.282,3.178-10.484,6.69-15.917c3.581-5.345,8.79-10.902,16.584-15.678
		c1.668-0.895,7.317-0.898,8.391,2.273C190.278,340.278,187.994,344.779,186.854,345.546z"/>
	<path style="fill:#76181C;" d="M235.913,347.529c-2.962-1.664-4.795-2.243-6.54-2.929c-1.752-0.663-3.457-1.364-6.507-2.452
		c-3.013-0.983-4.861-1.503-6.723-2.046c-1.873-0.524-3.757-1.158-7.038-1.606c-0.315-0.084-1.166-2.841-1.261-6.133
		c-0.271-3.292,0.513-6.085,0.964-6.188c4.271-0.587,6.936-0.645,9.571-0.528c2.636,0.147,5.282,0.55,9.447,1.906
		c4.219,1.481,6.459,2.742,8.556,4.172c2.071,1.455,4.08,3.046,7.185,6.148c0.304,0.355-0.539,3.24-2.757,5.689
		C238.732,346.117,236.21,347.653,235.913,347.529z"/>
	<path style="fill:#76181C;" d="M253.637,348.13c-9.89,8.798-13.358,19.341-13.967,27.9c-0.601,8.699,1.47,16.078,4.879,22.405
		c1.683,3.2,3.845,6.14,6.485,8.838c2.573,2.764,5.744,5.205,9.483,7.287c7.375,4.102,17.713,6.98,30.059,3.699
		c12.02-3.31,19.616-10.884,24.036-18.267c2.258-3.728,3.758-7.559,4.608-11.364c0.927-3.79,1.29-7.57,1.052-11.331
		c-0.374-7.504-2.639-15.121-7.863-22.299c-5.205-7.053-13.853-13.97-26.606-16.137c-1.29-0.154-3.237-1.155-4.941-2.229
		c-1.683-1.111-3.153-2.625-2.903-4.271c-0.433-1.646,0.946-3.171,3.032-4.296c2.068-1.158,4.795-1.536,6.488-1.411
		c16.676,2.218,28.417,10.825,35.741,19.993c3.735,4.619,6.378,9.571,8.263,14.546c1.869,4.982,3.043,10.022,3.383,15.154
		c0.455,5.118,0.106,10.33-1.045,15.569c-1.081,5.257-3.046,10.569-6.081,15.755c-3.01,5.187-7.071,10.308-12.53,14.832
		c-5.444,4.505-12.343,8.398-20.609,10.634c-8.439,2.288-16.452,2.383-23.446,1.202c-7.016-1.188-13.039-3.6-18.153-6.529
		c-5.117-2.94-9.403-6.393-12.882-10.253c-3.538-3.794-6.393-7.918-8.574-12.357c-4.392-8.824-6.745-18.817-5.502-30.459
		c0.649-5.792,2.273-11.961,5.341-18.201c3.153-6.166,7.709-12.489,14.34-17.86c0.678-0.513,1.752-1.155,3.01-1.708
		c1.301-0.499,2.768-0.935,4.146-1.188c2.874-0.352,5.301,0.044,5.733,1.686c1.023,1.312,0.07,3.589-1.224,5.598
		c-0.605,1.089-1.312,2.122-2.002,2.973C254.744,346.953,254.139,347.708,253.637,348.13z"/>
</g>
</svg>
