<?xml version="1.0" encoding="iso-8859-1"?>
<!-- Generator: Adobe Illustrator 15.1.0, SVG Export Plug-In . SVG Version: 6.00 Build 0)  -->
<!DOCTYPE svg PUBLIC "-//W3C//DTD SVG 1.1//EN" "http://www.w3.org/Graphics/SVG/1.1/DTD/svg11.dtd">
<svg version="1.1" id="_x31_0" xmlns="http://www.w3.org/2000/svg" xmlns:xlink="http://www.w3.org/1999/xlink" x="0px" y="0px"
	 width="512px" height="512px" viewBox="0 0 512 512" style="enable-background:new 0 0 512 512;" xml:space="preserve">
<g>
	<path style="fill:#666666;" d="M186.735,194.371c0.576-3.382,16.993-99.972,17.338-102.002c0.344-2.03,2.132-8.389-2.213-5.416
		c-5.023,3.437-17.527,10.741-17.527,10.741l-40.671,59.71c0,0,8.165-48.05,9.086-53.462c0.922-5.415,0.609-8.726-2.75-7.04
		c0,0-14.04,8.307-15.827,10.802c-4.571,6.383-48.321,99.468-85.896,124.526c-37.574,25.057-45.371,7.23-42.149-11.719
		c8.577-2.252,17.522-14.733,10.417-17.101c-6.381-2.125-15.28,8.542-16.395,22.156c-0.633,7.737-0.302,30.263,24.33,23.256
		c24.637-7.006,52.674-23.149,105.813-103.479c-3.857,19.063-5.061,29.777-5.982,35.19c-0.92,5.415-1.029,13.311,7.756,5.184
		c8.785-8.125,42.284-60.023,42.284-60.023s-11.271,66.323-12.421,73.09c-1.151,6.767-6.472,9.026-10.288,9.706l-1.036,6.091
		l39.444-7.015l0.919-5.416C190.966,202.15,185.239,203.182,186.735,194.371z M131.13,176.695c0,0-0.779,2.765-2.396,5.021
		c-1.617,2.256-1.794-0.338-1.392-2.706c0.404-2.369,6.557-38.576,6.557-38.576l4.533-6.713L131.13,176.695z M168.118,202.277
		l-3.816,0.68l13.343-78.504l0.229-1.354l4.908-7.107L168.118,202.277z"/>
	<path style="fill:#666666;" d="M233.834,188.294c-4.627,3.011-15.727,5.422-20.629,2.792c-5.785-3.103,1.186-9.397,1.186-9.397
		c5.821-2.786,23.259-14.016,27.396-23.249c5.963-13.311-8.042-20.446-20.415-12.994c-12.367,7.45-19.876,20.16-22.561,35.95
		c-2.686,15.792,7.544,22.684,18.608,21.193c10.103-1.359,16.035-7.226,19.195-11.288
		C239.773,187.238,238.457,185.284,233.834,188.294z M221.537,154.166c9.904-7.448,14.22,1.579,12.998,3.376
		c-4.39,6.469-18.764,16.025-18.764,16.025c-1.85,1.202-3.755-0.645-3.142-4.254C213.242,165.706,213.518,160.196,221.537,154.166z"
		/>
	<path style="fill:#666666;" d="M263.792,183.842c-0.536,3.158,2.203,3.983,2.203,3.983l-0.538,3.158l-17.389,3.091l0.539-3.157
		c0,0,3.698-2.409,4.16-5.117c0.458-2.704,4.983-29.323,5.904-34.738c0.918-5.414-6.185-6.242-5.253-7.816
		c2.311-3.912,7.617-7.208,11.37-6.4c5.554,1.204,3.903,8.496,2.981,13.91c6.236-12.485,15.982-23.841,24.273-21.816
		c8.295,2.023,2.249,10.974-1.375,12.933c-3.622,1.957-5.632-0.749-5.632-0.749s-15.087,8.918-17.215,21.436
		C266.441,170.681,263.792,183.842,263.792,183.842z"/>
	<path style="fill:#666666;" d="M217.162,333.308c-0.537,3.157,2.201,3.982,2.201,3.982l-0.536,3.158l-17.389,3.091l0.538-3.157
		c0,0,3.699-2.408,4.157-5.114c0.46-2.708,4.986-29.327,5.905-34.739c0.919-5.415-6.183-6.243-5.253-7.817
		c2.311-3.912,7.616-7.208,11.369-6.397c5.555,1.201,3.904,8.493,2.985,13.907c6.233-12.485,15.979-23.841,24.273-21.816
		c8.292,2.024,2.246,10.977-1.377,12.933c-3.623,1.957-5.631-0.748-5.631-0.748s-15.088,8.917-17.215,21.436
		C219.809,320.146,217.162,333.308,217.162,333.308z"/>
	<path style="fill:#666666;" d="M309.599,175.696c-0.538,3.158,2.203,3.984,2.203,3.984l-0.541,3.157l-17.388,3.092l0.538-3.158
		c0,0,3.701-2.408,4.159-5.114c0.459-2.706,4.985-29.326,5.903-34.741c0.921-5.412-6.183-6.241-5.252-7.816
		c2.31-3.91,7.618-7.209,11.37-6.397c5.553,1.199,3.902,8.496,2.984,13.91c6.234-12.485,15.979-23.842,24.271-21.819
		c8.298,2.024,2.249,10.976-1.375,12.933c-3.62,1.957-5.63-0.75-5.63-0.75s-15.088,8.919-17.215,21.439
		C312.245,162.537,309.599,175.696,309.599,175.696z"/>
	<path style="fill:#666666;" d="M363.689,141.443c-1.558,9.154,2.646,9.176,2.646,9.176c5.521-0.984,12.501-4.261,15.423-21.447
		c1.896-11.162,7.165-13.805,10.929-13.904c3.767-0.1,4.071,4.401,4.071,4.401s-5.217,5.484-6.313,11.944s-3.478,20.46-6.771,39.842
		c-3.294,19.382-2.695,15.856-4.892,28.779c-2.197,12.92-15.534,28.39-25.172,28.396c-9.639,0.006-10.71-15.752-2.638-28.578
		c8.068-12.827,28.529-32.412,40.323-35.648c2.661,0.097,2.814,2.347-1.451,5.382c-4.261,3.039-18.958,17.043-27.435,25.954
		c-8.473,8.913-9.818,19.972-1.888,17.424c7.929-2.55,7.313-17.819,9.009-27.801c1.696-9.984,4.291-25.255,4.791-28.193
		c-8.149,8.569-12.174,10.806-16.858,10.971c-6.083,0.217-8.47-4.757-5.976-19.439c0.399-2.351,1.698-9.984,2.495-14.683
		c1.599-9.397-5.367-5.417-4.557-6.786c2.003-3.392,6.609-6.253,9.867-5.55c4.82,1.042,7.562,1.11,6.061,9.958L363.689,141.443z"/>
	<path style="fill:#666666;" d="M182.323,325.061c1.612-9.478-2.739-9.497-2.739-9.497c-5.715,1.017-12.178,7.993-15.201,25.783
		c-1.964,11.554-10.889,10.663-14.785,10.767l0.931-5.473c0,0,2.216-0.347,3.354-7.037c1.137-6.684,4.342-25.546,7.752-45.61
		c3.412-20.063,3.455-20.324,5.728-33.702c2.275-13.375,10.574-24.103,20.549-24.109c9.978-0.004,11.235,13.34,2.88,26.616
		c-8.354,13.275-16.577,18.394-28.785,21.743c-2.754-0.101-4.881-1.368-0.467-4.51c4.413-3.144,9.236-0.542,18.01-9.766
		c8.772-9.227,11.229-26.139,6.97-24.866c-5.382,1.607-5.974,9.064-7.729,19.402c-1.757,10.335-6.96,40.938-7.477,43.978
		c8.437-8.87,12.604-11.186,17.451-11.357c6.298-0.224,8.769,4.929,6.187,20.126c-0.415,2.431-1.757,10.335-2.583,15.199
		c-1.654,9.728,5.555,5.606,4.716,7.022c-2.074,3.516-6.451,5.391-10.215,5.745c-5.076,0.481-7.828-1.146-6.271-10.304
		L182.323,325.061z"/>
	<path style="fill:#666666;" d="M149.414,264.247c3.683-21.657-16.689-32.473-42.936-15.99
		c-26.243,16.479-42.402,53.481-44.107,85.286c-1.41,26.331,22.56,40.729,54.739,19.143c22.63-15.181,40.213-47.842,37.424-60.472
		c-2.79-12.63-18.857,2.041-12.372,7.451c6.924,11.896-10.235,32.993-25.986,43.998c-14.939,10.438-34.388,6.312-27.453-34.496
		c7.823-46.019,41.931-65.209,49.932-46.944C140.632,272.371,147.806,273.723,149.414,264.247z"/>
	<g>
		<path style="fill:#666666;" d="M265.721,299.261c-1.378,8.122-4.451,26.2-4.451,26.2c-0.537,3.16,1.99,4.024,1.99,4.024
			l-0.537,3.155l-17.387,3.095l0.535-3.158c0,0,3.699-2.408,4.159-5.117c0.462-2.706,2.558-15.033,3.477-20.446
			c0.92-5.416-3.862,0.937-4.514-2.48c-0.351-1.832,2.411-4.397,5.717-8.235c3.095-3.592,7.73-6.12,9.654-5.983
			C268.327,290.595,266.642,293.848,265.721,299.261z"/>
		<path style="fill:#666666;" d="M270.367,276.777c-0.668,3.925-4.198,7.638-7.888,8.292c-3.688,0.658-6.141-1.991-5.473-5.916
			c0.667-3.923,4.198-7.638,7.889-8.295C268.584,270.204,271.035,272.854,270.367,276.777z"/>
	</g>
	<polygon style="fill:#666666;" points="100.535,266.1 85.048,357.235 88.137,357.561 104.698,260.111 	"/>
	<path style="fill:#666666;" d="M506.138,286.587c4.904-8.914,0.983-23.39-10.443-26.62c-14.962-4.229-7.56-15.698,0.173-17.072
		c5.24-0.934,9.705,1.769,12.04,3.607c1.11,0.876,2.347-2.015,2.347-2.015L512,234.224l-2.813,0.5l-0.571,3.364
		c0,0-13.816-6.972-25.181,3.753c-9.599,9.056-9.26,19.561,5.552,25.485c18.014,7.199,6.193,49.561-172.388,83.876
		C96.907,393.417,42.63,375.326,42.63,383.941s-13.784,33.6-22.399,40.493c-14.49,11.595,294.038-52.446,362.708-74.094
		C462.199,325.356,491.772,312.69,506.138,286.587z"/>
	<g>
		<path style="fill:#666666;" d="M344.281,266.588c0,0-1.059,1.937-1.52,4.645c-0.46,2.707-4.747,27.923-5.666,33.336
			c-0.92,5.414,3.861-0.938,4.515,2.479c0.35,1.833-2.413,4.397-5.718,8.234c-3.094,3.593-7.732,6.121-9.654,5.985
			c-3.961-0.281-2.279-3.533-1.358-8.947c1.379-8.121,6.643-39.09,6.643-39.09c0.537-3.156-1.354-7.087-1.354-7.087
			c-4.603-3.12,1.796-5.45,4.998-5.811c5.029-0.566,9.37,2.925,9.37,2.925L344.281,266.588z"/>
		<path style="fill:#666666;" d="M321.67,279.425c0,0,24.506-4.358,27.262-4.847c2.758-0.49,3.983-0.709,3.983-0.709
			s-3.708,7.836-4.629,8c-0.918,0.164-23.893,4.247-26.954,4.793c-3.063,0.545-1.572-6.474-1.572-6.474L321.67,279.425z"/>
	</g>
	<g>
		<path style="fill:#666666;" d="M359.727,270.706c2.836-3.958,7.351-11.808,14.562-13.091c7.211-1.282,4.905,7.441,4.138,11.953
			c-0.766,4.51-5.98,35.189-6.441,37.897c-0.689,4.062-7.436,7.448-11.599,7.749c-4.165,0.305-1.883-2.042,0.227-6.164
			c1.231-2.407,1.536-4.209,2.381-9.174c0.843-4.964,3.757-22.105,4.446-26.167c0.691-4.06-2.625-3.909-4.705-1.352
			C360.653,274.917,357.569,273.715,359.727,270.706z"/>
		<path style="fill:#666666;" d="M375.231,276.262c2.838-3.957,13.481-16.398,20.691-17.681c7.211-1.283,4.905,7.442,4.139,11.952
			c-0.767,4.512-5.137,30.229-5.598,32.935c-0.689,4.061-7.436,7.448-11.601,7.751c-4.163,0.303-1.882-2.044,0.227-6.164
			c1.23-2.407,1.539-4.211,2.381-9.175c0.845-4.963,3.222-18.948,3.911-23.009c0.689-4.063-10.793,5.417-12.872,7.976
			C374.431,283.406,373.076,279.27,375.231,276.262z"/>
		<path style="fill:#666666;" d="M394.741,272.793c2.837-3.958,13.481-16.399,20.69-17.682c7.21-1.281,4.905,7.443,4.139,11.953
			c-0.766,4.513-4.141,24.364-4.599,27.072c-1.151,6.766,7.06,6.188,2.978,9.094c-3.277,2.333-7.823,4.892-12.496,0.909
			c-1.551-1.322-1.315-6.766-0.473-11.729s3.221-18.948,3.909-23.008c0.69-4.062-10.791,5.418-12.871,7.975
			C393.939,279.938,392.584,275.801,394.741,272.793z"/>
	</g>
	<path style="fill:#666666;" d="M314.785,269.295l-1.743,10.262c0,0-1.235,2.892-2.349,2.017c-2.335-1.841-6.8-4.541-12.039-3.608
		c-7.732,1.375-15.137,12.846-0.175,17.075c11.427,3.229,14.898,9.845,10.727,19.122c-6.028,13.398-21.846,16.211-32.365,11.919
		c-0.572,3.365-0.572,3.365-0.572,3.365l-3.864,0.687l2.413-14.206l3.931-1.063c0,0,3.012,6.353,10.967,5.665
		c7.959-0.691,9.414-14.87,2.059-18.135c-14.579-6.473-15.15-16.426-5.552-25.482c11.366-10.724,25.18-3.754,25.18-3.754
		l0.571-3.363L314.785,269.295z"/>
	<path style="fill:#666666;" d="M461.948,289.971c-0.001-2.405,4.793-28.195,5.751-33.837c0.959-5.639-4.965-10.71-13.948-8.676
		c-3.345,0.759-18.273,5.875-24.967,23.474c-6.504,17.104-1.431,26.604,5.389,28.792c5.268,1.689,13.575-0.006,18.774-6.399
		c0.368,1.464,3.07,4.921,9.854,1.309C464.113,294.182,461.949,292.379,461.948,289.971z M452.189,286.895
		c-0.613,3.609-7.504,6.037-12.045,5.531c-3.645-0.403-7.604-7.286-1.525-21.274c6.078-13.991,17.493-14.597,17.576-7.831
		C456.195,263.32,452.803,283.284,452.189,286.895z"/>
</g>
</svg>
