<?xml version="1.0" encoding="iso-8859-1"?>
<!-- Generator: Adobe Illustrator 22.1.0, SVG Export Plug-In . SVG Version: 6.00 Build 0)  -->
<svg version="1.1" id="_x36_" xmlns="http://www.w3.org/2000/svg" xmlns:xlink="http://www.w3.org/1999/xlink" x="0px" y="0px"
	 viewBox="0 0 512 512" style="enable-background:new 0 0 512 512;" xml:space="preserve">
<g>
	<g>
		<polygon style="fill:#367D43;" points="151.143,499.986 134.846,494.416 151.143,489.881 		"/>
		<polygon style="fill:#367D43;" points="377.001,369.73 227.743,411.263 141.005,410.299 290.256,368.77 		"/>
		<polygon style="fill:#367D43;" points="383.049,342.95 370.731,355.164 370.731,346.377 		"/>
		<polygon style="fill:#6E8C3E;" points="151.143,499.986 134.846,494.416 151.143,489.881 		"/>
		<polygon style="fill:#6E8C3E;" points="377.001,369.73 227.743,411.263 141.005,410.299 290.256,368.77 		"/>
		<polygon style="fill:#6E8C3E;" points="383.049,342.95 370.731,355.164 370.731,346.377 		"/>
		<polygon style="fill:#64AA49;" points="250.145,217.475 278.091,209.707 286.622,231.01 239.727,244.061 		"/>
		<polygon style="fill:#128E47;" points="238.195,247.968 287.876,234.142 296.401,255.434 227.785,274.533 		"/>
		<polygon style="fill:#64AA49;" points="226.255,278.44 297.656,258.566 306.19,279.88 215.841,305.014 		"/>
		<polygon style="fill:#128E47;" points="265.506,178.276 276.838,206.576 251.675,213.57 		"/>
		<polygon style="fill:#128E47;" points="214.31,308.921 307.444,283.012 315.972,304.31 203.896,335.496 		"/>
		<polygon style="fill:#5DB767;" points="130.86,359.3 387.123,287.992 387.123,338.335 130.86,409.643 		"/>
		<polygon style="fill:#5DB767;" points="130.86,441.703 387.123,370.395 387.123,420.738 130.86,492.046 		"/>
		<polygon style="fill:#64AA49;" points="122.223,482.56 111.647,461.703 127.506,457.288 127.506,496.459 129.131,496.006 
			147.155,502.166 111.875,511.981 		"/>
		<polygon style="fill:#64AA49;" points="410.227,345.993 374.805,355.846 389.67,341.107 390.477,340.883 390.477,339.609 
			390.477,301.153 409.998,295.716 399.651,325.131 		"/>
		<path style="fill:#5DB767;" d="M257.678,104.307l7.81-17.713l7.809,17.712l19.247-2.092l-11.435,15.62l0.725,0.991l10.71,14.629
			l-19.246-2.093l-7.81,17.713l-7.811-17.713l-19.243,2.093l11.434-15.62l-11.434-15.62L257.678,104.307z"/>
		<polygon style="fill:#6E8C3E;" points="309.508,145.184 309.507,145.183 309.508,145.184 		"/>
	</g>
	<g>
		<path style="fill:#006C46;" d="M410.359,285.824l-24.818,6.912v-14.094l-71.255,19.827l-53.75-134.233l-65.619,167.449
			l-72.347,20.131v1.273h-0.004h-0.001v55.477h0.005v0.554l1.913-0.533l86.74,0.963l-88.652,24.669v14.653l-20.699,5.762
			l11.778,23.229L101.641,512l47.92-13.332v-14.656l235.98-65.663v-1.273v-0.005h0.006v-55.48h-0.006v-0.546l-1.888,0.525
			l-86.742-0.962l65.531-18.234l0,14.083l47.691-13.268l-11.778-23.233L410.359,285.824z M245.209,212.539l27.946-7.768l8.53,21.303
			l-46.895,13.051L245.209,212.539z M233.259,243.032l49.68-13.826l8.526,21.293l-68.616,19.099L233.259,243.032z M221.318,273.504
			l71.401-19.874l8.535,21.314l-90.35,25.134L221.318,273.504z M260.57,173.34l11.332,28.3l-25.162,6.993L260.57,173.34z
			 M209.374,303.985l93.134-25.909l8.528,21.297L198.96,330.56L209.374,303.985z M125.924,354.364l256.263-71.308v50.343
			l-256.263,71.308V354.364z M125.924,436.767l256.263-71.308v50.343L125.924,487.11V436.767z M117.287,477.624l-10.576-20.857
			l15.859-4.415v39.171l1.625-0.452l18.024,6.159l-35.28,9.815L117.287,477.624z M146.207,495.049l-16.297-5.569l16.297-4.535
			V495.049z M372.065,364.794l-149.259,41.533l-86.737-0.964l149.25-41.53L372.065,364.794z M378.113,338.014l-12.318,12.214v-8.786
			L378.113,338.014z M405.291,341.057l-35.422,9.853l14.865-14.74l0.807-0.224v-1.273v-38.456l19.521-5.437l-10.347,29.415
			L405.291,341.057z"/>
		<rect x="312.339" y="111.218" style="fill:#006C46;" width="32.416" height="3.354"/>
		<rect x="362.641" y="111.218" style="fill:#006C46;" width="10.809" height="3.354"/>
		<rect x="147.658" y="111.218" style="fill:#006C46;" width="10.809" height="3.354"/>
		<rect x="176.351" y="111.218" style="fill:#006C46;" width="32.415" height="3.354"/>
		<path style="fill:#006C46;" d="M240.777,112.899l-14.476,19.774l24.363-2.648l9.89,22.428l9.887-22.429l24.365,2.65
			l-14.476-19.776l14.475-19.777l-24.365,2.649l-9.886-22.425l-9.89,22.425l-24.361-2.649L240.777,112.899z M252.742,99.371
			l7.81-17.713l7.809,17.712l19.247-2.092l-11.435,15.62l0.725,0.991l10.71,14.63l-19.246-2.093l-7.81,17.713l-7.811-17.713
			l-19.243,2.093l11.434-15.62l-11.434-15.62L252.742,99.371z"/>
		<polygon style="fill:#006C46;" points="262.23,28.694 262.23,10.809 262.23,0 258.877,0 258.876,10.809 258.876,28.694 
			258.876,61.109 262.23,61.109 		"/>
		<polygon style="fill:#006C46;" points="334.327,72.241 349.819,63.298 359.163,57.9 357.486,54.996 357.485,54.995 
			348.142,60.394 332.65,69.336 304.571,85.545 306.247,88.45 		"/>
		<polygon style="fill:#006C46;" points="172.964,165.396 188.456,156.454 216.534,140.247 214.858,137.343 214.857,137.342 
			186.779,153.55 171.287,162.492 161.941,167.891 163.619,170.796 		"/>
		
			<rect x="292.885" y="155.579" transform="matrix(0.866 -0.5 0.5 0.866 -46.4346 170.3086)" style="fill:#006C46;" width="3.353" height="32.435"/>
		
			<rect x="312.629" y="200.602" transform="matrix(0.8664 -0.4994 0.4994 0.8664 -60.8738 184.4932)" style="fill:#006C46;" width="3.354" height="10.786"/>
		
			<rect x="205.127" y="14.4" transform="matrix(0.8659 -0.5002 0.5002 0.8659 17.8323 106.1059)" style="fill:#006C46;" width="3.354" height="10.792"/>
		
			<rect x="224.873" y="37.79" transform="matrix(0.8661 -0.4999 0.4999 0.8661 3.346 120.4888)" style="fill:#006C46;" width="3.353" height="32.42"/>
		
			<rect x="278.346" y="52.323" transform="matrix(0.5 -0.866 0.866 0.5 100.5217 282.1002)" style="fill:#006C46;" width="32.42" height="3.353"/>
		
			<rect x="308.905" y="18.119" transform="matrix(0.5003 -0.8658 0.8658 0.5003 139.9081 282.0247)" style="fill:#006C46;" width="10.792" height="3.354"/>
		
			<rect x="201.406" y="204.319" transform="matrix(0.4996 -0.8663 0.8663 0.4996 -74.9626 282.2202)" style="fill:#006C46;" width="10.787" height="3.353"/>
		
			<rect x="210.327" y="170.12" transform="matrix(0.5 -0.866 0.866 0.5 -35.5068 282.0944)" style="fill:#006C46;" width="32.435" height="3.353"/>
		<polygon style="fill:#006C46;" points="304.572,140.247 304.571,140.247 304.572,140.247 		"/>
		<polygon style="fill:#006C46;" points="348.143,165.396 357.485,170.795 359.163,167.892 349.82,162.492 334.327,153.55 
			306.247,137.342 304.572,140.247 332.65,156.454 		"/>
		<polygon style="fill:#006C46;" points="186.779,72.241 214.857,88.449 216.534,85.545 216.534,85.545 188.456,69.336 
			172.964,60.394 163.619,54.995 161.942,57.9 171.286,63.298 		"/>
	</g>
	<g>
		<path style="fill:#006C46;" d="M213.512,343.873l-9.036,23.341c-0.349,0.905-0.808,2.26-1.382,4.062l-0.124,0.036
			c-0.215-0.728-0.684-1.783-1.404-3.167l-9.329-18.075l-4.586,1.336l0.346,29.715l3.345-0.974l-0.231-19.893
			c-0.031-2.694-0.109-4.618-0.233-5.775l0.084-0.024c0.32,1.279,0.627,2.208,0.924,2.787l10.362,19.729l1.695-0.493l9.854-25.784
			c0.255-0.657,0.542-1.703,0.856-3.14l0.082-0.024c-0.165,2.335-0.239,4.291-0.222,5.865l0.231,19.935l3.45-1.004l-0.344-29.716
			L213.512,343.873z"/>
		<polygon style="fill:#006C46;" points="229.414,365.896 229.293,355.494 239.993,352.378 239.956,349.248 229.256,352.365 
			229.142,342.48 240.709,339.111 240.672,335.961 225.636,340.341 225.98,370.057 241.68,365.484 241.643,362.334 		"/>
		<path style="fill:#006C46;" d="M261.848,348.933c-0.329-0.396-0.66-0.74-0.996-1.031c-0.334-0.29-0.686-0.524-1.054-0.701
			c-0.368-0.177-0.802-0.304-1.3-0.381l-0.002-0.083c1.003-0.554,1.904-1.188,2.704-1.9c0.798-0.711,1.481-1.488,2.045-2.331
			c0.564-0.844,0.995-1.742,1.295-2.696c0.301-0.953,0.444-1.948,0.431-2.984c-0.014-1.326-0.254-2.417-0.72-3.273
			c-0.468-0.855-1.107-1.497-1.92-1.926c-0.813-0.429-1.769-0.645-2.866-0.652c-1.099-0.006-2.296,0.18-3.591,0.558l-8.84,2.575
			l0.345,29.715l3.469-1.011l-0.146-12.64l2.852-0.831c0.646-0.188,1.229-0.278,1.747-0.27c0.519,0.008,1.004,0.121,1.456,0.335
			c0.451,0.214,0.893,0.533,1.327,0.954c0.434,0.422,0.88,0.953,1.345,1.594l5.053,6.886l4.131-1.203l-5.659-7.312
			C262.547,349.793,262.177,349.329,261.848,348.933z M257.778,344.557c-0.734,0.477-1.534,0.841-2.402,1.094l-4.711,1.371
			l-0.124-10.775l4.751-1.383c1.941-0.566,3.429-0.552,4.465,0.039c1.036,0.593,1.565,1.683,1.583,3.272
			c0.011,0.884-0.132,1.726-0.426,2.526c-0.296,0.799-0.709,1.523-1.24,2.17C259.142,343.518,258.511,344.079,257.778,344.557z"/>
		<path style="fill:#006C46;" d="M287.151,341.562c-0.329-0.396-0.662-0.739-0.996-1.03c-0.336-0.291-0.688-0.525-1.056-0.702
			c-0.366-0.176-0.8-0.303-1.3-0.38v-0.083c1.001-0.554,1.902-1.188,2.703-1.899c0.8-0.711,1.483-1.489,2.047-2.332
			c0.562-0.843,0.993-1.742,1.295-2.695c0.3-0.954,0.442-1.948,0.431-2.985c-0.016-1.326-0.255-2.417-0.721-3.273
			c-0.466-0.855-1.105-1.497-1.918-1.926c-0.813-0.429-1.771-0.646-2.868-0.651c-1.099-0.006-2.296,0.181-3.59,0.558l-8.84,2.575
			l0.344,29.715l3.471-1.011l-0.146-12.64l2.85-0.831c0.646-0.188,1.231-0.278,1.748-0.27c0.519,0.009,1.003,0.12,1.454,0.335
			c0.453,0.215,0.893,0.534,1.327,0.955c0.434,0.421,0.882,0.953,1.346,1.593l5.053,6.887l4.131-1.203l-5.661-7.312
			C287.848,342.423,287.48,341.959,287.151,341.562z M283.079,337.186c-0.734,0.477-1.534,0.842-2.401,1.094l-4.711,1.372
			l-0.125-10.775l4.751-1.384c1.941-0.566,3.431-0.552,4.467,0.04c1.036,0.592,1.565,1.682,1.583,3.271
			c0.011,0.884-0.132,1.726-0.427,2.527c-0.294,0.799-0.707,1.523-1.239,2.169C284.445,336.148,283.814,336.709,283.079,337.186z"/>
		<path style="fill:#006C46;" d="M313.213,314.832l-6.784,15.449c-0.378,0.858-0.631,1.543-0.763,2.053l-0.063,0.018
			c-0.411-0.934-0.659-1.471-0.744-1.613l-6.785-11.496l-3.946,1.149l9.74,16.042l0.127,10.9l3.471-1.011l-0.129-10.982
			l9.554-21.579L313.213,314.832z"/>
		<path style="fill:#006C46;" d="M174.733,439.785c-3.647,1.016-6.657,3.071-9.032,6.164c-2.375,3.094-3.561,6.613-3.561,10.559
			c0,3.67,1.054,6.341,3.164,8.012c2.111,1.672,4.922,2.017,8.431,1.04c2.719-0.758,4.991-1.873,6.813-3.344v-2.804
			c-1.812,1.606-3.956,2.754-6.433,3.445c-2.674,0.746-4.832,0.456-6.479-0.869c-1.645-1.326-2.468-3.49-2.468-6.495
			c0-3.165,0.881-5.94,2.642-8.324c1.759-2.383,4.055-3.969,6.89-4.758c2.134-0.595,4.083-0.645,5.849-0.151v-3.079
			C179.011,438.931,177.074,439.132,174.733,439.785z"/>
		<polygon style="fill:#006C46;" points="201.226,443.634 188.461,447.193 188.461,436.371 185.572,437.177 185.572,461.848 
			188.461,461.043 188.461,449.79 201.226,446.232 201.226,457.484 204.119,456.679 204.119,432.008 201.226,432.814 		"/>
		<path style="fill:#006C46;" d="M222.741,442.653c-0.27-0.332-0.541-0.62-0.816-0.864c-0.276-0.245-0.566-0.442-0.869-0.593
			c-0.304-0.15-0.662-0.259-1.075-0.329v-0.068c0.835-0.451,1.591-0.968,2.262-1.551c0.67-0.583,1.244-1.222,1.721-1.917
			c0.476-0.694,0.842-1.436,1.101-2.225c0.259-0.789,0.386-1.613,0.386-2.474c0-1.101-0.188-2.009-0.567-2.724
			c-0.379-0.714-0.903-1.253-1.573-1.617c-0.672-0.364-1.464-0.553-2.375-0.569c-0.913-0.015-1.907,0.128-2.985,0.428l-7.364,2.052
			v24.672l2.89-0.806v-10.495l2.375-0.662c0.538-0.15,1.023-0.219,1.452-0.207c0.431,0.012,0.832,0.109,1.205,0.292
			c0.373,0.183,0.736,0.452,1.093,0.806c0.357,0.354,0.723,0.799,1.101,1.336l4.131,5.765l3.44-0.959l-4.629-6.125
			C223.311,443.375,223.011,442.986,222.741,442.653z M219.404,438.981c-0.614,0.39-1.281,0.685-2.004,0.886l-3.924,1.093v-8.946
			l3.958-1.103c1.618-0.451,2.854-0.425,3.707,0.076c0.855,0.501,1.282,1.411,1.282,2.731c0,0.734-0.127,1.432-0.378,2.093
			c-0.254,0.661-0.603,1.257-1.049,1.789C220.548,438.132,220.017,438.592,219.404,438.981z"/>
		<polygon style="fill:#006C46;" points="229.253,427.479 231.662,426.808 231.662,446.524 229.253,447.195 229.253,449.672 
			236.961,447.524 236.961,445.047 234.552,445.718 234.552,426.002 236.961,425.331 236.961,422.853 229.253,425.001 		"/>
		<path style="fill:#006C46;" d="M252.892,432.469c-0.596-0.419-1.29-0.759-2.081-1.02c-0.792-0.261-1.629-0.486-2.513-0.676
			c-0.86-0.185-1.62-0.363-2.28-0.535c-0.659-0.171-1.218-0.383-1.677-0.633c-0.458-0.251-0.805-0.573-1.04-0.966
			c-0.236-0.392-0.354-0.905-0.354-1.536c0-0.676,0.154-1.293,0.464-1.849c0.31-0.557,0.712-1.052,1.205-1.489
			c0.493-0.435,1.054-0.807,1.686-1.115c0.63-0.307,1.261-0.549,1.893-0.725c2.282-0.636,4.152-0.652,5.609-0.05v-3.252
			c-1.114-0.274-2.886-0.073-5.317,0.605c-1.067,0.297-2.115,0.721-3.14,1.271c-1.027,0.549-1.943,1.207-2.744,1.968
			c-0.803,0.763-1.451,1.63-1.944,2.598c-0.493,0.97-0.739,2.016-0.739,3.14c0,0.917,0.157,1.674,0.472,2.269
			c0.315,0.594,0.749,1.084,1.298,1.47c0.551,0.385,1.199,0.697,1.946,0.938c0.744,0.24,1.547,0.457,2.407,0.653
			c0.815,0.186,1.575,0.367,2.28,0.543c0.707,0.176,1.316,0.396,1.833,0.659c0.516,0.264,0.921,0.601,1.212,1.013
			c0.292,0.412,0.44,0.95,0.44,1.616c0,1.239-0.44,2.31-1.318,3.214c-0.877,0.904-2.204,1.604-3.982,2.099
			c-0.517,0.144-1.08,0.249-1.687,0.316c-0.607,0.066-1.212,0.088-1.814,0.067c-0.603-0.021-1.176-0.093-1.721-0.217
			c-0.545-0.124-1.012-0.303-1.403-0.538v3.407c0.321,0.129,0.749,0.207,1.282,0.235c0.534,0.03,1.097,0.021,1.693-0.025
			c0.596-0.046,1.181-0.117,1.756-0.214c0.572-0.096,1.054-0.199,1.445-0.308c1.17-0.326,2.283-0.754,3.339-1.284
			c1.054-0.529,1.986-1.17,2.796-1.923c0.808-0.753,1.449-1.618,1.926-2.593c0.476-0.976,0.713-2.071,0.713-3.287
			c0-0.918-0.175-1.682-0.524-2.297C253.96,433.404,253.488,432.887,252.892,432.469z"/>
		<polygon style="fill:#006C46;" points="257.227,419.819 264.333,417.839 264.333,439.894 267.222,439.089 267.222,417.034 
			274.345,415.047 274.345,412.432 257.227,417.204 		"/>
		<path style="fill:#006C46;" d="M292.032,424.639c-0.3,0.748-0.696,1.868-1.187,3.359l-0.105,0.029
			c-0.172-0.606-0.551-1.487-1.134-2.643l-7.57-15.095l-3.821,1.065v24.67l2.788-0.776v-16.517c0-2.237-0.047-3.835-0.138-4.796
			l0.069-0.018c0.252,1.064,0.5,1.838,0.741,2.322l8.413,16.477l1.409-0.393l8.431-21.309c0.218-0.543,0.466-1.409,0.741-2.598
			l0.069-0.019c-0.162,1.937-0.241,3.56-0.241,4.868v16.55l2.873-0.8v-24.672l-3.614,1.008L292.032,424.639z"/>
		<path style="fill:#006C46;" d="M316.461,400.694l-9.462,27.308l3.217-0.897l2.46-7.602l10.46-2.916l2.616,6.188l3.201-0.892
			l-9.498-22.024L316.461,400.694z M313.64,416.637l3.837-11.581c0.149-0.444,0.281-1.03,0.395-1.762l0.069-0.019
			c0.127,0.721,0.252,1.237,0.379,1.546l3.869,9.433L313.64,416.637z"/>
		<path style="fill:#006C46;" d="M344.437,406.953c-0.598-0.419-1.292-0.759-2.082-1.02c-0.792-0.261-1.628-0.486-2.511-0.677
			c-0.861-0.184-1.621-0.362-2.28-0.534c-0.66-0.171-1.218-0.382-1.677-0.633c-0.46-0.251-0.807-0.572-1.041-0.966
			c-0.234-0.393-0.352-0.905-0.352-1.536c0-0.676,0.154-1.293,0.464-1.849c0.309-0.557,0.71-1.053,1.205-1.489
			c0.492-0.436,1.054-0.807,1.686-1.115c0.63-0.307,1.261-0.549,1.891-0.725c2.283-0.636,4.152-0.653,5.609-0.05v-3.252
			c-1.113-0.275-2.884-0.073-5.315,0.605c-1.067,0.297-2.115,0.721-3.141,1.271c-1.027,0.549-1.941,1.207-2.744,1.969
			c-0.802,0.763-1.451,1.629-1.943,2.597c-0.493,0.97-0.741,2.016-0.741,3.14c0,0.918,0.159,1.674,0.472,2.269
			c0.316,0.595,0.749,1.085,1.3,1.47c0.549,0.385,1.199,0.698,1.944,0.938c0.746,0.239,1.549,0.457,2.409,0.653
			c0.813,0.186,1.575,0.367,2.28,0.543c0.705,0.176,1.314,0.396,1.832,0.659c0.516,0.264,0.921,0.602,1.213,1.013
			c0.292,0.411,0.439,0.95,0.439,1.615c0,1.239-0.439,2.311-1.316,3.214c-0.877,0.905-2.206,1.604-3.983,2.099
			c-0.516,0.145-1.078,0.249-1.686,0.315c-0.609,0.067-1.213,0.089-1.816,0.068c-0.601-0.021-1.174-0.093-1.719-0.217
			c-0.545-0.124-1.014-0.303-1.403-0.538v3.406c0.32,0.129,0.747,0.207,1.282,0.236c0.532,0.03,1.097,0.021,1.694-0.025
			s1.181-0.116,1.756-0.214c0.572-0.097,1.054-0.199,1.445-0.308c1.17-0.327,2.282-0.754,3.337-1.284
			c1.054-0.529,1.988-1.171,2.796-1.922c0.81-0.754,1.451-1.618,1.928-2.594c0.476-0.975,0.712-2.07,0.712-3.287
			c0-0.918-0.174-1.683-0.524-2.297C345.505,407.887,345.031,407.371,344.437,406.953z"/>
	</g>
</g>
</svg>
