<?xml version="1.0" encoding="iso-8859-1"?>
<!-- Generator: Adobe Illustrator 15.1.0, SVG Export Plug-In . SVG Version: 6.00 Build 0)  -->
<!DOCTYPE svg PUBLIC "-//W3C//DTD SVG 1.1//EN" "http://www.w3.org/Graphics/SVG/1.1/DTD/svg11.dtd">
<svg version="1.1" id="_x31_" xmlns="http://www.w3.org/2000/svg" xmlns:xlink="http://www.w3.org/1999/xlink" x="0px" y="0px"
	 width="512px" height="512px" viewBox="0 0 512 512" style="enable-background:new 0 0 512 512;" xml:space="preserve">
<g>
	<path style="fill:#C9CACA;" d="M276.123,8.333C270.99,3.193,263.848-0.002,256.005,0c-7.844-0.002-14.985,3.193-20.119,8.333
		c-5.141,5.134-8.335,12.277-8.333,20.121c-0.002,7.842,3.192,14.983,8.333,20.116c5.134,5.142,12.275,8.337,20.119,8.335
		c7.842,0.002,14.985-3.193,20.118-8.335c5.142-5.132,8.337-12.274,8.333-20.116C284.46,20.611,281.265,13.467,276.123,8.333z
		 M269.302,41.749c-3.419,3.411-8.089,5.506-13.296,5.508c-5.208-0.002-9.878-2.097-13.297-5.508
		c-3.411-3.417-5.506-8.088-5.508-13.295c0.002-5.21,2.097-9.882,5.508-13.3c3.419-3.409,8.089-5.504,13.297-5.508
		c5.208,0.004,9.877,2.099,13.296,5.508c3.411,3.418,5.507,8.09,5.509,13.3C274.809,33.661,272.713,38.333,269.302,41.749z"/>
	<path style="fill:#E8384A;" d="M451.088,316.908c0,40.13-12.117,77.427-32.886,108.438c-2.946,4.393-6.059,8.654-9.339,12.785
		C373.125,483.139,317.938,512,256.003,512c-61.932,0-117.119-28.851-152.857-73.857c-3.28-4.131-6.401-8.403-9.348-12.796
		c-20.768-31.012-32.887-68.309-32.887-108.438c0-75.307,42.673-140.651,105.158-173.17c11.094-5.771,19.416-8.147,29.521-15.883
		c17.688-13.54,7.979-33.957,14.575-41.463c8.971-10.2,31.703-9.445,45.838-9.445c14.139,0,36.87-0.755,45.84,9.445
		c6.596,7.506-3.112,27.923,14.566,41.463c10.112,7.735,18.436,10.111,29.53,15.883
		C408.424,176.257,451.088,241.602,451.088,316.908z"/>
	<path style="fill:#B92C42;" d="M256.003,512c61.934,0,117.122-28.861,152.86-73.868c3.28-4.131,6.393-8.393,9.339-12.785
		c20.769-31.012,32.886-68.309,32.886-108.438c0-46.295-16.125-88.818-43.065-122.271L133.731,468.93
		C167.182,495.873,209.707,512,256.003,512z"/>
	<g>
		<g>
			<path style="fill:#F5F5F5;" d="M256.003,307.154c1.324,0,3.246-0.24,4.328-2.283c0.948-1.787-0.353-4.736-0.481-7.214
				c-0.359-6.849,3.727-11.178,14.545-12.501c4.471-0.545,5.912-4.631,4.568-7.209c-1.443-2.764-6.004-2.705-9.257-0.242
				c-3.967,3.005-6.582,3.593-8.174,0.481c-1.843-3.606-0.4-8.333,4.207-10.585c3.44-1.68,8.534-0.714,12.621-2.877
				c3.043-1.612,4.208-6.128,2.046-9.375c-2.037-3.053-7.093-4.688-10.939-0.601c-2.041,2.168-3.606,5.047-6.731,3.244
				c-4.563-2.634-0.041-7.254-0.239-11.538c-0.15-3.152-1.444-6.491-6.493-6.491c-5.047,0-6.343,3.339-6.49,6.491
				c-0.199,4.284,4.324,8.904-0.239,11.538c-3.126,1.803-4.691-1.076-6.732-3.244c-3.844-4.088-8.901-2.452-10.937,0.601
				c-2.164,3.247-0.998,7.763,2.042,9.375c4.088,2.163,9.181,1.197,12.622,2.877c4.608,2.252,6.048,6.979,4.209,10.585
				c-1.594,3.111-4.209,2.523-8.176-0.481c-3.252-2.463-7.813-2.521-9.255,0.242c-1.347,2.578,0.096,6.664,4.566,7.209
				c10.818,1.323,14.904,5.652,14.544,12.501c-0.13,2.478-1.425,5.427-0.479,7.214C252.759,306.914,254.682,307.154,256.003,307.154
				z"/>
			<path style="fill:#F5F5F5;" d="M256.003,341.63c-1.321,0-3.244,0.239-4.325,2.283c-0.945,1.788,0.35,4.739,0.479,7.212
				c0.36,6.851-3.726,11.18-14.544,12.503c-4.471,0.545-5.913,4.633-4.566,7.211c1.441,2.765,6.003,2.706,9.255,0.241
				c3.967-3.008,6.582-3.592,8.176-0.481c1.839,3.605,0.399,8.334-4.209,10.586c-3.441,1.678-8.534,0.712-12.622,2.876
				c-3.04,1.609-4.206,6.132-2.042,9.374c2.035,3.053,7.093,4.69,10.937,0.603c2.041-2.168,3.606-5.049,6.732-3.246
				c4.563,2.633,0.04,7.254,0.239,11.538c0.147,3.152,1.443,6.49,6.49,6.49c5.048,0,6.342-3.338,6.493-6.49
				c0.198-4.284-4.324-8.905,0.239-11.538c3.125-1.803,4.69,1.078,6.731,3.246c3.847,4.088,8.902,2.45,10.939-0.603
				c2.162-3.242,0.997-7.765-2.046-9.374c-4.087-2.164-9.181-1.198-12.621-2.876c-4.607-2.252-6.05-6.98-4.207-10.586
				c1.592-3.11,4.207-2.526,8.174,0.481c3.253,2.465,7.813,2.523,9.257-0.241c1.344-2.578-0.098-6.666-4.568-7.211
				c-10.818-1.323-14.904-5.652-14.545-12.503c0.129-2.473,1.43-5.424,0.481-7.212C259.249,341.869,257.327,341.63,256.003,341.63z"
				/>
			<path style="fill:#F5F5F5;" d="M241.077,315.773c0.661-1.147,1.414-2.932,0.185-4.891c-1.072-1.711-4.277-2.063-6.486-3.188
				c-6.114-3.113-7.816-8.813-3.554-18.845c1.762-4.146-1.055-7.437-3.961-7.561c-3.115-0.135-5.344,3.846-4.836,7.895
				c0.618,4.937-0.181,7.495-3.67,7.318c-4.045-0.206-7.417-3.82-7.063-8.934c0.265-3.822,3.647-7.75,3.818-12.372
				c0.126-3.439-3.205-6.705-7.098-6.454c-3.663,0.234-7.605,3.796-5.989,9.169c0.855,2.851,2.567,5.647-0.557,7.453
				c-4.562,2.637-6.3-3.591-10.112-5.56c-2.804-1.449-6.343-1.998-8.866,2.376c-2.525,4.37-0.28,7.161,2.376,8.864
				c3.611,2.315,9.875,0.71,9.871,5.98c0,3.604-3.278,3.521-6.174,4.205c-5.464,1.285-6.576,6.483-4.949,9.773
				c1.729,3.494,6.226,4.746,9.142,2.916c3.915-2.458,5.627-7.352,8.802-9.491c4.253-2.864,9.069-1.749,11.269,1.649
				c1.898,2.934,0.084,4.904-4.501,6.838c-3.761,1.584-6.095,5.503-4.422,8.133c1.563,2.458,5.821,3.252,8.531-0.348
				c6.554-8.706,12.345-10.081,18.098-6.345c2.078,1.352,3.985,3.949,6.004,4.021C239.245,318.466,240.415,316.919,241.077,315.773z
				"/>
			<path style="fill:#F5F5F5;" d="M270.932,333.013c-0.659,1.144-1.413,2.93-0.186,4.89c1.076,1.71,4.279,2.063,6.488,3.189
				c6.111,3.111,7.817,8.814,3.553,18.844c-1.764,4.145,1.055,7.438,3.962,7.563c3.115,0.131,5.343-3.849,4.836-7.896
				c-0.62-4.938,0.18-7.499,3.669-7.321c4.047,0.206,7.419,3.819,7.063,8.936c-0.265,3.821-3.647,7.748-3.817,12.37
				c-0.126,3.441,3.206,6.707,7.097,6.458c3.662-0.236,7.606-3.8,5.99-9.172c-0.855-2.852-2.568-5.648,0.557-7.452
				c4.56-2.638,6.299,3.59,10.111,5.562c2.805,1.447,6.344,1.994,8.867-2.378c2.525-4.372,0.281-7.163-2.377-8.866
				c-3.611-2.315-9.873-0.709-9.873-5.978c0.004-3.606,3.281-3.522,6.177-4.206c5.464-1.288,6.575-6.485,4.948-9.772
				c-1.728-3.496-6.224-4.746-9.14-2.919c-3.917,2.458-5.628,7.354-8.804,9.489c-4.255,2.868-9.067,1.753-11.271-1.646
				c-1.897-2.934-0.08-4.905,4.505-6.839c3.758-1.586,6.091-5.503,4.419-8.136c-1.562-2.454-5.82-3.252-8.529,0.35
				c-6.554,8.706-12.343,10.082-18.096,6.345c-2.079-1.348-3.986-3.947-6.007-4.022
				C272.764,330.322,271.594,331.865,270.932,333.013z"/>
			<path style="fill:#F5F5F5;" d="M241.077,333.013c-0.662-1.146-1.832-2.69-4.143-2.607c-2.019,0.076-3.926,2.675-6.004,4.022
				c-5.753,3.737-11.544,2.361-18.098-6.345c-2.71-3.602-6.968-2.804-8.531-0.349c-1.673,2.632,0.661,6.549,4.422,8.135
				c4.585,1.934,6.399,3.905,4.501,6.839c-2.199,3.398-7.016,4.514-11.269,1.647c-3.175-2.138-4.887-7.033-8.802-9.491
				c-2.916-1.827-7.412-0.577-9.142,2.919c-1.627,3.287-0.515,8.484,4.949,9.772c2.896,0.684,6.174,0.6,6.174,4.206
				c0.004,5.269-6.26,3.662-9.871,5.978c-2.656,1.703-4.901,4.494-2.376,8.866c2.523,4.372,6.064,3.825,8.866,2.378
				c3.813-1.972,5.551-8.199,10.112-5.562c3.124,1.804,1.412,4.601,0.557,7.452c-1.616,5.372,2.326,8.936,5.989,9.172
				c3.893,0.249,7.224-3.017,7.098-6.458c-0.171-4.622-3.554-8.549-3.818-12.368c-0.354-5.118,3.018-8.731,7.063-8.938
				c3.489-0.178,4.288,2.383,3.67,7.321c-0.508,4.047,1.721,8.026,4.836,7.896c2.906-0.125,5.723-3.419,3.961-7.563
				c-4.263-10.029-2.561-15.732,3.554-18.844c2.209-1.126,5.414-1.479,6.486-3.189C242.491,335.942,241.738,334.156,241.077,333.013
				z"/>
			<path style="fill:#F5F5F5;" d="M270.932,315.773c0.662,1.146,1.832,2.692,4.143,2.604c2.021-0.071,3.928-2.669,6.007-4.021
				c5.753-3.736,11.542-2.36,18.096,6.345c2.709,3.6,6.968,2.806,8.529,0.348c1.672-2.63-0.661-6.549-4.419-8.133
				c-4.585-1.934-6.402-3.904-4.505-6.838c2.203-3.398,7.016-4.514,11.271-1.649c3.176,2.14,4.887,7.033,8.804,9.491
				c2.916,1.83,7.412,0.578,9.14-2.916c1.627-3.29,0.516-8.488-4.948-9.773c-2.896-0.684-6.173-0.601-6.177-4.205
				c0-5.271,6.262-3.665,9.873-5.98c2.658-1.703,4.902-4.494,2.377-8.864c-2.523-4.374-6.063-3.825-8.867-2.376
				c-3.813,1.969-5.552,8.196-10.111,5.56c-3.125-1.806-1.412-4.603-0.557-7.453c1.616-5.373-2.328-8.935-5.99-9.169
				c-3.891-0.251-7.223,3.015-7.097,6.454c0.17,4.622,3.553,8.55,3.817,12.372c0.356,5.113-3.016,8.728-7.063,8.934
				c-3.489,0.179-4.289-2.382-3.669-7.318c0.507-4.049-1.721-8.029-4.836-7.895c-2.907,0.124-5.726,3.415-3.962,7.561
				c4.265,10.031,2.559,15.731-3.553,18.845c-2.209,1.126-5.412,1.478-6.488,3.188C269.519,312.842,270.272,314.63,270.932,315.773z
				"/>
		</g>
		<circle style="fill:#F5F5F5;" cx="256.005" cy="324.393" r="8.292"/>
	</g>
	<path style="fill:#DCDDDD;" d="M256.003,45.158c-40.039,0-58.757,1.481-58.757,13.579c0,7.653,0,38.512,0,38.512
		c0,7.64,6.188,13.828,13.826,13.828c4.596,0,8.656-2.254,11.171-5.702c2.513,3.448,6.573,5.702,11.171,5.702
		s8.657-2.254,11.171-5.702c2.515,3.448,6.822,5.702,11.418,5.702c4.598,0,8.905-2.254,11.419-5.702
		c2.513,3.448,6.575,5.702,11.171,5.702c4.598,0,8.658-2.254,11.171-5.702c2.515,3.448,6.576,5.702,11.173,5.702
		c7.636,0,13.824-6.188,13.824-13.828c0,0,0-30.858,0-38.512C314.762,46.64,296.044,45.158,256.003,45.158z"/>
	<path style="fill:#00913A;" d="M256.003,71.175"/>
	<g>
		<path style="fill:#F5F5F5;" d="M386.061,179.792c-3.148,0-5.7,2.552-5.7,5.7c0,3.146,2.552,5.7,5.7,5.7c3.149,0,5.7-2.554,5.7-5.7
			C391.761,182.344,389.21,179.792,386.061,179.792z M364.39,179.792c-3.147,0-5.7,2.552-5.7,5.7c0,3.146,2.553,5.7,5.7,5.7
			c3.149,0,5.702-2.554,5.702-5.7C370.092,182.344,367.539,179.792,364.39,179.792z M342.713,179.792
			c-3.148,0-5.701,2.552-5.701,5.7c0,3.146,2.553,5.7,5.701,5.7c3.147,0,5.699-2.554,5.699-5.7
			C348.412,182.344,345.86,179.792,342.713,179.792z M321.035,179.792c-3.15,0-5.7,2.552-5.7,5.7c0,3.146,2.55,5.7,5.7,5.7
			c3.146,0,5.699-2.554,5.699-5.7C326.734,182.344,324.182,179.792,321.035,179.792z M299.354,179.792c-3.147,0-5.7,2.552-5.7,5.7
			c0,3.146,2.553,5.7,5.7,5.7c3.148,0,5.701-2.554,5.701-5.7C305.055,182.344,302.502,179.792,299.354,179.792z M277.684,179.792
			c-3.148,0-5.701,2.552-5.701,5.7c0,3.146,2.553,5.7,5.701,5.7c3.147,0,5.702-2.554,5.702-5.7
			C283.386,182.344,280.831,179.792,277.684,179.792z M256.003,179.792c-3.146,0-5.7,2.552-5.7,5.7c0,3.146,2.554,5.7,5.7,5.7
			c3.151,0,5.7-2.554,5.7-5.7C261.703,182.344,259.154,179.792,256.003,179.792z M234.326,179.792c-3.148,0-5.7,2.552-5.7,5.7
			c0,3.146,2.552,5.7,5.7,5.7s5.7-2.554,5.7-5.7C240.026,182.344,237.474,179.792,234.326,179.792z M212.655,179.792
			c-3.148,0-5.7,2.552-5.7,5.7c0,3.146,2.552,5.7,5.7,5.7c3.15,0,5.702-2.554,5.702-5.7
			C218.357,182.344,215.805,179.792,212.655,179.792z M190.976,179.792c-3.147,0-5.699,2.552-5.699,5.7c0,3.146,2.552,5.7,5.699,5.7
			c3.148,0,5.7-2.554,5.7-5.7C196.676,182.344,194.125,179.792,190.976,179.792z M169.296,179.792c-3.148,0-5.699,2.552-5.699,5.7
			c0,3.146,2.551,5.7,5.699,5.7s5.702-2.554,5.702-5.7C174.999,182.344,172.445,179.792,169.296,179.792z M147.617,179.792
			c-3.146,0-5.7,2.552-5.7,5.7c0,3.146,2.554,5.7,5.7,5.7c3.15,0,5.702-2.554,5.702-5.7
			C153.319,182.344,150.767,179.792,147.617,179.792z M125.948,179.792c-3.148,0-5.7,2.552-5.7,5.7c0,3.146,2.552,5.7,5.7,5.7
			s5.7-2.554,5.7-5.7C131.648,182.344,129.096,179.792,125.948,179.792z"/>
		<path style="fill:#F5F5F5;" d="M415.623,215.756c-4.602,0-8.329,3.728-8.329,8.332c0,4.596,3.728,8.331,8.329,8.331
			c4.596,0,8.333-3.735,8.333-8.331C423.956,219.483,420.219,215.756,415.623,215.756z M380.15,215.756
			c-4.594,0-8.332,3.728-8.332,8.332c0,4.596,3.738,8.331,8.332,8.331c4.604,0,8.331-3.735,8.331-8.331
			C388.481,219.483,384.754,215.756,380.15,215.756z M344.686,215.756c-4.604,0-8.332,3.728-8.332,8.332
			c0,4.596,3.728,8.331,8.332,8.331c4.596,0,8.332-3.735,8.332-8.331C353.018,219.483,349.281,215.756,344.686,215.756z
			 M309.211,215.756c-4.604,0-8.332,3.728-8.332,8.332c0,4.596,3.728,8.331,8.332,8.331s8.333-3.735,8.333-8.331
			C317.544,219.483,313.815,215.756,309.211,215.756z M273.738,215.756c-4.596,0-8.332,3.728-8.332,8.332
			c0,4.596,3.736,8.331,8.332,8.331c4.604,0,8.331-3.735,8.331-8.331C282.069,219.483,278.342,215.756,273.738,215.756z
			 M238.271,215.756c-4.603,0-8.33,3.728-8.33,8.332c0,4.596,3.728,8.331,8.33,8.331c4.596,0,8.332-3.735,8.332-8.331
			C246.603,219.483,242.867,215.756,238.271,215.756z M202.797,215.756c-4.604,0-8.331,3.728-8.331,8.332
			c0,4.596,3.727,8.331,8.331,8.331s8.332-3.735,8.332-8.331C211.129,219.483,207.402,215.756,202.797,215.756z M167.324,215.756
			c-4.596,0-8.331,3.728-8.331,8.332c0,4.596,3.735,8.331,8.331,8.331c4.604,0,8.332-3.735,8.332-8.331
			C175.656,219.483,171.928,215.756,167.324,215.756z M131.859,215.756c-4.604,0-8.331,3.728-8.331,8.332
			c0,4.596,3.727,8.331,8.331,8.331c4.596,0,8.332-3.735,8.332-8.331C140.191,219.483,136.455,215.756,131.859,215.756z
			 M96.385,215.756c-4.604,0-8.331,3.728-8.331,8.332c0,4.596,3.727,8.331,8.331,8.331s8.33-3.735,8.33-8.331
			C104.715,219.483,100.99,215.756,96.385,215.756z"/>
		<path style="fill:#F5F5F5;" d="M415.623,424.935c-4.602,0-8.329,3.728-8.329,8.331c0,1.813,0.579,3.5,1.569,4.866
			c3.28-4.131,6.393-8.393,9.339-12.785C417.396,425.074,416.527,424.935,415.623,424.935z M380.15,424.935
			c-4.594,0-8.332,3.728-8.332,8.331s3.738,8.332,8.332,8.332c4.604,0,8.331-3.729,8.331-8.332S384.754,424.935,380.15,424.935z
			 M344.686,424.935c-4.604,0-8.332,3.728-8.332,8.331s3.728,8.332,8.332,8.332c4.596,0,8.332-3.729,8.332-8.332
			S349.281,424.935,344.686,424.935z M309.211,424.935c-4.604,0-8.332,3.728-8.332,8.331s3.728,8.332,8.332,8.332
			s8.333-3.729,8.333-8.332S313.815,424.935,309.211,424.935z M273.738,424.935c-4.596,0-8.332,3.728-8.332,8.331
			s3.736,8.332,8.332,8.332c4.604,0,8.331-3.729,8.331-8.332S278.342,424.935,273.738,424.935z M238.271,424.935
			c-4.603,0-8.33,3.728-8.33,8.331s3.728,8.332,8.33,8.332c4.596,0,8.332-3.729,8.332-8.332S242.867,424.935,238.271,424.935z
			 M202.797,424.935c-4.604,0-8.331,3.728-8.331,8.331s3.727,8.332,8.331,8.332s8.332-3.729,8.332-8.332
			S207.402,424.935,202.797,424.935z M167.324,424.935c-4.596,0-8.331,3.728-8.331,8.331s3.735,8.332,8.331,8.332
			c4.604,0,8.332-3.729,8.332-8.332S171.928,424.935,167.324,424.935z M131.859,424.935c-4.604,0-8.331,3.728-8.331,8.331
			s3.727,8.332,8.331,8.332c4.596,0,8.332-3.729,8.332-8.332S136.455,424.935,131.859,424.935z M96.385,424.935
			c-0.903,0-1.771,0.14-2.587,0.412c2.946,4.393,6.067,8.665,9.348,12.796c0.99-1.369,1.569-3.063,1.569-4.877
			C104.715,428.662,100.99,424.935,96.385,424.935z"/>
		<path style="fill:#F5F5F5;" d="M364.39,463.521c-3.147,0-5.7,2.554-5.7,5.702s2.553,5.7,5.7,5.7c3.149,0,5.702-2.552,5.702-5.7
			S367.539,463.521,364.39,463.521z M342.713,463.521c-3.148,0-5.701,2.554-5.701,5.702s2.553,5.7,5.701,5.7
			c3.147,0,5.699-2.552,5.699-5.7S345.86,463.521,342.713,463.521z M321.035,463.521c-3.15,0-5.7,2.554-5.7,5.702s2.55,5.7,5.7,5.7
			c3.146,0,5.699-2.552,5.699-5.7S324.182,463.521,321.035,463.521z M299.354,463.521c-3.147,0-5.7,2.554-5.7,5.702
			s2.553,5.7,5.7,5.7c3.148,0,5.701-2.552,5.701-5.7S302.502,463.521,299.354,463.521z M277.684,463.521
			c-3.148,0-5.701,2.554-5.701,5.702s2.553,5.7,5.701,5.7c3.147,0,5.702-2.552,5.702-5.7S280.831,463.521,277.684,463.521z
			 M256.003,463.521c-3.146,0-5.7,2.554-5.7,5.702s2.554,5.7,5.7,5.7c3.151,0,5.7-2.552,5.7-5.7S259.154,463.521,256.003,463.521z
			 M234.326,463.521c-3.148,0-5.7,2.554-5.7,5.702s2.552,5.7,5.7,5.7s5.7-2.552,5.7-5.7S237.474,463.521,234.326,463.521z
			 M212.655,463.521c-3.148,0-5.7,2.554-5.7,5.702s2.552,5.7,5.7,5.7c3.15,0,5.702-2.552,5.702-5.7S215.805,463.521,212.655,463.521
			z M190.976,463.521c-3.147,0-5.699,2.554-5.699,5.702s2.552,5.7,5.699,5.7c3.148,0,5.7-2.552,5.7-5.7
			S194.125,463.521,190.976,463.521z M169.296,463.521c-3.148,0-5.699,2.554-5.699,5.702s2.551,5.7,5.699,5.7s5.702-2.552,5.702-5.7
			S172.445,463.521,169.296,463.521z M147.617,463.521c-3.146,0-5.7,2.554-5.7,5.702s2.554,5.7,5.7,5.7
			c3.15,0,5.702-2.552,5.702-5.7S150.767,463.521,147.617,463.521z"/>
	</g>
	<g>
		<polygon style="fill:#F5F5F5;" points="114.686,305.187 120.926,317.832 134.879,319.859 124.783,329.702 127.166,343.6 
			114.686,337.036 102.205,343.6 104.589,329.702 94.493,319.859 108.446,317.832 		"/>
		<polygon style="fill:#F5F5F5;" points="397.323,305.187 403.563,317.832 417.516,319.859 407.419,329.702 409.802,343.6 
			397.323,337.036 384.841,343.6 387.227,329.702 377.127,319.859 391.082,317.832 		"/>
	</g>
	<path style="fill:#C9CACA;" d="M233.415,111.077c4.598,0,8.657-2.254,11.171-5.702c2.515,3.448,6.822,5.702,11.418,5.702
		c4.598,0,8.905-2.254,11.419-5.702c2.513,3.448,6.575,5.702,11.171,5.702c4.598,0,8.658-2.254,11.171-5.702
		c2.515,3.448,6.576,5.702,11.173,5.702c7.636,0,13.824-6.188,13.824-13.828c0,0,0-30.858,0-38.512
		c0-7.215-6.658-10.652-20.522-12.25l-64.181,64.176C231.132,110.933,232.257,111.077,233.415,111.077z"/>
	<path style="fill:#DCDDDD;" d="M235.886,8.333c-5.141,5.134-8.335,12.277-8.333,20.121c-0.002,6.601,2.27,12.702,6.053,17.534
		l6.897-6.897c-2.083-3.026-3.301-6.675-3.303-10.637c0.002-5.21,2.097-9.882,5.508-13.3c3.419-3.409,8.089-5.504,13.297-5.508
		c3.963,0.002,7.61,1.222,10.637,3.305l6.897-6.897C268.709,2.27,262.607-0.002,256.005,0C248.162-0.002,241.02,3.193,235.886,8.333
		z"/>
</g>
</svg>
