<?xml version="1.0" encoding="iso-8859-1"?>
<!-- Generator: Adobe Illustrator 22.1.0, SVG Export Plug-In . SVG Version: 6.00 Build 0)  -->
<svg version="1.1" id="_x31_" xmlns="http://www.w3.org/2000/svg" xmlns:xlink="http://www.w3.org/1999/xlink" x="0px" y="0px"
	 viewBox="0 0 512 512" style="enable-background:new 0 0 512 512;" xml:space="preserve">
<g>
	<path style="fill:#FFFFFF;" d="M260.004,2.965c-7.078,1.211-11.94,24.079-16.938,26.22c-4.997,2.142-19.447,1.032-23.559,3.569
		c-4.111,2.537-4.283,4.997,0.714,10.708c4.997,5.711,14.363,18.633,14.363,18.633s-8.322,20.673-2.941,24.2
		c5.382,3.528,30.267-12.547,30.267-12.547s19.542,11.084,21.847,9.691c6.838-4.132-0.969-24.853-0.969-24.853
		s17.331-23.218,17.717-25.953c0.386-2.735-28.3-3.611-28.3-3.611L260.004,2.965z"/>
	<path style="fill:#FFFFFF;" d="M225.918,397.59c0,0,0.719,60.335-1.435,66.796c-2.154,6.465-5.03,15.087-12.929,18.675
		c-7.899,3.592-11.491,17.959,1.438,15.087c12.926-2.877,17.956-10.776,28.008-2.877c10.056,7.903,19.394,15.087,22.986,12.214
		c3.592-2.876,5.026-14.367,10.776-11.495c5.746,2.873,8.618,8.618,12.21,2.157c3.588-6.465,5.026-11.495-2.873-18.675
		c-7.903-7.184-10.776-16.521-10.776-30.885c0-14.367,0-68.953,0-68.953L225.918,397.59z"/>
	<path style="fill:#6BAC6C;" d="M249.248,102.179c-10.427,15.639-55.608,66.035-66.031,79.937
		c-10.427,13.898,12.161,13.898,12.161,13.898s8.69,1.741-1.737,10.427c-10.424,8.69-43.443,46.918-52.129,57.345
		c-8.69,10.427-3.475,20.851,10.424,19.114c13.902-1.737,26.067-3.475,17.38,8.69c-8.69,12.165-36.494,33.016-53.87,52.129
		c-17.376,19.117-13.902,43.443,33.016,33.019c-1.737,17.376,0,29.537,26.066,26.063c26.067-3.474,41.706-15.639,41.706-15.639
		s-1.737,27.804,26.063,26.067c27.804-1.737,38.231-13.902,38.231-13.902s26.067,17.376,46.918,10.427
		c20.855-6.953,26.067-22.592,26.067-22.592s27.804,3.475,39.969-5.212c5.405-3.861,12.577-10.488,12.721-17.399
		c0.182-8.641-8.281-18.126-17.937-27.781c-17.376-17.376-52.129-55.608-52.129-55.608c10.424-3.475,35.589,0.326,35.589-13.576
		c0-13.902-2.574-7.275-63.393-80.259c19.114-3.475,24.379-3.524,17.426-17.422c-6.949-13.902-57.394-64.252-64.343-72.939
		C254.46,88.277,249.248,102.179,249.248,102.179z"/>
	<path style="fill:#FFFFFF;" d="M261.413,96.967c-6.953-8.69-12.165,5.212-12.165,5.212c-10.427,15.639-55.608,66.035-66.031,79.937
		c-10.427,13.898,12.161,13.898,12.161,13.898s8.69,1.741-1.737,10.427c-10.424,8.69-43.443,46.918-52.129,57.345
		c-8.69,10.427-3.475,20.851,10.424,19.114c13.902-1.737,26.067-3.475,17.38,8.69c-8.69,12.165-36.494,33.016-53.87,52.129
		c-12.456,13.701-14.193,30.082,3.1,34.42c-0.84-2.653-1.476-5.719-1.798-9.28c-2.157-23.701,64.642-74.699,69.669-89.062
		c5.026-14.364-30.166-4.311-34.477-10.057c-4.307-5.745,53.87-62.489,58.178-73.26c4.311-10.776-17.956-2.154-17.956-12.21
		c0-8.21,49.313-60.464,71.716-84.452C262.806,98.629,261.969,97.664,261.413,96.967z"/>
	<path style="fill:#FFFFFF;" d="M210.836,268.306c-7.502-1.253-10.613-6.283-10.541-11.491c0.076-5.617,3.857-11.438,9.822-12.929
		c11.495-2.873,16.521,6.465,15.087,15.083C223.765,267.587,215.146,269.025,210.836,268.306z"/>
	<path style="fill:#FFFFFF;" d="M267.17,163.457c-6.703-1.117-9.481-5.609-9.417-10.261c0.068-5.015,3.448-10.216,8.773-11.548
		c10.265-2.566,14.754,5.772,13.471,13.47C278.714,162.817,271.019,164.1,267.17,163.457z"/>
	<path style="fill:#FFFFFF;" d="M304.061,357.164c-9.443-1.571-13.357-7.907-13.266-14.458c0.095-7.07,4.856-14.398,12.361-16.271
		c14.462-3.618,20.791,8.134,18.981,18.981C320.333,356.263,309.485,358.069,304.061,357.164z"/>
	<path style="fill:#FFFFFF;" d="M208.807,367.989c-7.081-1.181-10.019-5.927-9.95-10.844c0.072-5.303,3.645-10.798,9.273-12.206
		c10.848-2.71,15.594,6.101,14.239,14.239C221.009,367.311,212.876,368.666,208.807,367.989z"/>
	<path style="fill:#417636;" d="M195.503,197.578c-4.663,0.344-8.853,0.185-12.464-1.014c-1.798-0.522-3.418-1.552-4.705-2.672
		c-0.572-0.666-1.128-1.302-1.525-1.949c-0.341-0.7-0.598-1.306-0.889-2.036c0.004-0.833-0.208-1.889-0.015-2.513
		c0.163-0.609,0.299-1.306,0.511-1.775c0.405-0.973,0.818-1.911,1.272-2.687c0.878-1.646,1.794-3.069,2.725-4.44
		c1.843-2.752,3.728-5.231,5.745-7.823c4.054-5.151,8.683-10.662,15.495-18.323c19.242-21.457,23.86-25.453,43.443-46.323
		c1.045-1.067,3.626-2.619,4.481-1.699c1.31,0.428,0.046,3.758-0.924,4.833c-19.189,21.604-23.413,25.756-42.565,47.13
		c-6.76,7.608-11.37,13.016-15.397,17.986c-1.998,2.49-3.876,4.867-5.655,7.399c-0.893,1.257-1.779,2.57-2.536,3.91
		c-0.424,0.685-0.712,1.34-1.022,2.002l-0.272,0.814l-0.061,0.235c0.14,0.806,0.999,2.248,3.573,3.141
		c2.483,0.95,6.215,1.294,10.469,1.079c1.385-0.004,5.435,0.511,5.359,1.768C201.139,195.852,197.059,197.502,195.503,197.578z"/>
	<path style="fill:#417636;" d="M312.596,183.358c3.505,0.193,6.62-0.042,9.11-0.704c2.559-0.643,4.122-1.87,4.568-3.198
		c0.598-0.204-0.492-2.381-1.503-4.095c-1.033-1.749-2.195-3.421-3.38-5.076c-4.845-6.597-10.151-13.031-19.738-24.121
		c-18.951-21.646-23.137-25.858-42.122-47.739c-0.958-1.086-2.188-4.44-0.871-4.856c0.871-0.908,3.44,0.674,4.474,1.76
		c19.386,21.146,23.97,25.207,43.004,46.937c9.674,11.188,14.969,17.744,19.871,24.765c1.211,1.775,2.396,3.577,3.535,5.632
		c0.568,1.022,1.124,2.138,1.62,3.433c0.219,0.712,0.492,1.438,0.545,2.43l-0.076,1.711c-0.159,0.5-0.348,0.924-0.515,1.313
		c-0.632,1.658-1.995,3.009-3.422,4.031c-1.48,0.924-3.089,1.578-4.742,1.949c-3.312,0.768-6.836,0.874-10.673,0.568
		c-1.563-0.079-5.651-1.745-5.053-2.979C307.154,183.861,311.211,183.358,312.596,183.358z"/>
	<path style="fill:#417636;" d="M368.775,383.969c16.979-1.234,26.407-5.617,31.714-12.445c1.283-1.749,2.26-3.683,2.918-5.855
		c0.299-1.018,0.587-2.388,0.666-3.297c-0.011-0.371,0.042-0.749-0.136-1.306c-0.079-0.5-0.223-1.048-0.488-1.65
		c-1.817-4.777-5.92-10.367-11.358-16.941c-11.003-12.819-18.504-19.973-25.771-27.247c-7.362-7.21-14.791-14.383-27.482-25.813
		c-1.283-1.177-3.372-4.394-2.252-5.102c0.526-1.226,4.042,0.394,5.382,1.525c13.028,11.203,20.7,18.202,28.266,25.332
		c7.486,7.214,15.09,14.307,26.411,27.486c5.647,6.9,9.924,12.464,12.339,18.788c0.318,0.772,0.553,1.616,0.704,2.532
		c0.231,0.821,0.25,1.847,0.201,2.858c-0.197,1.805-0.526,3.066-0.95,4.53c-0.893,2.805-2.233,5.344-3.944,7.574
		c-3.444,4.474-8.247,7.517-14.065,9.818c-5.889,2.142-12.952,3.599-21.892,3.955c-1.805,0.14-6.783-0.939-6.366-2.184
		C362.292,385.233,367.095,384.169,368.775,383.969z"/>
	<path style="fill:#417636;" d="M337.342,274.309c4.095-0.053,7.744-0.098,11.063-0.14c1.661-0.023,3.236-0.045,4.743-0.064
		c1.446-0.072,2.801-0.125,4.095-0.231c2.543-0.333,4.898-0.712,6.813-1.537c1.976-0.73,3.581-1.786,4.515-3.104
		c1.964-2.479,1.624-6.412-0.995-10.643c-1.223-2.18-3.001-4.141-5.201-6.586c-2.203-2.49-4.625-5.227-7.343-8.296
		c-21.241-24.034-25.522-29.182-46.463-53.469c-1.06-1.249-2.547-4.546-1.34-5.102c0.712-1.109,3.808,0.78,4.917,1.98
		c21.487,23.712,26.044,28.568,47.228,52.534c2.706,3.062,5.113,5.795,7.309,8.281c2.229,2.487,4.481,4.996,5.95,7.68
		c1.537,2.653,2.714,5.424,2.922,8.482c0.273,3.005-0.605,6.26-2.525,8.615c-1.881,2.411-4.447,3.853-7.029,4.754
		c-2.612,1.014-5.359,1.37-8.297,1.669c-1.461,0.083-2.99,0.102-4.557,0.133c-1.506-0.023-3.081-0.042-4.743-0.064
		c-3.319-0.042-6.968-0.087-11.063-0.14c-1.631-0.034-6.2-1.105-5.829-2.377C331.142,275.41,335.711,274.343,337.342,274.309z"/>
	<path style="fill:#417636;" d="M133.465,381.213c-8.145-0.026-14.685,0.144-20.718-2.002c-3.009-1.094-5.655-3.312-7.176-5.802
		c-1.533-2.498-2.233-4.981-2.854-7.403l-0.348-1.809c-0.106-0.617-0.265-1.12-0.261-2.067c-0.038-0.863-0.019-1.722,0.17-2.407
		c0.159-0.723,0.28-1.514,0.549-2.131c0.878-2.729,2.267-5.007,3.781-7.487c3.138-4.811,7.188-9.905,12.71-15.98
		c10.87-11.82,17.997-18.304,25.056-24.863c7.131-6.476,14.33-12.865,26.547-23.088c1.257-1.033,4.58-2.437,5.11-1.226
		c1.09,0.738-0.833,3.755-2.032,4.829c-11.888,10.462-18.845,17.032-25.783,23.599c-6.854,6.635-13.875,13.168-24.5,24.73
		c-5.394,5.927-9.288,10.821-12.187,15.177c-1.363,2.176-2.619,4.258-3.232,6.139c-0.31,0.905-0.553,1.851-0.484,2.411
		c-0.076,0.227,0.061,0.855,0.144,1.378l0.272,1.597c0.477,2.048,1.03,4.057,1.998,5.727c0.992,1.635,2.351,2.903,4.481,3.789
		c4.322,1.741,10.772,1.987,18.784,2.15c1.605,0.053,6.135,1.113,5.772,2.385C139.626,380.123,135.1,381.198,133.465,381.213z"/>
	<path style="fill:#417636;" d="M170.954,287.302c-7.135,0.098-12.732,0.174-17.558,0.238c-5.034,0-9.443-0.454-13.777-2.354
		c-2.127-1.026-4.307-2.366-5.98-4.659c-1.643-2.305-2.4-5.42-2.036-8.399c0.644-6.037,4.739-11.317,9.773-16.407
		c19.254-20.166,23.406-24.231,42.94-44.128c1.007-1.003,3.861-2.449,4.561-1.344c1.143,0.643-0.167,3.558-1.124,4.61
		c-18.981,20.454-22.853,24.799-42.115,44.987c-2.574,2.627-4.364,4.659-5.791,6.888c-1.419,2.15-2.225,4.254-2.422,6.044
		c-0.212,1.802,0.159,3.229,0.935,4.424c0.821,1.189,2.146,2.097,3.626,2.865c3.066,1.465,6.907,2.089,11.468,2.207
		c4.811,0.079,10.39,0.17,17.501,0.284c1.423,0.034,5.401,1.101,5.083,2.369C176.355,286.197,172.377,287.264,170.954,287.302z"/>
	<path style="fill:#417636;" d="M207.876,394.161c-7.691,5.28-12.551,7.49-17.452,9.523c-4.962,1.858-10.004,3.834-19.632,4.542
		c-4.723,0.219-8.69-0.326-12.032-1.582c-0.848-0.231-1.624-0.659-2.381-1.041c-0.761-0.394-1.484-0.708-2.229-1.31
		c-1.503-1.045-2.555-2.392-3.463-3.74c-1.677-2.77-2.521-5.749-2.922-9.144c-0.303-3.403-0.28-7.282,1.158-11.987
		c0.292-1.003,2.146-2.555,3.179-1.76c1.207,0.42,1.514,2.369,1.363,3.126c-1.764,7.759-0.227,13.194,1.945,16.699
		c0.621,0.825,1.264,1.62,2.085,2.12c0.337,0.299,0.927,0.534,1.472,0.795c0.553,0.261,1.09,0.575,1.756,0.73
		c2.491,0.905,5.7,1.366,9.803,1.17c8.429-0.621,13.24-2.332,17.903-3.891c4.64-1.718,9.349-3.543,16.782-8.172
		c0.719-0.469,3.353-1.026,3.963,0.098C210.116,391.22,208.633,393.586,207.876,394.161z"/>
	<path style="fill:#417636;" d="M276.814,402.045c-2.706,4.163-5.617,6.711-8.221,8.637c-2.596,1.968-4.996,3.278-7.441,4.474
		c-2.491,1.094-5.026,2.135-8.221,2.85c-3.172,0.73-6.979,1.404-11.991,0.852c-1.226-0.231-2.392-0.401-3.49-0.681
		c-1.09-0.367-2.146-0.666-3.119-1.083c-0.946-0.496-1.847-0.973-2.714-1.431c-0.753-0.522-1.51-0.995-2.154-1.521
		c-2.657-2.04-4.64-4.023-6.51-6.086c-3.626-4.201-7.142-8.486-11.082-16.862c-0.409-0.871-0.136-3.16,1.12-3.387
		c1.135-0.613,2.759,0.659,3.179,1.385c3.891,7.411,7.46,11.347,10.893,15.026c1.771,1.809,3.618,3.546,5.904,5.238
		c2.324,1.79,4.731,2.975,8.679,3.512c3.963,0.447,7.248-0.079,9.977-0.674c2.759-0.568,5.007-1.419,7.225-2.286
		c2.18-0.969,4.353-2.014,6.684-3.615c2.354-1.548,4.958-3.652,7.312-6.945c0.447-0.613,2.445-2.15,3.55-1.499
		C277.665,398.226,277.359,401.163,276.814,402.045z"/>
	<path style="fill:#417636;" d="M355.971,382.75c-0.833,5.556-3.043,9.178-4.898,12.157c-1.911,2.986-3.868,5.201-5.882,7.35
		c-2.089,2.067-4.232,4.103-7.131,6.116c-2.914,1.979-6.397,4.25-11.733,5.749c-2.627,0.723-5.269,0.878-7.43,0.681
		c-2.207-0.129-4.095-0.503-5.848-0.882c-3.482-0.795-6.359-1.741-9.167-2.816c-2.793-1.101-5.541-2.309-8.637-3.917
		c-3.081-1.643-6.563-3.573-10.549-6.798c-0.844-0.647-1.749-3.005-0.674-3.709c0.78-1.037,2.865-0.496,3.622,0
		c7.4,5.269,12.997,7.18,18.175,9.141c2.649,0.916,5.337,1.715,8.456,2.377c3.126,0.553,6.673,1.31,10.556,0.182
		c4.152-1.151,7.309-3.104,9.871-4.814c2.593-1.737,4.568-3.52,6.506-5.306c1.87-1.855,3.724-3.774,5.511-6.317
		c1.756-2.506,3.77-5.67,4.557-9.86c0.133-0.416,0.477-1.158,0.852-1.843c0.428-0.681,1.011-1.351,1.639-1.313
		C354.957,378.443,356.297,381.618,355.971,382.75z"/>
	<path style="fill:#417636;" d="M222.629,444.754c-0.401-8.236-0.602-9.36-0.598-17.592c0.007-8.054,0.204-9.735,0.598-17.789
		c0.03-0.413,1.098-1.283,2.369-1.189c1.264-0.095,2.331,0.776,2.369,1.189c0.394,8.054,0.59,9.735,0.594,17.789
		c0.004,8.232-0.193,9.356-0.594,17.592c-0.038,0.409-1.105,1.559-2.369,1.465C223.727,446.313,222.66,445.163,222.629,444.754z"/>
	<path style="fill:#417636;" d="M202.293,491.18c-0.939-2.082-0.201-4.36,1.075-5.666c1.026-1.086,1.874-1.62,2.653-2.176
		c1.461-0.935,2.687-1.718,3.906-2.498c2.248-1.529,4.606-2.88,7.483-6.215c2.68-3.357,3.531-5.901,4.277-8.459
		c0.67-2.589,1.173-5.325,1.056-10.026c0-0.469,0.984-1.597,2.256-1.624c1.249-0.254,2.396,0.749,2.468,1.283
		c0.545,5.155,0.31,8.433-0.303,11.65c-0.693,3.168-1.688,6.578-5.189,10.961c-3.736,4.326-6.627,5.78-9.178,7.282
		c-1.241,0.659-2.498,1.325-3.997,2.116c-0.651,0.367-1.385,0.81-1.809,1.181l-0.242,0.553c-0.102-0.004-0.28,1.548-1.272,2.335
		C204.628,492.845,202.706,492.167,202.293,491.18z"/>
	<path style="fill:#417636;" d="M254.426,507.504c-3.512-0.78-6.014-2.695-7.634-4.008c-1.684-1.366-2.873-2.309-4.247-3.187
		c-1.453-0.931-3.02-2.059-4.466-2.899c-0.768-0.378-0.761-0.405-1.771-0.409c-1.211,0.083-2.543,0.17-4.035,0.269
		c-1.786,0.068-2.241,0.182-3.353,0.477c-0.984,0.314-1.938,0.708-2.842,1.109c-1.896,0.893-3.531,1.665-5.174,2.438
		c-1.722,0.776-3.535,1.544-5.882,2.146c-2.263,0.541-5.609,1.037-9.174-0.852c-0.704-0.473-1.348-2.244-0.36-3.088
		c0.761-1.007,2.263-1.294,2.593-1.094c1.938,0.833,3.811,0.515,5.545-0.034c1.73-0.575,3.259-1.325,4.818-2.139
		c1.567-0.818,3.149-1.699,5.163-2.684c1.026-0.481,2.161-0.984,3.55-1.442c1.272-0.454,3.524-0.75,4.758-0.757
		c1.518-0.087,2.79-0.223,4.288-0.261c1.506-0.136,3.751,0.507,4.769,1.222c2.127,1.313,3.346,2.332,4.792,3.365
		c1.529,1.098,2.998,2.453,4.459,3.827c1.506,1.378,2.903,2.657,5.428,3.422c0.454,0.178,1.817,1.495,1.544,2.729
		C257.189,506.944,255.149,507.682,254.426,507.504z"/>
	<path style="fill:#417636;" d="M290.818,489.809c-0.042,2.528-0.257,4.576-0.723,6.499c-0.072,0.45-0.254,0.954-0.473,1.45
		c-0.261,0.507-0.265,0.916-0.757,1.453c-0.469,0.5-0.84,1.109-1.37,1.503c-0.598,0.28-1.132,0.746-1.783,0.867
		c-1.306,0.341-2.699,0.045-3.66-0.204c-0.943-0.295-1.718-0.655-2.506-1.022c-1.476-0.719-3.172-1.529-4.201-1.484l-0.598,0.113
		l-0.78,0.454c-0.484,0.344-0.916,0.784-1.313,1.291c-0.799,0.999-1.423,2.165-2.097,3.41c-0.7,1.241-1.347,2.593-2.559,4.235
		c-0.655,0.806-1.412,1.73-2.668,2.494c-1.196,0.844-2.907,1.169-4.519,1.128c-0.681-0.098-1.771-1.321-1.325-2.536
		c0.223-1.241,1.181-2.222,1.461-2.203c2.547-0.129,3.304-3.089,4.576-5.632c0.613-1.321,1.245-2.763,2.472-4.436
		c0.613-0.829,1.4-1.722,2.506-2.54c0.515-0.435,1.215-0.734,1.877-1.098c0.768-0.272,1.794-0.617,2.702-0.609
		c3.891,0.091,5.583,1.544,7.048,2.15c0.696,0.348,1.287,0.64,1.718,0.802c0.416,0.174,0.416,0.151,0.462,0.185l0.148-0.011
		l0.261-0.507c0.121-0.189,0.25-0.413,0.333-0.772c0.428-1.241,0.821-2.983,1.037-5.314c0.068-0.451,1.219-1.707,2.483-1.559
		C289.841,487.845,290.818,489.295,290.818,489.809z"/>
	<path style="fill:#417636;" d="M283.748,481.426c-6.378-5.144-9.621-9.44-11.423-14.224c-1.794-4.799-2.241-9.875-1.84-17.997
		c0.496-15.609,0.772-18.803,1.635-34.39c0.06-0.795,1.177-2.487,2.441-2.316c1.276-0.189,2.29,1.499,2.297,2.301
		c-0.076,15.696,0.038,19.023-0.454,34.696c-0.379,7.823,0.008,12.021,1.234,15.81c1.249,3.762,3.391,7.305,9.186,12.513
		c0.572,0.515,1.582,2.736,0.659,3.618C286.836,482.55,284.406,481.926,283.748,481.426z"/>
	<path style="fill:#417636;" d="M304.989,293.199c-1.597,3.444-4.443,6.571-8.031,7.275c-3.505,0.7-6.344-0.254-8.751-0.871
		c-4.811-1.438-8.652-2.6-12.316-2.101c-3.94,0.575-7.899,1.594-12.255,3.501c-4.398,1.866-9.129,5.03-15.7,8.58
		c-6.476,3.403-11.922,5.549-16.926,7.006c-5,1.404-9.629,2.04-14.261,1.393c-4.618-0.632-9.072-2.763-13.009-6.294
		c-3.963-3.531-7.536-8.304-11.26-14.511c-0.746-1.283-1.786-4.292-0.939-4.394c0.507-0.67,2.657,1.639,3.414,2.865
		c7.434,12.017,14.261,17.959,22.263,18.913c3.978,0.5,8.126-0.079,12.801-1.427c4.663-1.381,9.985-3.49,16.207-6.767
		c6.325-3.41,11.203-6.665,15.965-8.664c4.739-2.033,8.959-3.073,13.258-3.637c4.72-0.541,9.05,0.988,13.66,2.43
		c2.301,0.674,4.833,1.438,7.229,0.954c2.384-0.424,4.519-2.479,6.063-5.575c0.768-1.09,2.566-4.727,3.27-4.171
		C306.461,287.582,305.859,291.818,304.989,293.199z"/>
	<path style="fill:#417636;" d="M205.431,210.802c-0.03,2.763,0.322,5.7,1.234,6.586c0.42,0.681,2.702-0.235,4.231-1.2
		c3.338-1.987,6.098-4.167,9.633-5.515c0.886-0.337,1.858-0.579,2.903-0.708c1.151-0.091,2.006,0.034,2.964,0.098
		c1.866,0.22,3.773,0.575,5.783,1.067c4.016,0.961,8.49,2.559,14.114,4.046c2.74,0.689,5.223,1.12,7.327,1.056
		c1.147-0.102,2.241-0.201,3.293-0.291c1.037-0.151,2.01-0.375,2.964-0.541c3.758-0.882,6.714-2.377,9.352-4.379
		c2.638-2.006,4.951-4.523,7.577-7.638c2.642-3.104,5.602-6.862,10.037-10.908c0.939-0.799,3.331-1.957,3.596-1.166
		c0.681,0.447-0.787,2.547-1.635,3.316c-8.126,7.922-11.453,14.519-17.46,19.129c-2.926,2.316-6.4,4.122-10.632,5.144
		c-1.067,0.201-2.165,0.454-3.316,0.624c-1.158,0.11-2.358,0.219-3.618,0.337c-2.725,0.091-5.473-0.428-8.38-1.151
		c-5.916-1.567-10.265-3.138-14.091-4.084c-1.904-0.481-3.652-0.821-5.31-1.037c-1.779-0.231-2.808-0.189-4.3,0.348
		c-2.861,1.011-5.575,2.986-9.193,5.064c-0.935,0.507-1.926,1.037-3.191,1.431c-0.621,0.204-1.37,0.337-2.218,0.31
		c-0.882-0.057-1.866-0.454-2.574-1.132c-1.294-1.4-1.559-2.933-1.805-4.372c-0.223-1.469-0.204-2.933-0.197-4.485
		c0.027-1.245,0.927-4.572,1.692-4.22C204.999,206.347,205.416,209.663,205.431,210.802z"/>
	<path style="fill:#417636;" d="M322.672,329.504c3.588,4.459,4.769,9.152,4.803,13.043c0.011,3.932-1.003,7.233-2.646,10.14
		c-1.673,2.88-4.061,5.492-7.623,7.396c-1.783,0.931-3.846,1.669-6.192,2.04c-2.301,0.371-5.03,0.526-8.013-0.269
		c-5.893-1.673-9.224-5.761-11.025-9.216c-0.924-1.775-1.575-3.505-1.991-5.2c-0.254-0.84-0.371-1.681-0.545-2.502
		c-0.136-0.939-0.197-1.858-0.182-2.748c0.129-3.524,1.052-6.93,3.206-10.344c2.142-3.353,5.893-6.692,11.29-8.134
		c1.124-0.337,3.603,0.273,3.505,1.48c0.371,1.166-1.427,2.483-2.241,2.797c-4.284,1.336-6.828,3.91-8.353,6.465
		c-1.51,2.593-2.108,5.272-2.112,7.77c0.011,0.625,0.068,1.211,0.167,1.783c0.167,0.662,0.269,1.355,0.488,2.017
		c0.363,1.355,0.908,2.695,1.62,4.023c1.423,2.631,3.755,5.318,7.623,6.423c1.987,0.53,3.906,0.435,5.685,0.163
		c1.749-0.269,3.236-0.791,4.527-1.438c2.559-1.328,4.3-3.134,5.594-5.2c1.272-2.082,2.15-4.508,2.263-7.494
		c0.091-2.96-0.64-6.571-3.338-10.219c-0.439-0.738-1.677-3.232-0.746-4.042C318.978,327.154,321.971,328.535,322.672,329.504z"/>
	<path style="fill:#417636;" d="M222.523,346.54c2.589,3.221,3.437,6.605,3.467,9.409c0.007,2.842-0.727,5.219-1.911,7.316
		c-1.207,2.082-2.926,3.963-5.499,5.337c-2.589,1.272-5.889,2.279-10.246,1.279c-4.25-1.207-6.658-4.156-7.956-6.65
		c-0.67-1.279-1.135-2.532-1.438-3.751c-0.178-0.606-0.261-1.211-0.39-1.809c-0.098-0.674-0.144-1.34-0.129-1.98
		c0.091-2.54,0.757-5,2.309-7.464c1.544-2.419,4.25-4.826,8.145-5.867c0.81-0.242,2.6,0.197,2.528,1.067
		c0.269,0.844-1.029,1.79-1.612,2.017c-3.092,0.965-4.928,2.82-6.029,4.663c-1.086,1.87-1.518,3.808-1.525,5.609
		c0.03,1.594,0.655,3.8,1.643,5.643c1.03,1.896,2.71,3.834,5.499,4.633c2.873,0.685,5.579-0.034,7.365-0.92
		c1.851-0.958,3.1-2.263,4.038-3.755c0.916-1.499,1.552-3.247,1.635-5.405c0.061-2.135-0.462-4.739-2.415-7.373
		c-0.318-0.534-1.207-2.331-0.538-2.914C219.859,344.848,222.016,345.843,222.523,346.54z"/>
	<path style="fill:#417636;" d="M223.598,247.421c2.593,3.221,3.444,6.605,3.467,9.409c0.008,2.842-0.723,5.219-1.908,7.316
		c-1.207,2.082-2.93,3.963-5.496,5.337c-2.596,1.272-5.897,2.279-10.249,1.279c-4.254-1.207-6.658-4.156-7.956-6.65
		c-0.666-1.279-1.135-2.532-1.438-3.751c-0.182-0.606-0.265-1.211-0.39-1.809c-0.102-0.674-0.14-1.34-0.132-1.979
		c0.091-2.54,0.757-5,2.313-7.464c1.548-2.419,4.25-4.826,8.149-5.867c0.806-0.242,2.596,0.197,2.528,1.067
		c0.265,0.844-1.033,1.79-1.62,2.017c-3.088,0.965-4.928,2.82-6.025,4.663c-1.09,1.87-1.522,3.808-1.525,5.609
		c0.026,1.593,0.655,3.8,1.643,5.643c1.026,1.896,2.706,3.834,5.499,4.633c2.873,0.685,5.579-0.034,7.365-0.92
		c1.847-0.958,3.104-2.263,4.035-3.755c0.916-1.499,1.552-3.247,1.635-5.405c0.064-2.135-0.462-4.739-2.411-7.373
		c-0.314-0.534-1.207-2.331-0.534-2.914C220.934,245.729,223.099,246.725,223.598,247.421z"/>
	<path style="fill:#417636;" d="M275.792,141.432c3.115,2.104,4.758,4.822,5.534,7.256c0.764,2.468,0.764,4.731,0.295,6.873
		c-0.492,2.131-1.488,4.228-3.353,6.113c-1.915,1.794-4.515,3.558-8.569,3.853c-4.02,0.083-6.9-1.836-8.698-3.656
		c-0.923-0.935-1.665-1.896-2.256-2.877c-0.564-0.923-1.151-1.983-1.461-3.157c-0.606-2.233-0.681-4.549,0.011-7.108
		c0.696-2.517,2.403-5.337,5.514-7.278c0.636-0.431,2.309-0.526,2.483,0.25c0.458,0.662-0.416,1.836-0.867,2.188
		c-2.426,1.665-3.531,3.77-3.993,5.666c-0.447,1.919-0.303,3.717,0.174,5.284c0.454,1.382,1.586,3.13,2.937,4.47
		c1.4,1.374,3.384,2.612,6.022,2.559c2.684-0.174,4.845-1.522,6.158-2.771c1.355-1.328,2.093-2.797,2.509-4.345
		c0.397-1.548,0.481-3.24-0.026-5.136c-0.515-1.877-1.669-4.001-4.069-5.768c-0.42-0.378-1.677-1.703-1.245-2.392
		C273.021,140.675,275.167,140.963,275.792,141.432z"/>
	<path style="fill:#417636;" d="M257.181,6.273c-2.596,5.73-4.088,9.023-5.556,12.271c-0.765,1.628-1.525,3.247-2.426,5.166
		c-1.124,2.297-2.426,4.958-4.084,8.346l-0.114,0.019c-3.649,0.515-6.574,0.927-9.144,1.291c-2.146,0.269-3.997,0.5-5.855,0.734
		c-3.69,0.416-7.422,0.833-13.554,1.521c-0.628,0.057-2.104-0.806-2.146-2.082c-0.322-1.234,0.844-2.483,1.465-2.608
		c6.075-1.086,9.773-1.745,13.429-2.4c1.847-0.303,3.687-0.609,5.821-0.958c1.734-0.265,3.702-0.564,6.162-0.939
		c1.12-2.241,2.002-3.997,2.763-5.518c0.977-1.885,1.802-3.471,2.627-5.072c1.684-3.141,3.391-6.328,6.359-11.869
		c0.31-0.553,2.048-1.658,3.123-0.969C257.249,3.643,257.427,5.694,257.181,6.273z"/>
	<path style="fill:#417636;" d="M236.598,64.39c-0.704,5.333-1.105,8.399-1.506,11.419c-0.223,1.525-0.447,3.035-0.712,4.829
		c-0.072,0.439-0.144,0.897-0.219,1.378l0.015,0.583c0.061,0.371,0.28,0.765,0.7,1.079c0.428,0.291,0.859,0.363,1.23,0.31
		l0.571-0.174c0.443-0.227,0.871-0.447,1.283-0.655c1.65-0.825,3.073-1.529,4.512-2.244c2.854-1.366,5.753-2.752,10.507-5.022
		c0.492-0.223,1.998,0.193,2.479,1.37c0.7,1.067,0.186,2.543-0.272,2.823c-4.568,2.627-7.354,4.232-10.094,5.806
		c-1.404,0.78-2.793,1.552-4.406,2.445c-0.409,0.219-0.833,0.447-1.272,0.685c-0.696,0.352-1.499,0.666-2.388,0.802
		c-1.775,0.299-3.842-0.079-5.583-1.313c-1.779-1.268-2.812-3.126-3.096-4.913c-0.159-0.886-0.117-1.741-0.004-2.521
		c0.091-0.5,0.178-0.973,0.261-1.431c0.344-1.779,0.636-3.278,0.931-4.792c0.632-2.979,1.272-6.007,2.388-11.268
		c0.125-0.522,1.435-1.824,2.661-1.491C235.857,62.191,236.651,63.853,236.598,64.39z"/>
	<path style="fill:#417636;" d="M279.012,54.921c4.239-4.69,4.716-5.435,9.239-9.833c4.425-4.307,5.484-5.064,10.178-9.091
		c0.25-0.193,1.472,0.102,2.309,1.064c0.935,0.855,1.204,2.085,0.999,2.331c-4.148,4.587-4.928,5.628-9.349,9.943
		c-4.512,4.406-5.268,4.864-10.068,8.981c-0.25,0.197-1.624,0.045-2.46-0.912C278.929,56.544,278.811,55.167,279.012,54.921z"/>
	<path style="fill:#417636;" d="M300.506,32.635c-6.249-0.696-9.841-1.098-13.383-1.491c-1.79-0.223-3.562-0.447-5.666-0.712
		c-2.536-0.36-5.465-0.772-9.201-1.302l-0.049-0.106c-1.62-3.312-2.914-5.965-4.054-8.297c-0.92-1.957-1.715-3.645-2.509-5.34
		c-1.537-3.38-3.089-6.801-5.639-12.422c-0.246-0.579,0.121-2.248,1.321-2.683c1.075-0.689,2.623,0.034,2.933,0.587
		c2.907,5.443,4.678,8.754,6.431,12.028c0.859,1.665,1.718,3.319,2.714,5.242c0.783,1.567,1.677,3.35,2.793,5.571
		c2.475,0.375,4.421,0.67,6.105,0.924c2.093,0.345,3.857,0.636,5.632,0.931c3.509,0.628,7.066,1.268,13.255,2.381
		c0.617,0.121,2.207,1.431,1.885,2.665C303.031,31.889,301.135,32.692,300.506,32.635z"/>
	<path style="fill:#417636;" d="M264.713,72.547c4.856,2.316,7.653,3.649,10.397,4.958c1.382,0.685,2.752,1.366,4.371,2.173
		c0.401,0.201,0.81,0.412,1.245,0.632l0.556,0.163c0.375,0.061,0.818-0.026,1.245-0.329c0.405-0.314,0.609-0.704,0.674-1.075
		l0.011-0.594c-0.076-0.492-0.151-0.969-0.227-1.427c-0.272-1.824-0.507-3.395-0.742-4.981c-0.416-3.138-0.836-6.325-1.529-11.548
		c-0.057-0.534,0.802-1.839,2.074-1.93c1.226-0.337,2.475,0.606,2.596,1.132c1.09,5.155,1.752,8.3,2.407,11.396
		c0.303,1.571,0.605,3.134,0.961,4.943c0.083,0.454,0.167,0.927,0.257,1.419c0.121,0.776,0.174,1.631,0.026,2.517
		c-0.265,1.779-1.26,3.63-2.975,4.909c-1.756,1.298-3.842,1.707-5.628,1.423c-0.893-0.125-1.692-0.428-2.4-0.776
		c-0.447-0.238-0.87-0.469-1.279-0.689c-1.586-0.878-2.922-1.62-4.269-2.369c-2.634-1.518-5.318-3.066-9.977-5.753
		c-0.462-0.28-1.294-1.923-0.598-2.99C262.396,72.569,264.221,72.327,264.713,72.547z"/>
	<path style="fill:#417636;" d="M215.585,36.73c4.795,4.114,5.552,4.576,10.068,8.981c4.417,4.315,5.201,5.352,9.349,9.943
		c0.201,0.246-0.068,1.476-1.003,2.335c-0.836,0.958-2.055,1.257-2.305,1.06c-4.697-4.027-5.757-4.784-10.181-9.091
		c-4.519-4.398-5-5.144-9.235-9.833c-0.204-0.246-0.091-1.624,0.848-2.483C213.957,36.685,215.335,36.533,215.585,36.73z"/>
</g>
</svg>
