<?xml version="1.0" encoding="iso-8859-1"?>
<!-- Generator: Adobe Illustrator 21.1.0, SVG Export Plug-In . SVG Version: 6.00 Build 0)  -->
<svg version="1.1" id="_x34_" xmlns="http://www.w3.org/2000/svg" xmlns:xlink="http://www.w3.org/1999/xlink" x="0px" y="0px"
	 viewBox="0 0 512 512" style="enable-background:new 0 0 512 512;" xml:space="preserve">
<g>
	<path style="fill:#B32323;" d="M215.486,168.296c-2.772-3.634-6.304-8.339-10.34-13.747
		c-20.076-26.978-40.895-55.075-52.718-71.342c-2.846-3.927-4.506-6.21-4.506-6.21l43.23-22.782l74.919,102.801
		C266.072,157.016,231.735,189.576,215.486,168.296z"/>
	<path style="fill:#8E1D2D;" d="M223.481,152.921l1.895,29.012c-20.076-26.978-61.124-82.459-72.947-98.726
		c9.478-2.317,16.79-4.162,16.79-4.162L223.481,152.921z"/>
	<g>
		<g>
			<circle style="fill:#FFFFFF;" cx="320.397" cy="17.639" r="17.639"/>
			<path style="fill:#B32323;" d="M307.788,363.949v0.111l-0.295,67.391c-0.037,11.269-6.031,21.671-15.769,27.333
				c-8.65,5.017-18.314,7.543-27.978,7.543c-9.59,0-19.199-2.49-27.812-7.47l0,0c-5.625-3.246-9.092-9.258-9.074-15.769l0.313-73.44
				c0.037-7.396,2.01-14.533,5.588-20.73c3.578-6.215,8.76-11.49,15.179-15.215l2.195-1.273c0.037-0.037,0.074-0.037,0.111-0.074
				c12.744-7.34,38.325-1.715,38.325-1.715s0.037,0.018,0.055,0.018c5.939,3.449,10.752,8.355,14.054,14.127
				C305.981,350.504,307.788,357.107,307.788,363.949z"/>
			<path style="fill:#A52324;" d="M292.956,453.706c0,0-1.058,0.718-2.873,1.928c-7.276,4.914-26.648,17.954-37.193,25.268
				c-5.632,3.893-13.078,6.123-20.524,6.331c-0.416,0.019-0.832,0.019-1.266,0.019c-13.324,0-26.307-6.426-28.613-21.11
				c-3.704-23.359,25.816-33.205,25.816-33.205v-50.233l24.021,35.02l5.481,7.994L292.956,453.706z"/>
			<path style="fill:#8E1D2D;" d="M292.96,453.711c0,0-26.89,18.056-40.077,27.185c-5.625,3.891-13.076,6.123-20.527,6.344
				c-0.148-0.609-0.258-1.236-0.369-1.881c-3.689-23.367,25.82-33.198,25.82-33.198v-26.447L292.96,453.711z"/>
			<path style="fill:#A52324;" d="M345.91,383.628v0.111L345.689,433l-0.074,18.13c-0.037,11.269-6.031,21.671-15.769,27.333
				c0,0-26.89,18.056-40.077,27.185c-13.906,9.627-38.952,9-47.675-6.676c-1.309-2.342-2.25-5.035-2.73-8.078
				c-3.541-22.353,23.294-32.312,25.636-33.142l0.074-15.529l0.055-15.418l0.166-37.476c0.037-7.396,2.01-14.533,5.588-20.73
				c3.578-6.215,8.76-11.49,15.179-15.216l2.195-1.273c0.037-0.037,0.074-0.037,0.111-0.074c12.744-7.34,38.325-1.715,38.325-1.715
				s0.037,0.018,0.055,0.018c5.939,3.449,10.752,8.355,14.054,14.128C344.103,370.183,345.91,376.785,345.91,383.628z"/>
			<path style="fill:#8E1D2D;" d="M345.684,432.993l-0.076,18.143c-0.038,11.264-6.029,21.658-15.762,27.328
				c0,0-26.893,18.048-40.085,27.177c-13.891,9.638-38.951,9.015-47.663-6.671c11.755,6.18,24.625,6.917,35.681,1.758
				c13.834-6.464,48.872-30.427,50.725-34.131v-12.908c0,0-18.445,12.001-33.205,4.611c-1.342-0.68-3.118-1.588-5.216-2.665
				c-6.199-3.251-15.27-8.145-25.003-13.418c-12.87-6.955-26.874-14.59-36.777-19.995v-23.397
				c5.254,4.385,14.174,11.623,24.021,18.899c4.177,3.08,8.523,6.18,12.813,9.071c9.884,6.652,19.56,12.19,26.477,13.985
				C309.246,445.371,331.32,439.777,345.684,432.993z"/>
			<path style="fill:#FFFFFF;" d="M360.714,404.313v0.124l-0.34,6.966c-0.046,12.914-6.921,24.84-18.09,31.328
				c-9.902,5.762-20.978,8.651-32.055,8.651c-10.999,0-22.013-2.858-31.884-8.558l-49.804-28.749
				c-6.457-3.723-10.427-10.628-10.412-18.09l0.371-9.503c0.031-8.481,2.677-11.339,6.395-14.01
				c6.667-4.789,10.041-13.162,17.394-17.425c0,0,2.611,0.031,2.657,0c14.598-8.419,32.564-9.995,47.209-1.638
				c0.062,0.031,46.514,12.716,46.514,12.716c0.015,0.016,0.046,0.031,0.062,0.031c6.813,3.955,1.428,13.84,8.123,17.491
				C357.25,389.317,360.714,396.465,360.714,404.313z"/>
			<path style="fill:#A52324;" d="M353.149,327.783v0.113l-0.151,36.683l-0.151,32.374c-0.038,11.547-6.18,22.206-16.159,28.008
				c-2.816,1.625-5.745,3.005-8.731,4.12c-6.426,2.4-13.191,3.61-19.938,3.61c-9.827,0-19.674-2.551-28.5-7.654l-15.818-9.128
				l-6.293-3.629l-22.414-12.946c-5.764-3.326-9.317-9.487-9.298-16.159l0.113-26.232l0.076-16.008l0.132-33.016
				c0.038-7.578,2.06-14.892,5.727-21.242c3.666-6.369,8.977-11.774,15.554-15.592l2.249-1.304c0.038-0.038,0.076-0.038,0.113-0.076
				c13.059-7.522,29.123-7.541,42.201-0.076c0.057,0.019,0.113,0.076,0.17,0.094l41.427,23.926c0,0,0.038,0.019,0.057,0.019
				c6.085,3.534,11.018,8.561,14.401,14.477C351.296,314.005,353.149,320.771,353.149,327.783z"/>
			<path style="fill:#8E1D2D;" d="M352.997,364.579l-0.151,32.374c-0.038,11.547-6.18,22.206-16.159,28.008
				c-2.816,1.625-5.745,3.005-8.731,4.12v-33.47c-8.826,5.046-16.385,3.78-30.238,1.266c-10.187-1.852-50.989-26.837-71.91-39.933
				l0.076-16.008c5.575,0.699,13.607,3.629,25.211,10.583C279.008,368.264,326.841,370.589,352.997,364.579z"/>
			<polygon style="fill:#8E1D2D;" points="263.7,360.345 263.7,415.908 257.407,412.28 257.407,360.345 			"/>
			<path style="fill:#FFFFFF;" d="M387.12,329.933v0.168l-0.46,3.048c-0.063,17.502-9.379,33.663-24.515,42.456
				c-13.419,7.809-28.43,11.724-43.44,11.724c-14.906,0-29.832-3.873-43.21-11.598L208,336.77
				c-8.751-5.045-14.131-14.403-14.11-24.515l0.502-12.427c0.042-11.493,9.303-15.4,15.918-16.345
				c11.012-1.573,6.357-20.152,16.322-25.93l3.412-1.989c0.063-0.042,0.126-13.621,0.188-13.663
				c19.784-11.41,44.131,2.107,63.977,13.432c0.084,0.042,0.168-13.453,0.251-13.411l62.784,49.817
				c0.021,0.021,0.063-13.516,0.084-13.516c9.232,5.359,16.706,26.538,21.856,35.498C384.294,322.619,387.12,319.298,387.12,329.933
				z"/>
			<path style="fill:#B32323;" d="M378.983,205.121v0.151l-0.416,112.702c-0.057,15.799-8.467,30.389-22.131,38.327
				c-12.114,7.049-25.665,10.583-39.215,10.583c-13.456,0-26.931-3.496-39.007-10.47l-60.93-35.171
				c-7.9-4.555-12.757-13.002-12.738-22.131l0.059-9.96l12.793-21.734l0.99-17.008l0.271-72.468
				c0-64.129,58.534-62.631,76.451-52.407c0.076,0.038,0.151,0.094,0.227,0.132l56.678,32.733c0.019,0.019,0.057,0.038,0.076,0.038
				c8.334,4.838,15.081,11.717,19.73,19.806C376.432,186.279,378.983,195.52,378.983,205.121z"/>
			<path style="fill:#673A1B;" d="M377.952,263.325c-2.139,12.983-9.926,24.507-21.515,31.24
				c-12.114,7.049-25.665,10.583-39.215,10.583c-13.456,0-26.931-3.496-39.007-10.47l-47.148-23.902
				c-7.387-4.259-12.112-11.923-12.678-20.364l-0.059,15.872c-0.019,9.128,4.838,17.576,12.738,22.131l47.148,23.902
				c12.076,6.974,25.551,10.47,39.007,10.47c13.55,0,27.101-3.534,39.215-10.583c13.664-7.938,22.074-22.527,22.131-38.327
				l0.039-10.552H377.952z"/>
			<polygon style="fill:#8E1D2D;" points="328.586,297.343 328.586,226.787 322.917,240.646 322.917,302.383 			"/>
			<path style="fill:#A52324;" d="M343.076,362.444c4.586-1.611,9.063-3.642,13.355-6.136h0
				c13.663-7.94,22.088-22.534,22.133-38.337l0.42-112.7v-0.151c0-9.601-2.551-18.842-7.163-26.874
				c-3.027-5.266-6.956-10.005-11.62-14.017l-17.125,20.159V362.444z"/>
			<path style="fill:#3F210E;" d="M329.216,306.162v8.819c0,0-8.819,3.78-5.04,12.599c3.78,8.82,8.82,7.56,8.82,7.56
				s-2.52,16.379,18.899,12.599c21.419-3.78,21.419-20.159,21.419-35.278C373.314,312.462,348.115,318.762,329.216,306.162z"/>
			<path style="fill:#BC3122;" d="M352.34,158.586c-0.083-0.049-0.166-0.097-0.25-0.146c-0.019,0-0.057-0.019-0.076-0.038
				l-56.678-32.733c-0.076-0.038-0.151-0.094-0.227-0.132c-17.916-10.224-39.895-10.187-57.755,0.113
				c-0.057,0.038-0.113,0.057-0.17,0.094l-3.081,1.795c-0.09,0.052-0.18,0.105-0.269,0.157c-12.762,7.491-12.464,26.097,0.35,33.497
				l59.696,34.476c14.892,8.599,41.445,6.66,56.281-1.958C365.754,183.319,364.194,165.552,352.34,158.586z"/>
			<path style="fill:#FFFFFF;" d="M328.586,297.343c8.012,11.421,50.397,7.56,50.397-10.079c0-17.639,0-11.969,0-11.969
				s15.119,3.15,12.599,19.529c-2.52,16.379-25.198,30.238-49.137,25.198S322.287,295.453,328.586,297.343L328.586,297.343z"/>
			<path style="fill:#FFFFFF;" d="M259.92,351.52l-0.473-194.659c0,0,8.977-48.192,75.123-13.229
				c15.119,3.78,12.877,32.777-8.504,43.467c-16.98,8.49-30.846,9.975-41.599,9.949c-8.356-0.02-15.097,6.828-15.097,15.184v143.068
				L259.92,351.52z"/>
			<path style="fill:#FFFFFF;" d="M280.079,122.213c-22.679-1.26-41.578,11.339-44.097,31.498
				c-1.433,11.464,3.042,24.427,8.212,30.238c6.839,7.688,10.687,12.603,10.687,22.893V345.22c0,3.78,6.3,12.599,6.3,12.599
				l3.78-167.57L280.079,122.213z"/>
			<path style="fill:#DAA993;" d="M240.076,91.66c0,0,0,41.578,0,55.752c0,14.174,12.284,25.514,31.183,30.238
				s40.633,0.945,53.862-10.394c13.229-11.339,10.394-21.734,10.394-34.018s0-32.128,0-44.413c0-12.284-17.954-30.238-48.192-30.238
				C257.085,58.587,240.076,76.541,240.076,91.66z"/>
			<g>
				<path style="fill:#FFFFFF;" d="M279.134,120.323c0.904,0.362,1.952,0.827,3.082,1.399c6.743,3.408,16.447,10.58,16.447,21.91
					c0,13.229-18.899,20.789-36.853,2.835c-9.449,3.78-16.007-0.068-20.789-11.339c-4.781-11.272,12.284-21.734,22.679-19.844
					c-25.514-12.284-25.514-8.505-25.514-8.505s-8.504,21.734-8.504,38.743c0,17.009,5.67,35.908,29.293,47.247
					c23.624,11.339,67.091-15.119,75.596-26.458c8.505-11.339,13.229-23.624,12.284-32.128c-0.945-8.505-4.725-31.183-12.284-37.798
					c-7.56-6.615-53.862,3.78-67.091,3.78L279.134,120.323z"/>
			</g>
			<path style="fill:#FFFFFF;" d="M231.827,94.511c0,0,0-6.159,0,9.238s14.402,27.713,36.56,32.845
				c22.157,5.132,47.638,1.026,63.148-11.29c15.51-12.317,12.186-23.607,12.186-36.951c0-13.343,0,16.423,0,3.079
				c0-13.343-21.049-32.845-56.501-32.845C251.769,58.587,231.827,78.088,231.827,94.511z"/>
			<path style="fill:#B32323;" d="M239.468,82.121c0,0,0-5.515,0,8.273c0,13.789,12.44,24.82,31.58,29.416
				s41.15,0.919,54.547-10.112c13.397-11.031,10.527-21.143,10.527-33.093c0-11.95,0,14.708,0,2.758S318.21,19.044,314.04,19.044
				C304.334,19.044,239.468,67.413,239.468,82.121z"/>
		</g>
		<path style="fill:#A52324;" d="M313.875,24.005c0,0,15.734,35.171,18.511,55.533c2.777,20.362-11.107,33.32-27.767,36.097
			L313.875,24.005z"/>
	</g>
	
		<ellipse transform="matrix(0.852 -0.5236 0.5236 0.852 -8.0005 95.9492)" style="fill:#FFFFFF;" cx="165.691" cy="62.124" rx="31.107" ry="27.119"/>
	<path style="fill:#3F210E;" d="M134.266,5.667c-17.467,8.733-16.673,28.582-8.733,38.903s12.703,11.115,16.673,16.673
		c3.97,5.558,9.527,11.115,19.848,10.321c10.321-0.794,13.176-4.121,16.673-11.115c3.97-7.939-1.588-15.879-1.588-15.879
		s11.115-16.673,3.97-21.436c-7.145-4.764-11.115-1.588-11.115-1.588S169.993-11.8,134.266,5.667z"/>
</g>
</svg>
