<?xml version="1.0" encoding="iso-8859-1"?>
<!-- Generator: Adobe Illustrator 15.1.0, SVG Export Plug-In . SVG Version: 6.00 Build 0)  -->
<!DOCTYPE svg PUBLIC "-//W3C//DTD SVG 1.1//EN" "http://www.w3.org/Graphics/SVG/1.1/DTD/svg11.dtd">
<svg version="1.1" id="_x31_2" xmlns="http://www.w3.org/2000/svg" xmlns:xlink="http://www.w3.org/1999/xlink" x="0px" y="0px"
	 width="512px" height="512px" viewBox="0 0 512 512" style="enable-background:new 0 0 512 512;" xml:space="preserve">
<g>
	<path style="fill:#666666;" d="M215.027,218.202c0-3.62,0-106.964,0-109.136c0-2.172,0.83-8.836-3.677-6.409
		c-5.207,2.806-18.427,8.412-18.427,8.412l-35.821,57.897c0,0,0-51.409,0-57.202s-1.027-9.506-4.633-8.306
		c0,0-14.821,6.409-16.422,8.812c-4.093,6.146-36.871,100.261-75.971,120.535S8.272,231.88,8.272,211.606
		c9.614-0.802,17.624-12.817,8.813-16.823c-7.911-3.596-16.229,6.426-14.821,21.229c0.801,8.412,5.68,33.326,33.194,30.429
		S92.66,231.235,139,153.036c-0.725,20.274,0,31.859,0,37.651s1.448,14.481,10.137,7.241c8.688-7.241,37.651-57.925,37.651-57.925
		s0,70.958,0,78.199s-5.792,8.689-10.137,8.689v6.517h44.892v-5.792C221.544,227.615,215.027,227.627,215.027,218.202z
		 M146.241,187.791c0,0-0.362,2.896-1.81,5.068s-2.172-0.724-2.172-3.258s0-41.272,0-41.272l3.982-6.517V187.791z M194.753,223.27
		h-4.345v-83.992v-1.448l4.345-6.878V223.27z"/>
	<path style="fill:#666666;" d="M269.092,220.736c-4.827,2.416-17.377,2.896-23.654-0.964c-7.41-4.562-0.482-10.137-0.482-10.137
		c6.275-1.932,24.5-10.901,27.514-20.274c4.345-13.517-13.515-24.135-26.548-18.342c-13.034,5.792-19.31,18.342-19.31,35.236
		c0,16.896,13.381,26.504,26.066,27.034c11.586,0.48,17.378-4.828,20.273-8.689C275.849,220.736,273.92,218.323,269.092,220.736z
		 M247.852,180.672c10.137-6.276,17.003,4.531,15.929,6.276c-3.862,6.273-18.826,13.998-18.826,13.998
		c-1.93,0.964-4.536-1.448-4.536-5.309S239.643,185.751,247.852,180.672z"/>
	<path style="fill:#666666;" d="M303.364,221.703c0,3.379,3.38,4.827,3.38,4.827v3.379h-19.791v-3.38c0,0,3.861-1.929,3.861-4.825
		c0-2.896,0-31.378,0-37.17s-8.502-8.098-7.725-9.653c1.932-3.861,7.5-6.458,12.068-4.828c6.757,2.416,6.275,10.137,6.275,15.93
		c4.826-12.55,13.998-23.167,24.135-19.307c10.138,3.861,4.828,12.549,0.965,13.998c-3.86,1.448-6.756-1.932-6.756-1.932
		s-15.93,6.878-15.93,20.274C303.848,207.703,303.364,221.703,303.364,221.703z"/>
	<path style="fill:#666666;" d="M182.509,401.662c0,3.378,3.378,4.826,3.378,4.826v3.379h-19.792v-3.379c0,0,3.862-1.93,3.862-4.826
		s0-31.378,0-37.17c0-5.793-8.502-8.099-7.723-9.654c1.93-3.86,7.5-6.46,12.067-4.827c6.758,2.415,6.275,10.137,6.275,15.929
		c4.828-12.55,13.999-23.167,24.136-19.307c10.137,3.861,4.827,12.55,0.966,13.998c-3.862,1.448-6.758-1.932-6.758-1.932
		s-15.929,6.878-15.929,20.273C182.992,387.662,182.509,401.662,182.509,401.662z"/>
	<path style="fill:#666666;" d="M355.496,221.703c0,3.379,3.381,4.827,3.381,4.827v3.379h-19.791v-3.38c0,0,3.861-1.929,3.861-4.825
		c0-2.896,0-31.378,0-37.17s-8.503-8.098-7.725-9.653c1.932-3.861,7.5-6.458,12.068-4.828c6.757,2.416,6.274,10.137,6.274,15.93
		c4.827-12.55,13.999-23.167,24.137-19.307s4.826,12.549,0.964,13.998c-3.859,1.448-6.756-1.932-6.756-1.932
		s-15.93,6.878-15.93,20.274C355.98,207.703,355.496,221.703,355.496,221.703z"/>
	<path style="fill:#666666;" d="M406.161,190.567c0,10.137,5.111,11.015,5.111,11.015c6.503,0,14.309-2.326,14.309-21.361
		c0-12.36,5.854-14.31,10.409-13.66c4.553,0.65,5.854,5.854,5.854,5.854s-5.203,5.204-5.203,12.36c0,7.154,0,22.66,0,44.127
		c0,21.465,0,17.562,0,31.874c0,14.311-13.012,29.271-24.718,27.318c-11.71-1.951-16.263-20.163-9.107-33.174
		c7.155-13.008,27.97-31.223,41.632-32.523c3.252,0.65,3.902,3.252-0.651,5.854s-19.517,15.613-27.972,24.067
		c-8.455,8.458-7.805,20.817,1.301,19.516c9.107-1.302,5.205-18.866,5.205-29.922c0-11.059,0-27.973,0-31.226
		c-8.132,8.132-12.561,9.87-18.213,9.107c-7.349-0.988-11.276-7.156-11.276-23.416c0-2.602,0-11.059,0-16.263
		c0-10.406-7.639-7.275-6.938-8.672c1.736-3.471,6.737-5.804,10.842-4.336c6.071,2.167,9.417,2.801,9.417,12.599V190.567z"/>
	<path style="fill:#666666;" d="M139.976,385.728c0-10.138-5.108-11.015-5.108-11.015c-6.505,0-12.698,6.43-12.698,25.465
		c0,12.359-10.653,9.627-15.206,8.977v-5.854c0,0,2.534,0.051,2.534-7.105c0-7.153,0-27.334,0-48.802c0-21.464,0-21.747,0-36.059
		c0-14.309,7.602-24.517,19.308-22.565c11.709,1.952,15.845,16.92,8.689,29.928c-7.154,13.011-15.785,17.041-29.445,18.343
		c-3.252-0.651-6.002-2.467-1.448-5.069c4.553-2.602,10.732,1.217,19.188-7.24c8.455-8.457,7.966-26.636,3.223-26.066
		c-5.999,0.718-5.204,8.83-5.204,19.889s0,43.804,0,47.057c8.131-8.132,12.561-9.869,18.215-9.107
		c7.345,0.987,11.273,7.155,11.273,23.416c0,2.602,0,11.059,0,16.264c0,10.404,7.639,7.274,6.938,8.672
		c-1.734,3.47-6.497,4.68-10.841,4.336c-5.865-0.467-9.418-2.804-9.418-12.602V385.728z"/>
	<path style="fill:#666666;" d="M89.225,312.181c0-23.17-26.067-39.1-53.581-26.066c-27.515,13.033-39.1,50.685-34.756,85.44
		c3.597,28.772,34.602,49.36,68.063,31.858c23.532-12.31,37.651-44.892,31.859-59.373c-5.793-14.481-21.722-1.449-13.033,5.792
		c10.499,14.481-5.431,34.394-21.722,43.444c-15.453,8.584-39.1,0.215-39.1-43.444c0-49.236,36.204-63.718,49.237-41.996
		C80.536,319.422,89.225,322.317,89.225,312.181z"/>
	<g>
		<path style="fill:#666666;" d="M232.71,373.627c0,8.689,0,28.035,0,28.035c0,3.378,3.138,4.826,3.138,4.826v3.379h-19.791v-3.379
			c0,0,3.862-1.93,3.862-4.826s0-16.088,0-21.88c0-5.793-4.344,0.276-5.792-3.621c-0.776-2.09,1.954-4.378,5.068-7.964
			c2.913-3.355,7.853-5.232,10.137-4.707C234.039,364.577,232.71,367.835,232.71,373.627z"/>
		<circle style="fill:#666666;" cx="226.074" cy="349.733" r="7.603"/>
	</g>
	<polygon style="fill:#666666;" points="32.229,304.636 32.229,402.144 35.918,403.109 35.918,298.844 	"/>
	<path style="fill:#666666;" d="M508.775,350.191v10.982c0,0-0.874,2.947-2.354,1.762c-3.107-2.485-8.887-6.344-14.85-6.344
		c-8.801,0-15.201,11.203,3.203,18.803c14.054,5.808,19.447,13.786,16.4,23.204c-4.4,13.603-22.402,13.603-35.605,6.8
		c0,3.601,0,3.601,0,3.601h-4.4v-15.2l4.4-0.401c0,0,4.803,7.601,14.004,8.4c9.199,0.801,8.08-14.558-1.201-19.601
		c-18.403-10.001-21.063-21.097-11.602-29.205c11.201-9.6,28.805,0.8,28.805,0.8v-3.601H508.775z"/>
	<g>
		<path style="fill:#666666;" d="M318.393,352.992c0,0-0.857,1.931-0.857,4.827s0,29.876,0,35.669s4.344-0.277,5.792,3.621
			c0.776,2.089-1.954,4.377-5.067,7.964c-2.914,3.354-7.854,5.233-10.137,4.706c-4.708-1.086-3.379-4.344-3.379-10.136
			c0-8.689,0-41.824,0-41.824c0-3.38-3.005-8.086-3.005-8.086c-6.022-4.345,1.021-5.66,4.705-5.431
			c5.794,0.362,11.585,5.068,11.585,5.068L318.393,352.992z"/>
		<path style="fill:#666666;" d="M294.418,362.721c0,0,27.889,0,31.026,0c3.137,0,4.533,0,4.533,0s-2.79,7.917-3.837,7.917
			c-1.046,0-27.192,0-30.678,0c-3.486,0-3.139-7.449-3.139-7.449L294.418,362.721z"/>
	</g>
	<g>
		<path style="fill:#666666;" d="M337.338,360.565c2.54-3.81,6.276-11.584,14.481-11.584c8.206,0,7.241,9.172,7.241,14
			c0,4.825,0,37.651,0,40.548c0,4.344-7.241,6.757-12.067,6.273c-4.827-0.48-2.618-2.625-0.966-6.758
			c0.966-2.412,0.966-4.344,0.966-9.652c0-5.312,0-23.654,0-27.999c0-4.344-3.862-4.828-5.793-2.412
			C339.27,365.394,335.409,363.463,337.338,360.565z"/>
		<path style="fill:#666666;" d="M356.647,369.738c2.54-3.81,12.55-15.445,20.756-15.445c8.207,0,7.24,9.172,7.24,13.997
			c0,4.828,0,32.343,0,35.239c0,4.344-7.241,6.757-12.066,6.273c-4.828-0.48-2.617-2.625-0.967-6.758
			c0.967-2.412,0.967-4.344,0.967-9.652c0-5.312,0-20.274,0-24.619c0-4.344-11.585,3.861-13.517,6.274
			C357.13,377.463,354.716,372.635,356.647,369.738z"/>
		<path style="fill:#666666;" d="M378.853,369.738c2.539-3.81,12.55-15.445,20.755-15.445c8.207,0,7.241,9.172,7.241,13.997
			c0,4.828,0,26.066,0,28.963c0,7.241,9.522,8.214,5.31,10.62c-3.377,1.93-8.206,3.861-14.481-1.447
			c-2.083-1.766-2.896-7.725-2.896-13.033c0-5.312,0-20.274,0-24.619c0-4.344-11.583,3.861-13.516,6.274
			C379.334,377.463,376.922,372.635,378.853,369.738z"/>
	</g>
	<path style="fill:#666666;" d="M284.314,350.191v10.982c0,0-0.874,2.947-2.354,1.762c-3.107-2.485-8.887-6.344-14.85-6.344
		c-8.801,0-15.202,11.203,3.203,18.803c14.054,5.808,19.447,13.786,16.4,23.204c-4.4,13.603-22.402,13.603-35.606,6.8
		c0,3.601,0,3.601,0,3.601h-4.399v-15.2l4.399-0.401c0,0,4.803,7.601,14.003,8.4c9.201,0.801,8.081-14.558-1.201-19.601
		c-18.402-10.001-21.061-21.097-11.6-29.205c11.2-9.6,28.804,0.8,28.804,0.8v-3.601H284.314z"/>
	<path style="fill:#666666;" d="M461.154,401.877c-0.481-2.655,0-30.167,0-36.203c0-6.033-7.965-12.79-18.102-12.31
		c-3.773,0.182-20.275,2.896-24.619,20.999c-4.223,17.595,3.627,29.072,12.068,32.822c6.518,2.896,15.93,2.656,20.758-3.377
		c0.725,1.689,4.585,6.033,11.826,3.377C464.533,406.945,461.637,404.533,461.154,401.877z M449.088,396.568
		c0,3.861-7.604,5.188-13.035,3.739c-4.357-1.161-10.379-9.532-6.033-23.772c4.344-14.241,17.62-12.671,19.068-5.19
		C449.088,371.345,449.088,392.705,449.088,396.568z"/>
</g>
</svg>
