<?xml version="1.0" encoding="iso-8859-1"?>
<!-- Generator: Adobe Illustrator 21.1.0, SVG Export Plug-In . SVG Version: 6.00 Build 0)  -->
<svg version="1.1" id="_x33_" xmlns="http://www.w3.org/2000/svg" xmlns:xlink="http://www.w3.org/1999/xlink" x="0px" y="0px"
	 viewBox="0 0 512 512" style="enable-background:new 0 0 512 512;" xml:space="preserve">
<g>
	<g>
		<g>
			<path style="fill:#FFFFFF;" d="M412.444,355.576C412.444,441.97,342.394,512,256,512c-6.967,0-13.832-0.446-20.555-1.337
				c-76.673-10.065-135.889-75.66-135.889-155.087c0-46.336,20.13-87.953,52.148-116.609
				c27.684-24.768,64.218-39.835,104.296-39.835c54.578,0,102.635,27.947,130.583,70.314c2.572,3.848,4.941,7.817,7.149,11.888
				C405.68,303.428,412.444,328.702,412.444,355.576z"/>
			<path style="fill:#DBDBDB;" d="M393.732,281.333c-1.029-1.906-2.11-3.78-3.215-5.637c-0.182-0.306-0.369-0.609-0.554-0.913
				c-27.389-45.334-77.124-75.651-133.963-75.651c-40.078,0-76.612,15.067-104.296,39.835
				c13.872,59.013,66.871,102.939,130.117,102.939c17.086,0,33.422-3.208,48.439-9.055c27.872-10.85,56.031,15.17,48.227,44.043
				c-18.222,67.418-85.094,116.766-143.042,133.769C242.168,511.554,249.033,512,256,512c86.394,0,156.444-70.03,156.444-156.424
				C412.444,328.702,405.68,303.428,393.732,281.333z"/>
			<path style="fill:#019991;" d="M164.138,215.191c-22.277,12.151-22.936,68.623,46.579,93.158
				c68.856,24.302,119.903,4.38,143.787-26.327c28.352-36.453,12.151-64.805-18.227-72.906
				C305.9,201.015,164.138,215.191,164.138,215.191z"/>
			<circle style="fill:#FFFFFF;" cx="255.998" cy="182.424" r="107.835"/>
			
				<ellipse transform="matrix(0.1207 -0.9927 0.9927 0.1207 -184.2067 485.7036)" style="fill:#3F210E;" cx="182.052" cy="346.827" rx="12.401" ry="8.413"/>
			
				<ellipse transform="matrix(0.1207 -0.9927 0.9927 0.1207 -17.6646 337.5354)" style="fill:#3F210E;" cx="181.69" cy="178.738" rx="7.957" ry="5.398"/>
			
				<ellipse transform="matrix(0.1207 -0.9927 0.9927 0.1207 29.7032 424.8095)" style="fill:#3F210E;" cx="254.638" cy="195.639" rx="7.957" ry="5.398"/>
			<ellipse style="fill:#3F210E;" cx="175.977" cy="393.406" rx="8.413" ry="12.401"/>
			
				<ellipse transform="matrix(0.9988 -0.0493 0.0493 0.9988 -21.5703 9.2256)" style="fill:#3F210E;" cx="176.289" cy="442.01" rx="8.413" ry="12.401"/>
		</g>
	</g>
	<path style="fill:#019991;" d="M255.271,298.223c0,0,24.302,52.654,24.302,123.535c14.176,14.176,46.579,0,52.654-8.101
		s-2.025-81.007-38.478-115.435H255.271z"/>
	<path style="fill:#319BD0;" d="M326.233,109.133c-1.964,11.766-17.396,19.685-38.357,21.426c-9.052,0.77-19.118,0.365-29.588-1.377
		c-34.731-5.751-60.633-24.079-57.839-40.929c2.795-16.829,11.807-48.28,16.1-68.37c3.22-14.966,51.399-21.831,84.287-11.685
		c17.052,5.245,30.013,15.088,30.438,30.722C332.065,66.99,327.185,103.423,326.233,109.133z"/>
	<path style="fill:#238198;" d="M326.233,109.133c-1.964,11.766-17.396,19.685-38.357,21.426l3.848-94.251
		c0.992-12.596-3.49-9.808,1.35-16.208c17.052,5.245,37.776,3.186,38.201,18.82C332.065,66.99,327.185,103.423,326.233,109.133z"/>
	<path style="fill:#019991;" d="M318.051,300.249c0,0,17.89,25.344,31.925,63.241c5.463,14.752-2.283,31.566-17.369,36.024
		c-4.177,1.234-8.48,1.487-12.531-0.032c-16.201-6.076-32.403-93.158-32.403-93.158L318.051,300.249z"/>
	
		<ellipse transform="matrix(0.1638 -0.9865 0.9865 0.1638 200.0495 294.8036)" style="fill:#50B7E2;" cx="273.915" cy="29.402" rx="28.19" ry="58.142"/>
	<g>
		<path style="fill:#DC5518;" d="M193.603,243.53c1.821,3.999,5.175,7.057,9.22,9.101c4.056,2.047,8.846,3.12,13.819,3.123
			c8.009,0,16.577-2.817,23.048-9.28c0.973-0.973,0.973-2.549,0-3.522c-0.973-0.973-2.549-0.973-3.522,0
			c-5.391,5.398-12.656,7.821-19.526,7.822c-4.249,0.003-8.313-0.937-11.572-2.587c-3.269-1.654-5.691-3.978-6.933-6.717
			c-0.569-1.252-2.046-1.806-3.298-1.236C193.588,240.802,193.034,242.278,193.603,243.53L193.603,243.53z"/>
	</g>
	<path style="fill:#DC5518;" d="M206.517,225.317c-22.642,0-18.227-28.352,2.025-22.277
		C228.036,208.889,216.643,225.317,206.517,225.317z"/>
</g>
</svg>
