<?xml version="1.0" encoding="iso-8859-1"?>
<!-- Generator: Adobe Illustrator 21.1.0, SVG Export Plug-In . SVG Version: 6.00 Build 0)  -->
<svg version="1.1" id="_x31_2" xmlns="http://www.w3.org/2000/svg" xmlns:xlink="http://www.w3.org/1999/xlink" x="0px" y="0px"
	 viewBox="0 0 512 512" style="enable-background:new 0 0 512 512;" xml:space="preserve">
<g>
	<path style="fill:#171818;" d="M1.857,302.838c1.241,0.378,2.313,0.553,3.198,0.674c0.28,0.038,0.549,0.072,0.812,0.106
		c0.604,0.077,1.174,0.149,1.748,0.254c0.157,0.029,0.316,0.043,0.474,0.043c1.263,0,2.346-0.904,2.574-2.148
		c0.26-1.42-0.684-2.788-2.105-3.048c-0.754-0.138-1.446-0.225-2.056-0.302c-0.252-0.032-0.496-0.063-0.734-0.095
		c-0.827-0.114-1.549-0.242-2.387-0.497c-0.248-0.076-0.505-0.114-0.763-0.114c-1.161,0-2.167,0.747-2.505,1.858
		C-0.306,300.952,0.476,302.418,1.857,302.838z"/>
	<path style="fill:#171818;" d="M323.353,382.459c-1.846-1.13-3.419-2.655-4.81-4.662c-1.146-1.656-2.174-3.679-3.056-6.013
		c-1.354-3.577-2.428-7.989-3.378-13.883c-0.563-3.48-1.018-7.04-1.5-10.808c-0.568-4.44-1.155-9.031-1.931-13.445
		c-0.8-4.541-1.712-8.349-2.79-11.64c-1.318-4.022-2.894-7.345-4.817-10.157c-7.008-10.242-15.423-16.523-21.248-19.989
		c-1.734-1.031-3.199-2.476-4.236-4.178c-1.042-1.71-1.627-3.644-1.693-5.593c-0.064-1.877-0.565-3.737-1.488-5.527
		c-1.371-2.653-3.552-4.915-6.309-6.541c-2.941-1.734-6.43-2.651-10.111-2.651c-4.822,0-9.321,1.6-12.668,4.503
		c-1.57,1.36-2.824,2.938-3.728,4.689c-0.923,1.79-1.424,3.649-1.488,5.526c-0.066,1.949-0.652,3.883-1.693,5.593
		c-1.037,1.702-2.502,3.147-4.236,4.178c-5.753,3.423-10.966,7.694-15.493,12.692c-1.041,1.15-0.953,2.932,0.197,3.973
		c0.518,0.469,1.189,0.728,1.887,0.728c0.793,0,1.553-0.337,2.086-0.925c4.15-4.582,8.928-8.497,14.201-11.634
		c2.519-1.499,4.65-3.603,6.162-6.085c1.545-2.533,2.414-5.414,2.512-8.331c0.034-1.022,0.333-2.107,0.865-3.137
		c0.867-1.686,2.347-3.203,4.165-4.273c2.109-1.242,4.546-1.871,7.243-1.873c4.448,0.003,7.348,1.704,8.998,3.13
		c1.012,0.876,1.846,1.919,2.412,3.016c0.531,1.03,0.831,2.115,0.865,3.137c0.098,2.916,0.967,5.797,2.512,8.33
		c1.513,2.482,3.644,4.586,6.163,6.085c5.341,3.179,13.056,8.94,19.482,18.331c1.402,2.049,2.64,4.56,3.679,7.463
		c1.536,4.283,2.701,9.461,3.777,16.788c0.409,2.781,0.779,5.671,1.136,8.465c0.233,1.823,0.467,3.649,0.713,5.462
		c0.913,6.699,2.051,13.725,4.182,19.726c1.146,3.218,2.482,5.896,4.082,8.184c1.8,2.575,3.961,4.643,6.422,6.145
		c2.202,1.345,3.989,2.999,5.167,4.784c1.136,1.724,1.714,3.533,1.716,5.376c-0.001,1.212-0.241,2.392-0.734,3.605
		c-0.979,2.409-2.899,4.731-5.704,6.902c-2.395,1.854-5.409,3.562-8.957,5.078c-5.972,2.553-13.423,4.55-22.145,5.936
		c-9.747,1.55-21.103,2.337-33.774,2.337c-12.841,0-24.345-0.81-34.192-2.408c-6.681-1.083-12.644-2.537-17.723-4.322
		c-6.662-2.338-11.933-5.323-15.242-8.634c-1.428-1.426-2.504-2.912-3.198-4.418c-0.63-1.371-0.937-2.704-0.938-4.075
		c0.002-1.845,0.58-3.654,1.716-5.378c1.179-1.785,2.966-3.439,5.167-4.784c2.201-1.344,4.165-3.142,5.838-5.344
		c2.531-3.337,4.417-7.49,5.937-13.071c0.878-3.234,1.619-6.919,2.332-11.597c0.477-3.133,0.893-6.383,1.295-9.526
		c0.369-2.882,0.75-5.862,1.175-8.728c1.063-7.177,2.215-12.267,3.735-16.503c0.523-1.46-0.24-3.073-1.7-3.596
		c-0.306-0.11-0.625-0.165-0.948-0.165c-1.184,0-2.249,0.75-2.648,1.865c-2.129,5.952-3.281,12.674-4.046,17.867
		c-0.42,2.855-0.792,5.769-1.153,8.587c-0.232,1.815-0.463,3.62-0.705,5.401c-0.823,6.087-1.931,13.056-3.907,18.595
		c-0.96,2.7-2.101,5.003-3.391,6.844c-1.376,1.963-2.928,3.458-4.746,4.571c-2.939,1.797-5.269,3.977-6.927,6.481
		c-1.736,2.618-2.651,5.551-2.649,8.48c-0.001,1.927,0.386,3.853,1.149,5.725c1.362,3.342,3.876,6.448,7.472,9.23
		c2.775,2.146,6.203,4.098,10.189,5.801c6.397,2.732,14.294,4.858,23.471,6.319c10.043,1.597,21.7,2.407,34.647,2.407
		c13.147,0,24.958-0.834,35.103-2.48c7.009-1.137,13.296-2.674,18.687-4.568c7.545-2.655,13.383-6.005,17.351-9.959
		c1.901-1.898,3.359-3.932,4.333-6.045c0.967-2.094,1.456-4.258,1.455-6.43c0.003-2.93-0.913-5.863-2.649-8.48
		C328.622,386.436,326.292,384.256,323.353,382.459z"/>
	<path style="fill:#171818;" d="M211.609,399.492c1.199-0.677,2.889-1.363,4.887-1.986c2.082-0.65,4.536-1.251,7.295-1.785
		c0.687-0.132,1.281-0.525,1.673-1.105c0.392-0.58,0.534-1.277,0.401-1.964c-0.238-1.229-1.318-2.121-2.569-2.121
		c-0.167,0-0.335,0.016-0.5,0.048c-2.56,0.495-4.898,1.051-6.951,1.652c-1.58,0.463-3.01,0.958-4.251,1.472
		c-2.08,0.866-3.593,1.739-4.761,2.748c-0.699,0.609-1.228,1.238-1.617,1.92c-0.465,0.81-0.709,1.703-0.706,2.582
		c-0.002,0.74,0.173,1.499,0.504,2.194c0.272,0.576,0.64,1.11,1.123,1.635c0.761,0.82,1.719,1.539,3.019,2.262
		c1.968,1.086,4.51,2.047,7.771,2.937c4.676,1.272,10.436,2.279,17.122,2.991c6.86,0.731,14.246,1.102,21.952,1.102
		c6.674,0,13.154-0.281,19.26-0.836c4.424-0.402,8.557-0.941,12.284-1.602c2.791-0.495,5.347-1.058,7.595-1.672
		c1.724-0.471,3.286-0.979,4.645-1.509c2.264-0.888,3.909-1.785,5.178-2.825c0.757-0.626,1.331-1.272,1.754-1.976
		c0.245-0.408,0.435-0.835,0.564-1.267c0.141-0.47,0.212-0.952,0.211-1.432c0.002-0.74-0.172-1.499-0.503-2.194
		c-0.272-0.576-0.64-1.11-1.124-1.635c-0.761-0.821-1.72-1.539-3.019-2.262c-1.966-1.085-4.508-2.046-7.772-2.937
		c-4.676-1.272-10.437-2.279-17.122-2.991c-6.865-0.731-14.251-1.102-21.952-1.102c-5.365,0-10.644,0.184-15.69,0.546
		c-0.698,0.05-1.334,0.369-1.792,0.898c-0.458,0.529-0.683,1.205-0.632,1.902c0.098,1.363,1.245,2.431,2.611,2.432
		c0.063,0,0.126-0.002,0.19-0.007c1.011-0.073,2.037-0.133,3.066-0.191c-0.596,0.481-0.986,1.208-0.986,2.031
		c-0.001,3.537,1.375,6.861,3.876,9.358c2.496,2.499,5.818,3.876,9.358,3.876h0.004c3.536,0,6.859-1.377,9.354-3.876
		c2.501-2.497,3.877-5.821,3.876-9.358c0-0.826-0.392-1.556-0.992-2.036c2.223,0.125,4.408,0.283,6.544,0.477
		c4.276,0.389,8.26,0.908,11.844,1.543c2.633,0.467,5.031,0.994,7.128,1.568c1.545,0.422,2.932,0.872,4.124,1.336
		c1.622,0.628,2.987,1.351,3.749,1.986c0.319,0.262,0.514,0.494,0.593,0.627l0.005,0.008c-0.032,0.054-0.096,0.149-0.216,0.279
		c-0.159,0.175-0.644,0.645-1.704,1.228c-1.546,0.859-3.831,1.711-6.61,2.466c-4.344,1.184-9.98,2.165-16.301,2.837
		c-6.676,0.711-13.875,1.072-21.397,1.072c-6.522,0-12.843-0.274-18.786-0.815c-4.274-0.388-8.258-0.907-11.844-1.543
		c-2.633-0.467-5.031-0.994-7.128-1.568c-1.55-0.424-2.937-0.874-4.124-1.337c-1.623-0.629-2.988-1.352-3.749-1.986
		c-0.319-0.262-0.514-0.493-0.592-0.626l-0.005-0.008c0.033-0.056,0.106-0.164,0.248-0.313
		C210.347,400.293,210.926,399.875,211.609,399.492z M263.995,395.444c-0.001,2.133-0.833,4.141-2.342,5.653
		c-1.513,1.51-3.521,2.342-5.654,2.343c-2.133-0.001-4.142-0.833-5.654-2.342c-1.51-1.513-2.341-3.521-2.342-5.654
		c0-0.908-0.465-1.709-1.169-2.179c3.006-0.124,6.066-0.195,9.165-0.195c3.111,0,6.175,0.064,9.177,0.188
		C264.466,393.728,263.995,394.531,263.995,395.444z"/>
	<circle style="fill:#171818;" cx="255.999" cy="286.28" r="5.519"/>
	<path style="fill:#171818;" d="M253.381,100.382c0.036,1.431,1.186,2.553,2.617,2.553l0.067,0c1.444-0.036,2.589-1.241,2.552-2.685
		c-0.009-0.38-0.018-1.291-0.023-2.428c-0.005-1.143-0.008-2.528-0.008-3.904c0-1.376,0.003-2.744,0.008-3.855
		c0.003-0.554,0.006-1.045,0.01-1.438c0.004-0.387,0.009-0.685,0.013-0.829c0.043-1.444-1.096-2.653-2.54-2.697l-0.079-0.001
		c-1.425,0-2.575,1.116-2.617,2.54c-0.006,0.213-0.011,0.524-0.015,0.935c-0.012,1.214-0.018,3.268-0.018,5.345
		c0,1.383,0.003,2.774,0.008,3.928C253.362,99.007,253.37,99.916,253.381,100.382z"/>
	<path style="fill:#171818;" d="M255.999,232.029h0.003c0.7-0.001,1.357-0.273,1.851-0.769c0.494-0.495,0.766-1.154,0.765-1.853
		c-0.022-21.168-0.033-40.101-0.033-59.124c0-17.249,0.009-34.572,0.025-53.7c0-0.699-0.271-1.358-0.766-1.853
		c-0.494-0.495-1.152-0.768-1.854-0.769c-1.443,0-2.618,1.174-2.619,2.616c-0.017,19.13-0.026,36.454-0.026,53.705
		c0,19.025,0.01,37.961,0.033,59.13C253.382,230.855,254.557,232.029,255.999,232.029z"/>
	<path style="fill:#171818;" d="M167.724,110.307c1.087,3.187,2.21,6.482,3.574,9.63c0.416,0.958,1.359,1.577,2.404,1.577
		c0.359,0,0.71-0.073,1.042-0.217c0.642-0.278,1.137-0.79,1.394-1.441c0.257-0.651,0.245-1.362-0.034-2.005
		c-1.247-2.867-2.287-5.915-3.389-9.142c-0.714-2.091-1.452-4.253-2.263-6.401c-0.383-1.012-1.368-1.692-2.45-1.692
		c-0.317,0-0.629,0.057-0.927,0.17c-0.654,0.248-1.173,0.735-1.461,1.373c-0.288,0.638-0.31,1.35-0.062,2.004
		C166.315,106.177,167.031,108.276,167.724,110.307z"/>
	<path style="fill:#171818;" d="M175.998,132.765c1.412,3.78,2.842,7.654,4.371,11.844c0.376,1.03,1.365,1.722,2.46,1.722h0
		c0.306,0,0.608-0.054,0.898-0.159c0.657-0.24,1.182-0.721,1.477-1.356c0.295-0.634,0.325-1.345,0.086-2.003
		c-1.543-4.226-2.977-8.112-4.385-11.881c-0.381-1.019-1.367-1.703-2.454-1.703c-0.313,0-0.621,0.056-0.916,0.166
		c-0.655,0.245-1.176,0.73-1.466,1.367C175.778,131.398,175.753,132.109,175.998,132.765z"/>
	<path style="fill:#171818;" d="M190.994,173.345c1.545,4.264,3.143,8.673,4.799,13.091c1.109,3.253,2.205,6.509,3.3,9.763
		c4.545,13.504,9.244,27.467,14.797,40.761c0.409,0.978,1.358,1.61,2.418,1.61h0c0.347,0,0.686-0.068,1.008-0.203
		c0.646-0.27,1.148-0.774,1.413-1.422c0.266-0.647,0.264-1.359-0.006-2.005c-5.471-13.093-10.156-27.014-14.687-40.476
		c-1.092-3.243-2.186-6.494-3.297-9.754l-0.024-0.068c-1.65-4.399-3.245-8.8-4.787-13.057c-1.711-4.72-3.479-9.601-5.352-14.562
		c-0.383-1.014-1.368-1.695-2.451-1.695c-0.316,0-0.627,0.057-0.925,0.169c-0.654,0.247-1.174,0.734-1.462,1.372
		c-0.288,0.638-0.311,1.349-0.064,2.004C187.529,163.784,189.291,168.644,190.994,173.345z"/>
	<path style="fill:#171818;" d="M91.597,152.918c0.219,0.285,0.438,0.577,0.661,0.873c0.708,0.942,1.441,1.917,2.293,2.883
		c0.497,0.563,1.213,0.885,1.964,0.885h0c0.638,0,1.254-0.233,1.733-0.656c1.082-0.956,1.185-2.615,0.229-3.697
		c-0.686-0.775-1.348-1.655-2.049-2.586c-0.219-0.291-0.441-0.586-0.669-0.885c-0.908-1.185-1.995-2.553-3.42-3.797
		c-0.477-0.416-1.088-0.645-1.72-0.645c-0.758,0-1.478,0.327-1.975,0.898c-0.949,1.089-0.835,2.747,0.254,3.696
		C89.914,150.773,90.832,151.916,91.597,152.918z"/>
	<path style="fill:#171818;" d="M115.698,181.623c0.499,0.589,1.227,0.926,2,0.926c0.618,0,1.219-0.22,1.692-0.621
		c1.102-0.933,1.239-2.589,0.306-3.692c-4.509-5.323-9.127-10.757-13.727-16.148c-0.498-0.584-1.225-0.919-1.994-0.919
		c-0.622,0-1.225,0.223-1.699,0.627c-0.532,0.454-0.856,1.088-0.911,1.786c-0.055,0.698,0.164,1.375,0.618,1.907
		C106.574,170.871,111.189,176.3,115.698,181.623z"/>
	<path style="fill:#171818;" d="M182.219,257.257c0.555-0.426,0.911-1.043,1.003-1.736c0.091-0.694-0.093-1.381-0.519-1.936
		c-6.07-7.911-12.63-15.551-18.975-22.941l-1.312-1.528c-6.074-7.077-12.148-14.383-18.021-21.449l-2.663-3.203
		c-3.373-4.055-7.079-8.484-11.663-13.936c-0.499-0.593-1.23-0.934-2.006-0.934c-0.615,0-1.213,0.218-1.684,0.614
		c-1.105,0.929-1.249,2.585-0.319,3.691c4.577,5.444,8.277,9.866,11.645,13.915l2.673,3.215
		c5.879,7.072,11.958,14.385,18.063,21.498l1.231,1.434c6.338,7.381,12.892,15.013,18.875,22.812c0.5,0.652,1.258,1.025,2.08,1.025
		C181.207,257.798,181.758,257.611,182.219,257.257z"/>
	<path style="fill:#171818;" d="M31.925,218.665c3.858,2.102,7.581,4.299,11.181,6.423c2.658,1.568,5.168,3.049,7.714,4.487
		c0.392,0.221,0.837,0.338,1.285,0.338h0c0.944,0,1.819-0.511,2.283-1.332c0.71-1.257,0.264-2.858-0.994-3.568
		c-2.475-1.396-4.955-2.859-7.581-4.409c-3.644-2.15-7.412-4.374-11.383-6.539c-0.384-0.209-0.817-0.32-1.252-0.32
		c-0.961,0-1.843,0.523-2.302,1.366c-0.335,0.614-0.41,1.322-0.213,1.993C30.863,217.776,31.311,218.33,31.925,218.665z"/>
	<path style="fill:#171818;" d="M154.131,283.171c-6.322-3.82-12.82-7.52-19.104-11.097c-4.854-2.764-9.874-5.622-14.75-8.5
		c-0.712-0.42-1.426-0.849-2.145-1.282c-2.005-1.206-4.078-2.453-6.258-3.584c-0.379-0.195-0.738-0.368-1.073-0.528
		c-0.288-0.137-0.557-0.266-0.804-0.394c-0.542-0.279-0.916-0.52-1.213-0.78c-0.628-0.55-1.297-1.036-2.044-1.487
		c-0.618-0.373-1.287-0.722-2.104-1.097c-0.463-0.211-0.916-0.407-1.353-0.595c-0.77-0.333-1.497-0.646-2.13-0.985
		c-0.396-0.209-0.837-0.534-1.378-0.96l-0.189-0.148c-0.517-0.405-1.104-0.864-1.835-1.296c-1.596-0.938-3.216-1.816-4.784-2.664
		c-1.257-0.681-2.444-1.324-3.627-1.999c-3.583-2.044-7.213-4.175-10.724-6.235c-2.775-1.629-5.644-3.313-8.487-4.952
		c-0.398-0.23-0.85-0.35-1.307-0.35c-0.935,0-1.805,0.502-2.271,1.311c-0.35,0.606-0.442,1.312-0.261,1.988
		c0.182,0.675,0.615,1.24,1.221,1.59c2.817,1.624,5.677,3.303,8.443,4.927c3.523,2.068,7.167,4.207,10.789,6.273
		c1.267,0.722,2.549,1.417,3.788,2.088c1.588,0.86,3.088,1.673,4.563,2.541c0.429,0.251,0.926,0.641,1.478,1.074
		c0.589,0.458,1.256,0.977,2.121,1.44c0.893,0.473,1.748,0.841,2.575,1.196c0.41,0.177,0.806,0.347,1.182,0.52
		c0.635,0.291,1.137,0.552,1.58,0.819c0.49,0.296,0.905,0.597,1.305,0.947c0.805,0.703,1.631,1.166,2.261,1.492
		c0.354,0.182,0.693,0.344,1.013,0.498c0.302,0.144,0.587,0.281,0.854,0.419c1.996,1.034,3.93,2.197,5.978,3.427
		c0.718,0.432,1.441,0.866,2.172,1.298c4.937,2.914,9.986,5.789,14.869,8.569c6.247,3.557,12.707,7.235,18.938,11
		c0.409,0.248,0.877,0.378,1.353,0.378h0c0.926,0,1.765-0.473,2.243-1.264C155.765,285.531,155.367,283.918,154.131,283.171z"/>
	<path style="fill:#171818;" d="M136.694,321.314c-12.602-2.223-25.478-4.516-37.929-6.735
		c-25.017-4.457-50.886-9.066-76.161-13.383c-0.146-0.025-0.295-0.038-0.443-0.038c-1.279,0-2.364,0.916-2.58,2.179
		c-0.118,0.689,0.04,1.384,0.445,1.955c0.404,0.571,1.007,0.95,1.697,1.068c25.26,4.314,51.131,8.924,76.149,13.381
		c12.445,2.217,25.313,4.51,37.912,6.732c0.151,0.027,0.305,0.041,0.458,0.041h0c1.271,0,2.355-0.91,2.576-2.165
		C139.069,322.927,138.116,321.565,136.694,321.314z"/>
	<path style="fill:#171818;" d="M428.335,372.736c-7.237-1.354-14.563-2.574-21.647-3.754c-9.191-1.531-18.695-3.114-27.854-4.973
		c-0.172-0.035-0.348-0.052-0.523-0.052c-1.239,0-2.318,0.883-2.565,2.099c-0.139,0.686-0.003,1.385,0.384,1.968
		c0.387,0.583,0.977,0.981,1.663,1.12c9.293,1.884,18.85,3.476,28.093,5.015c7.047,1.174,14.333,2.387,21.485,3.727
		c0.16,0.03,0.323,0.045,0.485,0.045h0c1.258,0,2.34-0.899,2.572-2.138C430.693,374.373,429.754,373.002,428.335,372.736z"/>
	<path style="fill:#171818;" d="M482.391,382.242c-8.095-1.635-16.214-2.977-24.066-4.274c-6.262-1.035-12.737-2.104-19.055-3.303
		c-0.162-0.031-0.327-0.046-0.491-0.046c-1.255,0-2.336,0.896-2.57,2.132c-0.13,0.688,0.015,1.384,0.409,1.962
		c0.394,0.579,0.99,0.969,1.677,1.099c6.42,1.217,12.943,2.295,19.251,3.337c7.794,1.288,15.853,2.619,23.807,4.228
		c0.172,0.035,0.347,0.052,0.522,0.052c1.24,0,2.319-0.883,2.564-2.1c0.139-0.686,0.002-1.384-0.385-1.968
		C483.668,382.777,483.077,382.38,482.391,382.242z"/>
	<path style="fill:#171818;" d="M509.848,387.108c-4.594-0.834-9.458-1.704-14.868-2.659c-0.151-0.027-0.305-0.041-0.458-0.041
		c-1.272,0-2.355,0.91-2.577,2.164c-0.122,0.689,0.032,1.383,0.433,1.957c0.401,0.573,1.001,0.956,1.69,1.078
		c5.375,0.949,10.231,1.818,14.844,2.656c0.155,0.028,0.313,0.042,0.47,0.042h0c1.266,0,2.348-0.905,2.575-2.151
		C512.215,388.732,511.269,387.367,509.848,387.108z"/>
	<path style="fill:#171818;" d="M54.506,377.918c-0.124,0-0.249,0.009-0.378,0.027c-9.508,1.375-19.059,3.182-28.295,4.93
		c-7.716,1.46-15.695,2.97-23.623,4.223c-1.427,0.226-2.404,1.57-2.178,2.997c0.203,1.28,1.289,2.21,2.584,2.21
		c0.136,0,0.274-0.011,0.413-0.033c8.053-1.275,16.088-2.795,23.858-4.265c9.17-1.735,18.652-3.529,27.991-4.878
		c1.429-0.207,2.424-1.538,2.218-2.967C56.91,378.883,55.797,377.918,54.506,377.918z"/>
	<path style="fill:#171818;" d="M133.685,363.957c-0.173,0-0.348,0.017-0.519,0.052c-11.064,2.23-22.309,4.082-33.184,5.874
		c-8.893,1.465-18.089,2.98-27.116,4.69c-0.688,0.13-1.283,0.52-1.677,1.099c-0.394,0.578-0.539,1.275-0.409,1.963
		c0.234,1.235,1.315,2.132,2.571,2.132h0c0.163,0,0.328-0.016,0.49-0.046c8.929-1.692,18.081-3.2,26.933-4.658
		c10.927-1.8,22.227-3.661,33.427-5.917c1.416-0.285,2.335-1.669,2.05-3.085C136.005,364.841,134.926,363.957,133.685,363.957z"/>
	<path style="fill:#171818;" d="M376.138,326.485c8.097-1.189,16.131-2.739,23.9-4.238c8.172-1.576,16.622-3.207,25.076-4.399
		c1.43-0.202,2.429-1.53,2.228-2.96c-0.182-1.285-1.295-2.253-2.591-2.253c-0.122,0-0.245,0.008-0.369,0.026
		c-8.656,1.224-17.193,2.871-25.448,4.463c-7.691,1.484-15.644,3.018-23.556,4.177c-0.692,0.101-1.304,0.467-1.721,1.028
		c-0.418,0.561-0.592,1.252-0.49,1.943c0.187,1.277,1.3,2.24,2.589,2.24C375.881,326.513,376.009,326.504,376.138,326.485z"/>
	<path style="fill:#171818;" d="M437.705,315.63c1.569-0.285,3.138-0.567,4.709-0.846c0.269-0.048,0.519-0.146,0.754-0.27
		c0.118,0.016,0.237,0.032,0.359,0.032h0c0.152,0,0.306-0.013,0.457-0.04c5.265-0.928,10.47-1.81,14.416-2.476
		c2.48-0.418,4.961-0.834,7.442-1.249c14.456-2.422,29.404-4.927,44.056-7.881c1.415-0.286,2.335-1.67,2.05-3.085
		c-0.246-1.218-1.325-2.103-2.566-2.103c-0.173,0-0.348,0.018-0.52,0.052c-14.559,2.936-29.49,5.438-43.929,7.858
		c-2.467,0.413-4.935,0.827-7.403,1.243c-5.778,0.974-10.236,1.74-14.455,2.483c-0.271,0.048-0.521,0.146-0.758,0.27
		c-0.118-0.016-0.237-0.032-0.359-0.032c-0.154,0-0.308,0.013-0.46,0.041c-1.577,0.28-3.154,0.563-4.731,0.85
		c-0.688,0.125-1.287,0.511-1.685,1.086c-0.398,0.575-0.548,1.271-0.423,1.959c0.227,1.246,1.309,2.151,2.574,2.151
		C437.391,315.673,437.549,315.659,437.705,315.63z"/>
	<path style="fill:#171818;" d="M428.545,242.77c-0.446,0-0.889,0.116-1.28,0.335c-11.661,6.54-23.44,13.436-34.831,20.106
		c-11.266,6.596-22.914,13.416-34.493,19.918c-0.61,0.342-1.05,0.902-1.24,1.576c-0.189,0.674-0.105,1.38,0.238,1.99
		c0.463,0.825,1.339,1.338,2.286,1.338c0.447,0,0.89-0.116,1.281-0.336c11.644-6.54,23.321-13.377,34.615-19.989
		c11.363-6.653,23.114-13.532,34.707-20.034c0.61-0.342,1.051-0.901,1.24-1.575c0.19-0.674,0.105-1.38-0.237-1.991
		C430.368,243.283,429.492,242.77,428.545,242.77z"/>
	<path style="fill:#171818;" d="M442.694,239.704c0.472,0,0.937-0.129,1.343-0.372c4.236-2.536,8.893-5.245,14.655-8.527
		c1.255-0.715,1.694-2.318,0.979-3.573c-0.465-0.816-1.338-1.323-2.278-1.323c-0.452,0-0.9,0.119-1.295,0.344
		c-5.81,3.31-10.497,6.038-14.752,8.584c-0.6,0.359-1.025,0.931-1.195,1.61c-0.17,0.678-0.066,1.383,0.293,1.983
		C440.916,239.216,441.777,239.704,442.694,239.704z"/>
	<path style="fill:#171818;" d="M467.416,225.472L467.416,225.472c0.449,0,0.894-0.117,1.287-0.339
		c3.643-2.059,7.526-4.257,11.421-6.497c1.252-0.721,1.685-2.325,0.965-3.577c-0.466-0.81-1.337-1.314-2.273-1.314
		c-0.456,0-0.907,0.121-1.304,0.349c-3.893,2.24-7.76,4.428-11.387,6.479c-0.609,0.344-1.048,0.905-1.235,1.579
		c-0.187,0.674-0.101,1.381,0.244,1.99C465.597,224.963,466.472,225.472,467.416,225.472z"/>
	<path style="fill:#171818;" d="M372.903,209.503c0.291-0.353,0.559-0.702,0.814-1.035c0.188-0.245,0.369-0.481,0.547-0.702
		c0.418-0.522,0.78-0.905,1.08-1.141c1.413-1.122,2.515-2.398,3.408-3.499c0.441-0.546,0.861-1.09,1.27-1.619
		c0.486-0.629,0.945-1.223,1.406-1.778c1.774-2.141,3.623-4.304,5.41-6.395c1.979-2.315,4.025-4.71,6.008-7.117
		c0.445-0.54,0.653-1.221,0.585-1.917c-0.067-0.696-0.402-1.325-0.942-1.769c-0.468-0.385-1.059-0.598-1.664-0.598
		c-0.786,0-1.523,0.347-2.023,0.953c-1.934,2.348-3.958,4.716-5.915,7.006c-1.808,2.115-3.677,4.302-5.494,6.495
		c-0.548,0.662-1.062,1.328-1.56,1.972c-0.391,0.505-0.773,1-1.156,1.473c-0.977,1.21-1.801,2.065-2.592,2.691
		c-0.798,0.635-1.411,1.349-1.907,1.964c-0.235,0.293-0.454,0.578-0.66,0.847c-0.234,0.304-0.45,0.587-0.656,0.835
		c-1.02,1.236-2.041,2.47-3.063,3.703c-5.864,7.075-11.872,14.238-17.682,21.166c-1.852,2.208-3.704,4.416-5.555,6.626
		c-5.326,6.358-9.399,11.245-13.206,15.846c-0.446,0.539-0.655,1.22-0.59,1.916c0.066,0.696,0.399,1.326,0.938,1.772
		c0.469,0.388,1.061,0.601,1.669,0.601c0.784,0,1.52-0.346,2.019-0.949c3.807-4.601,7.873-9.48,13.186-15.821
		c1.874-2.238,3.75-4.475,5.627-6.712c5.79-6.903,11.776-14.041,17.628-21.1C370.858,211.979,371.881,210.741,372.903,209.503z"/>
	<path style="fill:#171818;" d="M401.867,173.79c0.761,0,1.483-0.33,1.981-0.905c3.755-4.336,7.459-8.805,11.042-13.127
		c0.998-1.204,1.996-2.408,2.994-3.608c0.447-0.538,0.659-1.218,0.594-1.914c-0.064-0.697-0.395-1.327-0.933-1.774
		c-0.469-0.391-1.064-0.606-1.673-0.606c-0.781,0-1.516,0.344-2.015,0.944c-0.997,1.199-1.991,2.398-2.985,3.597
		c-3.575,4.312-7.271,8.771-10.984,13.059c-0.458,0.529-0.683,1.204-0.633,1.902c0.05,0.698,0.369,1.334,0.898,1.792
		C400.629,173.563,401.238,173.79,401.867,173.79z"/>
	<path style="fill:#171818;" d="M294.841,238.427c0.276,0.095,0.563,0.143,0.852,0.143c1.118,0,2.113-0.71,2.477-1.767
		c1.426-4.144,2.928-8.399,4.592-13.01c3.617-10.02,7.448-20.169,11.153-29.983c1.914-5.07,3.829-10.142,5.726-15.224
		c0.245-0.655,0.219-1.367-0.071-2.004c-0.29-0.636-0.811-1.122-1.467-1.366c-0.295-0.11-0.603-0.166-0.915-0.166
		c-1.087,0-2.074,0.685-2.454,1.704c-1.889,5.061-3.798,10.118-5.708,15.177c-3.714,9.837-7.554,20.008-11.19,30.083
		c-1.668,4.622-3.179,8.902-4.619,13.085c-0.228,0.661-0.184,1.372,0.122,2.001C293.646,237.727,294.179,238.199,294.841,238.427z"
		/>
	<path style="fill:#171818;" d="M323.559,160.308c0.285,0.102,0.582,0.154,0.883,0.154c1.103,0,2.094-0.699,2.466-1.737
		c2.347-6.556,4.44-12.56,6.398-18.353c0.224-0.663,0.176-1.374-0.134-2c-0.31-0.627-0.846-1.096-1.509-1.32
		c-0.272-0.092-0.554-0.139-0.839-0.139c-1.124,0-2.121,0.716-2.481,1.781c-1.953,5.776-4.035,11.751-6.368,18.265
		C321.489,158.319,322.199,159.821,323.559,160.308z"/>
	<path style="fill:#171818;" d="M334.752,128.798c0.288,0.104,0.587,0.157,0.891,0.157c1.099,0,2.089-0.695,2.463-1.729
		c1.613-4.459,3.295-8.988,4.921-13.368l1.472-3.967c0.243-0.656,0.216-1.368-0.076-2.003c-0.292-0.636-0.814-1.12-1.47-1.363
		c-0.293-0.108-0.599-0.164-0.91-0.164c-1.09,0-2.077,0.688-2.456,1.71l-1.485,4.003c-1.624,4.374-3.303,8.898-4.921,13.37
		c-0.238,0.657-0.206,1.369,0.091,2.002C333.568,128.08,334.094,128.56,334.752,128.798z"/>
</g>
</svg>
