<?xml version="1.0" encoding="iso-8859-1"?>
<!-- Generator: Adobe Illustrator 22.1.0, SVG Export Plug-In . SVG Version: 6.00 Build 0)  -->
<svg version="1.1" id="_x35_" xmlns="http://www.w3.org/2000/svg" xmlns:xlink="http://www.w3.org/1999/xlink" x="0px" y="0px"
	 viewBox="0 0 512 512" style="enable-background:new 0 0 512 512;" xml:space="preserve">
<g>
	<path style="fill:#DB504F;" d="M408.793,235.169c3.927-10.8,46.145-31.909,64.8-30.436c18.654,1.473,35.836,23.564,26.018,39.763
		s-35.345,32.891-50.072,39.272c-14.727,6.382-60.872,23.073-60.872,23.073L408.793,235.169z"/>
	<path style="fill:#DB504F;" d="M403.393,165.461c2.945-5.891,23.564-26.509,42.709-24.054c19.145,2.454,5.4,12.273,2.945,19.636
		s0.491,14.236,1.964,16.691c1.473,2.455,9.327,29.454-1.964,37.8c1.964,7.854,4.909,40.254-9.818,58.909
		c-14.727,18.654-48.6,43.691-48.6,43.691l-31.909-37.8c0,0,0.491-25.527,11.782-34.363c-17.182-1.964-18.654-0.982-20.127-1.473
		c-1.473-0.491-9.327-2.946-18.654-0.491c-9.327,2.455-12.273,3.436-16.2,2.455c-3.927-0.982-8.836-4.418-14.236-12.764
		s-6.382-19.145,4.418-18.654c10.8,0.491,23.564,7.364,25.036,8.345c1.473,0.982,9.818,0.491,9.818,0.491h21.6
		c0,0-14.236-10.8-13.254-18.163c-0.982-8.836-3.436-15.218-3.436-15.218s-7.364-5.4-8.836-19.636
		c-1.473-14.236-0.491-16.691,6.873-19.145s12.273-0.491,12.273,15.218c7.364-3.436,10.309,0.982,8.836,7.364
		c-1.473,6.382-0.982,9.818-0.982,9.818s3.927,11.782,7.854,19.145c3.927,7.364,15.218,11.291,24.545,11.782
		C405.357,215.533,403.393,165.461,403.393,165.461z"/>
	<path style="fill:#FFFFFF;" d="M404.689,167.153c0,0,7.205,4.711,15.241,6.928c8.036,2.217,27.712,2.494,31.037,1.94
		c3.325-0.554,10.53,8.868,3.603,12.747c2.217,4.434,4.711,14.133-3.325,22.724c-8.036,8.591-18.012,11.362-18.012,11.362
		s-8.036-4.711-14.133-4.157c-6.097,0.554-11.916,3.048-12.747,3.325c-0.831,0.277-4.711,0.554-4.711,0.554s1.386-1.663-5.265-6.096
		c-6.651-4.434-19.398-21.892-8.036-31.868c1.663-1.94,5.542-2.771,4.711-2.771c-0.831,0,0.554-1.108,0.554-1.108
		s-1.94-4.157-1.663-8.036c0.277-3.88,3.603-5.542,6.374-6.374C401.087,165.49,404.689,167.153,404.689,167.153z"/>
	<path style="fill:#FFFFFF;" d="M366.447,186.274c2.771-1.108,6.928,1.94,3.88,8.314c-3.048,6.374-6.287,10.488-13.856,10.807
		c-7.568,0.32-10.53-0.554-11.916-3.88c-1.386-3.325-0.554-8.591,1.108-8.036c1.663,0.554,2.771,2.494,8.591,0.277
		C360.073,191.539,366.447,186.274,366.447,186.274z"/>
	<path style="fill:#FFFFFF;" d="M337.904,227.01c-1.386-2.217-1.94-4.434,1.386-5.542c3.325-1.108,11.085,0.277,12.747,8.591
		c1.663,8.313-1.663,17.735-5.542,18.844c-3.88,1.108-7.759-0.554-6.928-3.603C340.398,242.251,337.904,227.01,337.904,227.01z"/>
	<path style="fill:#FFFFFF;" d="M497.8,247.794c-2.516,1.912-9.422,19.952-75.376,30.483c-36.979,5.904-83.412-0.554-92.557-4.434
		c-9.145-3.88-18.29-4.988-21.061-9.145c-2.771-4.157-16.627-15.796-25.218-20.784c-8.591-4.988-15.796-3.88-18.29-2.494
		c-2.494,1.385-3.602,4.988-1.663,8.036c1.94,3.048,4.157,4.988,4.988,9.699c0.831,4.711,34.085,64.845,65.677,77.316
		c31.591,12.47,64.291,6.374,83.689,4.711c19.398-1.663,82.026-65.677,85.352-69.833c3.325-4.157,9.422-18.567,6.097-22.723
		C506.114,244.468,504.728,242.529,497.8,247.794z"/>
	<path style="fill:#DB504F;" d="M486.716,277.999c-5.819,3.325-34.639,18.567-83.412,18.013s-65.677-4.434-74.544-6.928
		c-8.868-2.494-17.181-4.157-24.386-9.699c-7.205-5.542-13.302-8.868-17.181-12.47s-11.639-9.145-14.964-10.808
		c-3.325-1.663-6.097-1.386-3.603,3.048c2.494,4.434,5.265,28.543,6.651,39.628c1.386,11.085,23.278,40.459,48.218,46.001
		c24.941,5.542,37.965,7.205,45.17,7.482c7.205,0.277,47.11,3.603,57.64,3.048c10.53-0.554,27.435-6.928,32.977-9.976
		c5.542-3.048,21.061-13.025,31.314-32.977c10.253-19.952,11.916-37.411,10.807-39.628
		C500.294,270.517,486.716,277.999,486.716,277.999z"/>
	<path style="fill:#FFFFFF;" d="M445.534,150.698c3.827-0.201,1.318,2.307,4.284,3.296c2.966,0.989,3.131,0.494,4.614,3.46
		c1.483,2.966,6.426,3.46,6.591,0.824c0.165-2.636,0.824-4.119,3.955-2.801c3.131,1.318,2.966-3.296,3.46-4.779
		c0.494-1.483,6.591-2.801,3.955-4.449c-2.636-1.648-4.284-2.801-3.131-4.119c1.153-1.318,0.824-4.449-2.307-4.449
		c-3.131,0-4.119,0.824-3.46-1.813c0.659-2.636-1.153-4.284-4.284-2.801c-3.131,1.483-3.131,1.977-4.614,0
		c-1.483-1.977-3.46-4.119-5.108-1.154c-1.648,2.966,1.483,4.943-3.79,3.625c-5.273-1.318-7.25,0.165-4.943,2.472
		c2.307,2.307,3.46,3.79,1.813,5.108c-1.648,1.318-3.131,3.79-0.659,3.955C444.38,147.238,442.403,150.863,445.534,150.698z"/>
	<g>
		<path style="fill:#FFFFFF;" d="M413.557,221.191c-2.771,0.554-14.41,2.217-18.29,2.217c-3.455,0-27.989,2.632-38.414,0.471
			h-16.297c0,0-8.345,0.491-9.818-0.491c-1.473-0.982-14.236-7.854-25.036-8.345c-5.844-0.266-8.233,2.777-8.345,6.946
			c6.375-1.925,14.332-1.85,19.762,0.865c12.193,6.097,38.796,3.88,42.122,4.434c3.325,0.554,43.23-1.663,47.11-2.217
			C410.232,224.516,416.328,220.636,413.557,221.191z"/>
		<path style="fill:#FFFFFF;" d="M343.503,151.715c-4.707,1.569-6.804,3.144-7.321,7.791c3.728-3.278,7.579-5.531,10.313-4.269
			c7.205,3.325,9.28,11.697,9.28,11.697C355.775,151.224,350.866,149.261,343.503,151.715z"/>
		<path style="fill:#FFFFFF;" d="M403.393,165.46c0,0,0.073,1.884,0.125,4.911c9.96-9.255,26.059-23.218,41.096-29.1
			C425.902,140.018,406.262,159.722,403.393,165.46z"/>
	</g>
	<path style="fill:#DB504F;" d="M36.816,242.915c0.215-4.335-3.092-8.121-7.421-8.423c-5.174-0.361-9.897-0.554-13.777-4.434
		c-8.07-8.07-2.771-18.29,4.988-20.507c7.759-2.217,29.374-6.651,33.254-7.759c3.88-1.109,6.097,2.771,6.097,2.771
		s9.422-4.434,11.639-1.109c2.217,3.325-0.554,7.759-4.434,9.976c-3.88,2.217-5.542,12.193-5.542,12.193s0.554,21.615,7.759,29.929
		c7.205,8.313,8.313,9.422,18.29,9.976c9.976,0.554,23.278,1.663,28.266,3.325c4.988,1.663,4.988,1.663,4.988,1.663
		s7.205-7.205,15.518-8.314c8.314-1.108,7.759,3.325,7.759,3.325l-7.205,11.639l1.663,4.988c0,0,4.988,6.651,9.422,10.53
		c4.434,3.88,19.952,14.964,19.952,14.964s3.88,7.205,7.759,9.422c3.88,2.217,13.856,8.313,13.856,8.313l-7.205,9.422
		c0,0,6.096,7.205,5.542,9.422c-0.554,2.217-1.108,9.976-1.108,9.976s-8.868-3.88-9.976-6.096
		c-1.108-2.217-11.085-11.639-21.615-12.193c-7.205,0.554-5.542-1.109-14.41-3.88c-8.868-2.771-14.964-11.639-19.398-18.29
		c-6.651-1.108-13.856,1.108-29.374,1.663c-15.519,0.554-32.7-11.085-32.7-11.085s-18.844,5.542-22.724,5.542
		s-1.108,4.434,2.771,8.314s10.53,8.868,12.747,9.422c2.217,0.554,4.988,6.651,3.325,8.314c-1.663,1.663-6.097,0.554-8.313-0.554
		c-2.217-1.108-14.41-10.53-17.735-12.747c-3.325-2.217-2.217-2.217-6.097-5.542c-3.88-3.325-10.53-10.53-10.53-17.735
		c0-7.205,3.325-6.651,7.759-7.205c4.434-0.554,21.061-4.988,22.169-7.205c1.108-2.217-1.109-6.096-1.109-6.096
		S36.118,256.984,36.816,242.915z"/>
	<path style="fill:#DB504F;" d="M49.98,336.471c-1.109-5.542,3.325-11.085,6.097-8.314c2.771,2.771,7.759,11.639,5.542,13.302
		C59.402,343.122,49.98,336.471,49.98,336.471z"/>
	<path style="fill:#DB504F;" d="M180.225,350.881c-0.554,2.217,4.434,11.085,7.759,12.193c3.325,1.108,2.771-1.663,2.771-4.434
		c0-2.771-2.771-14.41-2.771-14.41L180.225,350.881z"/>
	<path style="fill:#DB504F;" d="M182.442,334.808c-1.109-4.988,0.554-9.976,2.217-9.976s4.988,0.554,4.988,0.554L182.442,334.808z"
		/>
	<g>
		<path style="fill:#FFFFFF;" d="M47.209,282.71c-1.297,0.648-2.782,1.199-4.236,1.658c-0.049,0.194-0.109,0.383-0.197,0.559
			c-1.109,2.217-17.736,6.651-22.169,7.205c-4.434,0.554-7.759,0-7.759,7.205c0,1.145,0.183,2.289,0.481,3.418
			c1.097-2.646,3.424-4.905,7.278-6.19c11.639-3.879,25.495-7.759,27.712-11.085C50.534,282.156,51.643,280.493,47.209,282.71z"/>
		<path style="fill:#FFFFFF;" d="M185.767,342.013c0,0-14.964-13.856-22.724-17.181c-7.759-3.325-12.955-8.868-15.657-18.428
			c-2.099-7.429-8.729-19.814-8.729-24.248l-1.663-4.988l7.205-11.639c0,0,0.554-4.434-7.759-3.325
			c-8.313,1.108-15.518,8.314-15.518,8.314s0,0-4.988-1.663c-4.988-1.663-18.29-2.771-28.266-3.325
			c18.844,6.651,32.7,6.096,36.025,8.868c3.325,2.771,1.663-8.868,16.627-9.976c-4.988,3.88-8.313,11.639-8.313,11.639
			s-3.88,2.771-0.554,4.988c3.325,2.217,10.946,16.766,13.232,28.682c2.195,11.443,21.684,18.428,27.227,22.862
			C177.454,337.025,185.767,342.013,185.767,342.013z"/>
		<path style="fill:#FFFFFF;" d="M53.86,201.792c-3.88,1.109-25.495,5.542-33.254,7.759c-4.878,1.394-8.781,5.951-9.003,11.148
			c4.859-4.28,12.092-8.201,22.859-10.594c11.833-2.63,19.78-4.494,25.379-5.726C59.343,203.628,57.23,200.829,53.86,201.792z"/>
		<path style="fill:#FFFFFF;" d="M70.336,202.505c-2.585-0.968-7.38,0.793-9.42,1.641C65.316,203.191,68.164,202.669,70.336,202.505
			z"/>
	</g>
	<path style="fill:#76181C;" d="M440.643,271.081c1.41-2.402,2.329-4.387,3.082-6.111c0.404-0.849,0.68-1.673,0.987-2.442
		c0.302-0.77,0.589-1.507,0.822-2.263c0.248-0.75,0.495-1.501,0.754-2.287c0.227-0.796,0.464-1.629,0.721-2.534
		c0.256-0.905,0.461-1.902,0.734-2.997c0.264-1.098,0.46-2.326,0.737-3.69c0.861-5.383,1.033-8.693,1.107-11.99
		c0.037-3.297,0.053-6.619-0.644-12.056c-0.066-0.552,0.289-1.816,0.941-1.804c0.613-0.24,1.329,0.874,1.434,1.444
		c0.918,5.58,1.056,9.016,1.12,12.435c0.024,3.42-0.101,6.865-0.996,12.475c-0.287,1.423-0.496,2.702-0.777,3.847
		c-0.289,1.142-0.515,2.179-0.793,3.122c-0.285,0.94-0.547,1.806-0.798,2.634c-0.278,0.819-0.572,1.592-0.852,2.369
		c-0.269,0.781-0.595,1.541-0.94,2.334c-0.35,0.792-0.673,1.637-1.129,2.509c-0.856,1.767-1.897,3.799-3.456,6.25
		c-0.322,0.489-1.625,1.571-2.091,1.103C440.006,273.18,440.369,271.559,440.643,271.081z"/>
	<path style="fill:#76181C;" d="M358.989,271.157c-0.048-1.517,0.038-2.684,0.127-3.688c0.103-1,0.213-1.837,0.365-2.665
		c0.313-1.652,0.648-3.307,1.645-6.095c1.002-2.719,1.816-4.294,2.738-5.809c0.442-0.765,0.971-1.493,1.592-2.327
		c0.658-0.814,1.413-1.748,2.592-2.733c0.253-0.201,1.081-0.212,1.42,0.345c0.435,0.471,0.36,1.263,0.186,1.441
		c-0.915,0.876-1.519,1.75-2.039,2.505c-0.493,0.783-0.917,1.459-1.276,2.182c-0.751,1.418-1.456,2.884-2.387,5.416
		c-0.927,2.599-1.286,4.136-1.672,5.652c-0.191,0.762-0.351,1.526-0.52,2.441c-0.154,0.913-0.317,1.98-0.369,3.322
		c-0.011,0.257-0.536,1.036-1.178,1.024C359.573,272.287,359.012,271.47,358.989,271.157z"/>
	<path style="fill:#76181C;" d="M356.035,222.286c5.745,0.265,9.006,0.313,12.265,0.36c3.258,0.031,6.514,0.093,12.234-0.06
		c5.596-0.17,8.973-0.413,12.351-0.644c3.377-0.254,6.757-0.529,12.339-1.181c0.569-0.06,1.849,0.312,1.811,0.965
		c0.221,0.618-0.915,1.318-1.487,1.413c-5.599,0.857-9.002,1.284-12.413,1.642c-3.413,0.335-6.837,0.633-12.517,0.808
		c-5.806,0.157-9.106,0.045-12.397-0.087c-3.29-0.148-6.579-0.35-12.34-0.819c-0.575-0.055-2.147-0.699-1.974-1.331
		C353.822,222.702,355.461,222.266,356.035,222.286z"/>
	<path style="fill:#76181C;" d="M357.611,243.709c5.513,0.159,8.644,0.206,11.771,0.262c3.128,0.048,6.254,0.14,11.739,0.144
		c5.367-0.01,8.616-0.114,11.872-0.171c3.26-0.065,6.522-0.13,11.92-0.237c0.551-0.004,1.738,0.491,1.638,1.138
		c0.149,0.637-0.996,1.223-1.546,1.262c-5.393,0.31-8.653,0.498-11.911,0.685c-3.265,0.158-6.538,0.315-11.971,0.328
		c-5.55-0.002-8.696-0.145-11.837-0.293c-3.141-0.157-6.277-0.356-11.788-0.718c-0.55-0.043-2.064-0.656-1.908-1.292
		C355.497,244.169,357.061,243.701,357.611,243.709z"/>
	<path style="fill:#76181C;" d="M353.928,162.125c-0.431-1.834-0.526-3.422-0.752-4.748c-0.202-1.335-0.537-2.376-1.035-3.192
		c-0.504-0.81-1.131-1.442-1.885-1.934c-0.726-0.464-1.442-0.815-2.216-0.917c-0.376-0.103-0.775-0.065-1.168-0.089
		c-0.4,0.062-0.806,0.062-1.22,0.2c-0.831,0.191-1.693,0.581-2.564,1.145c-0.872,0.559-1.767,1.292-2.626,2.244
		c-0.85,0.958-1.689,2.108-2.267,3.541c-1.159,2.852-1.345,5.509-1.337,7.765c0.043,2.274,0.257,4.25,0.699,6.175
		c0.424,1.924,0.965,3.843,1.913,5.928c0.945,2.066,2.226,4.407,4.512,6.603c0.457,0.417,1.25,1.674,0.788,2.138
		c-0.199,0.642-1.793,0.149-2.387-0.346c-2.734-2.478-4.21-5.029-5.326-7.271c-1.113-2.262-1.764-4.329-2.279-6.419
		c-0.529-2.09-0.811-4.244-0.884-6.768c-0.023-2.515,0.123-5.482,1.539-8.987c0.74-1.806,1.774-3.217,2.804-4.366
		c1.046-1.149,2.144-2.044,3.265-2.747c1.116-0.705,2.271-1.218,3.471-1.478c0.584-0.17,1.206-0.191,1.8-0.247
		c0.608,0.028,1.212,0.017,1.802,0.173c0.603,0.089,1.159,0.324,1.724,0.546c0.286,0.106,0.529,0.284,0.797,0.429
		c0.257,0.158,0.54,0.296,0.764,0.489c0.965,0.676,1.898,1.638,2.591,2.86c0.697,1.226,1.069,2.689,1.243,4.157
		c0.197,1.475,0.25,3.016,0.579,4.596c0.05,0.322,0.079,0.932,0.032,1.497c-0.021,0.55-0.137,1.077-0.458,1.135
		c-0.265,0.204-0.702-0.105-1.121-0.592C354.337,163.154,354.004,162.49,353.928,162.125z"/>
	<path style="fill:#76181C;" d="M362.941,179.868c0.305-3.013,0.274-4.739,0.203-6.414c-0.046-0.836-0.115-1.667-0.268-2.609
		c-0.161-0.906-0.404-2.063-1.008-2.9c-0.307-0.395-0.528-0.555-0.867-0.643c-0.427-0.118-0.801-0.162-1.14-0.136
		c-0.675,0.059-1.243,0.343-1.772,0.778c-0.516,0.455-0.982,1.053-1.365,1.85c-0.367,0.784-0.705,1.842-0.557,2.981
		c-0.003,0.123-0.087,0.31-0.243,0.523c-0.162,0.211-0.393,0.46-0.698,0.555c-0.283,0.161-0.605,0.131-0.886-0.028
		c-0.285-0.154-0.51-0.429-0.535-0.618c-0.354-1.883,0.041-3.286,0.468-4.455c0.461-1.163,1.069-2.102,1.889-2.91
		c0.83-0.782,1.944-1.461,3.405-1.627c0.361-0.065,0.733-0.012,1.122-0.008c0.389,0.018,0.759,0.139,1.163,0.223
		c0.413,0.102,0.914,0.339,1.332,0.63c0.412,0.306,0.804,0.677,1.099,1.096c0.628,0.856,0.902,1.648,1.122,2.345
		c0.21,0.7,0.318,1.318,0.404,1.887c0.158,1.137,0.192,2.073,0.19,3.001c-0.027,1.852-0.155,3.672-0.682,6.816
		c-0.059,0.317-0.739,1.111-1.361,0.924C363.316,181.084,362.919,180.166,362.941,179.868z"/>
	<path style="fill:#76181C;" d="M369.006,186.262c-2.386,2.063-3.854,3.014-5.325,3.994c-1.49,0.94-2.995,1.861-5.835,3.16
		c-2.799,1.236-4.62,1.77-6.511,2.118c-0.953,0.157-1.926,0.278-3.117,0.221c-0.599-0.046-1.248-0.105-1.971-0.332
		c-0.713-0.201-1.526-0.578-2.238-1.254c-0.156-0.128-0.269-0.458-0.241-0.779c0.02-0.319,0.167-0.606,0.454-0.761
		c0.243-0.207,0.574-0.274,0.835-0.302c0.258-0.019,0.46,0,0.552,0.05c0.387,0.318,0.834,0.5,1.302,0.591
		c0.455,0.112,0.928,0.121,1.366,0.123c0.891-0.021,1.698-0.174,2.498-0.354c1.602-0.39,3.23-0.907,5.841-2.064
		c2.66-1.219,4.122-2.055,5.587-2.864c1.44-0.839,2.949-1.647,5.264-3.393c0.233-0.161,1.185-0.294,1.582,0.214
		C369.546,185.048,369.246,186.05,369.006,186.262z"/>
	<path style="fill:#76181C;" d="M372.943,193.186c-0.008,1.204-0.286,2.246-0.669,3.066c-0.358,0.848-0.793,1.524-1.215,2.125
		c-0.862,1.184-1.71,2.047-2.599,2.845c-0.907,0.771-1.843,1.511-3.044,2.239c-1.199,0.729-2.636,1.502-4.584,2.228
		c-1.909,0.703-3.526,1.058-4.969,1.245c-1.443,0.192-2.728,0.18-4.007,0.02c-1.275-0.157-2.579-0.486-3.955-1.235
		c-1.357-0.739-2.825-1.965-3.827-3.912c-0.186-0.421-0.077-1.461,0.567-1.598c0.568-0.296,1.389,0.16,1.539,0.446
		c0.848,1.437,1.923,2.207,2.937,2.697c1.025,0.487,2.026,0.693,3.049,0.77c1.021,0.082,2.075,0.065,3.302-0.125
		c1.225-0.183,2.63-0.5,4.32-1.124c3.44-1.332,5.192-2.58,6.826-3.83c0.798-0.654,1.559-1.351,2.313-2.268
		c0.365-0.462,0.741-0.979,1.034-1.582c0.33-0.597,0.527-1.286,0.579-2.032c0-0.147,0.17-0.434,0.309-0.719
		c0.167-0.283,0.411-0.6,0.727-0.649c0.299-0.136,0.637,0.041,0.92,0.37C372.807,192.481,372.929,192.943,372.943,193.186z"/>
	<path style="fill:#76181C;" d="M388.956,216.516c-0.708-0.024-1.299-0.17-1.861-0.241c-0.537-0.132-1.021-0.25-1.47-0.361
		c-0.867-0.283-1.606-0.516-2.299-0.831c-1.401-0.602-2.777-1.282-4.928-2.863c-2.085-1.574-3.165-2.769-4.171-4.011
		c-0.51-0.615-0.951-1.302-1.446-2.104c-0.218-0.428-0.469-0.87-0.703-1.384c-0.191-0.546-0.479-1.086-0.615-1.793
		c-0.065-0.295,0.306-0.986,0.956-1.039c0.619-0.164,1.279,0.175,1.349,0.366c0.128,0.509,0.42,0.943,0.593,1.351
		c0.226,0.398,0.471,0.748,0.673,1.081c0.481,0.637,0.891,1.183,1.375,1.688c0.942,1.013,1.92,2.033,3.79,3.44
		c1.927,1.414,3.131,2.06,4.327,2.675c0.596,0.326,1.213,0.575,1.946,0.894c0.373,0.128,0.776,0.266,1.223,0.418
		c0.449,0.091,0.952,0.266,1.506,0.325c0.209,0.033,0.825,0.627,0.776,1.265C390.043,216.04,389.252,216.523,388.956,216.516z"/>
	<path style="fill:#76181C;" d="M346.788,248.014c0.454-0.11,0.825-0.367,1.199-0.547c0.329-0.276,0.684-0.46,0.943-0.766
		c0.139-0.138,0.274-0.273,0.405-0.404c0.123-0.142,0.23-0.297,0.343-0.438c0.235-0.275,0.419-0.576,0.59-0.873
		c0.688-1.177,1.096-2.299,1.397-3.451c0.279-1.16,0.49-2.348,0.574-3.784c0.064-1.433,0.035-3.12-0.369-5.195
		c-0.423-2.024-1.068-3.543-1.766-4.754c-0.704-1.214-1.508-2.089-2.398-2.823c-0.437-0.388-0.946-0.658-1.461-0.971
		c-0.277-0.118-0.559-0.237-0.851-0.361c-0.287-0.139-0.619-0.18-0.943-0.285c-1.323-0.322-2.956-0.412-4.996-0.004
		c-0.405,0.084-1.441-0.214-1.543-0.85c-0.301-0.585,0.537-1.356,1.016-1.493c2.322-0.576,4.358-0.592,6.098-0.253
		c0.43,0.109,0.862,0.16,1.254,0.317c0.395,0.148,0.779,0.291,1.155,0.432c0.711,0.373,1.406,0.724,2.009,1.209
		c1.224,0.928,2.301,2.064,3.201,3.558c0.896,1.491,1.675,3.32,2.167,5.675c0.473,2.412,0.49,4.339,0.389,5.986
		c-0.122,1.648-0.404,3.021-0.786,4.369c-0.41,1.341-0.954,2.667-1.898,4.111c-0.235,0.362-0.492,0.731-0.818,1.087
		c-0.158,0.18-0.31,0.371-0.485,0.553c-0.188,0.172-0.381,0.348-0.579,0.529c-0.372,0.381-0.891,0.662-1.378,1.003
		c-0.552,0.258-1.112,0.576-1.779,0.723c-0.131,0.036-0.33,0.056-0.547,0.054c-0.221-0.014-0.467-0.084-0.683-0.162
		c-0.438-0.164-0.753-0.424-0.713-0.751c-0.061-0.314,0.205-0.648,0.487-0.904c0.142-0.132,0.296-0.226,0.429-0.322
		C346.583,248.121,346.7,248.045,346.788,248.014z"/>
	<path style="fill:#76181C;" d="M337.738,245.792c0.296-2.205,0.352-3.454,0.419-4.694c0.04-1.238,0.104-2.475-0.019-4.611
		c-0.153-2.085-0.408-3.315-0.692-4.537c-0.305-1.216-0.62-2.445-1.496-4.366c-0.082-0.195,0.18-0.863,0.763-1.134
		c0.536-0.362,1.24-0.181,1.366,0.025c1.151,2.021,1.666,3.363,2.113,4.71c0.424,1.355,0.77,2.76,0.943,5.094
		c0.139,2.386,0.014,3.73-0.132,5.057c-0.174,1.321-0.392,2.636-0.903,4.887c-0.059,0.225-0.707,0.753-1.328,0.578
		C338.133,246.726,337.715,246.012,337.738,245.792z"/>
	<path style="fill:#76181C;" d="M303.671,239.242c-2.526-1.939-4.166-3.847-5.435-5.595c-1.247-1.769-2.121-3.409-2.727-5.192
		c-0.309-0.888-0.537-1.82-0.661-2.831c-0.134-1.005-0.14-2.107,0.08-3.293c0.217-1.18,0.687-2.456,1.529-3.649
		c0.837-1.195,2.035-2.274,3.502-3.122c1.44-0.822,2.812-1.328,4.074-1.673c0.628-0.183,1.331-0.297,1.948-0.393
		c0.624-0.029,1.239-0.125,1.805-0.081c2.295,0.049,4.156,0.482,5.952,0.998c3.566,1.093,6.924,2.63,12.159,5.454
		c0.533,0.294,1.416,1.358,1.003,1.868c-0.17,0.636-1.561,0.526-2.103,0.266c-5.276-2.623-8.53-3.933-11.835-4.846
		c-1.648-0.426-3.32-0.762-5.193-0.776c-0.476-0.037-0.934,0.059-1.43,0.076c-0.245,0.022-0.477,0.092-0.724,0.135
		c-0.247,0.052-0.49,0.081-0.767,0.179c-1.098,0.304-2.244,0.744-3.375,1.388c-2.32,1.34-3.313,3.092-3.629,4.732
		c-0.164,0.824-0.182,1.631-0.092,2.41c0.078,0.779,0.238,1.532,0.474,2.275c0.455,1.49,1.157,2.949,2.207,4.564
		c1.07,1.597,2.497,3.392,4.72,5.219c0.421,0.373,1.452,1.724,1.015,2.195C305.95,240.186,304.182,239.643,303.671,239.242z"/>
	<path style="fill:#76181C;" d="M311.414,244.443c2.031,0.251,3.15,0.421,4.266,0.577c1.112,0.156,2.211,0.351,4.092,0.541
		c1.832,0.153,2.9,0.105,3.946-0.017c1.036-0.147,2.091-0.295,3.648-1.093c0.155-0.072,0.785,0.182,1.114,0.731
		c0.408,0.504,0.312,1.194,0.124,1.327c-1.826,1.187-3.152,1.557-4.421,1.847c-1.284,0.264-2.607,0.369-4.676,0.197
		c-2.1-0.209-3.237-0.469-4.361-0.727c-1.12-0.258-2.223-0.58-4.134-1.015c-0.188-0.049-0.643-0.674-0.503-1.302
		C310.561,244.867,311.207,244.426,311.414,244.443z"/>
	<path style="fill:#76181C;" d="M494.967,252.357c-3.847,3.647-7.666,6.459-11.275,8.764c-3.616,2.302-7.031,4.102-10.247,5.638
		c-6.46,3.022-12.121,5.012-17.851,6.69c-5.733,1.681-11.555,3.03-18.544,4.236c-6.988,1.197-15.153,2.229-25.6,2.838
		c-10.225,0.568-18.441,0.537-25.628,0.332c-7.19-0.203-13.358-0.607-19.513-1.133c-6.153-0.546-12.296-1.223-19.412-2.264
		c-3.558-0.523-7.358-1.141-11.517-1.929c-4.158-0.805-8.675-1.732-13.644-3.167c-1.012-0.309-2.557-0.926-3.731-1.638
		c-1.194-0.685-1.928-1.583-1.514-1.692c0.021-0.375,0.892-0.098,2.141,0.145c1.237,0.269,2.795,0.598,3.774,0.879
		c4.831,1.346,9.324,2.224,13.437,2.975c4.123,0.737,7.895,1.31,11.428,1.791c7.066,0.959,13.167,1.569,19.275,2.061
		c6.11,0.47,12.229,0.834,19.356,1.01c7.125,0.176,15.264,0.193,25.376-0.369c10.332-0.603,18.389-1.611,25.275-2.766
		c6.886-1.164,12.616-2.454,18.25-4.054c5.632-1.597,11.189-3.485,17.514-6.363c3.148-1.463,6.488-3.177,10.017-5.372
		c3.523-2.198,7.243-4.88,10.985-8.36c0.775-0.666,2.207-1.966,3.489-3.004c1.237-1.076,2.344-1.884,2.436-1.504
		c0.403,0.028-0.256,1.225-1.205,2.631C497.05,250.098,495.757,251.653,494.967,252.357z"/>
	<path style="fill:#76181C;" d="M450.541,348.635c4.994-1.781,8.67-3.777,11.697-5.685c3.022-1.925,5.409-3.774,7.705-5.721
		c2.279-1.971,4.442-4.08,6.846-6.745c2.392-2.673,5.013-5.931,7.909-10.397c2.825-4.376,4.746-8.107,6.294-11.43
		c1.536-3.332,2.709-6.264,3.778-9.235c2.022-5.967,3.945-12.051,5.317-22.446c0.123-1.057,0.904-3.264,1.539-2.972
		c0.684-0.193,1.008,2.157,0.917,3.252c-1.198,10.663-3.017,16.955-5,23.124c-1.048,3.073-2.22,6.108-3.78,9.555
		c-1.573,3.44-3.543,7.299-6.467,11.831c-2.998,4.624-5.73,8.002-8.237,10.766c-2.522,2.755-4.804,4.926-7.216,6.942
		c-2.431,1.993-4.964,3.87-8.164,5.814c-3.204,1.925-7.092,3.929-12.341,5.687c-1.047,0.388-4.174,0.658-4.089-0.035
		C446.854,350.346,449.57,349.035,450.541,348.635z"/>
	<path style="fill:#76181C;" d="M434.687,356.595c-1.491,0.151-2.902,0.293-4.241,0.429c-1.336,0.074-2.603,0.145-3.808,0.212
		c-1.207,0.08-2.351,0.117-3.445,0.134c-1.093,0.025-2.138,0.05-3.141,0.074c-2.009,0.067-3.851,0.016-5.618,0.028
		c-1.766,0.006-3.45-0.007-5.133-0.058c-1.684-0.041-3.367-0.081-5.13-0.124c-1.762-0.076-3.603-0.157-5.603-0.244
		c-2.002-0.075-4.159-0.218-6.556-0.368c-1.198-0.075-2.457-0.154-3.784-0.238c-1.327-0.104-2.722-0.214-4.198-0.33
		c-1.444-0.115-2.816-0.224-4.127-0.328c-1.308-0.126-2.553-0.245-3.746-0.36c-2.384-0.233-4.556-0.425-6.579-0.674
		c-2.024-0.234-3.906-0.452-5.716-0.662c-1.807-0.245-3.543-0.481-5.279-0.716c-1.737-0.23-3.47-0.48-5.271-0.783
		c-1.801-0.3-3.676-0.572-5.685-0.938c-2.007-0.386-4.158-0.768-6.514-1.244c-1.175-0.262-2.402-0.536-3.691-0.824
		c-0.644-0.144-1.304-0.291-1.98-0.442c-0.671-0.182-1.36-0.368-2.065-0.559c-1.155-0.321-3.444-1.482-2.998-2.029
		c-0.069-0.682,2.472-0.574,3.598-0.296c0.692,0.175,1.366,0.345,2.025,0.512c0.668,0.136,1.321,0.27,1.958,0.4
		c1.274,0.261,2.487,0.508,3.648,0.746c2.335,0.426,4.473,0.766,6.462,1.11c1.994,0.326,3.862,0.563,5.651,0.828
		c1.788,0.27,3.513,0.49,5.241,0.693c1.727,0.213,3.453,0.425,5.249,0.645c1.801,0.193,3.673,0.395,5.686,0.611
		c2.011,0.234,4.171,0.416,6.543,0.641c1.185,0.111,2.424,0.228,3.726,0.35c1.302,0.102,2.667,0.21,4.103,0.323
		c1.468,0.116,2.855,0.226,4.175,0.33c1.32,0.085,2.571,0.166,3.762,0.243c2.383,0.155,4.528,0.306,6.516,0.393
		c1.987,0.103,3.817,0.198,5.566,0.289c1.75,0.065,3.421,0.127,5.092,0.188c1.672,0.076,3.342,0.116,5.091,0.142
		c1.749,0.019,3.581,0.106,5.565,0.076c0.993-0.004,2.025-0.009,3.106-0.014c1.083,0.003,2.213-0.01,3.397-0.068
		c1.186-0.045,2.432-0.091,3.746-0.14c1.302-0.109,2.673-0.223,4.121-0.343c0.593-0.011,1.654-0.105,2.603-0.032
		c0.941,0.059,1.75,0.221,1.694,0.555c0.206,0.29-0.477,0.708-1.386,1.086C436.409,356.182,435.278,356.566,434.687,356.595z"/>
	<path style="fill:#76181C;" d="M269.892,258.863c0.4,0.764,0.653,1.551,0.928,2.309c0.281,0.758,0.544,1.496,0.719,2.234
		c0.193,0.732,0.405,1.444,0.567,2.142c0.143,0.701,0.282,1.383,0.417,2.05c0.276,1.332,0.424,2.6,0.625,3.813
		c0.145,1.21,0.284,2.364,0.417,3.474c0.476,4.432,0.766,8.125,1.234,11.775c0.471,3.647,1.025,7.269,2.118,11.449
		c0.307,1.033,0.626,2.107,0.96,3.232c0.411,1.098,0.814,2.251,1.281,3.455c0.531,1.185,1.087,2.43,1.675,3.743
		c0.593,1.31,1.37,2.607,2.104,4.025c3.09,5.429,6.382,9.238,9.548,12.24c3.185,2.992,6.225,5.257,9.465,7.226l1.202,0.76
		c0.416,0.234,0.831,0.469,1.25,0.705c0.84,0.465,1.677,0.957,2.554,1.422c1.772,0.9,3.604,1.853,5.639,2.774
		c4.046,1.887,8.769,3.852,14.696,6.286c1.207,0.507,3.566,2.06,3.043,2.561c0.024,0.723-2.75,0.204-3.967-0.268
		c-5.958-2.336-10.758-4.235-14.908-6.085c-2.084-0.899-3.983-1.846-5.816-2.742c-0.91-0.464-1.785-0.959-2.661-1.427
		c-0.436-0.238-0.87-0.475-1.303-0.71l-1.264-0.774c-3.395-2.004-6.63-4.357-10.023-7.507c-3.373-3.158-6.89-7.216-10.143-12.93
		c-0.773-1.485-1.587-2.855-2.207-4.223c-0.611-1.372-1.189-2.672-1.741-3.91c-0.492-1.271-0.918-2.499-1.346-3.662
		c-0.347-1.189-0.677-2.322-0.995-3.411c-1.123-4.395-1.654-8.153-2.084-11.887c-0.425-3.736-0.653-7.467-1.046-11.844
		c-0.111-1.09-0.227-2.222-0.348-3.41c-0.175-1.169-0.296-2.412-0.538-3.683c-0.416-2.562-1.103-5.32-2.314-8.199
		c-0.27-0.559-0.57-1.728-0.952-2.667c-0.329-0.965-0.512-1.849-0.166-1.915c0.192-0.318,0.886,0.231,1.644,1.038
		C268.969,257.103,269.581,258.254,269.892,258.863z"/>
	<path style="fill:#76181C;" d="M308.501,266.026c-1.399-1.025-2.527-1.997-3.546-2.883c-1.008-0.891-1.914-1.692-2.755-2.434
		c-1.663-1.478-3.062-2.719-4.459-3.959c-1.399-1.231-2.806-2.444-4.502-3.851c-1.696-1.407-3.687-3.003-6.331-4.85
		c-2.592-1.799-4.776-3.043-6.738-3.974c-1.963-0.924-3.704-1.584-5.478-1.957c-1.765-0.373-3.574-0.596-5.606-0.285
		c-2.01,0.327-4.285,1.166-6.538,3.181c-0.437,0.412-1.773,0.969-2.159,0.451c-0.598-0.311,0.048-1.715,0.547-2.23
		c2.502-2.39,5.259-3.559,7.691-4.024c2.459-0.459,4.607-0.259,6.647,0.119c2.056,0.382,4.003,1.081,6.152,2.062
		c2.146,0.989,4.483,2.309,7.194,4.189c2.764,1.929,4.805,3.584,6.525,5.043c1.721,1.46,3.128,2.724,4.51,4.007
		c1.387,1.279,2.743,2.582,4.356,4.122c0.806,0.762,1.677,1.586,2.643,2.5c0.969,0.902,2.045,1.885,3.277,2.847
		c0.244,0.211,0.631,0.633,0.929,1.08c0.284,0.398,0.532,0.846,0.352,1.116c-0.043,0.331-0.563,0.419-1.201,0.322
		C309.423,266.501,308.768,266.233,308.501,266.026z"/>
	<path style="fill:#76181C;" d="M310.129,371.925c-3.89-0.247-6.087-0.718-8.253-1.271c-1.081-0.297-2.155-0.632-3.405-1.132
		c-1.242-0.511-2.685-1.162-4.374-2.267c-3.272-2.169-4.879-3.984-6.35-5.81c-1.417-1.874-2.727-3.863-4.202-7.41
		c-0.143-0.37,0.048-1.336,0.679-1.489c0.568-0.312,1.362,0.206,1.523,0.529c1.55,3.225,2.862,4.94,4.212,6.572
		c1.4,1.584,2.858,3.156,5.774,5.086c1.482,0.971,2.759,1.56,3.873,2.044c1.12,0.473,2.092,0.813,3.074,1.133
		c1.971,0.603,3.986,1.189,7.644,1.62c0.359,0.054,1.359,0.646,1.249,1.287C311.634,371.463,310.522,371.948,310.129,371.925z"/>
	<path style="fill:#76181C;" d="M460.85,382.014c-4.046,0.767-7.667,1.058-10.951,1.241c-3.286,0.199-6.241,0.244-8.974,0.265
		c-5.467,0.021-10.054-0.104-14.634-0.295c-9.158-0.412-18.301-1.021-34.322-2.557c-31.336-3.105-37.805-4.346-69.055-7.663
		c-1.592-0.168-4.925-0.999-4.512-1.609c-0.309-0.671,3.131-0.916,4.735-0.782c31.364,2.929,37.839,3.968,69.121,7.064
		c15.981,1.53,25.076,2.185,34.169,2.694c4.546,0.24,9.095,0.426,14.499,0.482c2.701,0.016,5.619,0.011,8.843-0.14
		c3.223-0.134,6.774-0.377,10.637-1.059c0.391-0.054,0.953-0.123,1.566-0.219c0.615-0.09,1.309-0.14,1.932-0.209
		c1.227-0.179,2.304-0.223,2.252,0.132c0.292,0.24-0.588,0.846-1.787,1.471c-0.6,0.29-1.282,0.521-1.909,0.744
		C461.833,381.802,461.253,381.95,460.85,382.014z"/>
	<path style="fill:#76181C;" d="M340.265,369.585c-0.007,0.158-0.013,0.312-0.019,0.461l-0.002,0.044l0.001-0.004
		c2.176,0.183-2.965-0.252-2.436-0.209l0.001-0.007v-0.015l0.002-0.028l0.005-0.11l0.009-0.217c0.012-0.284,0.023-0.553,0.034-0.809
		c0.02-0.513,0.039-0.975,0.056-1.403c0.036-0.857,0.067-1.576,0.098-2.294c0.072-1.438,0.167-2.872,0.382-5.393
		c0.209-2.467,0.36-3.955,0.536-5.442l0.067-0.559l0.017-0.141l0.009-0.071l0.004-0.036l0.002-0.018l0.001-0.009l0.001-0.002
		c5.554,0.468,1.539,0.128,2.779,0.232v-0.005l-0.035,0.281c-0.049,0.386-0.1,0.788-0.154,1.221c-0.11,0.864-0.236,1.85-0.391,3.079
		c-0.038,0.25-0.622,0.737-1.258,0.627c-0.645,0.002-1.139-0.576-1.135-0.829c0.052-1.237,0.093-2.231,0.13-3.101
		c0.019-0.435,0.036-0.84,0.052-1.229l0.013-0.283l-0.001,0.004c1.24,0.106-2.775-0.232,2.779,0.237v0.002l-0.001,0.009
		l-0.001,0.018l-0.002,0.036l-0.003,0.072l-0.007,0.142l-0.027,0.563c-0.076,1.495-0.176,2.988-0.383,5.455
		c-0.212,2.521-0.357,3.952-0.528,5.38c-0.09,0.714-0.18,1.428-0.287,2.278c-0.054,0.425-0.114,0.883-0.179,1.392
		c-0.033,0.255-0.067,0.522-0.102,0.805l-0.027,0.214l-0.014,0.11l-0.004,0.028l-0.002,0.014l-0.001,0.007
		c0.529,0.046-4.611-0.386-2.436-0.202v0.004l0.006-0.043c0.019-0.149,0.038-0.302,0.058-0.459c0.039-0.25,0.636-0.909,1.272-0.798
		C339.79,368.582,340.269,369.332,340.265,369.585z"/>
	<path style="fill:#76181C;" d="M424.839,376.719c-0.007,0.158-0.014,0.312-0.02,0.462l-0.002,0.043l0.001-0.003
		c2.177,0.182-2.965-0.252-2.435-0.209v-0.007l0.001-0.014l0.001-0.028l0.005-0.11l0.01-0.216c0.011-0.284,0.023-0.554,0.033-0.81
		c0.02-0.513,0.039-0.975,0.057-1.403c0.036-0.857,0.067-1.576,0.098-2.293c0.071-1.437,0.167-2.872,0.381-5.393
		c0.209-2.467,0.36-3.955,0.537-5.442l0.067-0.559l0.018-0.14l0.008-0.072l0.005-0.035l0.003-0.018l0.001-0.009v-0.002
		c5.555,0.468,1.54,0.128,2.78,0.232v-0.005l-0.035,0.282c-0.049,0.386-0.1,0.787-0.155,1.22c-0.11,0.865-0.235,1.85-0.391,3.079
		c-0.039,0.25-0.623,0.738-1.258,0.627c-0.645,0.003-1.139-0.576-1.135-0.829c0.052-1.237,0.094-2.23,0.131-3.101
		c0.019-0.435,0.036-0.84,0.052-1.229l0.012-0.283v0.004c1.239,0.105-2.776-0.232,2.779,0.237l-0.001,0.002v0.009l-0.001,0.019
		l-0.002,0.036l-0.003,0.071l-0.007,0.142l-0.028,0.563c-0.075,1.495-0.176,2.988-0.383,5.455c-0.211,2.521-0.356,3.952-0.528,5.381
		c-0.089,0.713-0.179,1.427-0.287,2.277c-0.055,0.425-0.115,0.883-0.179,1.392c-0.033,0.255-0.067,0.522-0.103,0.805l-0.027,0.214
		l-0.014,0.11l-0.003,0.028l-0.002,0.014l-0.001,0.007c0.529,0.046-4.612-0.387-2.436-0.201l-0.001,0.003l0.007-0.043
		c0.019-0.149,0.037-0.301,0.058-0.459c0.038-0.25,0.637-0.909,1.272-0.797C424.363,375.716,424.843,376.465,424.839,376.719z"/>
	<path style="fill:#76181C;" d="M502.372,270.103c1.061-1.28,1.782-2.466,2.362-3.483c0.576-1.028,1.024-1.913,1.441-2.812
		c0.412-0.9,0.814-1.806,1.222-2.903c0.407-1.094,0.857-2.379,1.219-4.032c0.347-1.616,0.444-2.912,0.395-3.997
		c-0.059-1.081-0.232-1.974-0.582-2.746c-0.354-0.767-0.846-1.443-1.651-2.038c-0.805-0.589-1.95-1.082-3.554-1.328
		c-0.318-0.047-0.994-0.658-0.893-1.293c-0.062-0.651,0.786-1.113,1.187-1.09c1.909,0.181,3.502,0.703,4.756,1.508
		c1.256,0.804,2.14,1.862,2.726,3.01c0.589,1.158,0.866,2.404,0.97,3.799c0.093,1.399-0.022,2.962-0.417,4.809
		c-0.412,1.885-0.921,3.285-1.388,4.473c-0.469,1.189-0.939,2.15-1.43,3.097c-0.497,0.945-1.035,1.866-1.724,2.934
		c-0.702,1.064-1.531,2.275-2.866,3.712c-0.149,0.138-0.506,0.321-0.891,0.378c-0.393,0.057-0.759-0.016-0.926-0.296
		C501.898,271.34,502.179,270.355,502.372,270.103z"/>
	<path style="fill:#76181C;" d="M481.71,282.373c-5.677,2.897-11.032,4.784-15.937,6.3c-4.938,1.396-9.422,2.511-13.619,3.286
		c-8.381,1.624-15.499,2.481-22.613,3.181c-7.131,0.68-14.212,1.159-22.707,1.679c-4.253,0.211-8.848,0.389-13.954,0.399
		c-5.105,0.024-10.721-0.052-17.005-0.377c-12.303-0.628-22.133-1.775-30.694-3.128c-4.284-0.661-8.243-1.428-12.044-2.205
		c-1.897-0.425-3.744-0.823-5.593-1.271c-1.866-0.459-3.673-1.013-5.459-1.616c-3.571-1.206-7.033-2.656-10.567-4.299
		c-3.529-1.651-7.127-3.506-10.886-5.703c-1.884-1.09-3.801-2.278-5.767-3.575c-0.975-0.636-1.993-1.351-2.984-2.115
		c-0.988-0.769-1.956-1.591-2.915-2.454c-1.919-1.726-3.794-3.618-5.785-5.524c-1.995-1.897-4.099-3.841-6.544-5.492
		c-1-0.662-2.516-1.765-3.833-2.531c-1.295-0.795-2.335-1.411-1.97-1.643c-0.183-0.383,1.057-0.33,2.638,0.113
		c1.596,0.41,3.413,1.363,4.503,2.067c2.653,1.763,4.861,3.779,6.908,5.691c2.041,1.923,3.911,3.776,5.776,5.424
		c1.869,1.669,3.693,3.052,5.635,4.287c1.927,1.248,3.813,2.395,5.669,3.447c3.701,2.121,7.248,3.911,10.715,5.498
		c3.468,1.578,6.859,2.968,10.315,4.107c1.726,0.569,3.466,1.09,5.236,1.514c1.79,0.422,3.64,0.811,5.505,1.219
		c3.757,0.749,7.669,1.491,11.906,2.132c8.467,1.312,18.2,2.436,30.384,3.056c6.225,0.322,11.788,0.4,16.843,0.381
		c5.056-0.003,9.604-0.171,13.813-0.367c8.417-0.49,15.549-0.936,22.598-1.559c7.059-0.644,14.106-1.431,22.375-2.957
		c4.143-0.725,8.554-1.782,13.404-3.106c4.81-1.44,10.049-3.241,15.559-5.996c0.542-0.287,1.343-0.675,2.239-1.085
		c0.448-0.202,0.919-0.415,1.392-0.628c0.455-0.236,0.91-0.473,1.349-0.7c1.759-0.882,3.275-1.511,3.226-1.097
		c0.426,0.106-0.757,1.226-2.337,2.51c-0.403,0.317-0.821,0.648-1.237,0.978c-0.436,0.303-0.891,0.577-1.32,0.848
		C483.064,281.598,482.268,282.068,481.71,282.373z"/>
	<path style="fill:#76181C;" d="M40.668,279.344c-2.285-4.551-3.132-7.348-3.957-10.115c-0.784-2.784-1.416-5.625-1.957-10.666
		c-0.433-4.94-0.403-7.934-0.288-10.909c0.133-2.975,0.342-5.946,0.951-10.811c0.071-0.497,0.72-1.488,1.346-1.301
		c0.65-0.037,1.076,1.063,1.042,1.554c-0.404,4.813-0.459,7.721-0.49,10.621c-0.013,2.899,0.011,5.8,0.429,10.553
		c0.523,4.844,1.077,7.556,1.73,10.234c0.693,2.662,1.353,5.366,3.354,9.792c0.196,0.438,0.317,1.907-0.297,2.114
		C42.017,280.817,40.91,279.797,40.668,279.344z"/>
	<path style="fill:#76181C;" d="M120.06,271.459c-2.686-1.032-4.915-1.525-6.84-1.892c-1.93-0.356-3.579-0.558-5.23-0.702
		c-3.312-0.318-6.656-0.387-12.661-0.746c-5.88-0.367-9.499-0.981-13.017-1.984c-0.876-0.278-1.762-0.507-2.647-0.898
		c-0.446-0.179-0.901-0.363-1.369-0.552c-0.468-0.188-0.92-0.46-1.404-0.7c-1.931-0.952-4.024-2.384-6.158-4.614
		c-0.427-0.482-0.912-1.801-0.313-2.096c0.416-0.492,1.651,0.035,2.035,0.425c1.966,1.912,3.848,3.111,5.623,3.902
		c0.444,0.199,0.85,0.43,1.283,0.585c0.431,0.156,0.85,0.308,1.262,0.456c0.807,0.329,1.642,0.512,2.453,0.746
		c3.286,0.833,6.676,1.374,12.447,1.732c5.902,0.352,9.345,0.472,12.775,0.904c1.722,0.202,3.434,0.476,5.457,0.928
		c2.017,0.464,4.362,1.076,7.209,2.282c0.581,0.234,1.908,1.457,1.49,1.975C122.286,271.836,120.599,271.638,120.06,271.459z"/>
	<path style="fill:#76181C;" d="M66.541,253.743c-2.17-3.515-3.04-5.726-3.877-7.92c-0.798-2.21-1.49-4.485-2.078-8.587
		c-0.466-4.029-0.4-6.5-0.171-8.936c0.264-2.429,0.593-4.879,1.809-8.737c0.136-0.395,0.898-1.062,1.48-0.768
		c0.635,0.12,0.915,1.078,0.822,1.45c-0.957,3.678-1.118,5.985-1.269,8.262c-0.118,2.282-0.127,4.583,0.309,8.342
		c0.552,3.829,1.148,5.961,1.804,8.058c0.691,2.082,1.365,4.206,3.237,7.613c0.183,0.337,0.287,1.56-0.296,1.836
		C67.82,254.786,66.771,254.092,66.541,253.743z"/>
	<path style="fill:#76181C;" d="M21.499,317.591c-2.963-2.276-5.048-4.403-6.65-6.417c-1.608-2.01-2.722-3.935-3.551-6.021
		c-0.752-2.094-1.333-4.456-0.705-7.311c0.312-1.408,1.012-2.9,2.179-4.189c1.154-1.297,2.731-2.382,4.598-3.112
		c1.819-0.736,3.578-1.024,4.93-1.314c1.413-0.312,2.699-0.608,3.894-0.921c2.389-0.614,4.426-1.211,6.449-1.852
		c2.022-0.641,4.023-1.347,6.316-2.251c2.289-0.913,4.874-2.028,7.949-3.686c0.62-0.338,2.201-0.646,2.402-0.018
		c0.483,0.459-0.584,1.721-1.222,2.109c-3.146,1.811-5.78,3.042-8.111,4.055c-2.335,1.003-4.373,1.788-6.437,2.495
		c-2.063,0.708-4.145,1.358-6.598,2.015c-1.225,0.334-2.548,0.65-4.007,0.979c-1.521,0.327-2.952,0.572-4.441,1.173
		c-3.06,1.212-4.571,3.239-5.012,5.2c-0.471,1.987-0.097,3.869,0.497,5.638c0.658,1.771,1.573,3.506,2.984,5.381
		c1.401,1.878,3.277,3.924,6.025,6.16c0.523,0.464,1.828,2.056,1.331,2.497C24.093,318.828,22.087,318.065,21.499,317.591z"/>
	<path style="fill:#76181C;" d="M50.834,202.616c-2.626,0.982-4.723,1.611-6.529,2.144c-1.808,0.531-3.336,0.926-4.863,1.317
		c-3.048,0.778-6.137,1.417-11.443,2.677c-5.162,1.275-8.188,2.264-10.855,3.683c-1.298,0.733-2.558,1.562-3.511,2.851
		c-0.495,0.633-0.858,1.4-1.139,2.296c-0.212,0.918-0.317,1.977-0.185,3.195c0.052,0.48-0.251,1.666-0.9,1.718
		c-0.59,0.294-1.377-0.8-1.481-1.407c-0.215-1.46-0.155-2.849,0.097-4.109c0.32-1.249,0.806-2.352,1.443-3.244
		c0.296-0.464,0.664-0.833,0.984-1.231c0.361-0.343,0.706-0.693,1.066-0.997c0.37-0.283,0.726-0.583,1.097-0.834
		c0.375-0.24,0.742-0.492,1.119-0.716c3.039-1.736,6.267-2.809,11.553-4.124c5.408-1.286,8.461-1.866,11.503-2.539
		c1.516-0.338,3.035-0.666,4.821-1.112c1.785-0.447,3.852-0.978,6.419-1.832c0.507-0.169,2.118-0.192,2.242,0.447
		C52.629,201.353,51.358,202.404,50.834,202.616z"/>
	<path style="fill:#76181C;" d="M68.132,211.205c1.567-1.307,2.166-2.331,2.706-3.292c0.253-0.492,0.486-0.994,0.665-1.59
		c0.174-0.579,0.3-1.319,0.162-1.94c-0.155-0.58-0.351-0.663-0.748-0.821c-0.399-0.129-0.93-0.121-1.46-0.061
		c-1.085,0.155-2.291,0.478-4.186,1.411c-0.194,0.088-0.867-0.158-1.15-0.735c-0.373-0.529-0.209-1.237-0.009-1.369
		c1.979-1.198,3.338-1.778,4.874-2.119c0.779-0.138,1.62-0.261,2.73,0.018c0.547,0.132,1.169,0.435,1.727,0.939
		c0.563,0.514,0.964,1.262,1.145,2.041c0.179,0.799,0.162,1.476,0.086,2.046c-0.072,0.576-0.205,1.056-0.343,1.491
		c-0.291,0.861-0.644,1.513-1.028,2.133c-0.384,0.622-0.839,1.185-1.416,1.811c-0.581,0.62-1.313,1.285-2.346,1.98
		c-0.222,0.135-1.086,0.06-1.372-0.52C67.798,212.103,67.983,211.329,68.132,211.205z"/>
	<path style="fill:#76181C;" d="M38.784,235.254c-2.839,0.119-4.492,0.397-6.153,0.569c-1.671,0.171-3.337,0.404-6.405,0.422
		c-3.01-0.023-4.931-0.4-6.753-1.103c-0.907-0.369-1.795-0.848-2.71-1.567c-0.907-0.722-1.844-1.707-2.639-3.107
		c-0.151-0.304,0-1.148,0.614-1.366c0.549-0.333,1.305-0.089,1.44,0.121c0.71,1.064,1.46,1.727,2.171,2.212
		c0.718,0.48,1.401,0.791,2.121,1.036c1.455,0.459,3.018,0.749,5.768,0.77c2.822-0.018,4.49-0.193,6.156-0.265
		c1.674-0.071,3.355-0.206,6.406-0.124c0.309,0.013,1.146,0.587,1.042,1.224C39.87,234.723,39.063,235.232,38.784,235.254z"/>
	<path style="fill:#76181C;" d="M112.517,316.406c-6.494,0.842-10.228,0.841-13.943,0.832c-3.717-0.058-7.451-0.192-13.934-1.216
		c-6.329-1.105-10.079-2.258-13.725-3.645c-0.456-0.171-0.913-0.343-1.374-0.516c-0.451-0.201-0.908-0.405-1.372-0.613
		c-0.464-0.21-0.937-0.424-1.424-0.644c-0.243-0.11-0.489-0.222-0.739-0.337c-0.244-0.132-0.49-0.265-0.741-0.4
		c-2.01-1.07-4.304-2.337-6.862-4.369c-0.525-0.423-1.294-1.691-0.757-2.087c0.307-0.573,1.708-0.186,2.208,0.174
		c2.449,1.825,4.66,2.949,6.596,3.898c0.241,0.121,0.478,0.24,0.711,0.356c0.242,0.1,0.481,0.199,0.715,0.296
		c0.469,0.195,0.925,0.383,1.374,0.568c0.447,0.184,0.886,0.365,1.32,0.544c0.446,0.153,0.887,0.304,1.328,0.455
		c3.513,1.232,7.119,2.292,13.237,3.358c6.272,0.989,9.901,1.169,13.511,1.324c3.61,0.107,7.254,0.258,13.59-0.361
		c0.628-0.061,2.47,0.253,2.424,0.906C114.903,315.545,113.168,316.308,112.517,316.406z"/>
	<path style="fill:#76181C;" d="M137.953,274.394c0.537-1.748,1.197-3.002,1.774-4.036c0.586-1.032,1.114-1.851,1.632-2.657
		c0.518-0.804,1.042-1.586,1.605-2.513c0.137-0.231,0.279-0.473,0.429-0.725c0.071-0.115,0.156-0.278,0.203-0.366l-0.006,0.006
		l-0.002,0.001l0.003,0.002l-0.05-0.023l-0.228-0.111c-0.152-0.068-0.312-0.117-0.462-0.175c-0.298-0.123-0.594-0.212-0.884-0.284
		c-0.284-0.088-0.563-0.15-0.836-0.195c-0.27-0.053-0.529-0.109-0.787-0.128c-1.019-0.145-1.918-0.124-2.805-0.063
		c-0.891,0.061-1.769,0.239-2.76,0.533c-0.982,0.306-2.078,0.79-3.197,1.694c-0.207,0.182-1.055,0.248-1.49-0.225
		c-0.542-0.366-0.372-1.29-0.098-1.576c1.367-1.251,2.7-1.938,3.886-2.399c1.195-0.446,2.262-0.726,3.347-0.86
		c1.083-0.132,2.184-0.195,3.459-0.048c0.319,0.02,0.647,0.081,0.99,0.142c0.344,0.052,0.697,0.128,1.065,0.235
		c0.37,0.089,0.753,0.203,1.148,0.36c0.198,0.075,0.403,0.141,0.607,0.231c0.263,0.126,0.533,0.255,0.809,0.387
		c0.717,0.399,1.374,0.828,2.009,1.209l0.119,0.072l0.056,0.089l-0.116,0.246c-0.077,0.162-0.153,0.323-0.229,0.481
		c-0.152,0.317-0.299,0.624-0.442,0.926c-0.141,0.299-0.305,0.594-0.465,0.882c-0.109,0.197-0.171,0.313-0.263,0.461
		c-0.17,0.277-0.328,0.55-0.49,0.796c-0.639,0.999-1.211,1.782-1.767,2.553c-0.555,0.771-1.111,1.524-1.71,2.43
		c-0.591,0.907-1.235,1.967-1.773,3.403c-0.128,0.267-0.85,0.974-1.47,0.773C138.121,275.871,137.832,274.751,137.953,274.394z"/>
	<path style="fill:#76181C;" d="M158.731,323.801c-3.184-1.263-5.198-3.179-6.631-4.889c-1.432-1.743-2.379-3.358-3.251-4.987
		c-1.665-3.287-2.941-6.723-4.757-12.723c-1.775-5.858-2.85-9.328-4.28-12.604c-0.724-1.624-1.501-3.224-2.66-4.862
		c-1.164-1.616-2.754-3.287-5.288-4.356c-0.495-0.204-1.547-1.029-1.305-1.637c-0.037-0.663,1.481-0.843,2.151-0.609
		c3.185,1.211,5.185,3.217,6.575,5.01c1.393,1.832,2.294,3.551,3.121,5.275c1.625,3.462,2.783,7.06,4.559,12.905
		c1.805,5.962,2.98,9.226,4.439,12.324c0.76,1.522,1.572,3.017,2.77,4.588c1.204,1.547,2.835,3.196,5.452,4.338
		c0.247,0.146,0.717,0.426,1.107,0.761c0.386,0.34,0.698,0.741,0.563,1.034c-0.001,0.334-0.458,0.509-1.026,0.57
		C159.705,324.007,159.038,323.953,158.731,323.801z"/>
	<path style="fill:#76181C;" d="M148.013,336.431c-0.315-0.046-0.622-0.09-0.92-0.133c-0.291-0.072-0.576-0.142-0.852-0.21
		c-0.554-0.138-1.078-0.268-1.578-0.392c-0.979-0.304-1.841-0.635-2.652-0.913c-1.564-0.676-2.881-1.257-4.108-1.987
		c-2.465-1.423-4.903-2.974-8.527-6.384c-1.763-1.679-3.075-3.12-4.182-4.417c-0.541-0.658-1.044-1.271-1.528-1.859
		c-0.454-0.611-0.89-1.198-1.327-1.785c-1.676-2.393-3.322-4.823-5.481-9.151c-0.213-0.45-0.205-1.613,0.425-1.793
		c0.529-0.374,1.477,0.281,1.707,0.69c2.246,4.065,3.948,6.316,5.632,8.547c0.434,0.55,0.868,1.098,1.32,1.669
		c0.473,0.553,0.965,1.127,1.494,1.745c1.074,1.219,2.334,2.582,4.002,4.17c3.431,3.227,5.67,4.698,7.904,6.103
		c1.115,0.721,2.297,1.302,3.704,1.995c0.727,0.284,1.502,0.627,2.382,0.945c0.448,0.132,0.918,0.271,1.415,0.417
		c0.248,0.074,0.503,0.15,0.766,0.227c0.267,0.049,0.542,0.101,0.824,0.153c0.438,0.087,1.651,0.831,1.492,1.455
		C149.985,336.181,148.529,336.497,148.013,336.431z"/>
	<path style="fill:#76181C;" d="M84.002,148.374c2.334,3.111,3.532,6.15,3.898,8.886c0.374,2.747-0.037,5.135-0.801,7.278
		c-1.575,4.296-4.264,8.019-9.619,13.312c-5.29,5.132-8.612,7.958-11.644,11.06c-1.525,1.536-2.977,3.124-4.487,5.081
		c-1.476,1.962-3.056,4.335-3.984,7.599c-0.178,0.644-0.926,2.033-1.553,1.825c-0.659,0.129-0.959-1.606-0.778-2.402
		c0.968-3.799,2.655-6.445,4.171-8.601c1.558-2.146,3.04-3.856,4.58-5.479c3.054-3.27,6.415-6.2,11.583-11.219
		c5.219-5.152,7.613-8.523,9.043-12.142c0.695-1.811,1.079-3.726,0.841-5.992c-0.236-2.255-1.135-4.883-3.193-7.796
		c-0.424-0.558-1.258-2.479-0.68-2.783C81.748,146.433,83.501,147.767,84.002,148.374z"/>
	<path style="fill:#76181C;" d="M72.451,179.921c-0.163-1.321-0.356-2.026-0.533-2.718c-0.2-0.679-0.382-1.362-0.882-2.393
		c-0.532-0.974-0.975-1.441-1.44-1.91c-0.494-0.438-1.018-0.883-2.121-1.37c-0.105-0.054-0.2-0.659,0.002-1.268
		c0.144-0.628,0.605-1.043,0.762-1.008c1.471,0.401,2.35,0.874,3.155,1.435c0.775,0.594,1.537,1.314,2.306,2.734
		c0.72,1.469,0.878,2.358,1.018,3.215c0.11,0.861,0.167,1.722,0.132,3.179c-0.011,0.148-0.535,0.567-1.179,0.548
		C73.03,180.407,72.474,180.05,72.451,179.921z"/>
	<path style="fill:#76181C;" d="M63.302,302.931c-0.398,0.359-0.822,0.585-1.202,0.858c-0.39,0.249-0.744,0.529-1.11,0.716
		c-0.723,0.398-1.365,0.796-1.982,1.092c-0.619,0.297-1.188,0.571-1.732,0.832c-0.555,0.23-1.085,0.449-1.615,0.668
		c-2.137,0.818-4.299,1.601-8.222,2.44c-3.845,0.79-6.229,0.974-8.611,1.068c-1.191,0.059-2.393,0.011-3.789-0.048
		c-0.701-0.074-1.451-0.153-2.274-0.239c-0.413-0.078-0.844-0.16-1.296-0.245c-0.226-0.044-0.457-0.088-0.694-0.133
		c-0.236-0.069-0.478-0.14-0.727-0.213c-0.415-0.132-1.095-0.883-0.786-1.461c0.14-0.626,1.056-0.938,1.395-0.861
		c0.213,0.051,0.422,0.101,0.626,0.151c0.213,0.028,0.42,0.056,0.624,0.083c0.405,0.054,0.791,0.106,1.159,0.157
		c0.755,0.036,1.442,0.07,2.084,0.102c1.298-0.02,2.41-0.033,3.53-0.138c2.232-0.186,4.481-0.408,8.142-1.162
		c3.736-0.801,5.796-1.498,7.842-2.177c0.508-0.181,1.016-0.361,1.549-0.551c0.519-0.214,1.062-0.438,1.651-0.683
		c0.593-0.241,1.186-0.57,1.875-0.897c0.352-0.154,0.666-0.383,1.029-0.587c0.345-0.222,0.759-0.413,1.102-0.7
		c0.281-0.201,1.436-0.421,1.81,0.099C64.194,301.513,63.635,302.648,63.302,302.931z"/>
	<path style="fill:#76181C;" d="M58.818,344.078c-3.713-1.508-5.66-2.671-7.61-3.788c-1.936-1.143-3.826-2.364-7.007-4.635
		c-3.108-2.224-4.938-3.602-6.779-4.953c-1.846-1.34-3.659-2.731-6.818-4.74c-0.317-0.208-0.745-1.09-0.354-1.605
		c0.24-0.605,1.227-0.649,1.577-0.461c3.372,1.904,5.302,3.198,7.235,4.475c1.925,1.287,3.8,2.634,6.883,4.837
		c3.15,2.246,4.951,3.466,6.77,4.655c1.828,1.162,3.627,2.406,7.048,4.007c0.335,0.159,1.112,1.071,0.806,1.639
		C60.425,344.146,59.198,344.219,58.818,344.078z"/>
	<path style="fill:#76181C;" d="M54.692,328.317c-0.753,0.749-1.111,1.218-1.476,1.668c-0.357,0.454-0.719,0.896-1.258,1.701
		c-0.502,0.797-0.736,1.297-0.958,1.806c-0.21,0.512-0.436,1.028-0.577,1.964c-0.021,0.089-0.57,0.296-1.212,0.279
		c-0.644,0.034-1.176-0.232-1.188-0.366c-0.045-1.252,0.091-2.029,0.271-2.774c0.195-0.744,0.475-1.479,1.137-2.535
		c0.702-1.056,1.197-1.564,1.707-2.037c0.517-0.464,1.059-0.899,2.036-1.567c0.105-0.063,0.694,0.157,1.068,0.68
		C54.658,327.628,54.761,328.239,54.692,328.317z"/>
	<path style="fill:#76181C;" d="M49.039,328.181c-1.84-1.272-2.872-2.019-3.883-2.796c-1.007-0.783-2.004-1.581-3.652-3.123
		c-1.607-1.518-2.511-2.526-3.368-3.578c-0.835-1.075-1.711-2.116-2.768-4.235c-0.101-0.231,0.153-0.912,0.764-1.129
		c0.564-0.305,1.253-0.159,1.356,0.001c1.031,1.67,1.958,2.575,2.797,3.49c0.864,0.908,1.743,1.815,3.278,3.264
		c1.577,1.473,2.511,2.284,3.424,3.118c0.917,0.829,1.828,1.673,3.502,3.074c0.162,0.145,0.326,0.944-0.096,1.431
		C50.05,328.242,49.229,328.301,49.039,328.181z"/>
	<path style="fill:#76181C;" d="M62.248,342.132c-0.48-1.3-0.814-2.009-1.126-2.722c-0.317-0.714-0.632-1.417-1.184-2.659
		c-0.569-1.198-0.935-1.907-1.301-2.618c-0.372-0.707-0.727-1.427-1.449-2.541c-0.067-0.116,0.183-0.679,0.703-1.056
		c0.482-0.427,1.097-0.514,1.203-0.404c0.96,1.1,1.489,1.814,1.99,2.54c0.495,0.732,0.949,1.492,1.575,2.805
		c0.622,1.348,0.902,2.142,1.145,2.946c0.238,0.804,0.447,1.617,0.754,3.048c0.024,0.147-0.387,0.681-1.016,0.818
		C62.929,342.487,62.301,342.259,62.248,342.132z"/>
	<path style="fill:#76181C;" d="M176.099,347.684c-0.179-0.244-0.436-0.433-0.638-0.632c-0.218-0.19-0.395-0.388-0.613-0.545
		c-0.43-0.316-0.792-0.619-1.168-0.865c-0.378-0.244-0.725-0.468-1.057-0.683c-0.348-0.199-0.679-0.389-1.01-0.579
		c-1.34-0.735-2.696-1.472-5.214-2.546c-2.471-1.035-4.019-1.542-5.551-2.065c-1.534-0.494-3.099-1.045-5.676-1.495
		c-0.253-0.046-0.768-0.65-0.663-1.284c-0.02-0.649,0.65-1.117,0.954-1.099c1.452,0.131,2.572,0.342,3.557,0.529
		c0.977,0.205,1.814,0.391,2.639,0.617c1.649,0.454,3.292,0.937,5.909,2.03c2.667,1.136,4.115,1.975,5.526,2.871
		c0.349,0.233,0.701,0.458,1.061,0.711c0.352,0.27,0.721,0.55,1.122,0.856c0.397,0.31,0.8,0.699,1.259,1.099
		c0.231,0.197,0.444,0.46,0.684,0.707c0.231,0.262,0.499,0.497,0.723,0.835c0.193,0.273,0.282,1.274-0.305,1.562
		C177.128,348.095,176.25,347.855,176.099,347.684z"/>
	<path style="fill:#76181C;" d="M186.249,343.851c-0.698-1.179-1.413-2.007-2.035-2.708c-0.652-0.681-1.2-1.252-1.811-1.774
		c-1.188-1.071-2.431-2.099-4.79-3.772c-2.328-1.623-3.798-2.563-5.24-3.561c-1.439-1.008-2.904-1.984-5.233-3.84
		c-0.235-0.199-0.412-1.012,0.042-1.473c0.348-0.542,1.168-0.599,1.405-0.443c2.318,1.601,3.849,2.447,5.332,3.361
		c1.49,0.91,2.999,1.812,5.424,3.499c2.468,1.749,3.8,2.909,5.037,4.166c0.632,0.611,1.206,1.3,1.875,2.118
		c0.643,0.846,1.38,1.846,2.097,3.268c0.14,0.297,0.065,1.31-0.555,1.511C187.241,344.521,186.388,344.076,186.249,343.851z"/>
	<path style="fill:#76181C;" d="M186.776,364.172c-1.637-0.477-2.406-1.062-3.144-1.59c-0.722-0.557-1.398-1.176-2.341-2.369
		c-1.779-2.348-1.932-2.96-3.277-5.383c-0.061-0.126,0.229-0.672,0.782-1c0.517-0.383,1.137-0.424,1.231-0.31
		c1.649,2.199,1.994,2.661,3.62,4.83c0.828,1.045,1.334,1.555,1.836,2.056c0.51,0.478,1.007,1.013,2.066,1.493
		c0.092,0.047,0.268,0.673,0.097,1.291C187.538,363.828,186.955,364.212,186.776,364.172z"/>
	<path style="fill:#76181C;" d="M188.637,346.735c-0.921,0.78-1.472,1.22-2.045,1.63c-0.581,0.4-1.187,0.787-2.337,1.313
		c-2.278,0.95-2.828,0.957-5.151,1.345c-0.121,0.01-0.489-0.458-0.606-1.09c-0.169-0.62-0.054-1.203,0.052-1.246
		c2.116-0.741,2.524-0.933,4.477-1.749c0.98-0.451,1.525-0.744,2.091-1.018c0.561-0.287,1.137-0.561,2.126-1.139
		c0.101-0.051,0.679,0.201,1.037,0.735C188.68,346.017,188.725,346.65,188.637,346.735z"/>
	<path style="fill:#76181C;" d="M192.515,347.416c0.518,0.961,0.774,1.737,0.938,2.395c0.187,0.663,0.262,1.216,0.354,1.775
		c0.126,1.109,0.196,2.225,0.011,4.147c-0.209,1.877-0.496,2.99-0.844,4.082c-0.388,1.082-0.769,2.175-1.812,3.837
		c-0.118,0.171-0.787,0.243-1.301-0.148c-0.556-0.32-0.839-0.913-0.776-1.055c0.693-1.441,0.901-2.445,1.145-3.405
		c0.212-0.977,0.417-1.965,0.599-3.618c0.161-1.691,0.144-2.65,0.131-3.596c-0.032-0.465-0.036-0.944-0.119-1.479
		c-0.059-0.546-0.196-1.155-0.458-1.831c-0.047-0.106,0.209-0.753,0.74-1.11C191.613,346.982,192.38,347.21,192.515,347.416z"/>
	<path style="fill:#76181C;" d="M165.977,307.592c-2.626-1.276-4.08-2.077-5.516-2.909c-1.428-0.846-2.85-1.707-5.215-3.443
		c-2.299-1.718-3.621-2.861-4.874-4.083c-1.236-1.237-2.486-2.478-4.211-4.862c-0.171-0.253-0.113-1.072,0.454-1.387
		c0.489-0.418,1.281-0.27,1.456-0.067c1.723,2.058,3,3.126,4.227,4.215c1.244,1.078,2.529,2.122,4.731,3.766
		c2.267,1.663,3.615,2.535,4.944,3.437c1.335,0.889,2.67,1.794,5.12,3.207c0.24,0.145,0.695,0.991,0.35,1.535
		C167.213,307.605,166.245,307.712,165.977,307.592z"/>
	<path style="fill:#76181C;" d="M190.261,327.036c-0.809-0.124-1.499-0.33-2.143-0.473c-0.624-0.192-1.187-0.365-1.708-0.525
		c-1.021-0.369-1.878-0.69-2.701-1.076c-1.646-0.767-3.29-1.576-5.885-3.438c-2.512-1.858-3.89-3.175-5.158-4.59
		c-1.237-1.434-2.501-2.89-3.962-5.736c-0.142-0.302,0.024-1.143,0.64-1.35c0.551-0.33,1.329-0.024,1.476,0.215
		c1.454,2.426,2.717,3.669,3.914,4.909c1.225,1.226,2.527,2.399,4.85,4.117c2.403,1.724,3.898,2.508,5.369,3.302
		c0.739,0.399,1.497,0.745,2.405,1.154c0.461,0.179,0.96,0.373,1.513,0.588c0.562,0.166,1.178,0.399,1.88,0.553
		c0.27,0.069,0.982,0.756,0.832,1.381C191.568,326.717,190.594,327.083,190.261,327.036z"/>
	<path style="fill:#76181C;" d="M190.964,328.684c-1.413,1.455-1.529,1.714-2.992,3.126c-1.421,1.41-1.779,1.659-3.361,2.971
		c-0.087,0.062-0.625-0.163-1.064-0.633c-0.471-0.438-0.7-0.974-0.64-1.06c1.283-1.575,1.491-1.958,2.954-3.417
		c1.524-1.478,1.812-1.623,3.579-2.844c0.095-0.055,0.665,0.177,1.048,0.693C190.909,328.008,191.03,328.608,190.964,328.684z"/>
	<path style="fill:#76181C;" d="M459.396,182.484c-0.036,1.326-0.448,2.276-0.821,3.168c-0.405,0.883-0.811,1.624-1.3,2.378
		c-0.488,0.74-1.086,1.445-1.816,1.996c-0.732,0.553-1.544,0.883-2.251,1.106c-1.438,0.417-2.515,0.634-3.745,0.894
		c-0.593,0.136-1.18,0.221-1.759,0.306c-0.58,0.097-1.154,0.165-1.732,0.212c-4.602,0.431-9.298,0.113-17.022-1.449
		c-3.757-0.753-6.77-1.357-9.412-1.886c-2.668-0.542-4.949-1.085-7.213-1.698c-2.248-0.608-4.546-1.327-7.054-2.202
		c-1.127-0.368-2.535-0.602-4.097-0.885c-0.788-0.147-1.617-0.292-2.511-0.512c-0.891-0.225-1.843-0.478-2.86-0.999
		c-0.206-0.123-0.457-0.27-0.691-0.534c-0.117-0.123-0.23-0.252-0.331-0.386c-0.096-0.155-0.179-0.312-0.247-0.461
		c-0.149-0.281-0.161-0.618-0.132-0.821c0.035-0.214,0.14-0.336,0.308-0.367c0.264-0.206,0.671-0.031,1.061,0.067
		c0.103,0.026,0.201,0.057,0.289,0.091c0.11,0.024,0.216,0.051,0.311,0.082c0.175,0.07,0.392,0.116,0.524,0.189
		c1.439,0.665,3.171,0.896,4.698,1.143c1.559,0.243,3.016,0.425,4.469,0.849c2.605,0.827,4.747,1.431,6.981,1.987
		c2.218,0.549,4.452,1.041,7.071,1.547c2.613,0.479,5.702,1.093,9.422,1.848c7.62,1.535,11.923,1.844,16.192,1.55
		c0.534-0.031,1.065-0.08,1.599-0.158c0.536-0.065,1.08-0.127,1.627-0.239c1.056-0.188,2.376-0.433,3.49-0.725
		c1.123-0.302,1.907-0.799,2.729-1.976c0.393-0.567,0.813-1.28,1.158-1.988c0.335-0.706,0.645-1.516,0.666-2.16
		c0.002-0.275,0.125-0.573,0.041-0.943c-0.1-0.388-0.536-0.807-0.357-1.099c0.001-0.17,0.137-0.284,0.399-0.337
		c0.259-0.07,0.646-0.018,1.068,0.188c0.408,0.225,0.819,0.659,0.996,1.106c0.11,0.226,0.175,0.441,0.202,0.628
		C459.382,182.185,459.406,182.359,459.396,182.484z"/>
	<path style="fill:#76181C;" d="M398.294,167.352c-1.338,0.187-2.033,0.646-2.694,1.027c-0.641,0.427-1.298,0.9-2.112,1.928
		c-0.757,1.031-0.9,1.736-0.946,2.369c-0.005,0.633,0.032,1.31,0.861,2.298c0.072,0.097-0.081,0.714-0.509,1.19
		c-0.375,0.529-1.018,0.654-1.179,0.519c-1.448-1.297-1.936-2.695-2.023-3.961c-0.063-1.283,0.231-2.633,1.377-4.197
		c0.305-0.388,0.573-0.74,0.868-1c0.283-0.275,0.535-0.526,0.804-0.711c0.509-0.41,0.987-0.678,1.469-0.931
		c0.234-0.138,0.502-0.218,0.763-0.329c0.265-0.107,0.542-0.215,0.863-0.285c0.624-0.171,1.374-0.327,2.348-0.316
		c0.209,0.01,0.725,0.538,0.64,1.181C398.813,166.775,398.413,167.332,398.294,167.352z"/>
	<path style="fill:#76181C;" d="M452.17,177.149c-0.762,0.385-1.435,0.549-2.067,0.69c-0.631,0.135-1.216,0.218-1.771,0.282
		c-1.109,0.127-2.09,0.171-2.997,0.201c-1.811,0.048-3.319,0.012-4.822-0.053c-3.004-0.144-5.992-0.382-11.2-1.082
		c-5.092-0.706-8.149-1.287-11.209-1.988c-1.532-0.365-3.078-0.776-4.842-1.436c-1.753-0.674-3.747-1.606-5.905-3.202
		c-0.454-0.322-1.011-1.466-0.512-1.883c0.322-0.572,1.483-0.33,1.899-0.078c2.008,1.366,3.799,2.108,5.413,2.655
		c1.623,0.531,3.079,0.858,4.556,1.158c2.973,0.581,5.988,1.103,11.007,1.796c5.131,0.688,8.055,0.969,10.967,1.208
		c1.455,0.112,2.911,0.208,4.627,0.236c0.856,0.009,1.781,0.006,2.779-0.066c0.97-0.076,2.135-0.203,3-0.585
		c0.171-0.076,0.466-0.093,0.71-0.097c0.277,0.028,0.572-0.252,0.894-0.224c0.162-0.034,0.315,0.028,0.443,0.219
		c0.123,0.185,0.18,0.521,0.092,0.869C453.052,176.5,452.457,176.997,452.17,177.149z"/>
	<path style="fill:#76181C;" d="M435.128,143.985c-3.838,1.557-5.947,2.545-8.025,3.576c-2.06,1.054-4.145,2.076-7.474,4.333
		c-1.612,1.125-2.816,2.134-3.856,3.036c-0.971,0.9-1.97,1.829-2.871,2.609c-0.907,0.805-1.797,1.601-2.725,2.583
		c-0.449,0.495-0.932,1.03-1.346,1.647c-0.416,0.607-0.817,1.313-0.941,2.02c-0.009,0.138-0.21,0.348-0.38,0.551
		c-0.197,0.203-0.473,0.45-0.789,0.476c-0.308,0.119-0.624-0.024-0.875-0.339c-0.278-0.314-0.346-0.749-0.334-1.025
		c0.179-1.318,0.709-2.257,1.185-3.061c0.487-0.807,1.004-1.441,1.486-2.032c0.982-1.154,1.888-2.048,2.786-2.914
		c0.89-0.856,1.779-1.713,2.814-2.71c1.105-0.995,2.401-2.097,4.13-3.306c3.564-2.419,5.781-3.443,7.971-4.45
		c2.204-0.979,4.447-1.858,8.399-3.24c0.397-0.13,1.678-0.032,1.813,0.604C436.405,142.911,435.509,143.824,435.128,143.985z"/>
	<path style="fill:#76181C;" d="M447.105,173.254c-0.193-0.532-0.348-1.025-0.4-1.439c-0.035-0.213-0.067-0.414-0.099-0.607
		c-0.013-0.187-0.025-0.365-0.037-0.537c-0.063-0.697-0.022-1.246-0.002-1.81c0.081-1.109,0.243-2.199,0.746-4.029
		c0.517-1.781,0.939-2.815,1.411-3.828c0.492-1.006,0.98-2.005,2.043-3.573c0.119-0.159,0.786-0.207,1.297,0.188
		c0.553,0.326,0.817,0.928,0.745,1.075c-0.767,1.461-1.096,2.453-1.453,3.403c-0.343,0.963-0.684,1.931-1.151,3.548
		c-0.453,1.655-0.637,2.6-0.799,3.53c-0.06,0.459-0.157,0.934-0.171,1.46c-0.008,0.134-0.017,0.274-0.026,0.42
		c0.006,0.138,0.012,0.283,0.019,0.434c-0.005,0.317,0.068,0.607,0.131,0.937c0.029,0.084-0.309,0.671-0.858,1
		C447.985,173.828,447.227,173.498,447.105,173.254z"/>
	<path style="fill:#76181C;" d="M441.987,153.738c-0.024-1.262,0.122-1.842,0.269-2.474c0.167-0.616,0.353-1.222,0.958-2.219
		c0.612-0.967,1.199-1.528,1.966-1.951c0.369-0.209,0.856-0.377,1.427-0.412c0.295,0.002,0.615-0.019,0.929,0.095
		c0.16,0.045,0.325,0.097,0.492,0.157c0.156,0.069,0.293,0.165,0.447,0.257c0.136,0.092,0.089,0.688-0.316,1.193
		c-0.365,0.527-0.777,0.927-0.814,0.927l-0.16-0.05l-0.112,0.016l-0.152,0.05c-0.086,0.054-0.16,0.098-0.268,0.207
		c-0.201,0.191-0.486,0.451-0.891,1.101c-0.408,0.675-0.602,1.128-0.804,1.554c-0.196,0.416-0.429,0.91-0.572,1.598
		c-0.013,0.04-0.555,0.257-1.193,0.325C442.557,154.221,442.005,153.894,441.987,153.738z"/>
	<path style="fill:#76181C;" d="M437.311,136.624c1.236-0.244,1.837-0.214,2.491-0.197c0.643,0.034,1.275,0.103,2.384,0.458
		c1.082,0.372,1.752,0.774,2.372,1.359c0.154,0.167,0.304,0.331,0.449,0.519c0.139,0.227,0.276,0.465,0.395,0.732
		c0.078,0.307,0.198,0.642,0.181,1.004c-0.014,0.369-0.055,0.771-0.223,1.107c-0.072,0.164-0.675,0.233-1.236-0.093
		c-0.575-0.283-1.042-0.616-1.051-0.641c0.048-0.228-0.084-0.224-0.097-0.28l-0.121-0.093l-0.185-0.12
		c-0.29-0.168-0.663-0.384-1.436-0.645c-0.801-0.255-1.305-0.361-1.789-0.473c-0.473-0.107-1.024-0.248-1.781-0.261
		c-0.049-0.007-0.367-0.502-0.528-1.123C436.93,137.264,437.164,136.667,437.311,136.624z"/>
	<path style="fill:#76181C;" d="M461.463,162.858c-1.318,0.149-2.018-0.029-2.703-0.182c-0.679-0.179-1.342-0.419-2.36-1.066
		c-0.982-0.654-1.489-1.18-1.945-1.746c-0.436-0.581-0.887-1.177-1.277-2.419c-0.034-0.141,0.391-0.557,1.02-0.705
		c0.612-0.192,1.189-0.195,1.227-0.14c0.364,0.655,0.771,1.005,1.134,1.342c0.377,0.334,0.765,0.677,1.481,1.151
		c0.741,0.468,1.191,0.674,1.629,0.875c0.435,0.187,0.896,0.425,1.665,0.493c0.063,0.011,0.35,0.535,0.434,1.171
		C461.9,162.264,461.608,162.831,461.463,162.858z"/>
	<path style="fill:#76181C;" d="M470.352,160.012c-1.538-0.187-2.31-0.536-3.069-0.848c-0.749-0.336-1.474-0.724-2.592-1.532
		c-2.144-1.602-2.452-2.087-4.271-3.864c-0.087-0.095,0.049-0.686,0.48-1.163c0.385-0.516,0.945-0.753,1.059-0.68
		c2.108,1.503,2.533,1.814,4.492,3.272c1.003,0.723,1.576,1.073,2.141,1.428c0.567,0.335,1.134,0.728,2.172,1.021
		c0.092,0.031,0.333,0.618,0.255,1.254C470.999,159.546,470.52,160.021,470.352,160.012z"/>
	<path style="fill:#76181C;" d="M472.566,151.53c-0.63-0.449-1.083-0.637-1.489-0.838c-0.413-0.197-0.828-0.405-1.547-0.703
		c-0.706-0.278-1.116-0.376-1.5-0.474c-0.377-0.087-0.769-0.175-1.175-0.05c-0.028-0.002-0.442-0.391-0.83-0.902
		c-0.423-0.489-0.503-1.079-0.376-1.175c0.282-0.217,0.562-0.306,0.818-0.427c0.253-0.088,0.486-0.142,0.707-0.198
		c0.425-0.067,0.793-0.1,1.137-0.084c0.689,0.029,1.358,0.141,2.324,0.518c0.978,0.4,1.472,0.718,1.944,1.068
		c0.468,0.361,0.918,0.719,1.634,1.52c0.071,0.093-0.104,0.678-0.59,1.1C473.169,151.337,472.626,151.565,472.566,151.53z"/>
	<path style="fill:#76181C;" d="M472.735,140.61c-0.965,0.109-1.487,0.244-2.008,0.357c-0.516,0.122-1.029,0.228-1.899,0.477
		c-0.844,0.261-1.334,0.459-1.831,0.658c-0.493,0.208-0.999,0.405-1.78,0.882c-0.081,0.041-0.58-0.255-0.973-0.763
		c-0.429-0.48-0.586-1.044-0.506-1.129c0.811-0.752,1.37-1.155,1.946-1.519c0.581-0.357,1.202-0.672,2.277-1.006
		c1.105-0.319,1.752-0.394,2.39-0.432c0.639-0.027,1.279-0.019,2.37,0.074c0.111,0.017,0.408,0.557,0.372,1.2
		C473.106,140.05,472.829,140.592,472.735,140.61z"/>
	<path style="fill:#76181C;" d="M465.016,132.641c-1.577,1.271-1.749,1.439-3.266,2.514c-0.718,0.525-1.115,0.841-1.461,1.127
		c-0.164,0.137-0.322,0.285-0.412,0.375l-0.077-0.013l-0.025,0.113c-0.025,0.003-0.363,0.266-0.804,0.555
		c-0.276,0.185-0.578,0.313-0.842,0.343c-0.261,0.034-0.489-0.018-0.531-0.096c-0.243-0.354-0.331-0.757-0.33-1.121
		c0.022-0.449,0.152-0.805,0.263-1.041c0.235-0.498,0.462-0.788,0.688-1.075c0.456-0.545,0.938-0.987,1.759-1.593
		c1.668-1.187,2.008-1.218,3.7-2.082c0.084-0.033,0.585,0.274,0.955,0.799C465.04,131.945,465.096,132.567,465.016,132.641z"/>
	<path style="fill:#76181C;" d="M454.399,129.867c-0.415,0.792-0.566,1.279-0.741,1.751c-0.17,0.476-0.342,0.947-0.628,1.807
		c-0.517,1.716-0.67,2.08-1.245,3.902c-0.036,0.093-0.606,0.192-1.232,0.049c-0.636-0.1-1.126-0.408-1.124-0.509
		c0.197-1.949,0.151-2.39,0.741-4.362c0.332-1.008,0.596-1.57,0.904-2.105c0.314-0.53,0.654-1.056,1.345-1.892
		c0.078-0.082,0.687-0.01,1.189,0.391C454.138,129.264,454.433,129.788,454.399,129.867z"/>
	<path style="fill:#76181C;" d="M440.795,197.952c-0.251,1.951-1.147,3.55-2.163,4.713c-1.021,1.181-2.173,1.975-3.289,2.553
		c-0.548,0.32-1.12,0.512-1.658,0.744c-0.559,0.16-1.09,0.373-1.635,0.464c-0.27,0.056-0.538,0.111-0.804,0.166
		c-0.27,0.032-0.537,0.063-0.803,0.094c-0.53,0.08-1.065,0.06-1.597,0.071c-0.528-0.009-1.077-0.073-1.598-0.129
		c-0.493-0.082-0.991-0.165-1.5-0.25c-1.011-0.204-2.059-0.445-3.173-0.758c-2.229-0.615-4.715-1.545-7.789-2.544
		c-3.006-0.96-5.411-1.416-7.546-1.543c-1.086-0.084-1.992-0.038-3.145-0.058c-1.094-0.025-2.168-0.127-3.247-0.362
		c-1.076-0.237-2.167-0.61-3.218-1.232c-1.047-0.624-2.027-1.534-2.762-2.683c-0.364-0.569-0.686-1.182-0.925-1.958
		c-0.226-0.749-0.322-1.554-0.261-2.387c0.06-0.832,0.267-1.702,0.7-2.542c0.429-0.835,1.112-1.646,2.035-2.2
		c0.184-0.119,0.461-0.194,0.743-0.261c0.287-0.05,0.599-0.037,0.865-0.003c0.546,0.128,0.905,0.393,0.865,0.747
		c0.107,0.329-0.152,0.699-0.419,0.983c-0.124,0.171-0.265,0.304-0.385,0.429c-0.11,0.14-0.23,0.222-0.318,0.291
		c-0.919,0.6-1.339,1.698-1.37,2.703c-0.021,0.504,0.06,0.99,0.207,1.412c0.134,0.395,0.373,0.835,0.639,1.212
		c1.043,1.508,2.546,2.183,4.223,2.503c0.84,0.159,1.727,0.226,2.669,0.228c0.884,0.002,2.101-0.069,3.29,0.011
		c1.212,0.04,2.496,0.23,3.886,0.48c1.381,0.281,2.861,0.662,4.447,1.165c3.226,1.05,5.608,1.954,7.693,2.555
		c1.039,0.306,1.998,0.542,2.916,0.747c0.461,0.088,0.912,0.173,1.358,0.257c0.425,0.053,0.812,0.113,1.223,0.132
		c0.409-0.002,0.818,0.036,1.234-0.018c0.209-0.017,0.417-0.034,0.628-0.051c0.209-0.036,0.421-0.073,0.634-0.11
		c0.434-0.05,0.849-0.214,1.297-0.316c0.421-0.172,0.885-0.298,1.313-0.534c0.884-0.414,1.785-0.994,2.553-1.826
		c0.769-0.824,1.416-1.898,1.642-3.244c0.02-0.135,0.061-0.329,0.144-0.546c0.081-0.218,0.201-0.465,0.277-0.706
		c0.187-0.475,0.463-0.938,0.808-0.925c0.33-0.137,0.688,0.246,0.976,0.819C440.754,196.805,440.803,197.566,440.795,197.952z"/>
	<path style="fill:#76181C;" d="M396.974,219.337c-2.022-1.353-3.493-2.588-4.715-3.7c-1.232-1.107-2.172-2.143-3.092-3.194
		c-0.885-1.083-1.752-2.19-2.623-3.621c-0.885-1.418-1.819-3.142-2.657-5.49c-0.814-2.301-1.175-4.229-1.389-5.962
		c-0.153-1.765-0.083-3.264,0.157-4.763c0.249-1.491,0.665-2.974,1.453-4.579c0.404-0.796,0.895-1.628,1.568-2.448
		c0.655-0.829,1.484-1.657,2.538-2.386c0.431-0.329,1.655-0.394,1.849,0.224c0.391,0.529-0.132,1.439-0.43,1.712
		c-0.821,0.621-1.45,1.31-1.944,2.002c-0.511,0.679-0.874,1.373-1.175,2.037c-0.581,1.34-0.874,2.588-1.038,3.851
		c-0.157,1.26-0.179,2.57-0.03,4.037c0.211,1.478,0.542,3.213,1.271,5.267c0.749,2.1,1.579,3.657,2.362,4.953
		c0.768,1.309,1.532,2.339,2.303,3.363c0.809,0.995,1.629,1.992,2.723,3.071c1.085,1.086,2.4,2.306,4.246,3.659
		c0.364,0.265,1.137,1.43,0.71,1.918C398.812,219.892,397.393,219.597,396.974,219.337z"/>
	<path style="fill:#76181C;" d="M435.547,221.484c4.121-1.951,6.374-3.04,8.465-4.353c1.042-0.654,2.047-1.344,3.137-2.266
		c1.092-0.925,2.229-2.084,3.444-3.827c2.306-3.463,3.099-5.957,3.788-8.375c0.313-1.225,0.573-2.47,0.691-3.929
		c0.122-1.452,0.171-3.146-0.268-5.142c-0.097-0.389,0.174-1.414,0.804-1.543c0.573-0.326,1.374,0.49,1.528,0.969
		c0.617,2.317,0.65,4.235,0.594,5.88c-0.054,1.652-0.279,3.053-0.577,4.431c-0.309,1.376-0.712,2.731-1.32,4.255
		c-0.629,1.514-1.432,3.218-2.768,5.163c-1.37,1.977-2.753,3.368-4.012,4.398c-1.266,1.035-2.414,1.771-3.578,2.441
		c-2.328,1.336-4.789,2.345-8.933,4.084c-0.417,0.166-1.775,0.208-1.962-0.415C434.207,222.72,435.136,221.684,435.547,221.484z"/>
	<path style="fill:#76181C;" d="M405.057,194.308c-1.289-0.24-1.619-1.344-1.375-2.297c0.278-1.086,1.301-1.976,2.494-1.167
		c0.84,0.57,1.021,1.223,0.871,1.809C406.797,193.628,405.628,194.414,405.057,194.308z"/>
	<path style="fill:#76181C;" d="M423.239,197.699c-1.289-0.24-1.618-1.344-1.374-2.296c0.278-1.086,1.301-1.976,2.494-1.167
		c0.839,0.569,1.02,1.223,0.871,1.808C424.98,197.02,423.811,197.806,423.239,197.699z"/>
	<path style="fill:#76181C;" d="M501.411,234.76c0.156-1.493,0.056-2.865-0.208-4.09c-0.11-0.615-0.304-1.189-0.443-1.741
		c-0.201-0.542-0.369-1.063-0.569-1.555c-0.806-1.965-1.75-3.522-2.783-5.003c-1.041-1.478-2.177-2.903-3.705-4.438
		c-1.523-1.534-3.408-3.22-6.073-5.006c-2.613-1.738-4.902-2.819-6.949-3.613c-2.057-0.769-3.866-1.34-5.721-1.675
		c-1.848-0.358-3.728-0.607-5.922-0.585c-2.188,0.011-4.71,0.217-7.732,1.064c-0.604,0.179-2.084,0.091-2.175-0.555
		c-0.377-0.552,0.826-1.514,1.488-1.746c3.24-1.017,5.983-1.336,8.371-1.426c2.396-0.099,4.459,0.106,6.486,0.445
		c2.037,0.317,4.021,0.897,6.266,1.711c2.235,0.839,4.723,2,7.548,3.877c2.88,1.928,4.908,3.76,6.541,5.439
		c1.635,1.682,2.846,3.258,3.942,4.907c1.089,1.653,2.071,3.398,2.905,5.638c0.207,0.559,0.381,1.161,0.584,1.78
		c0.143,0.642,0.337,1.3,0.443,2.02c0.255,1.427,0.335,3.063,0.084,4.877c-0.079,0.36-0.28,1.035-0.683,1.519
		c-0.371,0.494-0.774,0.813-1.053,0.628c-0.322-0.041-0.485-0.544-0.558-1.068C501.457,235.646,501.357,235.051,501.411,234.76z"/>
	<path style="fill:#76181C;" d="M411.082,220.196c1.22-0.643,2.26-0.969,3.139-1.301c0.897-0.27,1.669-0.464,2.444-0.633
		c1.561-0.237,3.165-0.498,5.954-0.196c2.719,0.35,4.302,0.914,5.813,1.583c0.383,0.153,0.749,0.353,1.132,0.557
		c0.386,0.192,0.775,0.421,1.184,0.69c0.823,0.53,1.734,1.141,2.753,2.323c0.102,0.1,0.161,0.45,0.089,0.736
		c-0.067,0.296-0.262,0.539-0.567,0.655c-0.272,0.165-0.603,0.203-0.851,0.226c-0.257,0.019-0.401,0.013-0.499-0.06
		c-0.71-0.701-1.552-1.219-2.274-1.584c-0.359-0.198-0.704-0.365-1.051-0.503c-0.34-0.148-0.662-0.296-1.005-0.406
		c-1.337-0.493-2.721-0.933-5.07-1.233c-2.41-0.259-3.787-0.076-5.159,0.033c-0.68,0.103-1.365,0.214-2.173,0.382
		c-0.793,0.229-1.74,0.429-2.875,0.922c-0.227,0.081-1.102-0.127-1.343-0.721C410.373,221.119,410.832,220.325,411.082,220.196z"/>
	<path style="fill:#76181C;" d="M358.684,222.436c-2.613-2.41-3.191-2.566-5.735-5.387c-1.232-1.417-1.866-2.403-2.435-3.408
		c-0.552-1.017-1.05-2.089-1.581-3.928c-0.047-0.195,0.339-0.74,0.969-0.88c0.604-0.217,1.239-0.032,1.308,0.119
		c0.639,1.535,1.182,2.378,1.739,3.208c0.575,0.82,1.15,1.635,2.263,2.914c2.349,2.601,2.754,2.881,5.218,5.713
		c0.119,0.154,0.08,0.904-0.429,1.301C359.548,222.544,358.814,222.549,358.684,222.436z"/>
	<path style="fill:#76181C;" d="M372.148,253.596c0.402-1.541,1.635-1.939,2.643-1.652c1.149,0.327,2.004,1.545,0.995,2.974
		c-0.71,1.005-1.439,1.225-2.058,1.048C372.696,255.672,371.97,254.279,372.148,253.596z"/>
	<path style="fill:#76181C;" d="M33.334,216.558c0.402-1.541,1.635-1.939,2.643-1.652c1.149,0.327,2.004,1.545,0.995,2.974
		c-0.71,1.006-1.439,1.225-2.058,1.048C33.882,218.634,33.156,217.242,33.334,216.558z"/>
	<path style="fill:#76181C;" d="M0.047,215.409c0.696-2.673,2.835-3.363,4.583-2.866c1.993,0.568,3.476,2.679,1.726,5.157
		c-1.231,1.745-2.496,2.125-3.569,1.819C0.997,219.01-0.262,216.594,0.047,215.409z"/>
	<path style="fill:#76181C;" d="M368.359,265.591c0.402-1.541,1.635-1.94,2.643-1.652c1.15,0.326,2.004,1.545,0.995,2.974
		c-0.71,1.005-1.439,1.225-2.058,1.048C368.908,267.667,368.182,266.274,368.359,265.591z"/>
	<path style="fill:#76181C;" d="M280.025,227.383c-10.937,3.995-19.683,6.705-27.311,8.723c-7.632,2.009-14.122,3.402-20.641,4.623
		c-6.53,1.152-13.085,2.151-20.906,3.089c-7.822,0.915-16.905,1.788-28.489,2.704c-5.673,0.456-10.763,0.827-15.473,1.158
		c-4.719,0.302-9.008,0.441-13.015,0.535c-8.015,0.174-14.899,0.126-21.782-0.048c-6.882-0.191-13.764-0.493-21.761-1.163
		c-3.997-0.341-8.274-0.774-12.958-1.44c-4.679-0.688-9.789-1.513-15.345-3.249c-0.564-0.189-1.281-0.438-2.007-0.8
		c-0.358-0.177-0.727-0.358-1.094-0.538c-0.354-0.208-0.697-0.421-1.016-0.627c-0.644-0.388-1.15-0.86-1.456-1.189
		c-0.307-0.336-0.403-0.568-0.204-0.639c-0.028-0.201,0.238-0.227,0.668-0.146c0.435,0.076,1.007,0.291,1.705,0.465
		c0.341,0.103,0.698,0.212,1.057,0.322c0.372,0.101,0.746,0.201,1.11,0.3c0.736,0.211,1.425,0.408,1.963,0.563
		c5.31,1.611,10.358,2.389,14.967,3.021c4.621,0.614,8.859,1.003,12.823,1.303c7.93,0.59,14.772,0.828,21.613,0.968
		c6.841,0.123,13.688,0.132,21.646-0.066c3.977-0.106,8.236-0.254,12.891-0.559c4.677-0.353,9.774-0.739,15.43-1.167
		c11.561-0.915,20.605-1.772,28.382-2.657c7.773-0.908,14.273-1.862,20.749-2.954c6.462-1.159,12.895-2.475,20.468-4.39
		c7.571-1.924,16.262-4.524,27.168-8.4c2.17-0.788,8.42-2.547,8.163-1.764C288.096,223.776,282.201,226.556,280.025,227.383z"/>
</g>
</svg>
