<?xml version="1.0" encoding="iso-8859-1"?>
<!-- Generator: Adobe Illustrator 21.1.0, SVG Export Plug-In . SVG Version: 6.00 Build 0)  -->
<svg version="1.1" id="_x38_" xmlns="http://www.w3.org/2000/svg" xmlns:xlink="http://www.w3.org/1999/xlink" x="0px" y="0px"
	 viewBox="0 0 512 512" style="enable-background:new 0 0 512 512;" xml:space="preserve">
<g>
	<g>
		<polygon style="fill:#5E311B;" points="224.674,395.77 224.92,492.344 255.379,512 255.132,415.427 		"/>
		<polygon style="fill:#3F210E;" points="255.132,415.427 255.379,512 286.036,492.344 285.789,395.77 		"/>
		<polygon style="fill:#275440;" points="224.674,395.77 255.132,415.427 285.789,395.77 255.331,376.112 		"/>
	</g>
	<g>
		<polygon style="fill:#1EAB72;" points="64.727,349.911 255.379,472.956 255.46,369.436 255.581,215.934 255.5,215.874 
			235.988,203.292 133.647,290.915 		"/>
		<polygon style="fill:#009A67;" points="255.379,472.956 447.273,349.911 378.001,290.855 275.31,203.292 255.581,215.934 
			255.46,369.436 		"/>
		<polygon style="fill:#00A970;" points="235.992,203.295 255.585,215.94 275.306,203.295 255.713,190.65 		"/>
	</g>
	<g>
		<polygon style="fill:#009E67;" points="133.647,290.915 255.379,369.481 255.5,215.874 235.988,203.292 		"/>
		<polygon style="fill:#0D8656;" points="255.379,369.481 255.46,369.436 378.001,290.855 275.31,203.292 255.581,215.934 
			255.5,215.874 		"/>
	</g>
	<g>
		<polygon style="fill:#1EAB72;" points="109.071,246.646 255.527,341.168 255.581,262.527 255.676,143.727 240.633,134.024 
			162.774,200.668 		"/>
		<polygon style="fill:#009A67;" points="255.527,341.168 402.928,246.646 349.037,200.713 270.827,134.024 255.73,143.697 
			255.676,143.727 255.581,262.527 		"/>
		<polygon style="fill:#00A970;" points="240.633,134.024 255.676,143.727 255.73,143.697 270.827,134.024 255.784,124.306 
			255.743,124.336 		"/>
	</g>
	<g>
		<polygon style="fill:#009E67;" points="162.774,200.668 255.581,262.527 255.635,262.557 255.73,143.697 255.743,124.336 
			240.633,134.024 		"/>
		<polygon style="fill:#0D8656;" points="255.635,262.557 349.037,200.713 270.827,134.024 255.784,124.306 255.743,124.336 
			255.73,143.697 		"/>
	</g>
	<g>
		<polygon style="fill:#1EAB72;" points="255.773,61.573 142.432,163.874 255.632,239.326 255.773,61.573 		"/>
		<polygon style="fill:#009A67;" points="255.773,61.573 255.632,239.326 369.571,163.875 255.773,61.573 		"/>
	</g>
	<g>
		<polygon style="fill:#009D68;" points="103.937,355.271 111.615,361.381 119.953,350.639 112.276,344.528 		"/>
		<polygon style="fill:#009D68;" points="150.677,348.34 157.715,353.942 165.359,344.094 158.321,338.493 		"/>
		<polygon style="fill:#009D68;" points="215.082,424.03 222.12,429.632 229.764,419.784 222.726,414.182 		"/>
		<polygon style="fill:#009D68;" points="158.655,380.144 167.056,386.829 176.178,375.076 167.778,368.391 		"/>
		<polygon style="fill:#009D68;" points="133.137,315.765 140.217,321.4 147.906,311.494 140.826,305.859 		"/>
		<polygon style="fill:#009D68;" points="198.532,388.278 205.612,393.913 213.301,384.007 206.221,378.372 		"/>
		<polygon style="fill:#009D68;" points="198.812,358.255 204.814,363.032 211.333,354.634 205.331,349.857 		"/>
		<polygon style="fill:#009D68;" points="199.165,144.701 206.843,150.812 215.181,140.069 207.503,133.959 		"/>
		<polygon style="fill:#009D68;" points="137.05,242.178 144.089,247.779 151.733,237.931 144.694,232.33 		"/>
		<polygon style="fill:#009D68;" points="224.821,122.207 231.859,127.809 239.503,117.961 232.465,112.359 		"/>
		<polygon style="fill:#009D68;" points="217.372,301.768 224.411,307.37 232.055,297.522 225.016,291.92 		"/>
		<polygon style="fill:#009D68;" points="172.159,239.178 180.559,245.864 189.682,234.11 181.281,227.425 		"/>
		<polygon style="fill:#009D68;" points="213.359,186.226 221.759,192.911 230.882,181.158 222.482,174.473 		"/>
		<polygon style="fill:#009D68;" points="170.808,159.698 177.888,165.332 185.577,155.426 178.497,149.792 		"/>
		<polygon style="fill:#009D68;" points="189.713,279.668 196.793,285.303 204.482,275.397 197.402,269.762 		"/>
		<polygon style="fill:#009D68;" points="217.21,260.484 223.213,265.261 229.731,256.863 223.729,252.086 		"/>
	</g>
	<g>
		<polygon style="fill:#098C5B;" points="379.102,353.771 371.424,359.881 363.086,349.139 370.763,343.029 		"/>
		<polygon style="fill:#098C5B;" points="340.188,347.026 333.15,352.627 325.506,342.779 332.544,337.178 		"/>
		<polygon style="fill:#098C5B;" points="289.562,424.03 282.523,429.632 274.879,419.784 281.918,414.182 		"/>
		<polygon style="fill:#098C5B;" points="287.595,391.675 279.195,398.361 270.072,386.608 278.473,379.922 		"/>
		<polygon style="fill:#098C5B;" points="415.849,344.039 408.769,349.673 401.08,339.767 408.16,334.133 		"/>
		<polygon style="fill:#098C5B;" points="354.41,380.78 347.33,386.414 339.641,376.508 346.721,370.874 		"/>
		<polygon style="fill:#098C5B;" points="320.878,390.952 314.876,395.729 308.357,387.331 314.359,382.554 		"/>
		<polygon style="fill:#098C5B;" points="286.167,150.017 278.489,156.127 270.151,145.385 277.828,139.274 		"/>
		<polygon style="fill:#098C5B;" points="364.494,251.049 357.455,256.651 349.811,246.803 356.85,241.201 		"/>
		<polygon style="fill:#098C5B;" points="282.124,103.335 275.086,108.937 267.442,99.089 274.48,93.487 		"/>
		<polygon style="fill:#098C5B;" points="300.353,296.788 293.315,302.389 285.671,292.542 292.71,286.94 		"/>
		<polygon style="fill:#098C5B;" points="293.326,270.671 284.926,277.356 275.803,265.603 284.203,258.917 		"/>
		<polygon style="fill:#098C5B;" points="303.799,186.226 295.399,192.911 286.276,181.158 294.676,174.473 		"/>
		<polygon style="fill:#098C5B;" points="327.403,143.838 320.323,149.473 312.634,139.566 319.714,133.932 		"/>
		<polygon style="fill:#098C5B;" points="323.352,260.059 316.272,265.694 308.583,255.788 315.663,250.153 		"/>
		<polygon style="fill:#098C5B;" points="336.407,231.991 330.404,236.768 323.886,228.37 329.888,223.593 		"/>
	</g>
	<g>
		<g>
			<polygon style="fill:#D2A252;" points="241.196,23.332 252.617,15.961 228.922,6.688 221.445,11.234 			"/>
			<polygon style="fill:#8E6F36;" points="272.137,97.853 283.557,90.482 279.675,58.503 268.255,65.874 			"/>
			<polygon style="fill:#A27E3E;" points="261.913,36.617 273.334,29.246 259.266,0 251.618,3.181 			"/>
			<polygon style="fill:#D4A552;" points="287.611,52.474 293.53,47.678 273.334,29.246 261.913,36.617 			"/>
			<polygon style="fill:#F5BF5F;" points="251.618,3.181 241.196,23.332 221.445,11.234 234.726,44.375 230.694,71.279 
				251.446,70.667 272.137,97.853 268.255,65.874 287.611,52.474 261.913,36.617 			"/>
		</g>
		<polygon style="fill:#F5BF5F;" points="251.618,3.181 251.618,47.225 261.913,36.617 		"/>
		<polygon style="fill:#F7C577;" points="287.611,52.474 261.913,36.617 251.618,47.225 		"/>
		<polygon style="fill:#F5B753;" points="268.255,65.874 251.618,47.225 287.611,52.474 		"/>
		<polygon style="fill:#F5B753;" points="251.618,47.225 241.196,23.332 251.618,3.181 		"/>
		<polygon style="fill:#BE9449;" points="272.137,97.853 251.618,47.225 268.255,65.874 		"/>
		<polygon style="fill:#BE9449;" points="230.694,71.279 251.618,47.225 251.446,70.667 		"/>
		<polygon style="fill:#F5B753;" points="221.445,11.234 251.618,47.225 234.726,44.375 		"/>
	</g>
</g>
</svg>
