<?xml version="1.0" encoding="iso-8859-1"?>
<!-- Generator: Adobe Illustrator 15.1.0, SVG Export Plug-In . SVG Version: 6.00 Build 0)  -->
<!DOCTYPE svg PUBLIC "-//W3C//DTD SVG 1.1//EN" "http://www.w3.org/Graphics/SVG/1.1/DTD/svg11.dtd">
<svg version="1.1" id="_x35_" xmlns="http://www.w3.org/2000/svg" xmlns:xlink="http://www.w3.org/1999/xlink" x="0px" y="0px"
	 width="512px" height="512px" viewBox="0 0 512 512" style="enable-background:new 0 0 512 512;" xml:space="preserve">
<g>
	<path style="fill:#231815;" d="M504.371,344.338c13.662-22.747,8.255-45.828-10.488-51.893c0.226-0.849,0.101-1.784-0.427-2.569
		c-0.974-1.44-2.93-1.822-4.371-0.851l-15.909,10.718c0.571-7.179,0.147-14.74-1.042-20.208c-0.792-3.633-1.74-9.442-4.081-12.969
		c1.231-1.042,1.938-2.138,1.72-3.021c0.707-1.405,2.114-2.807,0.378-4.922c0.499,0.126,1.113-1.338,1.387-2.524
		c0.104-0.063,0.214-0.118,0.333-0.168c5.298,4.002,9.813,3.33,10.505,3.565c0.048,0.017,0.094,0.021,0.14,0.022
		c-0.17,0.788,0.453,1.978,1.166,1.671c0.415,1.404,3.087,1.02,3.175-0.325c1.853-0.856,0.979-3.547-0.543-3.835
		c-0.251-0.865-1.964-0.855-2.319,0.015c-0.253-0.098-0.473-0.123-0.67-0.103c-1.461-0.932-5.338-3.844-8.27-10.008
		c-11.909-6.083-17.64-3.281-19.765-2.05c-0.228,0.128-0.411,0.241-0.556,0.327c-0.184,0.104-0.309,0.159-0.381,0.147
		c0.002,0,0.002,0,0.002,0c-0.002,0-0.006,0-0.008-0.002c-0.658-0.168-1.115,0.597-1.115,0.597s-0.912,1.528-1.355,2.912
		c-0.436,1.384,0.153,2.149,0.153,2.149l-0.014,0.023c-0.04-0.023-0.082-0.041-0.116-0.06c-0.069,0.104-0.551,0.778-0.912,1.639
		l-0.721-0.285c0.034-0.079,0.068-0.155,0.103-0.229c0.528-1.151-0.357-1.704-0.685-0.914c-0.583,1.417-1.26,3.486-0.958,4.048
		c0.215,0.398,0.72-0.268,0.72-0.268s0.234-0.933,0.436-1.603l0.769,0.297c-0.034,0.162-0.06,0.325-0.07,0.487
		c-0.271,0.646-0.808,1.098-0.808,1.098s-1.445,0.864-2.026,1.772c-0.712,1.108,0.229,2.67,1.388,2.728
		c0.123-0.096,0.235-0.184,0.349-0.27c-0.002,0.174-0.002,0.325,0.038,0.318c0,0-0.968,0.367-0.008,1.404
		c0,0-1.072,0.783-0.669,1.94c0.405,1.161-1.62,4.343-2.674,5.042c0.315,0.163,0.678,0.324,1.071,0.473
		c-3.002,2-8.664,5.033-13.38,10.372c-3.273,0.822-6.709,1.407-8.039,0.503c-1.471-1.004-3.072-4.783-4.234-8.044
		c0.489-0.15,0.803-0.296,0.838-0.435c0.197-0.775,0.034-7.402-1.466-7.989c-0.247-0.098-0.718-0.128-1.32-0.114
		c-0.309-1.197-0.785-2.697-1.706-4.225c0.002-0.02,0.006-0.032,0.008-0.05c0.322-3.816-1.956-6.346-4.477-6.662
		c-1.094-0.14-1.312,0.624-1.209,1.526c-5.105-2.937-6.451-1.964-6.817,0.652c-0.392,2.822,0.802,8.326,2.628,10.09
		c0.4,0.387,0.762,0.731,1.111,1.033c-0.689,1.604-0.337,4.47,0.717,6.453c0.341,1.138,0.959,1.593,1.583,1.712
		c1.983,5.556,6,15.61,8.691,16.946c1.208,0.599,3.933,0.87,7.021,0.962c-0.092,0.349-0.182,0.7-0.264,1.06
		c-0.021,0.075-0.043,0.151-0.062,0.227c-0.032,0.127-0.062,0.256-0.09,0.39c-0.023,0.111-0.046,0.224-0.065,0.336
		c-0.256,1.358-0.313,2.943-0.164,4.646l-1.329,5.217c0,0-0.004,0.004-0.004,0.006c-2.125-0.541-4.162-1.061-6.02-1.534
		c-2.48-0.63-5.451-1.579-8.43-2.763c-2.236-0.885-4.481-1.904-6.533-3.014c-1.541-0.829-2.977-1.709-4.216-2.608
		c-0.93-0.671-1.75-1.354-2.427-2.021c-1.019-0.998-1.691-1.956-2.014-2.734c-0.164-0.391-0.247-0.73-0.277-1.046
		c-0.032-0.313-0.012-0.604,0.072-0.932c0.063-0.254,0.17-0.533,0.344-0.851c0.26-0.475,0.677-1.034,1.318-1.658
		c0.643-0.623,1.505-1.306,2.621-2.017c1.384-0.88,2.525-2.023,3.399-3.305c0.875-1.283,1.489-2.705,1.866-4.182
		c0.409-1.614,0.539-3.295,0.413-4.972c-0.191-2.515-0.958-5.027-2.306-7.303c-1.35-2.27-3.302-4.297-5.816-5.732
		c-1.648-0.941-3.401-1.654-5.199-2.113c-2.757-0.702-5.641-0.811-8.42-0.168c-1.388,0.319-2.748,0.83-4.031,1.539
		c-1.285,0.709-2.49,1.619-3.569,2.726c-1.217,1.244-1.194,3.236,0.05,4.451c0.149,0.146,0.309,0.275,0.479,0.384
		c-1.049,3.079,1.514,5.349,3.838,4.721c8.316-3.459,9.515,5.212,2.945,9.116c-25.011,14.854-9.448,63.292,18.893,70.789
		l-1.996,7.836c-7.555-1.925-13.925-3.546-17.975-4.579c-6.533-1.667-11.422-4.579-15.018-8.06
		c-3.591-3.482-5.888-7.563-7.066-11.605c-0.585-2.002-2.684-3.15-4.685-2.565c-2.004,0.583-3.153,2.681-2.569,4.685l0,0
		c1.533,5.255,4.501,10.488,9.06,14.912c4.555,4.421,10.697,7.993,18.415,9.953c17.802,4.536,80.389,20.481,91.528,23.32
		c2.842,0.724,5.274,1.277,7.462,1.623c1.639,0.258,3.144,0.399,4.593,0.379c1.084-0.021,2.142-0.131,3.168-0.374
		c0.771-0.184,1.522-0.441,2.235-0.775c1.075-0.501,2.05-1.18,2.899-1.968c0.853-0.79,1.583-1.682,2.246-2.646
		c1.182-1.72,0.748-4.072-0.971-5.253c-1.72-1.183-4.071-0.747-5.253,0.971c-0.337,0.487-0.648,0.872-0.934,1.165
		c-0.25,0.256-0.478,0.452-0.697,0.604c-0.389,0.264-0.752,0.429-1.305,0.561c-0.411,0.094-0.935,0.158-1.603,0.163
		c-1.002,0.008-2.323-0.122-3.979-0.421c-1.658-0.292-3.648-0.75-5.997-1.348c-2.619-0.668-8.08-2.061-15.135-3.855l2.086-8.193
		C475.906,365.132,492.655,363.842,504.371,344.338z M453.435,369.44c-14.209-3.62-32.812-8.359-48.05-12.242l1.993-7.829
		c19.914,5.072,26.563,6.766,42.751,10.889c1.729,0.444,3.507,0.877,5.319,1.277L453.435,369.44z"/>
	<path style="fill:#231815;" d="M319.475,316.795c-1.541-1.258-3.633-2.572-3.633-2.572s-1.911-0.785-3.357-2.546
		c-3.224-3.921-3.598-6.106-4.283-10.125c-0.528-3.103-3.143-4.743-7.291-4.87c-2.225-0.069-9.347-3.688-10.615-4.918
		c0.699,4.227,9.282,10.056,10.903,10.492c1.621,0.435,0.699,5.736,2.024,7.686c1.213,1.782,9.442,8.41,9.442,8.41
		s3.754,7.021,6.173,7.812C321.257,326.956,321.015,318.057,319.475,316.795z"/>
	<path style="fill:#231815;" d="M301.272,310.029c0.052-3.728,0.511-6.771-2.573-7.739c-5.113-1.608-9.178-7.552-10.225-13.894
		c-0.371-2.248-0.776-4.803-1.906-7.033c1.817-1.182,5.685-2.502,5.367-3.588c-0.375-1.286-5.285-4.826-9.175-0.469
		c-2.796-1.594-7.089-2.242-13.831-1.08c-12.736,2.197-14.7-7.116-11.344-15.943c3.355-8.827,11.112-15.836,12.57-15.139
		c1.458,0.696,4.5,0.786,7.021-0.908c-0.13-2.928-2.959-3.063-5.24-3.841c-0.723-0.247-1.276-0.719-1.777-1.256
		c5.883-4.117,16.721-2.999,22.223-1.289c9.978,3.102,16.919-0.163,20.035-4.041c3.115-3.881,0.035-7.383-3.631-2.816
		c-4.36,5.433-10.387,4.622-11.864,2.549c-1.479-2.071,1.793-3.025,1.783-7.601c-0.008-3.683-4.044-2.853-3.538-0.73
		c0.842,3.534-1.375,6.115-4.245,7.245c-4.724,1.86-8.321,0.094-8.25-0.732c0.073-0.824,0.911-3.079-0.287-6.123
		c-1.018-2.585-3.825-0.616-2.849,0.856c0.686,1.029,3.241,6.393-5.706,8.084c-2.481,0.471-4.331,1.362-5.721,2.442
		c-0.467-0.346-1.001-0.595-1.671-0.66c-1.566-0.153-1.966-1.325-4.024-0.671c-3.005,0.956-7.421-0.105-11.772-0.87
		c-1.772-0.312-1.906,1.755-1.725,2.744c0.182,0.989-0.105,2.488,0.916,3.419c1.017,0.932,4.505,3.065,4.13,4.563
		c-1.367,5.482-14.282,14.209-19.051,26.849c-0.443,1.179-0.799,2.321-1.069,3.435c-2.306,1.098-3.923,0.887-8.206-1.182
		c-5.033-2.433-7.267-5.146-8.854-3.081c-2.741,3.559-2.6,3.905-1.247,7.089c1.354,3.184,7.427,14.868,7.815,16.571
		c0.388,1.703,1.441,5.134,3.202,6.969c1.764,1.834,2.7,3.591,3.492,1.173c0.317-0.966,0.767-2.407,1.076-3.855
		c0.774,1.679,1.989,3.792,3.475,4.976c1.992,1.583,3.157,3.197,3.618,0.694c0.459-2.504,1.357-8.063-0.604-8.817
		c-1.962-0.757-3.943-2.065-3.943-2.065s-4.195-6.502-5.515-9.114c2.263,1.604,4.983,3.306,7.754,4.342
		c2.587,3.584,6.985,6.217,13.015,7.739c13.398,3.386,22.847-3.899,23.379-0.842c1.065,6.139,8.967,10.442,13.726,10.698
		c4.762,0.256,10.441,6.013,12.601,13.713c2.162,7.698,2.658,8.994,2.52,10.438c-0.141,1.442-0.416,6.406,1.459,6.384
		c1.874-0.027,3.476-1.534,4.603-4.546c1.126-3.01-0.794-4.654-1.46-6.383C305.088,324.962,301.133,320.002,301.272,310.029z"/>
	<path style="fill:#231815;" d="M217.574,240.511c-1.52-1.285-3.589-2.633-3.589-2.633s-1.898-0.82-3.315-2.603
		c-3.159-3.972-3.496-6.165-4.117-10.192c-0.478-3.111-3.065-4.793-7.211-4.991c-1.565-0.073-5.533-1.946-8.178-3.486
		c-0.846-1.818-1.447-3.795-1.746-5.811c-0.335-2.254-0.428-3.174-1.114-5.58c2.006-0.818,6.054-1.38,5.948-2.507
		c-0.124-1.336-4.275-5.74-8.918-2.199c-2.446-2.094-6.477-4.551-13.011-7.551c-11.742-5.396-13.701-10.253-15.24-19.569
		c-1.565-9.479,1.111-18.081,2.694-17.756c1.584,0.325,4.557-0.325,6.597-2.576c-0.833-2.809-3.612-2.258-6.014-2.464
		c-0.76-0.063-1.411-0.39-2.028-0.79c4.718-5.413,15.506-6.943,21.258-6.608c10.433,0.606,16.381-4.237,18.47-8.754
		c2.088-4.517-1.744-7.172-4.201-1.856c-2.924,6.323-8.967,6.989-10.902,5.335c-1.935-1.652,1.012-3.372-0.101-7.806
		c-0.896-3.574-4.611-1.797-3.61,0.146c1.668,3.224,0.142,6.264-2.374,8.054c-4.133,2.941-8.053,2.096-8.181,1.277
		c-0.128-0.82,0.142-3.208-1.757-5.872c-1.61-2.264-3.859,0.323-2.556,1.516c0.91,0.834,4.686,5.423-3.589,9.223
		c-2.297,1.053-3.876,2.365-4.964,3.748c-0.537-0.222-1.117-0.334-1.781-0.239c-1.557,0.231-2.229-0.809-4.069,0.321
		c-2.506,1.541-6.624,1.675-10.745,1.935c0.008-0.025,0.021-0.048,0.028-0.075c0.219-0.86-0.302-1.738-1.164-1.956
		c-0.86-0.22-1.736,0.298-1.956,1.163c-0.184,0.715,0.151,1.436,0.761,1.786c-0.645,0.879-0.81,2.199-0.539,2.795
		c0.414,0.916,0.499,2.44,1.712,3.098c1.214,0.658,4.675,1.95,5.109,3.432c1.835,6.243,0.829,11.419-1.41,21.239
		c-0.278,1.229-2.35,4.13-2.826,5.17c-2.472,0.643-4.021,0.132-7.836-2.711c-4.479-3.341-6.233-4.282-8.766-3.102
		c-4.073,1.9-7.596,2.727-10.32,3.446c-3.395,0.656-8.204-0.687-9.901-0.283c-1.699,0.409-4.826-0.769-7.202,0.146
		c-2.375,0.914-4.357,1.097-2.433,2.763c0.768,0.667,1.922,1.643,3.134,2.488c-1.846,0.065-4.265,0.363-5.931,1.277
		c-2.23,1.22-4.17,1.667-2.042,3.063c2.13,1.394,6.905,4.377,8.363,2.86c1.458-1.514,3.43-2.837,3.43-2.837
		s18.162-3.688,22.939-4.603c1.918,2.002,5.853,7.538,8.378,9.083c3.16,5.044,12.606,10.691,18.237,13.326
		c12.517,5.86,23.64,3.666,24.122,6.732c0.967,6.155,8.796,10.588,13.55,10.924c4.754,0.333,10.34,6.178,12.375,13.911
		c2.035,7.732,2.512,9.039,2.348,10.479s-0.521,6.4,1.354,6.406c1.876,0.005,3.503-1.476,4.678-4.469
		c1.174-2.993-0.719-4.666-1.354-6.406c-0.608-1.664-4.173-6.333-4.219-15.458c2.017,2.315,8.894,8.042,8.894,8.042
		s3.639,7.084,6.045,7.915C219.19,250.696,219.096,241.794,217.574,240.511z"/>
	<path style="fill:#231815;" d="M109.161,243.691c-1.685-1.061-3.92-2.107-3.92-2.107s-1.995-0.547-3.646-2.115
		c-3.68-3.495-4.321-5.62-5.494-9.524c-0.908-3.012-3.702-4.321-7.833-3.937c-2.216,0.207-9.731-2.511-11.138-3.578
		c1.211,4.111,10.446,8.842,12.109,9.075c1.663,0.231,1.396,5.606,2.952,7.379c1.422,1.62,10.405,7.186,10.405,7.186
		s4.585,6.509,7.083,6.997C112.178,253.556,110.845,244.752,109.161,243.691z"/>
	<path style="fill:#231815;" d="M96.756,255.197c-0.871-1.635-5.406-6.075-6.49-15.985c-0.406-3.706-0.323-6.783-3.505-7.366
		c-5.271-0.97-10.036-6.368-11.854-12.536c-0.644-2.184-1.358-4.668-2.753-6.744c1.656-1.398,5.333-3.18,4.886-4.216
		c-0.53-1.233-5.837-4.144-9.161,0.658c-2.974-1.239-7.312-1.354-13.863,0.627c-12.367,3.746-14.983-8.26-14.463-17.688
		c0.518-9.429,5.778-18.462,7.379-18.242c1.601,0.222,4.524-0.618,6.415-3c-1.013-2.744-3.751-2.017-6.161-2.065
		c-0.763-0.016-1.434-0.296-2.077-0.66c4.356-5.708,15.023-7.934,20.784-7.974c10.449-0.075,16.071-5.293,17.86-9.936
		c1.792-4.643-2.205-7.044-4.312-1.579c-2.507,6.501-8.494,7.557-10.532,6.031c-2.039-1.522,0.792-3.428-0.608-7.782
		c-1.126-3.507-4.719-1.492-3.593,0.378c1.873,3.109,0.547,6.241-1.844,8.192c-3.935,3.205-7.902,2.616-8.082,1.805
		c-0.182-0.805-0.067-3.207-2.134-5.744c-1.755-2.153-3.831,0.574-2.453,1.681c0.963,0.772,5.028,5.107-2.981,9.437
		c-2.224,1.199-3.714,2.612-4.711,4.063c-0.55-0.187-1.137-0.262-1.792-0.124c-1.54,0.333-2.274-0.664-4.04,0.587
		c-2.573,1.822-7.101,2.151-11.479,2.746c-1.784,0.239-1.283,2.249-0.81,3.138c0.473,0.885,0.656,2.398,1.909,2.977
		c1.254,0.58,5.224,1.555,5.323,3.092c0.363,5.641-8.65,17.873-11.831,31.003c-0.296,1.224-0.509,2.404-0.641,3.54
		c-2.153,1.371-3.786,1.363-8.291-0.165c-5.293-1.797-7.841-4.216-9.163-1.971c-2.282,3.87-2.1,4.195-0.365,7.188
		c1.734,2.993,9.194,13.846,9.79,15.487c0.595,1.641,2.06,4.916,4.034,6.522c1.975,1.606,3.122,3.233,3.609,0.734
		c0.195-0.997,0.465-2.48,0.595-3.955c0.975,1.568,2.439,3.517,4.06,4.509c2.17,1.327,3.524,2.786,3.674,0.245
		c0.15-2.542,0.36-8.169-1.68-8.678c-2.04-0.508-4.168-1.562-4.168-1.562s-4.96-5.941-6.592-8.372
		c2.442,1.313,5.352,2.669,8.229,3.36c3.008,3.235,7.694,5.308,13.866,6.081c13.713,1.715,22.195-6.675,23.1-3.706
		c1.811,5.96,10.18,9.264,14.936,8.935c4.756-0.333,11.098,4.681,14.188,12.056c3.091,7.377,3.744,8.601,3.78,10.052
		c0.038,1.445,0.375,6.41,2.231,6.154c1.857-0.257,3.263-1.949,4.011-5.073C99.733,258.224,97.626,256.83,96.756,255.197z"/>
</g>
</svg>
