<?xml version="1.0" encoding="iso-8859-1"?>
<!-- Generator: Adobe Illustrator 15.1.0, SVG Export Plug-In . SVG Version: 6.00 Build 0)  -->
<!DOCTYPE svg PUBLIC "-//W3C//DTD SVG 1.1//EN" "http://www.w3.org/Graphics/SVG/1.1/DTD/svg11.dtd">
<svg version="1.1" id="_x31_0" xmlns="http://www.w3.org/2000/svg" xmlns:xlink="http://www.w3.org/1999/xlink" x="0px" y="0px"
	 width="512px" height="512px" viewBox="0 0 512 512" style="enable-background:new 0 0 512 512;" xml:space="preserve">
<g>
	<g>
		<path style="fill:#666666;" d="M217.276,219.046c0.349-2.042,10.257-60.348,10.466-61.573c0.208-1.226,1.287-5.064-1.336-3.27
			c-3.032,2.074-10.58,6.484-10.58,6.484l-24.55,36.042c0,0,4.929-29.005,5.484-32.271c0.556-3.269,0.368-5.268-1.66-4.25
			c0,0-8.476,5.013-9.555,6.52c-2.759,3.854-29.168,60.043-51.851,75.169c-22.681,15.126-27.387,4.365-25.442-7.074
			c5.177-1.359,10.577-8.894,6.288-10.322c-3.853-1.284-9.224,5.156-9.896,13.374c-0.383,4.669-0.183,18.268,14.686,14.039
			c14.872-4.23,31.796-13.974,63.874-62.464c-2.328,11.507-3.055,17.975-3.611,21.242c-0.556,3.269-0.621,8.035,4.682,3.129
			c5.303-4.905,25.524-36.233,25.524-36.233s-6.804,40.035-7.498,44.12c-0.695,4.086-3.907,5.449-6.21,5.859l-0.626,3.677
			l23.81-4.235l0.556-3.269C219.831,223.742,216.374,224.364,217.276,219.046z M183.71,208.376c0,0-0.47,1.669-1.446,3.031
			c-0.977,1.362-1.083-0.204-0.841-1.633c0.244-1.431,3.959-23.286,3.959-23.286l2.736-4.052L183.71,208.376z M206.038,223.818
			l-2.303,0.411l8.055-47.389l0.138-0.817l2.963-4.29L206.038,223.818z"/>
		<path style="fill:#666666;" d="M245.708,215.378c-2.794,1.816-9.493,3.272-12.453,1.684c-3.492-1.873,0.716-5.672,0.716-5.672
			c3.515-1.681,14.041-8.461,16.538-14.034c3.6-8.036-4.854-12.343-12.323-7.844c-7.465,4.497-11.998,12.169-13.618,21.701
			c-1.621,9.531,4.554,13.692,11.232,12.792c6.099-0.82,9.68-4.362,11.587-6.813C249.292,214.741,248.498,213.561,245.708,215.378z
			 M238.284,194.776c5.979-4.495,8.583,0.953,7.846,2.039c-2.649,3.904-11.326,9.673-11.326,9.673
			c-1.117,0.726-2.267-0.389-1.896-2.568C233.277,201.742,233.443,198.416,238.284,194.776z"/>
		<path style="fill:#666666;" d="M263.79,212.69c-0.323,1.906,1.331,2.404,1.331,2.404l-0.324,1.907l-10.497,1.867l0.325-1.907
			c0,0,2.232-1.454,2.511-3.087c0.276-1.632,3.008-17.702,3.563-20.97c0.554-3.268-3.733-3.768-3.17-4.718
			c1.395-2.361,4.598-4.352,6.863-3.863c3.352,0.727,2.355,5.128,1.799,8.396c3.765-7.536,9.648-14.391,14.652-13.17
			c5.008,1.222,1.358,6.625-0.829,7.807c-2.188,1.181-3.399-0.451-3.399-0.451s-9.107,5.383-10.393,12.939
			C265.39,204.746,263.79,212.69,263.79,212.69z"/>
		<path style="fill:#666666;" d="M235.644,302.915c-0.324,1.905,1.329,2.403,1.329,2.403l-0.324,1.905l-10.497,1.866l0.325-1.905
			c0,0,2.232-1.454,2.509-3.087c0.278-1.635,3.011-17.703,3.564-20.971c0.555-3.269-3.732-3.768-3.17-4.719
			c1.395-2.36,4.596-4.352,6.862-3.861c3.353,0.725,2.356,5.126,1.801,8.395c3.763-7.536,9.646-14.392,14.653-13.169
			c5.005,1.222,1.355,6.625-0.831,7.808c-2.187,1.18-3.398-0.453-3.398-0.453s-9.108,5.383-10.393,12.939
			C237.241,294.969,235.644,302.915,235.644,302.915z"/>
		<path style="fill:#666666;" d="M291.441,207.772c-0.323,1.907,1.331,2.406,1.331,2.406l-0.328,1.905l-10.495,1.867l0.324-1.907
			c0,0,2.233-1.454,2.512-3.087c0.275-1.634,3.009-17.702,3.563-20.971c0.556-3.267-3.732-3.768-3.17-4.718
			c1.395-2.36,4.598-4.352,6.863-3.861c3.353,0.723,2.356,5.127,1.803,8.396c3.763-7.536,9.646-14.392,14.649-13.17
			c5.009,1.221,1.358,6.625-0.829,7.806c-2.186,1.181-3.399-0.452-3.399-0.452s-9.107,5.384-10.392,12.942
			C293.04,199.83,291.441,207.772,291.441,207.772z"/>
		<path style="fill:#666666;" d="M324.092,187.097c-0.939,5.525,1.599,5.539,1.599,5.539c3.332-0.595,7.546-2.571,9.31-12.947
			c1.145-6.738,4.324-8.333,6.598-8.393c2.273-0.061,2.458,2.657,2.458,2.657s-3.149,3.311-3.812,7.21
			c-0.662,3.899-2.1,12.351-4.088,24.05c-1.987,11.699-1.628,9.571-2.952,17.372c-1.327,7.799-9.377,17.138-15.194,17.141
			c-5.819,0.005-6.466-9.508-1.594-17.25c4.87-7.743,17.224-19.566,24.341-21.519c1.607,0.059,1.699,1.417-0.875,3.25
			c-2.573,1.833-11.443,10.288-16.562,15.666c-5.114,5.381-5.927,12.056-1.139,10.518c4.786-1.539,4.413-10.756,5.438-16.782
			c1.024-6.026,2.591-15.245,2.892-17.018c-4.919,5.172-7.348,6.523-10.175,6.622c-3.673,0.131-5.113-2.872-3.607-11.734
			c0.24-1.419,1.024-6.027,1.506-8.863c0.965-5.673-3.24-3.27-2.751-4.096c1.21-2.047,3.989-3.774,5.956-3.35
			c2.91,0.628,4.564,0.669,3.658,6.01L324.092,187.097z"/>
		<path style="fill:#666666;" d="M214.613,297.936c0.973-5.721-1.655-5.732-1.655-5.732c-3.449,0.613-7.35,4.825-9.175,15.564
			c-1.186,6.975-6.572,6.436-8.925,6.498l0.562-3.303c0,0,1.338-0.211,2.024-4.248c0.687-4.034,2.621-15.421,4.68-27.533
			c2.059-12.11,2.085-12.268,3.458-20.344c1.373-8.073,6.382-14.549,12.404-14.553c6.023-0.003,6.782,8.053,1.739,16.065
			c-5.042,8.015-10.007,11.104-17.376,13.127c-1.662-0.062-2.946-0.827-0.282-2.724c2.664-1.897,5.575-0.327,10.872-5.895
			c5.296-5.57,6.778-15.778,4.208-15.01c-3.249,0.971-3.607,5.471-4.666,11.711c-1.061,6.239-4.202,24.713-4.514,26.547
			c5.093-5.354,7.607-6.751,10.534-6.855c3.802-0.135,5.293,2.976,3.735,12.149c-0.25,1.467-1.061,6.238-1.56,9.175
			c-0.998,5.871,3.354,3.384,2.848,4.238c-1.252,2.121-3.895,3.254-6.166,3.468c-3.064,0.291-4.727-0.692-3.786-6.219
			L214.613,297.936z"/>
		<path style="fill:#666666;" d="M194.748,261.227c2.223-13.073-10.075-19.602-25.918-9.652
			c-15.842,9.946-25.596,32.283-26.625,51.482c-0.851,15.895,13.618,24.585,33.043,11.554c13.661-9.162,24.274-28.879,22.591-36.503
			c-1.685-7.623-11.383,1.232-7.469,4.499c4.18,7.18-6.179,19.916-15.686,26.559c-9.019,6.3-20.759,3.811-16.572-20.824
			c4.722-27.778,25.311-39.362,30.141-28.337C189.446,266.131,193.777,266.945,194.748,261.227z"/>
		<g>
			<path style="fill:#666666;" d="M264.956,282.362c-0.833,4.902-2.688,15.814-2.688,15.814c-0.325,1.908,1.2,2.43,1.2,2.43
				l-0.323,1.905l-10.495,1.867l0.322-1.906c0,0,2.233-1.454,2.51-3.088c0.279-1.634,1.544-9.076,2.098-12.344
				c0.556-3.269-2.331,0.565-2.724-1.497c-0.211-1.105,1.456-2.653,3.452-4.971c1.868-2.167,4.666-3.693,5.827-3.612
				C266.527,277.131,265.511,279.094,264.956,282.362z"/>
			<path style="fill:#666666;" d="M267.76,268.79c-0.402,2.369-2.535,4.61-4.762,5.006c-2.226,0.397-3.705-1.202-3.303-3.572
				c0.402-2.367,2.533-4.61,4.762-5.007C266.684,264.822,268.164,266.421,267.76,268.79z"/>
		</g>
		<polygon style="fill:#666666;" points="165.243,262.345 155.894,317.357 157.758,317.555 167.756,258.73 		"/>
		<path style="fill:#666666;" d="M410.08,274.711c2.96-5.38,0.594-14.119-6.304-16.068c-9.031-2.552-4.562-9.476,0.105-10.306
			c3.162-0.563,5.858,1.068,7.268,2.177c0.67,0.53,1.416-1.216,1.416-1.216l1.054-6.194l-1.696,0.302l-0.346,2.031
			c0,0-8.339-4.209-15.2,2.265c-5.794,5.467-5.59,11.808,3.352,15.384c10.874,4.346,3.737,29.917-104.061,50.63
			c-132.615,25.484-165.379,14.563-165.379,19.764s-8.321,20.282-13.521,24.444c-8.747,6.999,177.493-31.66,218.945-44.726
			C383.558,298.114,401.409,290.469,410.08,274.711z"/>
		<g>
			<path style="fill:#666666;" d="M312.377,262.64c0,0-0.639,1.169-0.916,2.804c-0.279,1.634-2.866,16.855-3.421,20.122
				c-0.556,3.268,2.331-0.566,2.725,1.497c0.212,1.106-1.456,2.654-3.45,4.971c-1.867,2.169-4.668,3.694-5.828,3.613
				c-2.393-0.17-1.376-2.133-0.82-5.4c0.832-4.903,4.01-23.598,4.01-23.598c0.324-1.904-0.818-4.277-0.818-4.277
				c-2.777-1.884,1.086-3.29,3.018-3.508c3.036-0.342,5.656,1.766,5.656,1.766L312.377,262.64z"/>
			<path style="fill:#666666;" d="M298.729,270.389c0,0,14.794-2.632,16.457-2.926c1.664-0.297,2.404-0.429,2.404-0.429
				s-2.238,4.73-2.795,4.83c-0.556,0.099-14.422,2.563-16.271,2.893c-1.848,0.328-0.948-3.907-0.948-3.907L298.729,270.389z"/>
		</g>
		<g>
			<path style="fill:#666666;" d="M321.702,265.125c1.71-2.39,4.437-7.128,8.788-7.902c4.354-0.774,2.962,4.492,2.499,7.216
				c-0.462,2.722-3.611,21.242-3.888,22.876c-0.417,2.452-4.49,4.496-7.002,4.678c-2.515,0.185-1.137-1.233,0.136-3.72
				c0.743-1.454,0.928-2.541,1.438-5.539c0.509-2.995,2.268-13.344,2.684-15.795c0.417-2.45-1.584-2.36-2.839-0.815
				C322.261,267.668,320.398,266.941,321.702,265.125z"/>
			<path style="fill:#666666;" d="M331.061,268.479c1.713-2.39,8.138-9.899,12.491-10.673c4.352-0.775,2.959,4.492,2.496,7.214
				c-0.462,2.724-3.1,18.248-3.378,19.881c-0.416,2.452-4.488,4.496-7.002,4.68c-2.514,0.182-1.137-1.235,0.137-3.722
				c0.743-1.453,0.929-2.542,1.438-5.539c0.51-2.995,1.943-11.438,2.361-13.888c0.415-2.452-6.516,3.27-7.771,4.813
				C330.577,272.791,329.76,270.295,331.061,268.479z"/>
			<path style="fill:#666666;" d="M342.838,266.385c1.712-2.39,8.137-9.899,12.489-10.673s2.962,4.492,2.499,7.214
				c-0.463,2.725-2.5,14.708-2.778,16.343c-0.694,4.083,4.263,3.735,1.798,5.488c-1.978,1.409-4.722,2.953-7.541,0.55
				c-0.937-0.797-0.795-4.084-0.286-7.079c0.507-2.997,1.943-11.438,2.359-13.89c0.417-2.452-6.514,3.271-7.769,4.814
				C342.354,270.698,341.535,268.2,342.838,266.385z"/>
		</g>
		<path style="fill:#666666;" d="M294.573,264.273l-1.054,6.194c0,0-0.746,1.745-1.416,1.218c-1.41-1.111-4.105-2.742-7.269-2.179
			c-4.667,0.829-9.137,7.755-0.104,10.308c6.896,1.949,8.992,5.942,6.475,11.542c-3.64,8.088-13.187,9.786-19.537,7.195
			c-0.346,2.03-0.346,2.03-0.346,2.03l-2.333,0.416l1.456-8.576l2.374-0.642c0,0,1.817,3.835,6.619,3.421
			c4.806-0.419,5.683-8.978,1.243-10.947c-8.801-3.907-9.146-9.916-3.351-15.383c6.859-6.474,15.198-2.266,15.198-2.266l0.346-2.03
			L294.573,264.273z"/>
		<path style="fill:#666666;" d="M383.406,276.754c0-1.452,2.893-17.021,3.472-20.425c0.579-3.404-2.997-6.465-8.419-5.237
			c-2.02,0.458-11.031,3.546-15.072,14.169c-3.926,10.324-0.863,16.06,3.253,17.38c3.18,1.021,8.195-0.003,11.333-3.863
			c0.223,0.884,1.854,2.971,5.947,0.791C384.713,279.295,383.406,278.208,383.406,276.754z M377.516,274.897
			c-0.37,2.179-4.53,3.643-7.271,3.338c-2.199-0.242-4.59-4.397-0.921-12.842c3.671-8.445,10.561-8.811,10.61-4.727
			C379.934,260.667,377.886,272.719,377.516,274.897z"/>
	</g>
	<g>
		<g>
			<path style="fill:#666666;" d="M84.779,264.893c-2.443,1.022-4.638,2.368-6.469,3.879c-1.832,1.51-3.297,3.182-4.293,4.824
				c-1.995,3.285-2.096,6.432,0.335,7.739c1.637,0.878,0.464,1.876-1.401,2.261c-3.169,0.644-7.13,2.144-10.808,4.314
				c-3.68,2.167-7.074,5.021-9.109,8.24l-0.257,0.049c-1.565,0.326-2.923,1.109-3.979,2.216c-0.835-0.52-1.54-0.968-1.885-1.199
				l0.69-0.941c1.885-3.705,2.171-8.14,1.797-11.999c-0.384-3.853-1.447-7.146-2.507-8.383c-1.769-2.063-0.969-2.48,0.925-3.466
				c3.157-1.65,5.709-4.776,7.245-8.053c1.53-3.286,2.043-6.743,0.93-9.298c-0.95-2.177-1.872-3.29,1.642-3.363
				c4.588-0.103,12.358-1.604,16.803-5.023c1.958-1.501,3.038-1.656,3.525-1.123c0.488,0.537,0.394,1.774,0.028,3.146
				c-0.573,3.031,0.057,5.195,1.365,7.19c1.311,1.997,3.305,3.845,5.562,6.263C86.319,263.661,86.362,264.227,84.779,264.893z"/>
			<path style="fill:#666666;" d="M46.913,297.216l-0.994,1.328c-1.426-0.551-2.986-0.727-4.544-0.404
				c-0.22,0.044-0.435,0.1-0.646,0.161c-3.125-2.192-7.167-3.767-11.206-4.764c-4.037-0.992-8.07-1.395-11.143-1.14
				c-1.9,0.158-3.361-0.736-2.081-2.369c1.899-2.419,0.896-6.176-1.802-9.954c-1.352-1.889-3.13-3.786-5.21-5.506
				c-2.081-1.716-4.461-3.258-7.031-4.396c-1.662-0.736-1.709-1.612-0.477-3.93c1.994-3.739,3.892-6.417,5.153-9.204
				c1.271-2.788,1.901-5.667,1.526-9.827c-0.273-1.894-0.243-3.603,0.3-4.276c0.546-0.677,1.591-0.308,3.402,1.86
				c2.066,2.469,5.056,4.205,8.092,5.34c3.038,1.137,6.123,1.684,8.412,1.809c3.516,0.196,2.55,1.372,1.618,3.815
				c-1.098,2.868-0.417,6.832,1.444,10.313c1.857,3.488,4.882,6.465,8.273,7.621c2.043,0.7,2.883,0.942,1.548,3.349
				c-0.799,1.438-1.262,5.173-0.602,9.219c0.648,4.042,2.434,8.362,5.775,10.824L46.913,297.216z"/>
			<path style="fill:#666666;" d="M48.594,306.336c-0.471-1.872-0.18-3.741,0.662-5.217c0.841-1.479,2.23-2.566,3.943-2.938
				c1.713-0.373,3.422,0.025,4.809,0.942c1.387,0.918,2.454,2.354,2.898,4.117c0.443,1.763,0.181,3.532-0.606,4.997
				c-0.788,1.464-2.105,2.625-3.791,3.106c-1.685,0.482-3.423,0.182-4.863-0.724C50.204,309.719,49.065,308.209,48.594,306.336z"/>
			<path style="fill:#666666;" d="M50.064,305.967c0.496,1.969,0.243,3.934-0.571,5.555c-0.814,1.616-2.196,2.89-3.981,3.404
				c-1.784,0.515-3.64,0.159-5.187-0.867c-1.547-1.024-2.782-2.721-3.308-4.811c-0.526-2.092-0.239-4.169,0.639-5.802
				c0.878-1.636,2.344-2.827,4.16-3.218c1.816-0.393,3.635,0.077,5.119,1.116C48.418,302.387,49.569,303.999,50.064,305.967z
				 M43.11,305.461c-0.256-1.059-1.22-1.742-2.162-1.525c-0.944,0.217-1.506,1.27-1.246,2.347c0.259,1.078,1.241,1.758,2.178,1.521
				C42.82,307.565,43.364,306.519,43.11,305.461z"/>
			<path style="fill:#666666;" d="M138.429,122.681c-2.361-1.198-4.81-2-7.146-2.415c-2.336-0.418-4.562-0.449-6.458-0.144
				c-3.796,0.608-6.26,2.574-5.683,5.274c0.39,1.815-1.131,1.57-2.631,0.398c-2.545-2-6.251-4.044-10.289-5.441
				c-4.034-1.399-8.407-2.138-12.179-1.605l-0.204-0.163c-1.26-0.981-2.739-1.511-4.264-1.597c-0.145-0.975-0.258-1.8-0.307-2.213
				l1.165-0.083c4.043-0.963,7.611-3.616,10.308-6.402c2.688-2.788,4.508-5.732,4.764-7.339c0.425-2.686,1.262-2.345,3.239-1.541
				c3.302,1.334,7.337,1.252,10.828,0.301c3.493-0.964,6.458-2.811,7.683-5.313c1.042-2.132,1.292-3.555,3.625-0.923
				c1.521,1.713,3.829,3.811,6.439,5.623c2.611,1.814,5.516,3.348,8.26,3.938c2.409,0.522,3.225,1.246,3.136,1.963
				c-0.092,0.719-1.095,1.446-2.375,2.053c-2.675,1.521-3.911,3.398-4.582,5.684c-0.67,2.291-0.783,5.002-1.161,8.288
				C140.363,123.057,139.96,123.456,138.429,122.681z"/>
			<path style="fill:#666666;" d="M89.267,114.775l-1.655,0.102c-0.504-1.443-1.38-2.746-2.634-3.726
				c-0.177-0.138-0.357-0.266-0.541-0.388c-0.354-3.801-1.77-7.899-3.627-11.621c-1.858-3.718-4.165-7.052-6.348-9.229
				c-1.353-1.344-1.618-3.035,0.455-3.116c3.072-0.12,5.283-3.314,6.412-7.816c0.563-2.252,0.854-4.837,0.816-7.535
				c-0.041-2.696-0.41-5.51-1.207-8.205c-0.516-1.743,0.121-2.345,2.687-2.91c4.142-0.905,7.414-1.198,10.357-2.043
				c2.949-0.841,5.558-2.228,8.492-5.212c1.27-1.438,2.593-2.52,3.46-2.542c0.87-0.023,1.265,1.012,0.78,3.798
				c-0.546,3.176,0.064,6.579,1.163,9.629c1.098,3.053,2.679,5.759,4.065,7.584c2.126,2.806,0.606,2.832-1.862,3.706
				c-2.897,1.023-5.479,4.109-6.922,7.783c-1.455,3.675-1.763,7.909-0.446,11.24c0.789,2.009,1.15,2.807-1.549,3.348
				c-1.612,0.323-4.758,2.389-7.412,5.512c-2.658,3.113-4.795,7.27-4.508,11.41L89.267,114.775z"/>
			<path style="fill:#666666;" d="M83.402,121.959c1.123-1.571,2.736-2.559,4.406-2.873c1.672-0.315,3.4,0.041,4.792,1.105
				c1.394,1.064,2.194,2.626,2.393,4.276c0.198,1.653-0.207,3.396-1.264,4.876c-1.059,1.479-2.578,2.426-4.205,2.773
				c-1.626,0.346-3.363,0.092-4.821-0.882c-1.457-0.974-2.352-2.494-2.594-4.177C81.866,125.375,82.279,123.528,83.402,121.959z"/>
			<path style="fill:#666666;" d="M84.636,122.84c-1.182,1.651-2.842,2.731-4.604,3.157c-1.761,0.424-3.625,0.196-5.172-0.833
				s-2.475-2.674-2.694-4.517c-0.22-1.841,0.272-3.878,1.526-5.631c1.253-1.753,3.022-2.878,4.835-3.265
				c1.815-0.389,3.671-0.042,5.144,1.089c1.475,1.131,2.296,2.821,2.462,4.624C86.3,119.269,85.816,121.19,84.636,122.84z
				 M80.521,117.21c0.642-0.879,0.54-2.056-0.236-2.635c-0.776-0.579-1.942-0.327-2.595,0.568c-0.653,0.896-0.538,2.082,0.25,2.645
				C78.729,118.352,79.881,118.09,80.521,117.21z"/>
			<path style="fill:#666666;" d="M173.08,407.406c-0.554,2.59-0.702,5.159-0.507,7.524c0.193,2.365,0.731,4.521,1.512,6.276
				c1.558,3.512,4.086,5.385,6.545,4.135c1.654-0.846,1.806,0.688,1.058,2.439c-1.277,2.971-2.303,7.079-2.616,11.34
				c-0.317,4.258,0.092,8.674,1.578,12.181l-0.106,0.238c-0.624,1.472-0.754,3.036-0.446,4.533c-0.904,0.39-1.673,0.713-2.06,0.864
				l-0.38-1.103c-1.97-3.661-5.451-6.425-8.834-8.315c-3.382-1.883-6.695-2.887-8.316-2.72c-2.704,0.275-2.589-0.619-2.319-2.737
				c0.444-3.533-0.669-7.412-2.481-10.543c-1.825-3.127-4.367-5.523-7.099-6.065c-2.327-0.46-3.766-0.34-1.819-3.267
				c1.268-1.909,2.705-4.678,3.79-7.664s1.827-6.188,1.695-8.992c-0.112-2.461,0.38-3.437,1.095-3.532
				c0.719-0.095,1.678,0.689,2.593,1.771c2.152,2.197,4.282,2.911,6.663,2.974c2.384,0.059,5.032-0.524,8.301-1.003
				C172.95,405.441,173.438,405.728,173.08,407.406z"/>
			<path style="fill:#666666;" d="M178.039,456.938l0.524,1.574c-1.266,0.857-2.298,2.039-2.922,3.504
				c-0.087,0.205-0.165,0.412-0.236,0.621c-3.582,1.319-7.18,3.742-10.3,6.492c-3.117,2.752-5.747,5.836-7.291,8.507
				c-0.952,1.649-2.519,2.341-3.132,0.358c-0.906-2.94-4.565-4.256-9.209-4.196c-2.324,0.033-4.898,0.411-7.498,1.14
				c-2.598,0.729-5.224,1.806-7.625,3.265c-1.554,0.946-2.3,0.483-3.505-1.853c-1.938-3.775-3.06-6.863-4.632-9.492
				c-1.568-2.638-3.577-4.807-7.213-6.879c-1.715-0.86-3.101-1.863-3.344-2.695c-0.244-0.836,0.656-1.481,3.473-1.727
				c3.211-0.283,6.344-1.742,9.013-3.586c2.67-1.842,4.881-4.061,6.292-5.868c2.169-2.774,2.583-1.311,4.059,0.852
				c1.73,2.541,5.377,4.245,9.299,4.701c3.926,0.466,8.098-0.32,10.98-2.447c1.74-1.278,2.419-1.831,3.635,0.638
				c0.726,1.477,3.53,3.986,7.23,5.751c3.69,1.771,8.259,2.768,12.185,1.424L178.039,456.938z"/>
			<path style="fill:#666666;" d="M186.491,460.756c-1.807-0.68-3.176-1.985-3.911-3.519c-0.735-1.534-0.836-3.295-0.166-4.913
				c0.67-1.621,1.973-2.798,3.516-3.415c1.546-0.616,3.333-0.675,5.035-0.035c1.701,0.641,3.005,1.864,3.761,3.347
				c0.753,1.482,0.956,3.226,0.392,4.885c-0.564,1.66-1.802,2.918-3.367,3.585C190.188,461.359,188.298,461.436,186.491,460.756z"/>
			<path style="fill:#666666;" d="M187.025,459.336c1.899,0.716,3.37,2.044,4.237,3.635c0.864,1.592,1.124,3.452,0.527,5.213
				c-0.594,1.759-1.943,3.08-3.668,3.768c-1.723,0.688-3.82,0.735-5.837-0.023c-2.018-0.76-3.562-2.18-4.402-3.833
				c-0.845-1.653-0.988-3.536-0.273-5.251c0.713-1.715,2.135-2.944,3.835-3.57C183.145,458.648,185.125,458.621,187.025,459.336z
				 M182.645,464.762c-1.016-0.393-2.126,0.009-2.484,0.908c-0.359,0.898,0.185,1.961,1.218,2.36
				c1.033,0.401,2.151-0.017,2.491-0.923C184.21,466.201,183.66,465.156,182.645,464.762z"/>
			<path style="fill:#666666;" d="M103.626,402.056c-1.587-1.706-4.841-3.015-9.524-3.505c-4.686-0.486-10.815-0.171-18.198,1.474
				c-2.613,1.128-4.225,2.373-5.332,3.396c-1.109,1.022-1.716,1.816-2.353,1.996c-1.274,0.358-2.186-1.491,0.397-3.149
				c1.287-0.833,1.599-1.849,1-2.553c-0.599-0.705-2.108-1.104-4.497-0.74c-4.78,0.725-6.547,0.702-7.617-0.098
				c-1.076-0.811-1.256-2.857,1.308-3.098c2.563-0.247,7.479-0.348,12.627-0.257c5.141,0.067,0.603-2.237-0.823-3.886
				c-0.717-0.819-0.835-1.696-0.375-2.058c0.462-0.364,1.498-0.215,3.107,0.968c1.612,1.18,2.361,2.097,3.305,2.759
				c0.942,0.659,2.083,1.063,4.464,1.143c2.38,0.074,4.032-0.058,5.856-0.103c1.822-0.051,3.817-0.01,6.86,0.3
				c0.979,0.058,1.234-0.271,0.894-1.036c-0.342-0.769-1.279-1.976-2.67-3.715c-1.387-1.736-3.169-1.969-4.789-1.649
				c-1.617,0.319-3.06,1.198-3.708,1.693c-1.298,0.993-2.831-1.041-1.491-2.319c1.335-1.281,3.194-3.216,2.172-3.579
				c-0.515-0.181-2.984-1.233-5.788-2.136c-2.804-0.894-5.944-1.653-7.819-0.975c-1.871,0.681-3.305,1.838-4.33,2.917
				c-1.026,1.079-1.645,2.077-1.916,2.405c-0.27,0.329-1.27,0.121-1.81-0.511c-0.541-0.63-0.615-1.678,0.96-2.991
				c1.576-1.316,1.31-2.562,0.053-3.501c-1.259-0.937-3.518-1.583-5.955-1.672c-2.438-0.085-4.265-1.163-5.071-2.194
				c-0.809-1.033-0.597-2.005,0.979-1.919c1.577,0.084,4.521,0.488,7.776,1.001c3.256,0.517,6.82,1.131,9.662,1.781
				c1.421,0.326,3.167,0.838,4.964,1.357c1.798,0.521,3.646,1.051,5.269,1.447c3.249,0.789,5.585,1.057,4.835-0.164
				c-0.753-1.226-3.382-4.972-5.925-8.91c-1.276-1.966-2.535-3.976-3.586-5.701c-1.05-1.727-1.893-3.166-2.357-3.981
				c-0.934-1.629-3.602-4.543-6.997-7.038c-1.7-1.246-3.589-2.385-5.563-3.176c-1.974-0.79-4.037-1.231-6.086-1.047
				c-2.001,0.293-3.144-0.744-3.261-1.818c-0.118-1.078,0.791-2.171,2.838-2.061c4.566,0.232,5.779,1.38,5.782,1.386
				c0,0.001-0.682-0.617-1.429-1.338c-0.747-0.72-1.561-1.541-1.837-1.917c-0.559-0.754-0.529-2.742,1.404-1.361
				c0.968,0.687,2.028,1.815,3.031,2.896c1.001,1.084,1.944,2.123,2.649,2.652c0.706,0.528,1.836,1.463,2.725,2.104
				c0.888,0.643,1.524,0.998,1.229,0.406c-0.297-0.592-1.706-3.402-3.177-6.612c-1.482-3.205-3.011-6.812-3.838-8.858
				c-0.832-2.047-0.274-3.446,0.724-3.687c1.001-0.242,2.432,0.652,3.462,3.151c0.494,1.201,1.338,3.196,2.174,5.075
				c0.833,1.881,1.656,3.647,2.026,4.432c0.371,0.783,0.57-0.454,0.815-2.048c0.242-1.595,0.545-3.54,1.027-4.216
				c0.481-0.676,1.152-0.797,1.61-0.454c0.46,0.344,0.708,1.149,0.362,2.352c-0.347,1.203-0.834,3.302-0.977,5.577
				c-0.146,2.273,0.059,4.722,1.011,6.549c0.95,1.824,2.231,4.086,3.299,5.875c1.063,1.792,1.905,3.117,1.904,3.118
				c0.984,1.681,1.198,2.813,1.866,1.154c0.337-0.827,0.761-2.205,1.38-4.188c0.621-1.98,1.435-4.563,2.592-7.771
				c1.157-3.205,2.184-5.549,3.042-7.224c0.86-1.674,1.556-2.679,2.105-3.173c0.55-0.495,1.39-0.64,1.924-0.255
				c0.537,0.384,0.767,1.293,0.136,2.945c-1.265,3.302-3.241,6.472-2.072,6.056c1.168-0.413,3.13-1.493,4.129-1.375
				c0.996,0.124,2.748,1.144,0.076,2.215c-0.95,0.381-2.517,0.924-3.954,1.747c-1.437,0.825-2.745,1.935-3.152,3.478
				c-0.409,1.54-1.554,4.552-2.306,7.593c-0.759,3.034-1.122,6.094-0.175,7.545c0.943,1.45,2.265,3.429,3.513,5.227
				c1.247,1.8,2.418,3.421,2.992,4.206c0.578,0.786,0.954-0.776,1.342-2.96c0.384-2.185,0.804-4.983,1.338-6.733
				c0.234-0.92-0.072-2.276-0.565-3.624c-0.495-1.347-1.175-2.685-1.727-3.558c-1.105-1.751,0.378-3.622,1.457-1.891
				c1.08,1.73,2.483,4.229,2.486,4.228c0,0,0.72-2.323,1.749-4.97c1.021-2.65,2.371-5.61,3.412-7.034
				c1.041-1.426,2.005-1.784,2.442-1.303c0.44,0.484,0.36,1.812-0.636,3.822c-1.404,2.831-2.649,5.992-3.617,9.254
				c-0.97,3.261-1.661,6.621-2.002,9.818c-0.695,6.391,0.055,12.124,2.329,14.874c1.787,2.166,3.389,4.029,4.954,5.799
				c1.568,1.768,3.096,3.443,4.766,5.21c3.331,3.541,6.896,6.831,4.991,8.815c-0.954,0.989-2.201,0.854-3.882-0.221
				C108.34,406.867,106.233,404.854,103.626,402.056z"/>
			<path style="fill:#666666;" d="M64.595,363.63c0.653,1.168,0.839,2.454,0.609,3.606c-0.228,1.149-0.872,2.166-1.89,2.764
				c-1.02,0.599-2.223,0.663-3.347,0.269c-1.123-0.395-2.165-1.25-2.842-2.462c-0.678-1.211-0.86-2.546-0.609-3.709
				c0.252-1.164,0.937-2.158,1.981-2.712c1.043-0.555,2.246-0.57,3.346-0.163C62.944,361.631,63.942,362.463,64.595,363.63z"/>
			<path style="fill:#666666;" d="M82.621,345.292c0.854,1.665,0.249,3.714-1.387,4.597c-1.633,0.88-3.708,0.207-4.595-1.523
				c-0.889-1.729-0.23-3.807,1.438-4.622C79.746,342.927,81.765,343.627,82.621,345.292z"/>
			<path style="fill:#666666;" d="M72.165,361.698c0.732,1.281,0.396,2.868-0.767,3.555c-1.163,0.687-2.729,0.186-3.48-1.13
				c-0.751-1.314-0.386-2.918,0.795-3.57C69.896,359.898,71.432,360.416,72.165,361.698z"/>
			<path style="fill:#666666;" d="M108.77,366.492c1.002,1.361,0.692,3.323-0.717,4.4c-1.408,1.076-3.414,0.817-4.455-0.599
				c-1.041-1.416-0.691-3.406,0.756-4.431C105.802,364.84,107.769,365.129,108.77,366.492z"/>
			<path style="fill:#666666;" d="M113.593,390.168c1.208,1.32,1.163,3.363-0.124,4.583c-1.286,1.22-3.362,1.116-4.615-0.253
				s-1.167-3.447,0.162-4.618C110.347,388.707,112.384,388.848,113.593,390.168z"/>
			<path style="fill:#666666;" d="M78.088,369.96c1.015,1.604,0.682,3.667-0.775,4.628c-1.456,0.96-3.512,0.41-4.561-1.248
				c-1.052-1.657-0.668-3.751,0.821-4.656C75.064,367.776,77.07,368.356,78.088,369.96z"/>
			<path style="fill:#666666;" d="M109.304,378.174c0.808,0.995,1.145,2.22,1.04,3.413c-0.107,1.192-0.654,2.353-1.641,3.193
				c-0.984,0.839-2.226,1.193-3.436,1.068c-1.211-0.121-2.393-0.722-3.238-1.763c-0.847-1.041-1.191-2.32-1.064-3.531
				c0.126-1.21,0.729-2.352,1.751-3.144c1.024-0.793,2.272-1.092,3.462-0.951C107.367,376.6,108.496,377.18,109.304,378.174z"/>
			<path style="fill:#666666;" d="M37.298,199.631L37.298,199.631L37.298,199.631z"/>
			<path style="fill:#666666;" d="M90.186,160.136c-6.706,12.779-11.992,26.292-15.73,40.221c-0.643,2.393-1.598,4.632-2.813,6.69
				c-1.216,2.06-2.693,3.936-4.378,5.604c-3.369,3.327-7.582,5.855-12.275,7.151c-3.117,0.854-6.445,1.148-9.798,0.682l0,0
				l-0.007-0.001h-0.001l-0.028-0.004l-0.201-0.028l-0.009-0.004c-2.444-0.367-4.768-1.123-6.894-2.24h0.001
				c-2.188-1.148-4.163-2.675-5.863-4.522l-0.001,0c-3.398-3.686-5.696-8.685-6.39-14.343c-0.463-3.755-0.208-7.79,0.857-11.774
				l0.008-0.033l0.001-0.001l0.001-0.006l0.002-0.009l0.002-0.007l0,0l0-0.003l0.005-0.018c1.073-3.984,2.875-7.607,5.158-10.627
				h-0.001c2.29-3.032,5.054-5.459,8.056-7.176l1.825-1.031l0.096,0.262c0.347-0.084,0.693-0.143,1.035-0.17
				c0.981-0.082,1.935,0.06,2.814,0.39c0.879,0.332,1.683,0.858,2.365,1.552c0.683,0.695,1.244,1.558,1.636,2.554
				c0.397,1.009,0.589,2.081,0.596,3.143c0.008,1.063-0.168,2.115-0.501,3.112c-0.334,0.998-0.833,1.938-1.479,2.772
				c-0.645,0.833-1.438,1.559-2.351,2.118c-1.175,0.718-2.236,1.69-3.101,2.86l0.001-0.002c-0.866,1.176-1.538,2.532-1.957,4.091
				c-0.313,1.168-0.445,2.309-0.426,3.42c0.02,1.11,0.196,2.187,0.511,3.2l0,0c0.628,2.026,1.826,3.782,3.392,4.986
				c1.053,0.81,2.255,1.382,3.633,1.681c1.033,0.222,2.038,0.262,3.024,0.155h-0.001c0.982-0.108,1.94-0.367,2.85-0.756h0.001
				c1.818-0.776,3.438-2.078,4.621-3.716c0.795-1.101,1.4-2.342,1.784-3.765l0,0c4.018-14.976,9.703-29.504,16.909-43.238
				c0.368-0.701,0.832-1.328,1.365-1.861c0.531-0.535,1.131-0.978,1.772-1.321c1.282-0.686,2.73-0.972,4.162-0.817
				c0.955,0.103,1.902,0.404,2.778,0.906c0.657,0.376,1.238,0.843,1.733,1.372c0.494,0.529,0.904,1.122,1.223,1.751
				c0.635,1.258,0.915,2.667,0.791,4.068C90.905,158.335,90.642,159.266,90.186,160.136z M67.545,206.357
				c0.273-0.402,0.535-0.813,0.784-1.235c1.044-1.764,1.867-3.692,2.422-5.759l0.299-1.104l-1.957,0.617
				c-0.684,0.248-1.374,0.472-2.062,0.651c-1.352,0.356-2.702,0.56-4.021,0.612c-0.419,0.895-0.913,1.735-1.476,2.515
				c-0.65,0.903-1.394,1.728-2.21,2.464c1.222,0.498,2.536,0.856,3.916,1.064C64.62,206.392,66.064,206.449,67.545,206.357z
				 M72.392,193.598c0.727-2.412,1.497-4.81,2.314-7.192c-2.704,0.657-5.408,1.369-8.112,2.138c-0.79,2.485-1.532,4.985-2.227,7.498
				c1.336-0.434,2.673-0.856,4.011-1.264C69.715,194.371,71.053,193.977,72.392,193.598z M76.334,181.837
				c0.874-2.362,1.793-4.708,2.756-7.036c-2.738,0.488-5.483,1.031-8.229,1.63c-0.943,2.432-1.839,4.881-2.689,7.347
				C70.895,183.075,73.615,182.428,76.334,181.837z M42.069,206.505c-0.382-0.286-0.749-0.596-1.098-0.926
				c-0.332,1.45-0.512,2.976-0.515,4.542c-0.005,1.564,0.17,3.166,0.522,4.759c1.504,0.687,3.113,1.174,4.798,1.443l0.003,0
				l0.006,0.001c1.383,0.222,2.764,0.287,4.124,0.218c-0.94-1.21-1.717-2.506-2.322-3.852c-0.605-1.346-1.042-2.742-1.307-4.147
				C44.728,208.129,43.313,207.435,42.069,206.505z M33.075,193.459c1.249-0.871,2.539-1.541,3.832-2.022
				c0.073-0.364,0.157-0.728,0.255-1.092v0c0.535-1.991,1.389-3.792,2.473-5.343c-1.303-0.218-2.675-0.265-4.09-0.112
				c-1.417,0.15-2.874,0.5-4.341,1.056c-0.314,0.826-0.591,1.676-0.825,2.548l-0.003,0.01l-0.009,0.032
				c-0.733,2.731-1.01,5.486-0.876,8.119C30.619,195.397,31.826,194.328,33.075,193.459z M30.361,188.553 M34.922,210.416
				L34.922,210.416c0.353,0.39,0.718,0.765,1.097,1.122c0.09-1.694,0.352-3.335,0.769-4.878c0.417-1.545,0.986-2.995,1.68-4.315
				c-0.472-0.848-0.866-1.755-1.169-2.713c-0.373-1.178-0.608-2.426-0.694-3.715c-1.135,0.879-2.213,1.941-3.199,3.176
				c-0.985,1.233-1.876,2.639-2.641,4.188C31.704,205.995,33.125,208.417,34.922,210.416z M45.183,220.483L45.183,220.483
				L45.183,220.483z M63.647,210.773c-1.453-0.286-2.831-0.717-4.105-1.287c-1.277-0.567-2.45-1.274-3.496-2.096
				c-0.268,0.138-0.539,0.269-0.814,0.389h0c-1.244,0.549-2.565,0.926-3.925,1.099h-0.001c-0.381,0.048-0.765,0.078-1.152,0.093
				c0.612,1.239,1.389,2.418,2.32,3.502c0.931,1.084,2.014,2.071,3.231,2.94C58.649,214.406,61.343,212.808,63.647,210.773z"/>
			<path style="fill:#666666;" d="M509.711,270.814c-2.59,1.047-5.004,2.506-7.12,4.152c-2.114,1.647-3.933,3.485-5.323,5.33
				c-2.775,3.688-3.858,7.412-2.016,9.894c1.243,1.676-0.236,2.519-2.127,2.295c-3.218-0.371-7.477,0-11.717,1.005
				c-4.242,1.01-8.463,2.638-11.641,4.904l-0.256-0.058c-1.563-0.325-3.127-0.13-4.543,0.453l-1.24-1.86
				c0.616-0.354,1.008-0.592,1.008-0.592c1.594-1.336,2.86-3.067,3.823-4.96c0.962-1.892,1.618-3.943,2.013-5.913
				c0.789-3.946,0.512-7.545-0.258-9.005c-1.283-2.438-0.436-2.66,1.617-3.307c3.413-1.063,6.5-3.956,8.428-7.393
				c1.936-3.426,2.7-7.371,1.664-10.274c-0.881-2.472-1.82-3.68,1.701-3.773c2.289-0.057,5.385-0.512,8.445-1.555
				c3.061-1.042,6.086-2.681,8.207-5.083c1.857-2.111,2.91-2.443,3.441-1.747c0.529,0.694,0.521,2.405,0.205,4.292
				c-0.467,4.152,0.104,7.055,1.31,9.889c1.202,2.831,3.034,5.579,4.944,9.391C511.453,269.267,511.387,270.139,509.711,270.814z"/>
			<path style="fill:#666666;" d="M463.729,296.93c-0.398,0.227-0.896,0.506-1.439,0.802c-1.082-1.069-2.453-1.826-4.011-2.146
				c-0.22-0.046-0.438-0.081-0.657-0.11c-2.033-3.09-5.287-5.802-8.785-7.876c-3.496-2.079-7.232-3.532-10.232-4.218
				c-1.854-0.429-3-1.454-1.343-2.29c2.464-1.243,2.446-4.385,0.538-7.711c-0.953-1.663-2.377-3.368-4.167-4.917
				c-1.792-1.549-3.952-2.941-6.37-4.015c-1.563-0.697-1.506-1.263-0.063-2.729c2.322-2.371,4.361-4.176,5.727-6.147
				c1.359-1.969,2.047-4.122,1.553-7.171c-0.328-1.384-0.393-2.625,0.111-3.152c0.502-0.523,1.578-0.344,3.494,1.208
				c2.18,1.77,5.197,3.068,8.246,3.965c3.051,0.896,6.133,1.381,8.42,1.496c3.512,0.172,2.563,1.26,1.555,3.412
				c-1.182,2.526-0.76,6.001,0.686,9.328c1.447,3.32,3.916,6.519,7.025,8.263c1.867,1.042,2.656,1.483,0.832,3.491
				c-1.09,1.203-2.383,4.567-2.94,8.447c-0.55,3.888-0.386,8.312,1.698,11.874L463.729,296.93z"/>
			<path style="fill:#666666;" d="M461.285,305.798c0.465-1.853,1.552-3.367,2.953-4.345c1.4-0.975,3.118-1.41,4.831-1.038
				c1.712,0.374,3.093,1.495,3.921,3.032c0.828,1.535,1.1,3.484,0.607,5.446c-0.492,1.961-1.654,3.55-3.111,4.509
				c-1.455,0.965-3.203,1.3-4.889,0.816c-1.686-0.48-2.992-1.678-3.766-3.198C461.061,309.498,460.82,307.647,461.285,305.798z"/>
			<path style="fill:#666666;" d="M462.756,306.166c-0.498,1.979-1.705,3.572-3.23,4.522c-1.529,0.951-3.369,1.263-5.154,0.748
				s-3.182-1.743-4.015-3.286c-0.835-1.547-1.116-3.41-0.647-5.265c0.467-1.854,1.594-3.366,3.059-4.333
				c1.469-0.965,3.277-1.388,5.093-0.996c1.816,0.392,3.292,1.536,4.187,3.098C462.941,302.214,463.252,304.188,462.756,306.166z
				 M456.818,302.543c0.242-1.004-0.334-1.995-1.277-2.213s-1.893,0.406-2.129,1.389c-0.238,0.984,0.32,1.972,1.261,2.209
				C455.611,304.164,456.576,303.545,456.818,302.543z"/>
			<path style="fill:#666666;" d="M431.538,63.706c-0.88,2.651-1.333,5.433-1.45,8.113c-0.115,2.677,0.107,5.252,0.609,7.507
				c1.011,4.503,3.145,7.737,6.229,7.94c2.08,0.136,1.764,1.809,0.369,3.104c-2.364,2.21-4.844,5.697-6.822,9.578
				c-1.979,3.886-3.473,8.155-3.803,12.044l-0.209,0.158c-1.261,0.981-2.123,2.299-2.596,3.754l-2.221-0.259
				c0.13-0.698,0.2-1.149,0.2-1.149c0.033-4.165-2.007-8.339-4.507-11.487c-2.493-3.157-5.414-5.277-7.022-5.638
				c-2.691-0.602-2.312-1.39-1.472-3.373c1.4-3.29,1.197-7.514-0.171-11.209c-1.358-3.695-3.869-6.835-6.754-7.927
				c-2.456-0.932-3.983-0.999-1.776-3.74c1.438-1.783,3.097-4.437,4.28-7.446c1.185-3.007,1.894-6.378,1.433-9.551
				c-0.408-2.783,0.018-3.803,0.894-3.755c0.871,0.046,2.173,1.162,3.411,2.625c2.868,3.049,5.454,4.499,8.397,5.417
				c2.938,0.923,6.224,1.307,10.364,2.324C431.488,61.374,432.109,61.989,431.538,63.706z"/>
			<path style="fill:#666666;" d="M421.645,115.645c-0.084,0.453-0.193,1.01-0.32,1.618c-1.516,0.133-2.979,0.687-4.233,1.667
				c-0.176,0.137-0.346,0.282-0.509,0.429c-3.672-0.451-7.847,0.273-11.692,1.593c-3.85,1.318-7.375,3.222-9.842,5.063
				c-1.529,1.136-3.052,1.345-2.615-0.461c0.647-2.685-1.76-4.708-5.532-5.409c-1.885-0.353-4.104-0.375-6.445-0.014
				c-2.341,0.361-4.802,1.104-7.184,2.25c-1.545,0.742-1.938,0.331-2.118-1.716c-0.301-3.303-0.351-6.025-0.966-8.337
				c-0.618-2.31-1.809-4.222-4.447-5.815c-1.263-0.644-2.25-1.397-2.325-2.121c-0.074-0.721,0.759-1.426,3.179-1.885
				c2.759-0.518,5.699-1.979,8.355-3.723c2.656-1.746,5.021-3.78,6.59-5.451c2.404-2.563,2.617-1.136,3.604,1.023
				c1.159,2.536,4.078,4.461,7.548,5.519c3.466,1.047,7.503,1.239,10.845,0.002c2.005-0.748,2.851-1.063,3.2,1.626
				c0.209,1.611,1.937,4.773,4.529,7.713c2.606,2.938,6.087,5.678,10.15,6.396L421.645,115.645z"/>
			<path style="fill:#666666;" d="M426.824,123.249c-1.11-1.555-1.563-3.363-1.401-5.064c0.162-1.698,0.941-3.287,2.335-4.352
				c1.393-1.064,3.143-1.393,4.85-1.029c1.706,0.362,3.367,1.415,4.543,3.06c1.176,1.644,1.635,3.557,1.426,5.288
				c-0.209,1.734-1.084,3.283-2.541,4.257c-1.457,0.974-3.215,1.197-4.874,0.802C429.5,125.814,427.936,124.8,426.824,123.249z"/>
			<path style="fill:#666666;" d="M428.057,122.366c1.187,1.659,1.619,3.61,1.357,5.389c-0.262,1.781-1.215,3.387-2.762,4.415
				s-3.385,1.298-5.104,0.935c-1.718-0.363-3.32-1.356-4.434-2.914c-1.114-1.557-1.537-3.394-1.324-5.14
				c0.212-1.742,1.063-3.396,2.536-4.526c1.473-1.131,3.301-1.515,5.07-1.186C425.164,119.665,426.871,120.707,428.057,122.366z
				 M421.452,124.546c-0.608-0.833-1.738-1.035-2.514-0.458c-0.777,0.579-0.915,1.706-0.319,2.524
				c0.597,0.818,1.713,1.029,2.501,0.466C421.907,126.518,422.059,125.38,421.452,124.546z"/>
			<path style="fill:#666666;" d="M381.117,478.518c-2.34-1.529-4.916-2.68-7.477-3.477s-5.108-1.242-7.418-1.332
				c-4.613-0.176-8.293,1.057-9.282,3.985c-0.667,1.976-2.204,1.243-3.097-0.438c-1.53-2.855-4.264-6.143-7.506-9.055
				c-3.247-2.91-6.99-5.449-10.665-6.77l-0.099-0.242c-0.623-1.469-1.676-2.645-2.96-3.475l0.821-2.08
				c0.642,0.305,1.059,0.49,1.059,0.49c4.017,1.102,8.578,0.205,12.262-1.402c3.692-1.602,6.49-3.881,7.252-5.343
				c1.271-2.446,1.936-1.877,3.638-0.56c2.821,2.197,6.957,3.084,10.882,2.707c3.921-0.366,7.6-1.994,9.393-4.502
				c1.529-2.136,1.984-3.598,4.071-0.761c1.354,1.846,3.497,4.126,6.103,6.042s5.682,3.462,8.867,3.825
				c2.797,0.317,3.674,0.991,3.403,1.826c-0.267,0.829-1.679,1.804-3.41,2.626c-3.682,1.994-5.747,4.124-7.39,6.735
				c-1.645,2.604-2.856,5.684-4.904,9.429C383.383,479.066,382.628,479.508,381.117,478.518z"/>
			<path style="fill:#666666;" d="M333.436,455.635c-0.414-0.197-0.926-0.447-1.479-0.726c0.261-1.499,0.103-3.056-0.522-4.519
				c-0.088-0.207-0.185-0.406-0.285-0.603c1.38-3.433,1.754-7.653,1.465-11.708c-0.286-4.058-1.221-7.954-2.367-10.811
				c-0.706-1.77-0.518-3.293,1.114-2.408c2.426,1.315,4.996-0.488,6.639-3.953c0.821-1.73,1.411-3.87,1.659-6.225
				c0.25-2.354,0.16-4.923-0.339-7.518c-0.32-1.682,0.175-1.957,2.199-1.605c3.265,0.557,5.908,1.205,8.301,1.204
				c2.388-0.007,4.541-0.667,6.755-2.81c0.944-1.058,1.926-1.818,2.645-1.706c0.715,0.112,1.185,1.1,1.01,3.556
				c-0.205,2.799,0.457,6.015,1.463,9.029c1.009,3.013,2.371,5.821,3.586,7.764c1.862,2.98,0.429,2.822-1.912,3.223
				c-2.746,0.471-5.354,2.8-7.265,5.882c-1.898,3.082-3.116,6.933-2.777,10.481c0.209,2.13,0.296,3.029-2.393,2.676
				c-1.611-0.211-5.108,0.647-8.616,2.399c-3.508,1.763-7.049,4.422-8.788,8.163L333.436,455.635z"/>
			<path style="fill:#666666;" d="M324.756,458.682c1.788-0.672,3.651-0.645,5.252-0.05c1.6,0.596,2.936,1.758,3.606,3.378
				c0.669,1.619,0.536,3.395-0.255,4.95c-0.79,1.557-2.236,2.891-4.129,3.603c-1.893,0.713-3.859,0.664-5.479,0.016
				c-1.623-0.648-2.895-1.894-3.458-3.553c-0.565-1.66-0.328-3.415,0.481-4.916C321.588,460.605,322.97,459.354,324.756,458.682z"/>
			<path style="fill:#666666;" d="M325.29,460.102c-1.908,0.717-3.904,0.635-5.556-0.078c-1.653-0.713-2.959-2.049-3.553-3.809
				c-0.595-1.76-0.381-3.605,0.412-5.172c0.795-1.566,2.166-2.859,3.957-3.533c1.789-0.672,3.672-0.607,5.303,0.047
				c1.63,0.654,3.007,1.9,3.722,3.615c0.713,1.715,0.614,3.58-0.159,5.204C328.645,458,327.199,459.383,325.29,460.102z
				 M324.886,453.156c0.962-0.372,1.447-1.412,1.089-2.311c-0.359-0.898-1.411-1.323-2.355-0.957
				c-0.943,0.365-1.437,1.388-1.096,2.295C322.864,453.089,323.923,453.529,324.886,453.156z"/>
			<path style="fill:#666666;" d="M410.62,404.12c1.608-1.723,2.666-5.168,2.381-9.802c-0.282-4.634-1.926-10.438-5.592-16.826
				c-1.786-2.181-3.399-3.428-4.645-4.275c-1.246-0.846-2.129-1.289-2.489-1.819c-0.721-1.06,0.549-2.039,2.855-0.028
				c1.154,1.01,2.145,1.142,2.559,0.512c0.413-0.629,0.242-2.016-0.955-3.998c-2.399-3.96-3.131-5.394-2.907-6.412
				c0.218-1.008,1.819-1.527,3.108,0.543c1.283,2.076,3.371,6.192,5.054,10.758c1.663,4.58,2.226,0.104,3.131-1.519
				c0.459-0.81,1.176-1.121,1.67-0.803c0.491,0.317,0.763,1.267,0.278,2.978c-0.486,1.711-1.074,2.582-1.37,3.57
				c-0.298,0.99-0.309,2.096,0.296,4.311c0.6,2.217,1.142,3.748,1.621,5.469c0.477,1.726,0.898,3.642,1.154,6.677
				c0.119,0.969,0.483,1.169,1.18,0.693c0.695-0.475,1.72-1.628,3.117-3.377c1.399-1.752,1.179-3.557,0.444-5.024
				c-0.733-1.471-1.976-2.617-2.622-3.111c-1.291-0.988,0.13-2.877,1.73-1.961c1.6,0.922,3.996,2.143,4.027,1.064
				c0.016-0.536,0.242-3.182,0.057-6.033c-0.178-2.854-0.779-5.901-2.159-7.322c-1.378-1.425-2.996-2.302-4.361-2.872
				c-1.367-0.567-2.481-0.824-2.878-0.967c-0.394-0.144-0.646-1.046-0.354-1.671s1.132-0.979,2.951-0.041
				c1.817,0.943,2.773,0.318,2.979-1.054c0.205-1.371-0.348-3.477-1.512-5.486c-1.162-2.011-1.276-3.812-0.905-4.807
				c0.373-0.991,1.244-1.186,2.043,0.085c0.797,1.271,2.061,3.762,3.268,6.642c1.213,2.877,2.357,6.147,3.025,8.876
				c0.334,1.364,0.619,3.098,0.864,4.904c0.247,1.806,0.454,3.686,0.661,5.331c0.412,3.287,0.847,5.64,1.787,4.501
				c0.938-1.132,3.631-4.971,6.19-9.03c1.286-2.026,2.542-4.104,3.589-5.888c1.047-1.782,1.887-3.268,2.361-4.103
				c0.955-1.663,2.08-5.581,2.117-9.791c0.022-2.104-0.221-4.277-0.85-6.269c-0.629-1.992-1.637-3.799-3.123-5.196
				c-1.527-1.304-1.553-2.71-0.867-3.42c0.683-0.709,2.088-0.737,3.404,0.797c2.931,3.437,2.818,5.12,2.822,5.114l0.064-1.906
				c0.037-1.009,0.09-2.122,0.17-2.563c0.168-0.878,1.613-2.168,1.945,0.137c0.162,1.153,0.041,2.675-0.121,4.128
				c-0.162,1.451-0.365,2.834-0.335,3.716c0.029,0.88-0.006,2.356,0.011,3.464c0.019,1.107,0.104,1.846,0.406,1.241
				c0.303-0.606,1.744-3.482,3.25-6.767c1.516-3.279,3.08-6.971,3.928-9.063c0.848-2.09,2.199-2.775,3.1-2.274
				c0.896,0.501,1.335,2.213,0.238,4.875c-0.523,1.275-1.42,3.393-2.309,5.389c-0.886,1.996-1.758,3.871-2.15,4.704
				c-0.395,0.829,0.72,0.154,2.137-0.785c1.418-0.937,3.131-2.149,3.973-2.291c0.842-0.14,1.379,0.288,1.406,0.913
				c0.029,0.625-0.451,1.45-1.633,2.074s-3.172,1.767-5.115,3.206c-1.943,1.445-3.844,3.184-4.854,5.119
				c-1.01,1.938-2.275,4.388-3.319,6.341c-1.04,1.955-1.843,3.418-1.843,3.418c-1.045,1.786-1.994,2.562-0.177,2.305
				c0.907-0.131,2.36-0.478,4.462-1.057c2.1-0.58,4.85-1.39,8.352-2.498c3.501-1.11,6.166-1.94,8.145-2.449
				c1.979-0.513,3.27-0.707,4.02-0.611c0.75,0.095,1.342,0.739,1.274,1.552c-0.067,0.811-0.792,1.795-2.665,2.518
				c-3.742,1.445-7.662,1.795-6.709,2.6c0.951,0.805,2.918,1.888,3.266,2.938c0.354,1.053,0.121,3.525-2.111,1.678
				c-0.793-0.656-2.028-1.781-3.479-2.585c-1.449-0.806-3.106-1.29-4.736-0.702c-1.631,0.589-4.969,1.337-8.135,2.249
				c-3.168,0.922-6.164,2.008-7.168,3.548c-1.004,1.545-2.41,3.65-3.74,5.565c-1.327,1.916-2.574,3.642-3.186,4.477
				c-0.612,0.834,1.027,0.694,3.303,0.249c2.277-0.44,5.189-1.212,7.105-1.49c0.992-0.186,2.254-1.136,3.422-2.303
				c1.17-1.166,2.24-2.548,2.883-3.562c1.279-2.024,3.693-1.678,2.412,0.381c-1.285,2.057-3.322,4.777-3.324,4.773
				c0,0,2.573-0.466,5.615-0.969c3.045-0.494,6.557-1.052,8.412-0.962c1.852,0.091,2.59,0.824,2.246,1.624
				c-0.344,0.798-1.772,1.656-4.211,1.922c-3.434,0.377-7.107,0.961-10.756,1.672c-3.648,0.713-7.271,1.551-10.609,2.487
				c-6.678,1.887-12.217,4.134-14.635,7.063c-1.906,2.312-3.614,4.298-5.284,6.187c-1.671,1.885-3.303,3.674-5.084,5.559
				c-1.779,1.883-3.579,3.753-5.183,4.895c-1.604,1.145-2.993,1.563-3.947,0.572c-0.957-0.99-0.753-2.244,0.359-3.938
				C405.957,409.104,407.978,406.958,410.62,404.12z"/>
			<path style="fill:#666666;" d="M434.428,356.357c-0.611,1.094-1.592,1.84-2.67,2.156c-1.078,0.317-2.254,0.206-3.273-0.393
				s-1.691-1.566-1.963-2.64c-0.275-1.074-0.15-2.253,0.436-3.301s1.525-1.771,2.584-2.1c1.057-0.329,2.234-0.264,3.277,0.291
				c1.043,0.554,1.754,1.497,2.048,2.584C435.16,354.04,435.039,355.266,434.428,356.357z"/>
			<path style="fill:#666666;" d="M459.836,360.927c-1.002,1.954-3.173,2.808-4.807,1.927c-1.635-0.881-2.143-3.111-1.175-5
				c0.972-1.889,3.081-2.773,4.749-1.957C460.271,356.711,460.842,358.973,459.836,360.927z"/>
			<path style="fill:#666666;" d="M440.02,361.787c-0.736,1.288-2.287,1.767-3.451,1.08c-1.162-0.686-1.512-2.251-0.795-3.506
				c0.717-1.254,2.24-1.75,3.422-1.097C440.379,358.918,440.756,360.5,440.02,361.787z"/>
			<path style="fill:#666666;" d="M448.715,399.918c-1.299,1.766-3.52,2.306-4.928,1.229c-1.406-1.076-1.502-3.319-0.244-5.033
				c1.26-1.713,3.43-2.29,4.877-1.267C449.869,395.871,450.013,398.151,448.715,399.918z"/>
			<path style="fill:#666666;" d="M423.387,412.975c-1.413,1.545-3.622,1.787-4.908,0.567c-1.285-1.22-1.199-3.402,0.17-4.899
				c1.37-1.495,3.534-1.779,4.866-0.607C424.844,409.205,424.799,411.43,423.387,412.975z"/>
			<path style="fill:#666666;" d="M435.471,370.928c-1.029,1.625-3.07,2.149-4.525,1.189c-1.457-0.961-1.809-2.999-0.813-4.569
				c0.997-1.57,2.987-2.125,4.479-1.217C436.101,367.236,436.502,369.303,435.471,370.928z"/>
			<path style="fill:#666666;" d="M436.076,405.273c-0.98,1.207-2.285,1.956-3.586,2.186c-1.301,0.23-2.598-0.06-3.582-0.896
				c-0.986-0.842-1.478-2.067-1.494-3.368c-0.018-1.301,0.445-2.672,1.387-3.831c0.941-1.161,2.191-1.893,3.467-2.144
				c1.277-0.25,2.578-0.021,3.602,0.774c1.023,0.791,1.57,2.002,1.611,3.321C437.521,402.636,437.057,404.066,436.076,405.273z"/>
			<path style="fill:#666666;" d="M452.307,204.735L452.307,204.735L452.307,204.735z"/>
			<path style="fill:#666666;" d="M465.676,137.146c8.393,15.993,15.018,32.924,19.701,50.377c0.805,2.999,1.154,6.027,1.078,8.942
				c-0.072,2.917-0.566,5.715-1.42,8.29c-1.706,5.152-4.852,9.395-8.93,12.178c-2.709,1.855-5.832,3.064-9.182,3.539l0,0
				l-0.008,0.002h-0.001l-0.028,0.004l-0.201,0.028l-0.01,0c-2.451,0.322-4.889,0.24-7.239-0.17h0.001
				c-2.418-0.423-4.736-1.189-6.902-2.225v-0.001c-4.334-2.077-8.064-5.204-10.834-9.067c-1.84-2.572-3.248-5.479-4.105-8.656
				l-0.008-0.025v-0.002l-0.002-0.004v-0.006l-0.002-0.007l0,0l-0.002-0.002l-0.002-0.014c-0.852-3.181-1.088-6.404-0.785-9.552l0,0
				c0.307-3.156,1.153-6.235,2.48-9.119l0.799-1.756l0.234,0.109c0.217-0.264,0.449-0.513,0.697-0.742
				c0.705-0.654,1.523-1.156,2.402-1.487c0.879-0.331,1.822-0.484,2.781-0.439c0.959,0.046,1.934,0.292,2.855,0.756
				c0.938,0.47,1.75,1.13,2.402,1.91c0.652,0.779,1.146,1.678,1.465,2.631c0.321,0.954,0.46,1.965,0.404,2.974
				c-0.057,1.006-0.311,2.01-0.769,2.936c-0.589,1.193-0.966,2.499-1.101,3.843v-0.001c-0.137,1.351-0.039,2.728,0.34,4.152
				c0.288,1.066,0.699,2.029,1.225,2.912c0.523,0.881,1.156,1.676,1.881,2.373l0,0c1.443,1.392,3.254,2.384,5.178,2.794
				c1.287,0.273,2.619,0.297,3.997,0.002c1.032-0.223,1.966-0.601,2.814-1.117h-0.001c0.848-0.516,1.604-1.17,2.254-1.94h0.001
				c1.3-1.537,2.153-3.545,2.396-5.709c0.16-1.452,0.063-2.96-0.355-4.521v0.001c-4.402-16.406-10.631-32.321-18.521-47.36
				c-0.402-0.768-0.697-1.565-0.883-2.367c-0.186-0.8-0.266-1.604-0.245-2.386c0.042-1.564,0.489-3.05,1.315-4.271
				c0.551-0.814,1.273-1.506,2.15-2.007c0.656-0.376,1.364-0.623,2.092-0.743c0.73-0.12,1.479-0.112,2.225,0.014
				c1.488,0.254,2.961,0.986,4.217,2.13C464.363,135.109,465.105,136.056,465.676,137.146z M482.479,197.678
				c0.051-0.567,0.086-1.14,0.1-1.718c0.057-2.424-0.234-4.943-0.906-7.442l-0.363-1.335l-1.316,1.736
				c-0.447,0.633-0.917,1.239-1.412,1.791c-0.975,1.088-2.04,1.994-3.162,2.718c0.093,1.11,0.074,2.202-0.049,3.258
				c-0.139,1.224-0.42,2.402-0.82,3.513c1.322-0.053,2.668-0.277,4-0.693C479.881,199.09,481.203,198.484,482.479,197.678z
				 M479.688,181.544c-0.879-2.918-1.812-5.819-2.8-8.7c-1.63,2.474-3.296,4.905-4.997,7.292c0.895,2.819,1.738,5.655,2.526,8.506
				c0.895-1.161,1.782-2.332,2.661-3.515C477.955,183.945,478.826,182.75,479.688,181.544z M474.918,167.318
				c-1.057-2.857-2.168-5.693-3.334-8.508c-1.473,2.57-2.986,5.1-4.534,7.588c1.067,2.756,2.086,5.536,3.051,8.332
				C471.742,172.303,473.35,169.831,474.918,167.318z M459.391,208.636c-0.463-0.106-0.918-0.237-1.365-0.388
				c0.244,1.378,0.635,2.769,1.173,4.149c0.538,1.378,1.226,2.747,2.057,4.08c1.64,0.155,3.321,0.115,5.006-0.155h0.003l0.004-0.001
				c1.385-0.221,2.717-0.591,3.982-1.097c-1.279-0.89-2.443-1.881-3.477-2.949c-1.037-1.067-1.945-2.208-2.719-3.399
				C462.461,209.078,460.889,208.979,459.391,208.636z M445.893,201.731c0.732-1.195,1.564-2.284,2.478-3.249
				c-0.104-0.311-0.2-0.625-0.286-0.946v-0.001c-0.472-1.756-0.623-3.507-0.502-5.206c-1.217,0.507-2.406,1.171-3.541,1.985
				c-1.137,0.811-2.218,1.771-3.225,2.854c0.121,0.723,0.275,1.446,0.469,2.166l0.002,0.009l0.008,0.028
				c0.605,2.257,1.535,4.35,2.723,6.248C444.53,204.23,445.158,202.926,445.893,201.731z M441.299,199.386 M454.102,214.515
				L454.102,214.515c0.459,0.213,0.926,0.411,1.399,0.593c-0.464-1.475-0.778-2.946-0.948-4.39c-0.17-1.445-0.195-2.864-0.085-4.235
				c-0.767-0.516-1.493-1.1-2.161-1.748c-0.822-0.798-1.559-1.689-2.193-2.662c-0.635,1.181-1.16,2.46-1.559,3.818
				c-0.398,1.356-0.674,2.791-0.814,4.28C449.604,211.947,451.752,213.422,454.102,214.515z M466.916,220.472L466.916,220.472
				L466.916,220.472z M480.934,204.2c-1.449,0.301-2.891,0.415-4.293,0.356c-1.406-0.057-2.77-0.287-4.069-0.663
				c-0.187,0.249-0.378,0.491-0.579,0.725v-0.001c-0.912,1.057-1.977,1.949-3.164,2.646l0,0c-0.332,0.196-0.676,0.373-1.027,0.538
				c1.045,0.942,2.203,1.794,3.468,2.526c1.263,0.733,2.63,1.345,4.077,1.815C477.76,210.079,479.68,207.362,480.934,204.2z"/>
		</g>
		<path style="fill:#666666;" d="M274.772,52.446l44.165,13.803c0,0,4.153-66.25,0-66.25c-4.154,0-60.039,17.995-60.039,17.995
			h-5.796c0,0-55.885-17.995-60.04-17.995c-4.153,0,0,66.25,0,66.25l44.167-13.803c0,0-16.563,20.704-45.546,35.886
			c8.308,11.423,22.997,22.083,22.997,22.083s20.275-8.39,41.32-40.083c21.045,31.694,41.32,40.083,41.32,40.083
			s14.69-10.66,22.997-22.083C291.334,73.15,274.772,52.446,274.772,52.446z"/>
		<g>
			<path style="fill:#666666;" d="M288.729,486.219c-2.137-3.049-3.973-5.845-5.451-9.145c-1.48-3.299-2.627-7.133-3.297-12.33
				c-0.494-3.82-1.383-7.206-2.672-10.162c-0.965-2.215-2.158-4.184-3.577-5.89c-2.122-2.557-4.751-4.497-7.755-5.761
				c-1.066-0.453-2.171-0.817-3.322-1.102c0,0-0.001-0.002-0.002-0.002c0.513-1.012,0.808-2.16,0.805-3.365
				c0-1.023-0.207-2.012-0.586-2.904c-0.568-1.342-1.511-2.477-2.701-3.278c-1.186-0.804-2.634-1.278-4.169-1.276
				c-1.022,0-2.011,0.209-2.904,0.587c-1.342,0.567-2.475,1.512-3.279,2.7c-0.805,1.187-1.276,2.637-1.275,4.172
				c0,1.023,0.208,2.009,0.587,2.902c0.067,0.16,0.14,0.314,0.217,0.467c0,0-0.002,0.002-0.003,0.002
				c-0.787,0.193-1.559,0.426-2.305,0.697c-2.053,0.747-3.954,1.789-5.652,3.121c-2.549,2-4.633,4.645-6.192,7.843
				c-1.563,3.2-2.619,6.954-3.171,11.249c-0.674,5.197-1.819,9.031-3.3,12.33c-1.479,3.3-3.315,6.096-5.449,9.145
				c-1.485,2.119-2.159,4.488-2.159,6.721c0,1.146,0.178,2.262,0.515,3.304c0.507,1.56,1.375,2.973,2.618,4.038
				c0.622,0.533,1.334,0.973,2.125,1.275c0.789,0.305,1.653,0.468,2.539,0.468h16.043c0.111,1.118,0.392,2.195,0.814,3.196
				c0.846,1.993,2.251,3.686,4.019,4.885c1.771,1.191,3.922,1.897,6.215,1.895c1.523,0,2.99-0.31,4.321-0.873
				c1.995-0.846,3.688-2.249,4.887-4.021c0.997-1.475,1.649-3.215,1.837-5.081h16.041c1.186,0,2.32-0.294,3.302-0.815
				c0.741-0.389,1.394-0.898,1.954-1.486c0.836-0.887,1.47-1.941,1.892-3.092c0.429-1.152,0.65-2.404,0.65-3.691
				C290.886,490.707,290.211,488.338,288.729,486.219z M253.608,437.451c0.193-0.461,0.526-0.863,0.942-1.145
				c0.417-0.279,0.904-0.439,1.45-0.439c0.364,0,0.7,0.072,1.01,0.201c0.462,0.197,0.862,0.529,1.144,0.943
				c0.281,0.419,0.44,0.904,0.44,1.451c0,0.364-0.072,0.699-0.201,1.009c-0.195,0.462-0.528,0.863-0.944,1.145
				c-0.417,0.28-0.904,0.441-1.449,0.441c-0.365,0-0.701-0.073-1.01-0.203c-0.463-0.194-0.864-0.526-1.144-0.942
				c-0.28-0.418-0.44-0.904-0.442-1.449C253.404,438.098,253.477,437.761,253.608,437.451z M233.16,479.064
				c1.68-3.74,2.965-8.105,3.685-13.699c0.445-3.443,1.232-6.385,2.303-8.838c0.803-1.84,1.765-3.406,2.858-4.723
				c1.65-1.979,3.599-3.417,5.91-4.398c2.311-0.976,5.001-1.486,8.086-1.486c2.737,0,5.171,0.404,7.296,1.178
				c1.599,0.584,3.029,1.371,4.313,2.382c1.929,1.512,3.544,3.526,4.829,6.148c1.281,2.622,2.214,5.859,2.717,9.737
				c0.719,5.594,2.004,9.959,3.684,13.698c1.119,2.495,2.404,4.7,3.779,6.812h-53.235
				C230.759,483.764,232.042,481.559,233.16,479.064z M261.753,503.324c-0.472,1.117-1.268,2.076-2.265,2.75
				c-1,0.676-2.187,1.063-3.486,1.063c-0.869,0-1.685-0.175-2.432-0.491c-1.115-0.471-2.074-1.266-2.748-2.264
				c-0.473-0.7-0.809-1.496-0.966-2.357h12.283C262.059,502.478,261.927,502.912,261.753,503.324z M285.746,494.744
				c-0.265,0.817-0.695,1.453-1.155,1.842c-0.23,0.198-0.465,0.337-0.707,0.432c-0.247,0.094-0.5,0.145-0.796,0.145h-16.629h-5.46
				h-10.002h-5.46h-16.625c-0.396-0.003-0.716-0.09-1.035-0.252c-0.237-0.126-0.474-0.303-0.695-0.54
				c-0.334-0.351-0.642-0.837-0.857-1.426c-0.218-0.588-0.347-1.275-0.347-2.005c0.002-1.156,0.312-2.4,1.056-3.591h57.935
				c0.741,1.188,1.053,2.435,1.054,3.591C286.022,493.586,285.923,494.203,285.746,494.744z"/>
		</g>
	</g>
</g>
</svg>
